<svg xmlns="http://www.w3.org/2000/svg" xmlns:xlink="http://www.w3.org/1999/xlink" width="500" zoomAndPan="magnify" viewBox="0 0 375 374.999991" height="500" preserveAspectRatio="xMidYMid meet" version="1.0"><defs><g/><clipPath id="6f5c61d78e"><path d="M 175 32.375 L 207 32.375 L 207 64 L 175 64 Z M 175 32.375 " clip-rule="nonzero"/></clipPath><clipPath id="c8b3e8608b"><path d="M 80 58 L 347 58 L 347 337.601562 L 80 337.601562 Z M 80 58 " clip-rule="nonzero"/></clipPath><clipPath id="a462ec2cd3"><path d="M 73 211 L 356.640625 211 L 356.640625 289 L 73 289 Z M 73 211 " clip-rule="nonzero"/></clipPath><clipPath id="55919a63b8"><path d="M 70.140625 271 L 356.640625 271 L 356.640625 293 L 70.140625 293 Z M 70.140625 271 " clip-rule="nonzero"/></clipPath></defs><g clip-path="url(#6f5c61d78e)"><path fill="#ff6600" d="M 206.652344 48.03125 C 206.664062 49.023438 206.578125 50.03125 206.390625 51.042969 C 206.195312 51.195312 205.878906 51.445312 205.472656 51.792969 C 205.515625 51 205.503906 50.222656 205.441406 49.460938 C 205.96875 48.90625 206.367188 48.410156 206.652344 48.03125 M 205.644531 42.753906 C 206.183594 44.171875 206.519531 45.679688 206.621094 47.226562 C 206.421875 47.53125 206.015625 48.105469 205.378906 48.820312 C 205.34375 48.539062 205.304688 48.257812 205.253906 47.980469 C 205.046875 46.773438 204.710938 45.605469 204.257812 44.5 C 204.992188 43.96875 205.410156 43.285156 205.644531 42.753906 Z M 186 33.679688 C 188.640625 32.734375 191.574219 32.496094 194.511719 33.144531 C 199.546875 34.25 203.464844 37.695312 205.375 42.085938 C 205.246094 42.515625 204.898438 43.382812 204.054688 44.027344 C 203.398438 42.5625 202.539062 41.207031 201.507812 39.992188 C 199.597656 37.746094 197.105469 35.976562 194.246094 34.882812 C 191.734375 33.921875 188.9375 33.480469 186 33.679688 Z M 176.050781 45.171875 C 176.066406 45.089844 176.085938 45.003906 176.101562 44.921875 C 177.15625 40.125 180.332031 36.34375 184.429688 34.34375 C 187.875 33.828125 191.167969 34.230469 194.070312 35.339844 C 196.855469 36.40625 199.28125 38.125 201.136719 40.304688 C 202.15625 41.507812 203.003906 42.847656 203.640625 44.300781 C 202.710938 44.832031 201.308594 45.085938 199.210938 44.53125 L 199.113281 44.507812 C 193.417969 43.007812 183.847656 40.492188 176.050781 45.171875 Z M 177.035156 54.425781 C 175.882812 51.796875 175.453125 48.828125 175.933594 45.816406 C 183.617188 40.9375 193.277344 43.476562 198.992188 44.980469 L 199.089844 45.003906 C 201.308594 45.585938 202.816406 45.328125 203.839844 44.765625 C 204.261719 45.8125 204.578125 46.917969 204.773438 48.0625 C 204.84375 48.46875 204.898438 48.878906 204.9375 49.292969 C 201.589844 52.746094 193.28125 58.449219 177.035156 54.425781 Z M 194.890625 63.246094 C 192.660156 63.792969 190.273438 63.855469 187.878906 63.332031 C 183.078125 62.273438 179.292969 59.09375 177.296875 54.992188 C 193.046875 58.773438 201.394531 53.457031 204.984375 49.929688 C 205.027344 50.6875 205.019531 51.460938 204.957031 52.246094 C 203.640625 53.425781 201.726562 55.339844 199.910156 57.910156 C 197.519531 61.292969 195.648438 62.742188 194.890625 63.246094 Z M 203.910156 57.027344 C 202.019531 59.757812 199.296875 61.800781 196.1875 62.867188 C 197.183594 62.019531 198.625 60.570312 200.308594 58.191406 C 201.925781 55.90625 203.617188 54.144531 204.878906 52.972656 C 204.714844 54.296875 204.398438 55.652344 203.910156 57.027344 Z M 206.234375 51.789062 C 205.941406 53.039062 205.5 54.214844 204.941406 55.308594 C 205.179688 54.351562 205.339844 53.410156 205.425781 52.480469 C 205.738281 52.203125 206.011719 51.972656 206.234375 51.789062 Z M 206.234375 51.789062 " fill-opacity="1" fill-rule="evenodd"/></g><g clip-path="url(#c8b3e8608b)"><path fill="#ff6600" d="M 195.867188 158.472656 C 195.867188 158.472656 190.203125 168.054688 188.972656 169.9375 C 187.742188 171.824219 187.585938 174.035156 187.597656 176.570312 C 187.609375 179.105469 187.753906 190.167969 187.445312 194.589844 C 187.445312 194.589844 189.867188 186.761719 190.917969 185.566406 C 191.96875 184.371094 195.449219 184.0625 195.8125 181.773438 C 196.179688 179.484375 198.214844 176.78125 197.710938 175 C 197.207031 173.21875 196.546875 171.015625 197.378906 169.085938 C 198.210938 167.15625 199.394531 165.671875 198.476562 164.855469 C 197.554688 164.039062 195.800781 160.796875 195.867188 158.472656 M 304.726562 337.3125 C 304.726562 337.3125 313.574219 336.15625 316.125 335.132812 C 318.675781 334.105469 319.414062 332.523438 321.269531 332.683594 C 323.125 332.847656 326.992188 333.597656 329.5 332.925781 C 332.011719 332.25 345.542969 327.378906 345.773438 325.378906 C 346.003906 323.378906 346.597656 320.863281 345.527344 320.03125 C 344.460938 319.199219 341.449219 318.496094 339.960938 318.679688 C 338.46875 318.863281 332.1875 321.484375 329.777344 320.445312 C 327.359375 319.40625 321.527344 316.398438 320.878906 314.550781 C 320.230469 312.703125 317.875 308.128906 316.175781 308.335938 C 314.480469 308.542969 314.296875 311.867188 314.296875 311.867188 C 314.296875 311.867188 296.386719 290.144531 291.496094 282.484375 C 286.601562 274.828125 282.449219 271.308594 280.03125 267.6875 C 277.609375 264.066406 276.507812 255.628906 273.765625 252.167969 C 271.023438 248.710938 265.089844 242.609375 264.289062 240.335938 C 263.484375 238.0625 259.351562 224.261719 255.660156 219.378906 C 251.96875 214.492188 245.460938 207.664062 244.546875 205.9375 C 243.628906 204.210938 243.691406 200.617188 242.597656 199.988281 C 241.503906 199.355469 239.828125 199.820312 240.101562 198.328125 C 240.375 196.839844 241.554688 192.316406 240.3125 191.261719 C 239.0625 190.207031 237.042969 190.171875 237.042969 190.171875 C 237.042969 190.171875 241.03125 170.976562 240.511719 161.390625 C 240 151.808594 236.078125 140.109375 234.238281 136.753906 C 232.394531 133.402344 230.886719 132.417969 229.761719 130.765625 C 228.632812 129.117188 226.8125 122.929688 225.085938 119.890625 C 225.085938 119.890625 229.292969 93.574219 228.085938 92.625 C 226.875 91.675781 199.265625 70.148438 198.027344 68.589844 C 196.785156 67.027344 194.921875 63.871094 195.03125 61.605469 L 181.027344 58.722656 C 181.027344 58.722656 180.058594 60.941406 183.769531 64.359375 C 187.480469 67.777344 189.808594 69.109375 191.222656 71.347656 C 192.636719 73.589844 202.3125 83.675781 202.3125 83.675781 C 202.3125 83.675781 198.390625 84.742188 198.023438 86.167969 C 197.65625 87.59375 195.597656 87.003906 195.535156 88.414062 C 195.472656 89.828125 193.351562 90.644531 193.964844 91.933594 C 194.574219 93.21875 193.542969 94.722656 193.980469 95.734375 C 194.421875 96.746094 194.332031 99.269531 194.753906 100.027344 C 195.171875 100.785156 196.125 101.757812 196.125 101.757812 C 196.125 101.757812 194.816406 103.429688 195.957031 104.980469 C 197.09375 106.53125 199.039062 109.4375 199.984375 109.597656 C 200.925781 109.757812 201.671875 113.390625 201.917969 114.332031 C 202.164062 115.273438 201.347656 117.105469 201.347656 117.105469 C 201.347656 117.105469 196.058594 121.207031 193.101562 126.640625 C 193.101562 126.640625 189.023438 130.832031 187.40625 136.925781 C 185.789062 143.023438 179.671875 165.320312 179.410156 166.707031 C 179.148438 168.097656 176.011719 174.21875 176.046875 176.554688 C 176.082031 178.886719 176.230469 188.125 182.117188 205.628906 C 182.117188 205.628906 173.945312 220.695312 169.71875 226.589844 C 165.492188 232.488281 161.679688 237.417969 159.464844 240.808594 C 157.25 244.199219 152.816406 248.351562 147.761719 250.910156 C 142.703125 253.46875 137.777344 254.015625 128.050781 264.546875 C 118.324219 275.074219 104.144531 292.589844 104.144531 292.589844 C 104.144531 292.589844 102.21875 293.910156 100.054688 294.207031 C 97.890625 294.503906 95.523438 295.292969 93.125 297.195312 C 90.726562 299.097656 89.402344 300.464844 87.949219 303.84375 C 86.496094 307.226562 86.644531 309.875 84.203125 311.722656 C 81.761719 313.566406 81.347656 318.890625 80.988281 322.902344 C 80.625 326.914062 82.71875 331.613281 85.042969 334.3125 C 87.363281 337.011719 95.109375 334.867188 96.210938 332.359375 C 97.308594 329.851562 99.546875 319.265625 101.132812 316.917969 C 102.722656 314.566406 104.8125 311.363281 104.8125 311.363281 C 104.8125 311.363281 111.40625 308.679688 110.800781 306.886719 C 110.199219 305.09375 109.652344 305.433594 109.652344 305.433594 C 109.652344 305.433594 117.085938 295.453125 122.285156 290.78125 C 127.484375 286.113281 140.855469 276.511719 146.109375 272.25 C 151.363281 267.996094 161.269531 264.675781 162.429688 263.394531 C 163.59375 262.109375 166.101562 260.574219 167.941406 258.65625 C 169.785156 256.746094 172.925781 254.980469 174.867188 253.984375 C 176.804688 252.992188 185.15625 243.824219 188.148438 240.722656 C 188.148438 240.722656 194.425781 244.285156 196.078125 242.246094 C 197.734375 240.207031 199.417969 238.78125 201.375 235.863281 C 203.332031 232.953125 205.136719 229.613281 207.632812 228.179688 C 210.128906 226.742188 215.386719 224.207031 215.386719 224.207031 C 215.386719 224.207031 223.5 234.667969 225.15625 237.898438 C 226.808594 241.132812 229.277344 240.808594 229.277344 240.808594 L 231.164062 239.402344 C 231.164062 239.402344 238.984375 243.652344 243.050781 248.78125 C 247.121094 253.914062 247.957031 253.703125 252.863281 256.804688 C 257.78125 259.90625 257.164062 263.480469 261.722656 267.855469 C 266.285156 272.238281 266.082031 281.027344 278.28125 292.972656 C 290.484375 304.917969 296.300781 311.566406 297.929688 313.277344 C 299.554688 314.984375 302.417969 320.886719 302.417969 320.886719 C 302.417969 320.886719 301.214844 322.117188 301.53125 325.550781 C 301.839844 328.976562 302.355469 330.660156 302.097656 332.046875 C 301.835938 333.433594 302.042969 337.359375 304.726562 337.3125 Z M 304.726562 337.3125 " fill-opacity="1" fill-rule="evenodd"/></g><g clip-path="url(#a462ec2cd3)"><path fill="#ffffff" d="M 73.871094 211.289062 L 356.957031 211.289062 L 356.957031 288.800781 C 265.144531 269.417969 170.792969 269.355469 73.871094 288.800781 Z M 73.871094 211.289062 " fill-opacity="1" fill-rule="evenodd"/></g><path fill="#1e2c4b" d="M 73.871094 208.085938 L 353.222656 208.085938 L 353.222656 214.5 L 73.871094 214.5 Z M 73.871094 208.085938 " fill-opacity="1" fill-rule="evenodd"/><g clip-path="url(#55919a63b8)"><path fill="#1e2c4b" d="M 70.140625 285.558594 C 86.847656 281.332031 108.253906 277.863281 132.800781 275.460938 C 157.183594 273.070312 184.613281 271.726562 213.546875 271.726562 C 242.480469 271.726562 269.910156 273.070312 294.292969 275.460938 C 318.839844 277.863281 340.246094 281.332031 356.957031 285.558594 L 356.957031 292.039062 C 340.328125 287.710938 318.683594 284.152344 293.703125 281.710938 C 269.644531 279.351562 242.429688 278.027344 213.546875 278.027344 C 184.664062 278.027344 157.445312 279.351562 133.390625 281.710938 C 108.410156 284.152344 86.765625 287.710938 70.140625 292.039062 Z M 70.140625 285.558594 " fill-opacity="1" fill-rule="nonzero"/></g><g fill="#1e2c4b" fill-opacity="1"><g transform="translate(-0.415783, 259.82105)"><g><path d="M 30.46875 -22.4375 C 32.332031 -21.46875 33.78125 -20.097656 34.8125 -18.328125 C 35.84375 -16.566406 36.359375 -14.550781 36.359375 -12.28125 C 36.359375 -10.007812 35.757812 -7.941406 34.5625 -6.078125 C 33.375 -4.210938 31.753906 -2.734375 29.703125 -1.640625 C 27.660156 -0.546875 25.421875 0 22.984375 0 L 4.859375 0 L 4.859375 -42.5625 L 22.5 -42.5625 C 24.9375 -42.5625 27.113281 -42.082031 29.03125 -41.125 C 30.957031 -40.175781 32.476562 -38.867188 33.59375 -37.203125 C 34.707031 -35.546875 35.265625 -33.6875 35.265625 -31.625 C 35.265625 -29.800781 34.835938 -28.078125 33.984375 -26.453125 C 33.140625 -24.828125 31.96875 -23.488281 30.46875 -22.4375 Z M 26.328125 -30.15625 C 26.328125 -31.5 25.898438 -32.59375 25.046875 -33.4375 C 24.203125 -34.289062 23.050781 -34.71875 21.59375 -34.71875 L 13.921875 -34.71875 L 13.921875 -25.65625 L 21.59375 -25.65625 C 23.050781 -25.65625 24.203125 -26.082031 25.046875 -26.9375 C 25.898438 -27.789062 26.328125 -28.863281 26.328125 -30.15625 Z M 22.078125 -8.453125 C 23.617188 -8.453125 24.84375 -8.894531 25.75 -9.78125 C 26.664062 -10.675781 27.125 -11.832031 27.125 -13.25 C 27.125 -14.632812 26.664062 -15.769531 25.75 -16.65625 C 24.84375 -17.550781 23.617188 -18 22.078125 -18 L 13.921875 -18 L 13.921875 -8.453125 Z M 22.078125 -8.453125 "/></g></g></g><g fill="#1e2c4b" fill-opacity="1"><g transform="translate(38.612246, 259.82105)"><g><path d="M 33.140625 0 L 30.15625 -8.09375 L 13.203125 -8.09375 L 10.28125 0 L 0.546875 0 L 17.203125 -42.5625 L 25.90625 -42.5625 L 43.109375 0 Z M 21.65625 -31.3125 L 16.109375 -16.109375 L 27.25 -16.109375 Z M 21.65625 -31.3125 "/></g></g></g><g fill="#1e2c4b" fill-opacity="1"><g transform="translate(82.260412, 259.82105)"><g><path d="M 18.96875 0.84375 C 15.726562 0.84375 12.867188 0.257812 10.390625 -0.90625 C 7.921875 -2.082031 5.988281 -3.765625 4.59375 -5.953125 C 3.195312 -8.148438 2.5 -10.765625 2.5 -13.796875 L 11.796875 -13.796875 C 11.796875 -11.734375 12.515625 -10.203125 13.953125 -9.203125 C 15.390625 -8.210938 17.039062 -7.71875 18.90625 -7.71875 C 20.082031 -7.71875 21.1875 -7.910156 22.21875 -8.296875 C 23.257812 -8.679688 24.113281 -9.25 24.78125 -10 C 25.445312 -10.75 25.78125 -11.648438 25.78125 -12.703125 C 25.78125 -13.804688 25.394531 -14.671875 24.625 -15.296875 C 23.851562 -15.921875 22.816406 -16.4375 21.515625 -16.84375 C 20.222656 -17.25 18.804688 -17.632812 17.265625 -18 C 15.691406 -18.363281 14.070312 -18.804688 12.40625 -19.328125 C 10.738281 -19.859375 9.195312 -20.5625 7.78125 -21.4375 C 6.363281 -22.3125 5.226562 -23.488281 4.375 -24.96875 C 3.519531 -26.445312 3.09375 -28.320312 3.09375 -30.59375 C 3.09375 -34.6875 4.484375 -37.835938 7.265625 -40.046875 C 10.046875 -42.253906 13.804688 -43.359375 18.546875 -43.359375 C 23.410156 -43.359375 27.179688 -42.128906 29.859375 -39.671875 C 32.535156 -37.222656 33.875 -33.890625 33.875 -29.671875 L 24.75 -29.671875 C 24.75 -31.492188 24.097656 -32.84375 22.796875 -33.71875 C 21.503906 -34.59375 20.003906 -35.03125 18.296875 -35.03125 C 16.796875 -35.03125 15.414062 -34.703125 14.15625 -34.046875 C 12.90625 -33.398438 12.28125 -32.390625 12.28125 -31.015625 C 12.28125 -30.003906 12.65625 -29.203125 13.40625 -28.609375 C 14.15625 -28.023438 15.148438 -27.539062 16.390625 -27.15625 C 17.628906 -26.769531 19 -26.394531 20.5 -26.03125 C 22.113281 -25.625 23.769531 -25.144531 25.46875 -24.59375 C 27.175781 -24.050781 28.757812 -23.3125 30.21875 -22.375 C 31.675781 -21.445312 32.863281 -20.210938 33.78125 -18.671875 C 34.695312 -17.128906 35.15625 -15.179688 35.15625 -12.828125 C 35.15625 -9.742188 34.410156 -7.1875 32.921875 -5.15625 C 31.441406 -3.132812 29.484375 -1.628906 27.046875 -0.640625 C 24.617188 0.347656 21.925781 0.84375 18.96875 0.84375 Z M 18.96875 0.84375 "/></g></g></g><g fill="#1e2c4b" fill-opacity="1"><g transform="translate(119.890248, 259.82105)"><g><path d="M 40.375 0 L 29.125 0 L 14.109375 -20.796875 L 14.109375 0 L 4.859375 0 L 4.859375 -42.5625 L 14.109375 -42.5625 L 14.109375 -22.921875 L 28.03125 -42.5625 L 38.796875 -42.5625 L 24.265625 -22.203125 Z M 40.375 0 "/></g></g></g><g fill="#1e2c4b" fill-opacity="1"><g transform="translate(159.769353, 259.82105)"><g><path d="M 14.109375 -8.578125 L 31.078125 -8.578125 L 31.078125 0 L 4.859375 0 L 4.859375 -42.5625 L 30.40625 -42.5625 L 30.40625 -34.0625 L 14.109375 -34.0625 L 14.109375 -25.65625 L 28.828125 -25.65625 L 28.828125 -17.328125 L 14.109375 -17.328125 Z M 14.109375 -8.578125 "/></g></g></g><g fill="#1e2c4b" fill-opacity="1"><g transform="translate(193.751709, 259.82105)"><g><path d="M 34.234375 -42.5625 L 34.234375 -34 L 22.375 -34 L 22.375 0 L 13.140625 0 L 13.140625 -34 L 1.34375 -34 L 1.34375 -42.5625 Z M 34.234375 -42.5625 "/></g></g></g><g fill="#1e2c4b" fill-opacity="1"><g transform="translate(229.25384, 259.82105)"><g><path d="M 30.46875 -22.4375 C 32.332031 -21.46875 33.78125 -20.097656 34.8125 -18.328125 C 35.84375 -16.566406 36.359375 -14.550781 36.359375 -12.28125 C 36.359375 -10.007812 35.757812 -7.941406 34.5625 -6.078125 C 33.375 -4.210938 31.753906 -2.734375 29.703125 -1.640625 C 27.660156 -0.546875 25.421875 0 22.984375 0 L 4.859375 0 L 4.859375 -42.5625 L 22.5 -42.5625 C 24.9375 -42.5625 27.113281 -42.082031 29.03125 -41.125 C 30.957031 -40.175781 32.476562 -38.867188 33.59375 -37.203125 C 34.707031 -35.546875 35.265625 -33.6875 35.265625 -31.625 C 35.265625 -29.800781 34.835938 -28.078125 33.984375 -26.453125 C 33.140625 -24.828125 31.96875 -23.488281 30.46875 -22.4375 Z M 26.328125 -30.15625 C 26.328125 -31.5 25.898438 -32.59375 25.046875 -33.4375 C 24.203125 -34.289062 23.050781 -34.71875 21.59375 -34.71875 L 13.921875 -34.71875 L 13.921875 -25.65625 L 21.59375 -25.65625 C 23.050781 -25.65625 24.203125 -26.082031 25.046875 -26.9375 C 25.898438 -27.789062 26.328125 -28.863281 26.328125 -30.15625 Z M 22.078125 -8.453125 C 23.617188 -8.453125 24.84375 -8.894531 25.75 -9.78125 C 26.664062 -10.675781 27.125 -11.832031 27.125 -13.25 C 27.125 -14.632812 26.664062 -15.769531 25.75 -16.65625 C 24.84375 -17.550781 23.617188 -18 22.078125 -18 L 13.921875 -18 L 13.921875 -8.453125 Z M 22.078125 -8.453125 "/></g></g></g><g fill="#1e2c4b" fill-opacity="1"><g transform="translate(268.281869, 259.82105)"><g><path d="M 33.140625 0 L 30.15625 -8.09375 L 13.203125 -8.09375 L 10.28125 0 L 0.546875 0 L 17.203125 -42.5625 L 25.90625 -42.5625 L 43.109375 0 Z M 21.65625 -31.3125 L 16.109375 -16.109375 L 27.25 -16.109375 Z M 21.65625 -31.3125 "/></g></g></g><g fill="#1e2c4b" fill-opacity="1"><g transform="translate(311.930035, 259.82105)"><g><path d="M 14.109375 -8.578125 L 30.40625 -8.578125 L 30.40625 0 L 4.859375 0 L 4.859375 -42.5625 L 14.109375 -42.5625 Z M 14.109375 -8.578125 "/></g></g></g><g fill="#1e2c4b" fill-opacity="1"><g transform="translate(343.663104, 259.82105)"><g><path d="M 14.109375 -8.578125 L 30.40625 -8.578125 L 30.40625 0 L 4.859375 0 L 4.859375 -42.5625 L 14.109375 -42.5625 Z M 14.109375 -8.578125 "/></g></g></g><g fill="#1e2c4b" fill-opacity="1"><g transform="translate(147.052761, 298.870017)"><g><path d="M 4.296875 -7.5 C 4.816406 -7.5 5.328125 -7.394531 5.828125 -7.1875 C 6.328125 -6.988281 6.757812 -6.707031 7.125 -6.34375 L 6.390625 -5.4375 C 6.117188 -5.726562 5.796875 -5.957031 5.421875 -6.125 C 5.054688 -6.289062 4.6875 -6.375 4.3125 -6.375 C 3.5625 -6.375 2.925781 -6.117188 2.40625 -5.609375 C 1.894531 -5.109375 1.640625 -4.488281 1.640625 -3.75 C 1.640625 -3.007812 1.894531 -2.382812 2.40625 -1.875 C 2.925781 -1.375 3.5625 -1.125 4.3125 -1.125 C 5.082031 -1.125 5.773438 -1.414062 6.390625 -2 L 7.140625 -1.171875 C 6.753906 -0.796875 6.304688 -0.5 5.796875 -0.28125 C 5.285156 -0.0625 4.769531 0.046875 4.25 0.046875 C 3.15625 0.046875 2.234375 -0.316406 1.484375 -1.046875 C 0.734375 -1.773438 0.359375 -2.675781 0.359375 -3.75 C 0.359375 -4.800781 0.738281 -5.6875 1.5 -6.40625 C 2.257812 -7.132812 3.191406 -7.5 4.296875 -7.5 Z M 4.296875 -7.5 "/></g></g></g><g fill="#1e2c4b" fill-opacity="1"><g transform="translate(158.651356, 298.870017)"><g><path d="M 1.5 -6.40625 C 2.257812 -7.132812 3.195312 -7.5 4.3125 -7.5 C 5.4375 -7.5 6.378906 -7.132812 7.140625 -6.40625 C 7.898438 -5.6875 8.28125 -4.796875 8.28125 -3.734375 C 8.28125 -2.671875 7.898438 -1.773438 7.140625 -1.046875 C 6.378906 -0.316406 5.4375 0.046875 4.3125 0.046875 C 3.195312 0.046875 2.257812 -0.316406 1.5 -1.046875 C 0.738281 -1.773438 0.359375 -2.671875 0.359375 -3.734375 C 0.359375 -4.796875 0.738281 -5.6875 1.5 -6.40625 Z M 4.328125 -6.375 C 3.585938 -6.375 2.953125 -6.117188 2.421875 -5.609375 C 1.898438 -5.097656 1.640625 -4.472656 1.640625 -3.734375 C 1.640625 -2.992188 1.90625 -2.363281 2.4375 -1.84375 C 2.96875 -1.332031 3.597656 -1.078125 4.328125 -1.078125 C 5.066406 -1.078125 5.691406 -1.332031 6.203125 -1.84375 C 6.722656 -2.363281 6.984375 -2.992188 6.984375 -3.734375 C 6.984375 -4.472656 6.722656 -5.097656 6.203125 -5.609375 C 5.691406 -6.117188 5.066406 -6.375 4.328125 -6.375 Z M 4.328125 -6.375 "/></g></g></g><g fill="#1e2c4b" fill-opacity="1"><g transform="translate(171.455689, 298.870017)"><g><path d="M 8.875 0 L 7.71875 0 L 7.703125 -5.578125 L 5.34375 -0.78125 L 4.53125 -0.78125 L 2.171875 -5.578125 L 2.171875 0 L 0.984375 0 L 0.984375 -7.46875 L 2.46875 -7.46875 L 4.9375 -2.515625 L 7.390625 -7.46875 L 8.875 -7.46875 Z M 8.875 0 "/></g></g></g><g fill="#1e2c4b" fill-opacity="1"><g transform="translate(185.487117, 298.870017)"><g><path d="M 0.984375 -7.46875 L 3.953125 -7.46875 C 4.898438 -7.46875 5.628906 -7.242188 6.140625 -6.796875 C 6.660156 -6.359375 6.921875 -5.734375 6.921875 -4.921875 C 6.921875 -4.078125 6.660156 -3.421875 6.140625 -2.953125 C 5.628906 -2.484375 4.898438 -2.25 3.953125 -2.25 L 2.234375 -2.25 L 2.234375 0 L 0.984375 0 Z M 2.234375 -6.34375 L 2.234375 -3.390625 L 3.90625 -3.390625 C 5.101562 -3.390625 5.703125 -3.890625 5.703125 -4.890625 C 5.703125 -5.859375 5.101562 -6.34375 3.90625 -6.34375 Z M 2.234375 -6.34375 "/></g></g></g><g fill="#1e2c4b" fill-opacity="1"><g transform="translate(196.829617, 298.870017)"><g><path d="M 6.3125 -6.34375 L 2.234375 -6.34375 L 2.234375 -4.328125 L 5.890625 -4.328125 L 5.890625 -3.1875 L 2.234375 -3.1875 L 2.234375 -1.125 L 6.453125 -1.125 L 6.453125 0 L 0.984375 0 L 0.984375 -7.46875 L 6.3125 -7.46875 Z M 6.3125 -6.34375 "/></g></g></g><g fill="#1e2c4b" fill-opacity="1"><g transform="translate(207.990729, 298.870017)"><g><path d="M 6.078125 -6.34375 L 3.71875 -6.34375 L 3.71875 0 L 2.453125 0 L 2.453125 -6.34375 L 0.09375 -6.34375 L 0.09375 -7.46875 L 6.078125 -7.46875 Z M 6.078125 -6.34375 "/></g></g></g><g fill="#1e2c4b" fill-opacity="1"><g transform="translate(218.330222, 298.870017)"><g><path d="M 2.234375 0 L 0.984375 0 L 0.984375 -7.46875 L 2.234375 -7.46875 Z M 2.234375 0 "/></g></g></g><g fill="#1e2c4b" fill-opacity="1"><g transform="translate(225.714043, 298.870017)"><g><path d="M 6.078125 -6.34375 L 3.71875 -6.34375 L 3.71875 0 L 2.453125 0 L 2.453125 -6.34375 L 0.09375 -6.34375 L 0.09375 -7.46875 L 6.078125 -7.46875 Z M 6.078125 -6.34375 "/></g></g></g><g fill="#1e2c4b" fill-opacity="1"><g transform="translate(236.053537, 298.870017)"><g><path d="M 2.234375 0 L 0.984375 0 L 0.984375 -7.46875 L 2.234375 -7.46875 Z M 2.234375 0 "/></g></g></g><g fill="#1e2c4b" fill-opacity="1"><g transform="translate(243.437358, 298.870017)"><g><path d="M 1.5 -6.40625 C 2.257812 -7.132812 3.195312 -7.5 4.3125 -7.5 C 5.4375 -7.5 6.378906 -7.132812 7.140625 -6.40625 C 7.898438 -5.6875 8.28125 -4.796875 8.28125 -3.734375 C 8.28125 -2.671875 7.898438 -1.773438 7.140625 -1.046875 C 6.378906 -0.316406 5.4375 0.046875 4.3125 0.046875 C 3.195312 0.046875 2.257812 -0.316406 1.5 -1.046875 C 0.738281 -1.773438 0.359375 -2.671875 0.359375 -3.734375 C 0.359375 -4.796875 0.738281 -5.6875 1.5 -6.40625 Z M 4.328125 -6.375 C 3.585938 -6.375 2.953125 -6.117188 2.421875 -5.609375 C 1.898438 -5.097656 1.640625 -4.472656 1.640625 -3.734375 C 1.640625 -2.992188 1.90625 -2.363281 2.4375 -1.84375 C 2.96875 -1.332031 3.597656 -1.078125 4.328125 -1.078125 C 5.066406 -1.078125 5.691406 -1.332031 6.203125 -1.84375 C 6.722656 -2.363281 6.984375 -2.992188 6.984375 -3.734375 C 6.984375 -4.472656 6.722656 -5.097656 6.203125 -5.609375 C 5.691406 -6.117188 5.066406 -6.375 4.328125 -6.375 Z M 4.328125 -6.375 "/></g></g></g><g fill="#1e2c4b" fill-opacity="1"><g transform="translate(256.241691, 298.870017)"><g><path d="M 7.453125 0 L 6.21875 0 L 2.234375 -5.359375 L 2.234375 0 L 0.984375 0 L 0.984375 -7.46875 L 2.21875 -7.46875 L 6.21875 -2.109375 L 6.21875 -7.46875 L 7.453125 -7.46875 Z M 7.453125 0 "/></g></g></g><g fill="#1e2c4b" fill-opacity="1"><g transform="translate(101.157536, 194.541273)"><g><path d="M 6.3125 -6.34375 L 2.234375 -6.34375 L 2.234375 -4.328125 L 5.890625 -4.328125 L 5.890625 -3.1875 L 2.234375 -3.1875 L 2.234375 -1.125 L 6.453125 -1.125 L 6.453125 0 L 0.984375 0 L 0.984375 -7.46875 L 6.3125 -7.46875 Z M 6.3125 -6.34375 "/></g></g></g><g fill="#1e2c4b" fill-opacity="1"><g transform="translate(111.230284, 194.541273)"><g><path d="M 3.4375 -7.53125 C 4.40625 -7.53125 5.273438 -7.269531 6.046875 -6.75 L 5.53125 -5.640625 C 4.769531 -6.109375 4.039062 -6.34375 3.34375 -6.34375 C 2.96875 -6.34375 2.671875 -6.273438 2.453125 -6.140625 C 2.234375 -6.003906 2.125 -5.8125 2.125 -5.5625 C 2.125 -5.3125 2.222656 -5.097656 2.421875 -4.921875 C 2.617188 -4.742188 2.867188 -4.613281 3.171875 -4.53125 C 3.472656 -4.457031 3.796875 -4.359375 4.140625 -4.234375 C 4.484375 -4.109375 4.804688 -3.972656 5.109375 -3.828125 C 5.410156 -3.691406 5.65625 -3.476562 5.84375 -3.1875 C 6.039062 -2.894531 6.140625 -2.535156 6.140625 -2.109375 C 6.140625 -1.453125 5.878906 -0.925781 5.359375 -0.53125 C 4.835938 -0.144531 4.160156 0.046875 3.328125 0.046875 C 2.753906 0.046875 2.203125 -0.0546875 1.671875 -0.265625 C 1.140625 -0.484375 0.675781 -0.773438 0.28125 -1.140625 L 0.828125 -2.234375 C 1.203125 -1.878906 1.613281 -1.609375 2.0625 -1.421875 C 2.519531 -1.234375 2.945312 -1.140625 3.34375 -1.140625 C 3.789062 -1.140625 4.132812 -1.21875 4.375 -1.375 C 4.625 -1.539062 4.75 -1.765625 4.75 -2.046875 C 4.75 -2.304688 4.648438 -2.519531 4.453125 -2.6875 C 4.253906 -2.863281 4.003906 -2.992188 3.703125 -3.078125 C 3.398438 -3.160156 3.070312 -3.257812 2.71875 -3.375 C 2.375 -3.488281 2.050781 -3.613281 1.75 -3.75 C 1.457031 -3.882812 1.210938 -4.097656 1.015625 -4.390625 C 0.816406 -4.679688 0.71875 -5.03125 0.71875 -5.4375 C 0.71875 -6.070312 0.960938 -6.578125 1.453125 -6.953125 C 1.953125 -7.335938 2.613281 -7.53125 3.4375 -7.53125 Z M 3.4375 -7.53125 "/></g></g></g><g fill="#1e2c4b" fill-opacity="1"><g transform="translate(120.940239, 194.541273)"><g><path d="M 6.078125 -6.34375 L 3.71875 -6.34375 L 3.71875 0 L 2.453125 0 L 2.453125 -6.34375 L 0.09375 -6.34375 L 0.09375 -7.46875 L 6.078125 -7.46875 Z M 6.078125 -6.34375 "/></g></g></g><g fill="#1e2c4b" fill-opacity="1"><g transform="translate(130.191369, 194.541273)"><g><path d="M 0.984375 -7.46875 L 4.046875 -7.46875 C 5.160156 -7.46875 6.082031 -7.113281 6.8125 -6.40625 C 7.539062 -5.707031 7.90625 -4.816406 7.90625 -3.734375 C 7.90625 -2.648438 7.535156 -1.753906 6.796875 -1.046875 C 6.066406 -0.347656 5.140625 0 4.015625 0 L 0.984375 0 Z M 2.234375 -6.34375 L 2.234375 -1.125 L 4.078125 -1.125 C 4.804688 -1.125 5.414062 -1.367188 5.90625 -1.859375 C 6.394531 -2.347656 6.640625 -2.96875 6.640625 -3.71875 C 6.640625 -4.476562 6.390625 -5.101562 5.890625 -5.59375 C 5.390625 -6.09375 4.765625 -6.34375 4.015625 -6.34375 Z M 2.234375 -6.34375 "/></g></g></g><g fill="#1e2c4b" fill-opacity="1"><g transform="translate(289.552698, 194.541273)"><g><path d="M 3.078125 -7.53125 C 3.785156 -7.53125 4.359375 -7.359375 4.796875 -7.015625 C 5.234375 -6.671875 5.453125 -6.210938 5.453125 -5.640625 C 5.453125 -4.984375 5 -4.164062 4.09375 -3.1875 L 2.140625 -1.125 L 5.796875 -1.125 L 5.796875 0 L 0.484375 0 L 0.484375 -0.921875 L 3.234375 -3.875 C 3.835938 -4.488281 4.140625 -5.019531 4.140625 -5.46875 C 4.140625 -5.757812 4.03125 -5.988281 3.8125 -6.15625 C 3.59375 -6.332031 3.285156 -6.421875 2.890625 -6.421875 C 2.210938 -6.421875 1.535156 -6.109375 0.859375 -5.484375 L 0.359375 -6.453125 C 1.234375 -7.171875 2.140625 -7.53125 3.078125 -7.53125 Z M 3.078125 -7.53125 "/></g></g></g><g fill="#1e2c4b" fill-opacity="1"><g transform="translate(298.899861, 194.541273)"><g><path d="M 3.6875 -7.5 C 4.707031 -7.5 5.488281 -7.171875 6.03125 -6.515625 C 6.582031 -5.867188 6.859375 -4.941406 6.859375 -3.734375 C 6.859375 -2.523438 6.582031 -1.59375 6.03125 -0.9375 C 5.488281 -0.289062 4.707031 0.03125 3.6875 0.03125 C 2.664062 0.03125 1.878906 -0.289062 1.328125 -0.9375 C 0.785156 -1.59375 0.515625 -2.523438 0.515625 -3.734375 C 0.515625 -4.941406 0.785156 -5.867188 1.328125 -6.515625 C 1.878906 -7.171875 2.664062 -7.5 3.6875 -7.5 Z M 3.6875 -6.515625 C 2.425781 -6.515625 1.796875 -5.585938 1.796875 -3.734375 C 1.796875 -1.878906 2.425781 -0.953125 3.6875 -0.953125 C 4.945312 -0.953125 5.578125 -1.878906 5.578125 -3.734375 C 5.578125 -5.585938 4.945312 -6.515625 3.6875 -6.515625 Z M 3.6875 -6.515625 "/></g></g></g><g fill="#1e2c4b" fill-opacity="1"><g transform="translate(309.346065, 194.541273)"><g><path d="M 3.078125 -7.53125 C 3.785156 -7.53125 4.359375 -7.359375 4.796875 -7.015625 C 5.234375 -6.671875 5.453125 -6.210938 5.453125 -5.640625 C 5.453125 -4.984375 5 -4.164062 4.09375 -3.1875 L 2.140625 -1.125 L 5.796875 -1.125 L 5.796875 0 L 0.484375 0 L 0.484375 -0.921875 L 3.234375 -3.875 C 3.835938 -4.488281 4.140625 -5.019531 4.140625 -5.46875 C 4.140625 -5.757812 4.03125 -5.988281 3.8125 -6.15625 C 3.59375 -6.332031 3.285156 -6.421875 2.890625 -6.421875 C 2.210938 -6.421875 1.535156 -6.109375 0.859375 -5.484375 L 0.359375 -6.453125 C 1.234375 -7.171875 2.140625 -7.53125 3.078125 -7.53125 Z M 3.078125 -7.53125 "/></g></g></g><g fill="#1e2c4b" fill-opacity="1"><g transform="translate(318.693228, 194.541273)"><g><path d="M 3.078125 -7.53125 C 3.785156 -7.53125 4.359375 -7.359375 4.796875 -7.015625 C 5.234375 -6.671875 5.453125 -6.210938 5.453125 -5.640625 C 5.453125 -4.984375 5 -4.164062 4.09375 -3.1875 L 2.140625 -1.125 L 5.796875 -1.125 L 5.796875 0 L 0.484375 0 L 0.484375 -0.921875 L 3.234375 -3.875 C 3.835938 -4.488281 4.140625 -5.019531 4.140625 -5.46875 C 4.140625 -5.757812 4.03125 -5.988281 3.8125 -6.15625 C 3.59375 -6.332031 3.285156 -6.421875 2.890625 -6.421875 C 2.210938 -6.421875 1.535156 -6.109375 0.859375 -5.484375 L 0.359375 -6.453125 C 1.234375 -7.171875 2.140625 -7.53125 3.078125 -7.53125 Z M 3.078125 -7.53125 "/></g></g></g></svg>