<svg xmlns="http://www.w3.org/2000/svg" xmlns:xlink="http://www.w3.org/1999/xlink" width="500" zoomAndPan="magnify" viewBox="0 0 375 374.999991" height="500" preserveAspectRatio="xMidYMid meet" version="1.0"><defs><g/><clipPath id="511b27025c"><path d="M 13.300781 13.179688 L 365.050781 13.179688 L 365.050781 364.929688 L 13.300781 364.929688 Z M 13.300781 13.179688 " clip-rule="nonzero"/></clipPath><clipPath id="467cd8cd9c"><path d="M 189.199219 13.179688 C 92.050781 13.179688 13.300781 91.933594 13.300781 189.078125 C 13.300781 286.222656 92.050781 364.976562 189.199219 364.976562 C 286.34375 364.976562 365.097656 286.222656 365.097656 189.078125 C 365.097656 91.933594 286.34375 13.179688 189.199219 13.179688 Z M 189.199219 13.179688 " clip-rule="nonzero"/></clipPath><clipPath id="0cbb3276dc"><path d="M 28.457031 34.519531 L 350 34.519531 L 350 189.082031 L 28.457031 189.082031 Z M 28.457031 34.519531 " clip-rule="nonzero"/></clipPath><clipPath id="5953283e2b"><path d="M 135.675781 43.800781 C 152.105469 38.195312 170.898438 34.519531 189.285156 34.519531 C 207.679688 34.519531 225.375 37.671875 241.683594 43.277344 C 242.03125 43.453125 242.378906 43.453125 242.722656 43.625 C 303.96875 66.046875 349.078125 125.25 349.945312 189.082031 L 28.457031 189.082031 C 29.324219 124.898438 73.738281 65.695312 135.675781 43.800781 Z M 135.675781 43.800781 " clip-rule="nonzero"/></clipPath><clipPath id="c4bd0575bf"><path d="M 28.132812 189.078125 L 349.9375 189.078125 L 349.9375 343.640625 L 28.132812 343.640625 Z M 28.132812 189.078125 " clip-rule="nonzero"/></clipPath><clipPath id="4d1aa41519"><path d="M 242.714844 334.355469 C 226.285156 339.960938 207.496094 343.640625 189.105469 343.640625 C 170.714844 343.640625 153.015625 340.488281 136.710938 334.882812 C 136.363281 334.707031 136.015625 334.707031 135.667969 334.53125 C 74.421875 312.109375 29.316406 252.910156 28.445312 189.078125 L 349.9375 189.078125 C 349.070312 253.257812 304.652344 312.460938 242.714844 334.355469 Z M 242.714844 334.355469 " clip-rule="nonzero"/></clipPath><clipPath id="cc0d66de22"><path d="M 80.265625 80.148438 L 298.132812 80.148438 L 298.132812 298.015625 L 80.265625 298.015625 Z M 80.265625 80.148438 " clip-rule="nonzero"/></clipPath><clipPath id="ea6fef9ab1"><path d="M 189.199219 80.148438 C 129.039062 80.148438 80.265625 128.917969 80.265625 189.082031 C 80.265625 249.242188 129.039062 298.015625 189.199219 298.015625 C 249.363281 298.015625 298.132812 249.242188 298.132812 189.082031 C 298.132812 128.917969 249.363281 80.148438 189.199219 80.148438 Z M 189.199219 80.148438 " clip-rule="nonzero"/></clipPath><clipPath id="b94fc4db2b"><path d="M 6.789062 165.902344 L 371.613281 165.902344 L 371.613281 212.257812 L 6.789062 212.257812 Z M 6.789062 165.902344 " clip-rule="nonzero"/></clipPath><clipPath id="14e57b7fdb"><path d="M 101.25 101.128906 L 277.5 101.128906 L 277.5 277.378906 L 101.25 277.378906 Z M 101.25 101.128906 " clip-rule="nonzero"/></clipPath><clipPath id="e3860eb098"><path d="M 41.453125 175.238281 L 70.703125 175.238281 L 70.703125 202.988281 L 41.453125 202.988281 Z M 41.453125 175.238281 " clip-rule="nonzero"/></clipPath><clipPath id="8a97ed5f48"><path d="M 307.808594 175.238281 L 337 175.238281 L 337 202.988281 L 307.808594 202.988281 Z M 307.808594 175.238281 " clip-rule="nonzero"/></clipPath></defs><g clip-path="url(#511b27025c)"><g clip-path="url(#467cd8cd9c)"><path stroke-linecap="butt" transform="matrix(0.75, 0, 0, 0.75, 13.299707, 13.180171)" fill="none" stroke-linejoin="miter" d="M 234.532682 -0.000644099 C 105.001432 -0.000644099 0.00143192 105.004564 0.00143192 234.530606 C 0.00143192 364.061857 105.001432 469.061857 234.532682 469.061857 C 364.058724 469.061857 469.063933 364.061857 469.063933 234.530606 C 469.063933 105.004564 364.058724 -0.000644099 234.532682 -0.000644099 Z M 234.532682 -0.000644099 " stroke="#000000" stroke-width="16" stroke-opacity="1" stroke-miterlimit="4"/></g></g><g clip-path="url(#0cbb3276dc)"><g clip-path="url(#5953283e2b)"><path fill="#ffbd59" d="M 28.457031 34.519531 L 349.65625 34.519531 L 349.65625 189.082031 L 28.457031 189.082031 Z M 28.457031 34.519531 " fill-opacity="1" fill-rule="nonzero"/></g></g><g clip-path="url(#c4bd0575bf)"><g clip-path="url(#4d1aa41519)"><path fill="#1d1d1b" d="M 349.9375 343.640625 L 28.738281 343.640625 L 28.738281 189.078125 L 349.9375 189.078125 Z M 349.9375 343.640625 " fill-opacity="1" fill-rule="nonzero"/></g></g><g clip-path="url(#cc0d66de22)"><g clip-path="url(#ea6fef9ab1)"><path fill="#ffffff" d="M 80.265625 80.148438 L 298.132812 80.148438 L 298.132812 298.015625 L 80.265625 298.015625 Z M 80.265625 80.148438 " fill-opacity="1" fill-rule="nonzero"/></g></g><g clip-path="url(#b94fc4db2b)"><path fill="#ffffff" d="M 6.789062 165.902344 L 371.664062 165.902344 L 371.664062 212.257812 L 6.789062 212.257812 Z M 6.789062 165.902344 " fill-opacity="1" fill-rule="nonzero"/></g><path fill="#c0c1be" d="M 274.238281 189.253906 C 274.238281 197.699219 273.003906 205.851562 270.707031 213.550781 C 260.261719 248.578125 227.800781 274.117188 189.375 274.117188 C 142.507812 274.117188 104.515625 236.125 104.515625 189.253906 C 104.515625 170.378906 110.675781 152.945312 121.097656 138.851562 C 136.554688 117.949219 161.382812 104.394531 189.375 104.394531 C 236.242188 104.394531 274.238281 142.386719 274.238281 189.253906 Z M 274.238281 189.253906 " fill-opacity="1" fill-rule="nonzero"/><path fill="#ebece9" d="M 274.238281 189.253906 C 274.238281 197.699219 273.003906 205.851562 270.707031 213.550781 C 255.25 234.453125 230.421875 248.003906 202.429688 248.003906 C 155.5625 248.003906 117.570312 210.011719 117.570312 163.144531 C 117.570312 154.699219 118.800781 146.546875 121.097656 138.851562 C 136.554688 117.949219 161.382812 104.394531 189.375 104.394531 C 236.242188 104.394531 274.238281 142.386719 274.238281 189.253906 Z M 274.238281 189.253906 " fill-opacity="1" fill-rule="nonzero"/><path fill="#ebece9" d="M 274.238281 189.253906 C 274.238281 197.699219 273.003906 205.851562 270.707031 213.550781 C 255.25 234.453125 230.421875 248.003906 202.429688 248.003906 C 155.5625 248.003906 117.570312 210.011719 117.570312 163.144531 C 117.570312 154.699219 118.800781 146.546875 121.097656 138.851562 C 136.554688 117.949219 161.382812 104.394531 189.375 104.394531 C 236.242188 104.394531 274.238281 142.386719 274.238281 189.253906 Z M 274.238281 189.253906 " fill-opacity="1" fill-rule="nonzero"/><path fill="#fefefe" d="M 189.375 104.394531 C 161.382812 104.394531 136.554688 117.949219 121.097656 138.851562 C 120.390625 141.21875 119.785156 143.632812 119.285156 146.082031 C 134.832031 128.519531 157.546875 117.449219 182.847656 117.449219 C 196.632812 117.449219 209.652344 120.738281 221.164062 126.574219 C 219.082031 126.492188 216.742188 126.765625 215.578125 128.308594 C 212.558594 132.296875 219.03125 142.695312 225.539062 148.957031 C 232.757812 155.902344 244.953125 162.519531 249.816406 158.558594 C 251.460938 157.21875 251.90625 154.953125 252 153.117188 C 255.773438 158.410156 260.605469 166.472656 263.921875 177.167969 C 265.425781 182.023438 267.707031 190.929688 267.707031 202.3125 C 267.707031 208.15625 267.117188 213.859375 265.992188 219.371094 C 267.648438 217.503906 269.222656 215.558594 270.707031 213.550781 C 273.003906 205.851562 274.238281 197.699219 274.238281 189.253906 C 274.238281 142.386719 236.242188 104.394531 189.375 104.394531 Z M 189.375 104.394531 " fill-opacity="1" fill-rule="nonzero"/><g clip-path="url(#14e57b7fdb)"><path fill="#1d1d1b" d="M 189.375 277.378906 C 177.480469 277.378906 165.9375 275.050781 155.070312 270.453125 C 144.578125 266.015625 135.152344 259.660156 127.0625 251.570312 C 118.96875 243.476562 112.617188 234.054688 108.175781 223.558594 C 103.582031 212.691406 101.25 201.152344 101.25 189.253906 C 101.25 177.359375 103.582031 165.820312 108.175781 154.953125 C 112.617188 144.457031 118.96875 135.035156 127.0625 126.941406 C 135.152344 118.851562 144.578125 112.496094 155.070312 108.058594 C 165.9375 103.460938 177.480469 101.128906 189.375 101.128906 C 201.269531 101.128906 212.8125 103.460938 223.679688 108.058594 C 234.171875 112.496094 243.597656 118.847656 251.6875 126.941406 C 259.78125 135.035156 266.132812 144.457031 270.574219 154.953125 C 275.167969 165.820312 277.5 177.359375 277.5 189.253906 C 277.5 201.152344 275.167969 212.691406 270.574219 223.558594 C 266.132812 234.054688 259.78125 243.476562 251.6875 251.570312 C 243.597656 259.660156 234.171875 266.015625 223.679688 270.453125 C 212.8125 275.050781 201.269531 277.378906 189.375 277.378906 Z M 189.375 107.660156 C 144.382812 107.660156 107.777344 144.261719 107.777344 189.253906 C 107.777344 234.25 144.382812 270.851562 189.375 270.851562 C 234.367188 270.851562 270.972656 234.25 270.972656 189.253906 C 270.972656 144.261719 234.367188 107.660156 189.375 107.660156 Z M 189.375 107.660156 " fill-opacity="1" fill-rule="nonzero"/></g><path fill="#1d1d1b" d="M 271.761719 207.5 C 269.652344 207.847656 266.386719 207.976562 262.828125 206.605469 C 262.136719 206.339844 261.464844 206.027344 260.820312 205.675781 C 260.941406 202.09375 260.710938 197.074219 259.148438 191.339844 C 257.574219 185.558594 255.195312 181.0625 253.210938 177.964844 C 254.136719 172.492188 254.660156 166.929688 254.773438 161.398438 C 254.847656 157.792969 254.746094 154.152344 254.472656 150.539062 C 258.230469 151.097656 261.988281 151.652344 265.742188 152.210938 C 262.828125 146.226562 257.78125 137.636719 249.335938 129.203125 C 241.667969 121.546875 233.925781 116.742188 228.292969 113.824219 C 228.765625 117.566406 229.238281 121.300781 229.710938 125.042969 C 223.800781 124.8125 217.851562 125.007812 211.992188 125.625 C 208.644531 125.976562 205.273438 126.472656 201.953125 127.101562 C 199.304688 125.136719 195.464844 122.769531 190.453125 121.078125 C 183.957031 118.878906 178.183594 118.71875 174.3125 118.96875 C 173.894531 116.992188 173.527344 114.996094 173.210938 113.015625 C 172.855469 110.777344 172.558594 108.503906 172.328125 106.25 L 169.730469 106.515625 C 169.96875 108.816406 170.269531 111.140625 170.632812 113.425781 C 170.957031 115.464844 171.335938 117.519531 171.765625 119.554688 C 168.476562 121.195312 164.023438 123.894531 159.625 128.226562 C 155.601562 132.195312 152.957031 136.226562 151.257812 139.355469 C 145.28125 140.105469 139.46875 141.90625 134.183594 144.65625 C 130.820312 146.40625 127.6875 148.515625 124.8125 150.96875 C 123.484375 147.050781 122.15625 143.132812 120.832031 139.214844 C 116.957031 144.507812 111.773438 152.882812 108.28125 164.175781 C 104.605469 176.0625 104.289062 186.390625 104.601562 193.09375 C 107.734375 191.09375 110.867188 189.09375 114.003906 187.09375 C 116.039062 190.519531 118.257812 193.851562 120.625 197.042969 C 123.214844 200.539062 126.019531 203.910156 128.996094 207.105469 C 128.949219 211.464844 129.417969 217.433594 131.546875 224.128906 C 133.527344 230.371094 136.3125 235.214844 138.648438 238.59375 C 137.578125 239.730469 136.546875 240.910156 135.554688 242.109375 C 133.476562 244.632812 131.550781 247.324219 129.828125 250.101562 L 132.050781 251.476562 C 133.710938 248.796875 135.566406 246.203125 137.570312 243.769531 C 138.503906 242.632812 139.484375 241.523438 140.492188 240.445312 C 144.160156 242.726562 149.195312 245.347656 155.515625 247.273438 C 162.253906 249.332031 168.261719 249.933594 172.808594 250.019531 C 175.832031 253.691406 179.289062 256.960938 183.132812 259.773438 C 186 261.871094 189.0625 263.699219 192.277344 265.226562 C 190.832031 268.183594 189.390625 271.144531 187.945312 274.101562 C 194.464844 274.21875 204.179688 273.644531 215.28125 270.085938 C 225.742188 266.734375 233.613281 261.964844 238.757812 258.273438 C 236.539062 258.015625 233.820312 257.488281 230.859375 256.402344 C 230.046875 256.105469 229.28125 255.789062 228.5625 255.46875 C 231.699219 251.511719 234.335938 247.195312 236.429688 242.589844 C 238.457031 238.132812 239.949219 233.460938 240.875 228.660156 L 240.878906 228.660156 C 243.925781 226.671875 247.542969 223.898438 251.132812 220.101562 C 255.167969 215.828125 257.9375 211.566406 259.8125 208.101562 C 260.484375 208.453125 261.175781 208.765625 261.890625 209.042969 C 264.453125 210.027344 266.882812 210.339844 268.933594 210.339844 C 270.171875 210.339844 271.273438 210.226562 272.1875 210.078125 Z M 154.777344 196.363281 C 151.0625 196.859375 146.617188 197.738281 141.738281 199.332031 C 137.125 200.839844 133.195312 202.628906 130 204.335938 C 127.425781 201.507812 124.988281 198.546875 122.722656 195.488281 C 120.148438 192.019531 117.753906 188.375 115.582031 184.628906 C 116.488281 179.179688 117.84375 173.089844 119.878906 166.566406 C 121.144531 162.503906 122.527344 158.746094 123.945312 155.304688 C 127.335938 151.960938 131.179688 149.167969 135.390625 146.972656 C 140.21875 144.457031 145.511719 142.785156 150.964844 142.027344 C 152.074219 144.863281 153.65625 148.179688 155.929688 151.65625 C 159.203125 156.664062 162.8125 160.316406 165.757812 162.839844 C 162.761719 166.648438 159.699219 171.628906 157.554688 177.835938 C 155.160156 184.765625 154.601562 191.195312 154.777344 196.363281 Z M 170.117188 208.976562 C 165.78125 204.902344 161.535156 201.273438 157.476562 198.050781 C 157.117188 192.886719 157.46875 186.085938 160.023438 178.691406 C 162.394531 171.828125 165.941406 166.546875 169.203125 162.761719 C 173.757812 161.507812 178.375 160.191406 183.054688 158.808594 C 187.894531 157.375 192.644531 155.914062 197.292969 154.4375 C 201.773438 158.699219 206.300781 162.984375 210.789062 167.210938 C 215.703125 171.839844 220.683594 176.503906 225.632812 181.105469 C 223.847656 184.914062 222.066406 189.273438 220.488281 194.167969 C 218.546875 200.191406 217.3125 205.78125 216.527344 210.699219 C 211.785156 214.476562 206.5 217.429688 200.796875 219.484375 C 195.199219 221.503906 189.382812 222.605469 183.457031 222.765625 C 179.582031 218.355469 175.152344 213.703125 170.117188 208.976562 Z M 234.054688 241.511719 C 231.828125 246.414062 228.949219 250.976562 225.492188 255.101562 C 221.402344 257.179688 216.332031 259.355469 210.351562 261.117188 C 205.121094 262.660156 200.292969 263.554688 196.101562 264.066406 C 192.042969 262.398438 188.203125 260.25 184.675781 257.664062 C 181.1875 255.113281 178.03125 252.167969 175.246094 248.871094 C 176.867188 246.195312 178.546875 243 180.035156 239.285156 C 182.113281 234.109375 183.261719 229.332031 183.902344 225.363281 C 189.976562 225.160156 195.941406 224.015625 201.683594 221.941406 C 207.183594 219.957031 212.316406 217.175781 216.972656 213.660156 C 219.179688 216.886719 222.90625 221.367188 228.726562 225.070312 C 232.121094 227.230469 235.371094 228.578125 238.050781 229.441406 C 237.15625 233.59375 235.816406 237.636719 234.054688 241.511719 Z M 252.164062 161.347656 C 252.058594 166.539062 251.578125 171.757812 250.738281 176.902344 C 247.363281 176.832031 243.53125 176.949219 239.347656 177.429688 C 235.03125 177.925781 231.167969 178.707031 227.820312 179.574219 C 222.742188 174.851562 217.625 170.0625 212.578125 165.3125 C 208.363281 161.34375 204.121094 157.328125 199.910156 153.324219 C 200.996094 149.59375 202.007812 145.046875 202.535156 139.816406 C 202.914062 136.070312 202.976562 132.632812 202.871094 129.585938 C 205.980469 129.007812 209.132812 128.550781 212.265625 128.222656 C 218.425781 127.574219 224.6875 127.402344 230.902344 127.707031 C 233.664062 130.792969 236.542969 133.914062 239.550781 137.0625 C 243.664062 141.375 247.738281 145.453125 251.75 149.304688 C 252.105469 153.304688 252.246094 157.34375 252.164062 161.347656 Z M 252.164062 161.347656 " fill-opacity="1" fill-rule="nonzero"/><path stroke-linecap="butt" transform="matrix(0.75, 0, 0, 0.75, 0.0000045, 164.402788)" fill="none" stroke-linejoin="miter" d="M -0.000006 1.999408 L 110.541668 1.999408 " stroke="#ffbd59" stroke-width="4" stroke-opacity="1" stroke-miterlimit="4"/><path stroke-linecap="butt" transform="matrix(0.75, 0, 0, 0.75, 295.495384, 165.282294)" fill="none" stroke-linejoin="miter" d="M 0.000945939 1.998608 L 110.54262 1.998608 " stroke="#ffbd59" stroke-width="4" stroke-opacity="1" stroke-miterlimit="4"/><path stroke-linecap="butt" transform="matrix(0.75, 0, 0, 0.75, 0.0000045, 209.879533)" fill="none" stroke-linejoin="miter" d="M -0.000006 1.999165 L 110.541668 1.999165 " stroke="#1e1e1c" stroke-width="4" stroke-opacity="1" stroke-miterlimit="4"/><path stroke-linecap="butt" transform="matrix(0.75, 0, 0, 0.75, 295.495384, 209.879533)" fill="none" stroke-linejoin="miter" d="M 0.000945939 1.999165 L 110.54262 1.999165 " stroke="#1e1e1c" stroke-width="4" stroke-opacity="1" stroke-miterlimit="4"/><g clip-path="url(#e3860eb098)"><path fill="#1d1d1b" d="M 56.007812 175.238281 L 59.753906 183.664062 C 59.898438 183.988281 60.125 184.269531 60.414062 184.476562 C 60.699219 184.683594 61.035156 184.8125 61.386719 184.851562 L 70.558594 185.8125 L 63.703125 191.980469 C 63.441406 192.21875 63.246094 192.519531 63.136719 192.855469 C 63.027344 193.191406 63.007812 193.554688 63.082031 193.898438 L 65 202.917969 L 57.015625 198.304688 C 56.710938 198.128906 56.363281 198.035156 56.007812 198.035156 C 55.652344 198.035156 55.304688 198.128906 55 198.304688 L 47.011719 202.917969 L 48.933594 193.898438 C 49.007812 193.554688 48.988281 193.191406 48.878906 192.855469 C 48.769531 192.519531 48.574219 192.21875 48.308594 191.980469 L 41.453125 185.8125 L 50.625 184.851562 C 50.980469 184.8125 51.316406 184.683594 51.601562 184.476562 C 51.890625 184.269531 52.117188 183.988281 52.257812 183.664062 Z M 56.007812 175.238281 " fill-opacity="1" fill-rule="evenodd"/></g><g fill="#000000" fill-opacity="1"><g transform="translate(81.398266, 136.339845)"><g><path d="M 8.875 -17.015625 C 9.125 -17.023438 9.328125 -16.9375 9.484375 -16.75 C 9.640625 -16.5625 9.644531 -16.34375 9.5 -16.09375 L 7.625 -12.921875 C 7.4375 -12.597656 7.222656 -12.378906 6.984375 -12.265625 C 6.742188 -12.148438 6.421875 -12.082031 6.015625 -12.0625 L -0.03125 -11.703125 C -0.257812 -11.671875 -0.476562 -11.691406 -0.6875 -11.765625 C -0.90625 -11.847656 -1.203125 -12 -1.578125 -12.21875 L -3.734375 -13.484375 C -3.984375 -13.640625 -4.144531 -13.804688 -4.21875 -13.984375 C -4.289062 -14.171875 -4.234375 -14.421875 -4.046875 -14.734375 L -3.734375 -15.265625 C -3.335938 -15.929688 -3.191406 -16.644531 -3.296875 -17.40625 C -3.398438 -18.175781 -3.765625 -18.742188 -4.390625 -19.109375 C -5.085938 -19.523438 -5.78125 -19.613281 -6.46875 -19.375 C -7.164062 -19.144531 -7.722656 -18.679688 -8.140625 -17.984375 L -10.25 -14.40625 L 2.875 -6.640625 C 3.175781 -6.460938 3.34375 -6.273438 3.375 -6.078125 C 3.40625 -5.878906 3.34375 -5.65625 3.1875 -5.40625 L 1.625 -2.75 C 1.476562 -2.507812 1.3125 -2.351562 1.125 -2.28125 C 0.9375 -2.207031 0.691406 -2.257812 0.390625 -2.4375 L -15.734375 -11.96875 C -15.984375 -12.113281 -16.144531 -12.273438 -16.21875 -12.453125 C -16.300781 -12.628906 -16.25 -12.875 -16.0625 -13.1875 L -12.0625 -19.96875 C -11.476562 -20.945312 -10.929688 -21.722656 -10.421875 -22.296875 C -9.910156 -22.867188 -9.390625 -23.304688 -8.859375 -23.609375 C -8.328125 -23.910156 -7.765625 -24.140625 -7.171875 -24.296875 C -6.390625 -24.515625 -5.550781 -24.539062 -4.65625 -24.375 C -3.769531 -24.207031 -2.894531 -23.867188 -2.03125 -23.359375 C -1.09375 -22.804688 -0.375 -22.117188 0.125 -21.296875 C 0.625 -20.472656 0.945312 -19.628906 1.09375 -18.765625 C 1.238281 -17.898438 1.25 -17.132812 1.125 -16.46875 Z M 8.875 -17.015625 "/></g></g></g><g fill="#000000" fill-opacity="1"><g transform="translate(102.551699, 105.976409)"><g><path d="M 5.25 -10.828125 C 5.507812 -11.078125 5.738281 -11.1875 5.9375 -11.15625 C 6.144531 -11.125 6.347656 -11 6.546875 -10.78125 L 8.234375 -8.984375 C 8.421875 -8.785156 8.523438 -8.582031 8.546875 -8.375 C 8.566406 -8.175781 8.445312 -7.953125 8.1875 -7.703125 L 1.75 -1.65625 C 1.488281 -1.40625 1.253906 -1.296875 1.046875 -1.328125 C 0.847656 -1.367188 0.65625 -1.488281 0.46875 -1.6875 L -1.21875 -3.484375 C -1.414062 -3.703125 -1.523438 -3.910156 -1.546875 -4.109375 C -1.566406 -4.304688 -1.445312 -4.53125 -1.1875 -4.78125 L 0.25 -6.125 L -7.921875 -14.8125 L -9.3125 -13.5 C -9.570312 -13.257812 -9.800781 -13.15625 -10 -13.1875 C -10.207031 -13.226562 -10.40625 -13.347656 -10.59375 -13.546875 L -12.328125 -15.390625 C -12.523438 -15.609375 -12.632812 -15.8125 -12.65625 -16 C -12.675781 -16.195312 -12.554688 -16.414062 -12.296875 -16.65625 L -5.96875 -22.609375 C -5.707031 -22.859375 -5.476562 -22.96875 -5.28125 -22.9375 C -5.082031 -22.914062 -4.882812 -22.796875 -4.6875 -22.578125 L -2.953125 -20.734375 C -2.765625 -20.535156 -2.65625 -20.332031 -2.625 -20.125 C -2.601562 -19.925781 -2.722656 -19.703125 -2.984375 -19.453125 L -4.34375 -18.171875 L 3.828125 -9.484375 Z M 5.25 -10.828125 "/></g></g></g><g fill="#000000" fill-opacity="1"><g transform="translate(125.561624, 86.596887)"><g><path d="M 9.453125 -27.65625 C 9.765625 -27.820312 10.007812 -27.859375 10.1875 -27.765625 C 10.375 -27.679688 10.535156 -27.507812 10.671875 -27.25 L 19 -10.421875 C 19.15625 -10.109375 19.191406 -9.859375 19.109375 -9.671875 C 19.023438 -9.492188 18.851562 -9.335938 18.59375 -9.203125 L 15.90625 -7.875 C 15.664062 -7.757812 15.441406 -7.722656 15.234375 -7.765625 C 15.023438 -7.804688 14.84375 -7.984375 14.6875 -8.296875 L 9.984375 -17.796875 L 9.625 -11.5 C 9.601562 -11.34375 9.554688 -11.160156 9.484375 -10.953125 C 9.421875 -10.753906 9.289062 -10.601562 9.09375 -10.5 L 7.6875 -9.8125 C 7.476562 -9.707031 7.28125 -9.691406 7.09375 -9.765625 C 6.90625 -9.847656 6.75 -9.929688 6.625 -10.015625 L 1.359375 -13.515625 L 6.0625 -4.015625 C 6.21875 -3.703125 6.253906 -3.453125 6.171875 -3.265625 C 6.085938 -3.085938 5.914062 -2.929688 5.65625 -2.796875 L 2.890625 -1.421875 C 2.640625 -1.304688 2.410156 -1.269531 2.203125 -1.3125 C 2.003906 -1.351562 1.828125 -1.53125 1.671875 -1.84375 L -6.65625 -18.671875 C -6.789062 -18.929688 -6.835938 -19.15625 -6.796875 -19.34375 C -6.753906 -19.539062 -6.570312 -19.71875 -6.25 -19.875 L -3.484375 -21.25 C -2.992188 -21.488281 -2.625 -21.523438 -2.375 -21.359375 C -2.132812 -21.191406 -1.921875 -21.050781 -1.734375 -20.9375 L 5.53125 -15.953125 L 5.96875 -24.75 C 5.976562 -24.96875 5.992188 -25.226562 6.015625 -25.53125 C 6.046875 -25.832031 6.296875 -26.097656 6.765625 -26.328125 Z M 9.453125 -27.65625 "/></g></g></g><g fill="#000000" fill-opacity="1"><g transform="translate(162.422443, 71.449456)"><g><path d="M 15.375 -12.84375 C 15.4375 -12.832031 15.628906 -12.757812 15.953125 -12.625 C 16.285156 -12.488281 16.648438 -12.269531 17.046875 -11.96875 C 17.441406 -11.664062 17.8125 -11.242188 18.15625 -10.703125 C 18.5 -10.160156 18.726562 -9.460938 18.84375 -8.609375 C 19.019531 -7.316406 18.851562 -6.179688 18.34375 -5.203125 C 17.84375 -4.234375 17.066406 -3.453125 16.015625 -2.859375 C 14.972656 -2.265625 13.734375 -1.867188 12.296875 -1.671875 L 3.1875 -0.4375 C 2.832031 -0.382812 2.582031 -0.429688 2.4375 -0.578125 C 2.300781 -0.734375 2.210938 -0.941406 2.171875 -1.203125 L -0.359375 -19.828125 C -0.398438 -20.109375 -0.367188 -20.332031 -0.265625 -20.5 C -0.171875 -20.675781 0.0507812 -20.789062 0.40625 -20.84375 L 9.078125 -22.015625 C 10.773438 -22.242188 12.1875 -22.164062 13.3125 -21.78125 C 14.4375 -21.40625 15.3125 -20.820312 15.9375 -20.03125 C 16.5625 -19.238281 16.9375 -18.359375 17.0625 -17.390625 C 17.207031 -16.359375 17.148438 -15.515625 16.890625 -14.859375 C 16.628906 -14.203125 16.335938 -13.71875 16.015625 -13.40625 C 15.691406 -13.09375 15.476562 -12.90625 15.375 -12.84375 Z M 11.765625 -6.078125 C 12.523438 -6.179688 13.085938 -6.421875 13.453125 -6.796875 C 13.816406 -7.171875 13.953125 -7.707031 13.859375 -8.40625 C 13.765625 -9.132812 13.457031 -9.597656 12.9375 -9.796875 C 12.414062 -10.003906 11.785156 -10.054688 11.046875 -9.953125 L 10.328125 -9.859375 C 9.984375 -9.804688 9.734375 -9.851562 9.578125 -10 C 9.429688 -10.15625 9.34375 -10.367188 9.3125 -10.640625 L 8.984375 -12.984375 C 8.953125 -13.273438 8.988281 -13.503906 9.09375 -13.671875 C 9.195312 -13.847656 9.421875 -13.960938 9.765625 -14.015625 L 10.171875 -14.0625 C 11.078125 -14.1875 11.707031 -14.4375 12.0625 -14.8125 C 12.414062 -15.1875 12.550781 -15.675781 12.46875 -16.28125 C 12.375 -16.976562 12.082031 -17.410156 11.59375 -17.578125 C 11.113281 -17.742188 10.472656 -17.769531 9.671875 -17.65625 L 4.96875 -17.015625 L 6.5625 -5.359375 Z M 11.765625 -6.078125 "/></g></g></g><g fill="#000000" fill-opacity="1"><g transform="translate(199.833385, 69.00007)"><g><path d="M 17.71875 -1.359375 C 18.0625 -1.296875 18.28125 -1.175781 18.375 -1 C 18.476562 -0.820312 18.503906 -0.59375 18.453125 -0.3125 L 18.015625 2.21875 C 17.960938 2.476562 17.859375 2.679688 17.703125 2.828125 C 17.554688 2.972656 17.3125 3.015625 16.96875 2.953125 L 3.171875 0.546875 C 2.816406 0.492188 2.59375 0.367188 2.5 0.171875 C 2.40625 -0.015625 2.382812 -0.238281 2.4375 -0.5 L 5.65625 -18.96875 C 5.707031 -19.257812 5.804688 -19.46875 5.953125 -19.59375 C 6.097656 -19.71875 6.347656 -19.753906 6.703125 -19.703125 L 19.96875 -17.390625 C 20.320312 -17.328125 20.546875 -17.207031 20.640625 -17.03125 C 20.734375 -16.863281 20.753906 -16.632812 20.703125 -16.34375 L 20.25 -13.796875 C 20.207031 -13.523438 20.109375 -13.316406 19.953125 -13.171875 C 19.804688 -13.035156 19.554688 -13 19.203125 -13.0625 L 9.90625 -14.671875 L 9.328125 -11.3125 L 17.578125 -9.875 C 17.929688 -9.820312 18.15625 -9.703125 18.25 -9.515625 C 18.34375 -9.335938 18.363281 -9.109375 18.3125 -8.828125 L 17.890625 -6.421875 C 17.847656 -6.148438 17.75 -5.945312 17.59375 -5.8125 C 17.445312 -5.675781 17.195312 -5.632812 16.84375 -5.6875 L 8.59375 -7.125 L 7.890625 -3.0625 Z M 17.71875 -1.359375 "/></g></g></g><g fill="#000000" fill-opacity="1"><g transform="translate(234.481846, 77.432831)"><g><path d="M 17.46875 7.90625 C 17.5 8.164062 17.425781 8.375 17.25 8.53125 C 17.070312 8.695312 16.851562 8.71875 16.59375 8.59375 L 13.328125 6.890625 C 12.992188 6.722656 12.757812 6.519531 12.625 6.28125 C 12.5 6.050781 12.414062 5.738281 12.375 5.34375 L 11.6875 -0.671875 C 11.644531 -0.898438 11.648438 -1.125 11.703125 -1.34375 C 11.765625 -1.5625 11.894531 -1.863281 12.09375 -2.25 L 13.25 -4.46875 C 13.382812 -4.726562 13.546875 -4.894531 13.734375 -4.96875 C 13.921875 -5.050781 14.171875 -5.015625 14.484375 -4.859375 L 15.03125 -4.5625 C 15.71875 -4.207031 16.4375 -4.101562 17.1875 -4.25 C 17.945312 -4.40625 18.492188 -4.804688 18.828125 -5.453125 C 19.203125 -6.179688 19.253906 -6.882812 18.984375 -7.5625 C 18.710938 -8.238281 18.21875 -8.757812 17.5 -9.125 L 13.8125 -11.046875 L 6.8125 2.484375 C 6.644531 2.804688 6.460938 2.988281 6.265625 3.03125 C 6.066406 3.070312 5.835938 3.023438 5.578125 2.890625 L 2.828125 1.46875 C 2.585938 1.34375 2.425781 1.1875 2.34375 1 C 2.257812 0.820312 2.300781 0.570312 2.46875 0.25 L 11.0625 -16.375 C 11.195312 -16.625 11.351562 -16.789062 11.53125 -16.875 C 11.707031 -16.96875 11.953125 -16.929688 12.265625 -16.765625 L 19.265625 -13.15625 C 20.285156 -12.625 21.09375 -12.117188 21.6875 -11.640625 C 22.28125 -11.171875 22.742188 -10.679688 23.078125 -10.171875 C 23.410156 -9.660156 23.671875 -9.109375 23.859375 -8.515625 C 24.117188 -7.742188 24.191406 -6.90625 24.078125 -6 C 23.960938 -5.101562 23.675781 -4.207031 23.21875 -3.3125 C 22.71875 -2.351562 22.066406 -1.597656 21.265625 -1.046875 C 20.472656 -0.503906 19.648438 -0.140625 18.796875 0.046875 C 17.941406 0.234375 17.175781 0.285156 16.5 0.203125 Z M 17.46875 7.90625 "/></g></g></g><g fill="#000000" fill-opacity="1"><g transform="translate(265.977002, 96.860535)"><g><path d="M 11.109375 4.640625 C 11.359375 4.878906 11.472656 5.097656 11.453125 5.296875 C 11.441406 5.503906 11.335938 5.710938 11.140625 5.921875 L 9.4375 7.71875 C 9.25 7.914062 9.050781 8.03125 8.84375 8.0625 C 8.632812 8.09375 8.40625 7.988281 8.15625 7.75 L 1.75 1.65625 C 1.488281 1.414062 1.367188 1.191406 1.390625 0.984375 C 1.421875 0.773438 1.53125 0.570312 1.71875 0.375 L 3.421875 -1.421875 C 3.617188 -1.628906 3.816406 -1.742188 4.015625 -1.765625 C 4.210938 -1.796875 4.441406 -1.691406 4.703125 -1.453125 L 6.125 -0.09375 L 14.34375 -8.734375 L 12.96875 -10.046875 C 12.707031 -10.296875 12.585938 -10.523438 12.609375 -10.734375 C 12.628906 -10.941406 12.734375 -11.140625 12.921875 -11.328125 L 14.671875 -13.171875 C 14.867188 -13.378906 15.066406 -13.5 15.265625 -13.53125 C 15.472656 -13.5625 15.707031 -13.453125 15.96875 -13.203125 L 22.25 -7.21875 C 22.507812 -6.976562 22.628906 -6.753906 22.609375 -6.546875 C 22.597656 -6.347656 22.492188 -6.144531 22.296875 -5.9375 L 20.546875 -4.09375 C 20.359375 -3.90625 20.160156 -3.789062 19.953125 -3.75 C 19.742188 -3.71875 19.507812 -3.820312 19.25 -4.0625 L 17.90625 -5.359375 L 9.6875 3.28125 Z M 11.109375 4.640625 "/></g></g></g><g fill="#000000" fill-opacity="1"><g transform="translate(286.531884, 118.946141)"><g><path d="M 15.03125 12.578125 C 13.96875 13.203125 12.921875 13.515625 11.890625 13.515625 C 10.859375 13.523438 9.882812 13.316406 8.96875 12.890625 C 8.050781 12.460938 7.226562 11.894531 6.5 11.1875 C 5.769531 10.476562 5.164062 9.71875 4.6875 8.90625 C 4.207031 8.101562 3.835938 7.210938 3.578125 6.234375 C 3.328125 5.265625 3.238281 4.273438 3.3125 3.265625 C 3.382812 2.253906 3.675781 1.300781 4.1875 0.40625 C 4.707031 -0.476562 5.5 -1.234375 6.5625 -1.859375 L 12.921875 -5.578125 C 13.984375 -6.203125 15.023438 -6.519531 16.046875 -6.53125 C 17.078125 -6.550781 18.050781 -6.347656 18.96875 -5.921875 C 19.882812 -5.492188 20.703125 -4.925781 21.421875 -4.21875 C 22.148438 -3.519531 22.753906 -2.769531 23.234375 -1.96875 C 23.710938 -1.15625 24.082031 -0.257812 24.34375 0.71875 C 24.601562 1.695312 24.695312 2.691406 24.625 3.703125 C 24.550781 4.710938 24.257812 5.664062 23.75 6.5625 C 23.238281 7.46875 22.453125 8.234375 21.390625 8.859375 Z M 18.53125 4.859375 C 19.394531 4.347656 19.898438 3.671875 20.046875 2.828125 C 20.203125 1.992188 20.015625 1.125 19.484375 0.21875 C 18.960938 -0.65625 18.300781 -1.226562 17.5 -1.5 C 16.707031 -1.78125 15.878906 -1.664062 15.015625 -1.15625 L 9.40625 2.125 C 8.539062 2.632812 8.03125 3.304688 7.875 4.140625 C 7.726562 4.972656 7.914062 5.828125 8.4375 6.703125 C 8.96875 7.609375 9.628906 8.203125 10.421875 8.484375 C 11.222656 8.765625 12.054688 8.648438 12.921875 8.140625 Z M 18.53125 4.859375 "/></g></g></g><g fill="#ffffff" fill-opacity="1"><g transform="translate(79.143631, 267.229324)"><g><path d="M 19.765625 1.03125 C 19.910156 1.238281 19.960938 1.414062 19.921875 1.5625 C 19.878906 1.707031 19.769531 1.84375 19.59375 1.96875 L 18.0625 3.09375 C 17.882812 3.21875 17.71875 3.28125 17.5625 3.28125 C 17.40625 3.28125 17.253906 3.175781 17.109375 2.96875 L 12.953125 -2.75 L 10.734375 -1.140625 L 14.3125 3.78125 C 14.457031 3.988281 14.515625 4.160156 14.484375 4.296875 C 14.453125 4.441406 14.347656 4.578125 14.171875 4.703125 L 12.671875 5.78125 C 12.515625 5.90625 12.351562 5.96875 12.1875 5.96875 C 12.03125 5.96875 11.878906 5.863281 11.734375 5.65625 L 8.15625 0.734375 L 3.734375 3.953125 C 3.492188 4.128906 3.3125 4.203125 3.1875 4.171875 C 3.0625 4.140625 2.925781 4.019531 2.78125 3.8125 L 1.421875 1.953125 C 1.265625 1.734375 1.207031 1.550781 1.25 1.40625 C 1.289062 1.257812 1.394531 1.128906 1.5625 1.015625 L 12.890625 -7.234375 C 13.066406 -7.359375 13.234375 -7.421875 13.390625 -7.421875 C 13.546875 -7.421875 13.703125 -7.3125 13.859375 -7.09375 Z M 19.765625 1.03125 "/></g></g></g><g fill="#ffffff" fill-opacity="1"><g transform="translate(91.716506, 283.673414)"><g><path d="M 13.28125 6.21875 C 12.632812 6.875 11.9375 7.300781 11.1875 7.5 C 10.445312 7.695312 9.703125 7.726562 8.953125 7.59375 C 8.203125 7.46875 7.5 7.21875 6.84375 6.84375 C 6.1875 6.46875 5.609375 6.03125 5.109375 5.53125 C 4.609375 5.039062 4.164062 4.472656 3.78125 3.828125 C 3.40625 3.179688 3.148438 2.484375 3.015625 1.734375 C 2.878906 0.984375 2.910156 0.238281 3.109375 -0.5 C 3.304688 -1.238281 3.726562 -1.9375 4.375 -2.59375 L 8.25 -6.515625 C 8.894531 -7.160156 9.585938 -7.585938 10.328125 -7.796875 C 11.078125 -8.015625 11.820312 -8.050781 12.5625 -7.90625 C 13.300781 -7.769531 14 -7.519531 14.65625 -7.15625 C 15.320312 -6.800781 15.90625 -6.378906 16.40625 -5.890625 C 16.90625 -5.390625 17.34375 -4.804688 17.71875 -4.140625 C 18.09375 -3.484375 18.351562 -2.785156 18.5 -2.046875 C 18.644531 -1.304688 18.617188 -0.5625 18.421875 0.1875 C 18.222656 0.945312 17.800781 1.648438 17.15625 2.296875 Z M 14.3125 -0.046875 C 14.84375 -0.578125 15.082031 -1.160156 15.03125 -1.796875 C 14.976562 -2.429688 14.675781 -3.023438 14.125 -3.578125 C 13.582031 -4.109375 12.992188 -4.394531 12.359375 -4.4375 C 11.722656 -4.488281 11.140625 -4.25 10.609375 -3.71875 L 7.1875 -0.265625 C 6.664062 0.265625 6.429688 0.847656 6.484375 1.484375 C 6.535156 2.117188 6.832031 2.703125 7.375 3.234375 C 7.925781 3.785156 8.519531 4.082031 9.15625 4.125 C 9.789062 4.175781 10.367188 3.9375 10.890625 3.40625 Z M 14.3125 -0.046875 "/></g></g></g><g fill="#ffffff" fill-opacity="1"><g transform="translate(107.536527, 298.566895)"><g><path d="M 14.125 3.953125 C 13.59375 4.703125 12.972656 5.234375 12.265625 5.546875 C 11.566406 5.867188 10.835938 6.023438 10.078125 6.015625 C 9.316406 6.015625 8.578125 5.882812 7.859375 5.625 C 7.148438 5.363281 6.507812 5.03125 5.9375 4.625 C 5.363281 4.21875 4.835938 3.722656 4.359375 3.140625 C 3.890625 2.566406 3.523438 1.921875 3.265625 1.203125 C 3.003906 0.484375 2.910156 -0.253906 2.984375 -1.015625 C 3.054688 -1.773438 3.359375 -2.53125 3.890625 -3.28125 L 7.078125 -7.78125 C 7.597656 -8.53125 8.207031 -9.070312 8.90625 -9.40625 C 9.613281 -9.738281 10.34375 -9.894531 11.09375 -9.875 C 11.851562 -9.863281 12.585938 -9.726562 13.296875 -9.46875 C 14.003906 -9.21875 14.644531 -8.890625 15.21875 -8.484375 C 15.789062 -8.078125 16.316406 -7.582031 16.796875 -7 C 17.273438 -6.414062 17.644531 -5.769531 17.90625 -5.0625 C 18.175781 -4.351562 18.273438 -3.609375 18.203125 -2.828125 C 18.128906 -2.054688 17.832031 -1.296875 17.3125 -0.546875 Z M 14.109375 -2.390625 C 14.546875 -3.003906 14.6875 -3.617188 14.53125 -4.234375 C 14.375 -4.859375 13.976562 -5.394531 13.34375 -5.84375 C 12.71875 -6.289062 12.085938 -6.484375 11.453125 -6.421875 C 10.816406 -6.359375 10.28125 -6.019531 9.84375 -5.40625 L 7.046875 -1.4375 C 6.617188 -0.832031 6.484375 -0.222656 6.640625 0.390625 C 6.796875 1.003906 7.1875 1.535156 7.8125 1.984375 C 8.445312 2.429688 9.082031 2.625 9.71875 2.5625 C 10.351562 2.507812 10.882812 2.179688 11.3125 1.578125 Z M 14.109375 -2.390625 "/></g></g></g><g fill="#ffffff" fill-opacity="1"><g transform="translate(125.576244, 310.591083)"><g><path d="M 17.671875 -8.453125 C 17.898438 -8.335938 18.03125 -8.207031 18.0625 -8.0625 C 18.09375 -7.914062 18.054688 -7.742188 17.953125 -7.546875 L 17.109375 -5.796875 C 17.015625 -5.617188 16.898438 -5.492188 16.765625 -5.421875 C 16.628906 -5.359375 16.445312 -5.382812 16.21875 -5.5 L 13 -7.078125 L 7.96875 3.15625 C 7.851562 3.394531 7.722656 3.53125 7.578125 3.5625 C 7.429688 3.59375 7.257812 3.5625 7.0625 3.46875 L 5 2.453125 C 4.8125 2.359375 4.679688 2.242188 4.609375 2.109375 C 4.535156 1.972656 4.554688 1.785156 4.671875 1.546875 L 9.703125 -8.6875 L 6.484375 -10.28125 C 6.242188 -10.394531 6.109375 -10.523438 6.078125 -10.671875 C 6.046875 -10.828125 6.078125 -10.992188 6.171875 -11.171875 L 7.015625 -12.921875 C 7.117188 -13.117188 7.238281 -13.25 7.375 -13.3125 C 7.507812 -13.375 7.695312 -13.347656 7.9375 -13.234375 Z M 17.671875 -8.453125 "/></g></g></g><g fill="#ffffff" fill-opacity="1"><g transform="translate(143.767369, 319.043016)"><g><path d="M 14.453125 -3.953125 C 14.484375 -3.921875 14.585938 -3.804688 14.765625 -3.609375 C 14.953125 -3.421875 15.128906 -3.160156 15.296875 -2.828125 C 15.472656 -2.492188 15.59375 -2.085938 15.65625 -1.609375 C 15.726562 -1.140625 15.671875 -0.601562 15.484375 0 C 15.203125 0.9375 14.738281 1.660156 14.09375 2.171875 C 13.445312 2.679688 12.675781 2.972656 11.78125 3.046875 C 10.882812 3.117188 9.921875 3 8.890625 2.6875 L 2.296875 0.703125 C 2.046875 0.617188 1.894531 0.503906 1.84375 0.359375 C 1.789062 0.210938 1.789062 0.046875 1.84375 -0.140625 L 5.921875 -13.59375 C 5.984375 -13.800781 6.070312 -13.945312 6.1875 -14.03125 C 6.3125 -14.113281 6.5 -14.113281 6.75 -14.03125 L 13.015625 -12.140625 C 14.234375 -11.773438 15.164062 -11.285156 15.8125 -10.671875 C 16.46875 -10.054688 16.878906 -9.382812 17.046875 -8.65625 C 17.222656 -7.925781 17.207031 -7.210938 17 -6.515625 C 16.769531 -5.773438 16.46875 -5.21875 16.09375 -4.84375 C 15.726562 -4.476562 15.382812 -4.238281 15.0625 -4.125 C 14.738281 -4.019531 14.535156 -3.960938 14.453125 -3.953125 Z M 9.875 -0.46875 C 10.425781 -0.300781 10.882812 -0.289062 11.25 -0.4375 C 11.625 -0.582031 11.890625 -0.90625 12.046875 -1.40625 C 12.203125 -1.925781 12.132812 -2.335938 11.84375 -2.640625 C 11.550781 -2.941406 11.140625 -3.175781 10.609375 -3.34375 L 10.078125 -3.5 C 9.828125 -3.570312 9.675781 -3.679688 9.625 -3.828125 C 9.570312 -3.972656 9.578125 -4.140625 9.640625 -4.328125 L 10.15625 -6.03125 C 10.21875 -6.238281 10.304688 -6.382812 10.421875 -6.46875 C 10.546875 -6.550781 10.734375 -6.554688 10.984375 -6.484375 L 11.28125 -6.390625 C 11.9375 -6.191406 12.441406 -6.160156 12.796875 -6.296875 C 13.160156 -6.441406 13.410156 -6.734375 13.546875 -7.171875 C 13.703125 -7.679688 13.640625 -8.066406 13.359375 -8.328125 C 13.078125 -8.585938 12.644531 -8.804688 12.0625 -8.984375 L 8.65625 -10.015625 L 6.109375 -1.609375 Z M 9.875 -0.46875 "/></g></g></g><g fill="#ffffff" fill-opacity="1"><g transform="translate(165.697063, 325.053058)"><g><path d="M 14.921875 1.1875 C 14.960938 1.34375 14.957031 1.488281 14.90625 1.625 C 14.863281 1.769531 14.707031 1.828125 14.4375 1.796875 L 12 1.5 C 11.75 1.46875 11.566406 1.394531 11.453125 1.28125 C 11.347656 1.175781 11.273438 0.976562 11.234375 0.6875 L 10.796875 -1.234375 L 5.109375 -1.9375 L 4.25 -0.1875 C 4.113281 0.0820312 3.976562 0.253906 3.84375 0.328125 C 3.71875 0.410156 3.523438 0.4375 3.265625 0.40625 L 0.84375 0.109375 C 0.59375 0.078125 0.453125 -0.0078125 0.421875 -0.15625 C 0.398438 -0.3125 0.429688 -0.460938 0.515625 -0.609375 L 7.390625 -13.84375 C 7.515625 -14.070312 7.65625 -14.234375 7.8125 -14.328125 C 7.976562 -14.429688 8.1875 -14.46875 8.4375 -14.4375 L 10.65625 -14.15625 C 10.914062 -14.125 11.101562 -14.039062 11.21875 -13.90625 C 11.34375 -13.78125 11.441406 -13.585938 11.515625 -13.328125 Z M 9 -9.953125 L 6.625 -5.03125 L 10.09375 -4.59375 Z M 9 -9.953125 "/></g></g></g><g fill="#ffffff" fill-opacity="1"><g transform="translate(187.520116, 327.161933)"><g><path d="M 11.984375 -3.703125 C 12.242188 -3.710938 12.421875 -3.660156 12.515625 -3.546875 C 12.617188 -3.441406 12.675781 -3.28125 12.6875 -3.0625 L 12.75 -1.140625 C 12.757812 -0.941406 12.71875 -0.773438 12.625 -0.640625 C 12.539062 -0.515625 12.367188 -0.445312 12.109375 -0.4375 L 2.40625 -0.09375 C 2.144531 -0.0820312 1.960938 -0.132812 1.859375 -0.25 C 1.765625 -0.375 1.710938 -0.535156 1.703125 -0.734375 L 1.203125 -14.734375 C 1.191406 -15.003906 1.242188 -15.1875 1.359375 -15.28125 C 1.484375 -15.382812 1.644531 -15.441406 1.84375 -15.453125 L 4.15625 -15.53125 C 4.375 -15.539062 4.539062 -15.5 4.65625 -15.40625 C 4.78125 -15.320312 4.847656 -15.144531 4.859375 -14.875 L 5.265625 -3.46875 Z M 11.984375 -3.703125 "/></g></g></g><g fill="#ffffff" fill-opacity="1"><g transform="translate(207.66152, 325.916296)"><g><path d="M 11.28125 -5.5 C 11.539062 -5.539062 11.726562 -5.515625 11.84375 -5.421875 C 11.957031 -5.335938 12.035156 -5.1875 12.078125 -4.96875 L 12.4375 -3.078125 C 12.46875 -2.890625 12.453125 -2.722656 12.390625 -2.578125 C 12.328125 -2.429688 12.164062 -2.335938 11.90625 -2.296875 L 2.359375 -0.453125 C 2.109375 -0.398438 1.921875 -0.425781 1.796875 -0.53125 C 1.679688 -0.644531 1.609375 -0.796875 1.578125 -0.984375 L -1.078125 -14.75 C -1.128906 -15.019531 -1.097656 -15.210938 -0.984375 -15.328125 C -0.878906 -15.441406 -0.734375 -15.515625 -0.546875 -15.546875 L 1.734375 -15.984375 C 1.941406 -16.023438 2.109375 -16.007812 2.234375 -15.9375 C 2.367188 -15.875 2.460938 -15.707031 2.515625 -15.4375 L 4.671875 -4.21875 Z M 11.28125 -5.5 "/></g></g></g><g fill="#ffffff" fill-opacity="1"><g transform="translate(227.157886, 321.52641)"><g/></g></g><g fill="#ffffff" fill-opacity="1"><g transform="translate(239.25978, 317.432758)"><g><path d="M 10.3125 -9.953125 C 10.625 -9.273438 10.75 -8.582031 10.6875 -7.875 C 10.625 -7.175781 10.421875 -6.507812 10.078125 -5.875 C 9.734375 -5.238281 9.285156 -4.660156 8.734375 -4.140625 C 8.179688 -3.628906 7.570312 -3.21875 6.90625 -2.90625 C 6.28125 -2.601562 5.59375 -2.390625 4.84375 -2.265625 C 4.09375 -2.140625 3.34375 -2.132812 2.59375 -2.25 C 1.84375 -2.363281 1.148438 -2.640625 0.515625 -3.078125 C -0.109375 -3.515625 -0.613281 -4.144531 -1 -4.96875 L -3.375 -9.953125 C -3.769531 -10.785156 -3.9375 -11.582031 -3.875 -12.34375 C -3.820312 -13.101562 -3.601562 -13.8125 -3.21875 -14.46875 C -2.832031 -15.125 -2.351562 -15.703125 -1.78125 -16.203125 C -1.207031 -16.703125 -0.609375 -17.101562 0.015625 -17.40625 C 0.890625 -17.820312 1.796875 -18.070312 2.734375 -18.15625 C 3.679688 -18.25 4.570312 -18.128906 5.40625 -17.796875 C 6.238281 -17.472656 6.910156 -16.878906 7.421875 -16.015625 C 7.535156 -15.765625 7.5625 -15.578125 7.5 -15.453125 C 7.4375 -15.328125 7.28125 -15.207031 7.03125 -15.09375 L 5.015625 -14.140625 C 4.785156 -14.023438 4.609375 -14.03125 4.484375 -14.15625 C 4.359375 -14.289062 4.226562 -14.398438 4.09375 -14.484375 C 3.695312 -14.722656 3.296875 -14.847656 2.890625 -14.859375 C 2.492188 -14.867188 2.003906 -14.738281 1.421875 -14.46875 C 0.742188 -14.144531 0.273438 -13.691406 0.015625 -13.109375 C -0.242188 -12.523438 -0.21875 -11.898438 0.09375 -11.234375 L 2.1875 -6.84375 C 2.5 -6.175781 2.960938 -5.765625 3.578125 -5.609375 C 4.191406 -5.453125 4.835938 -5.535156 5.515625 -5.859375 C 6.097656 -6.128906 6.535156 -6.472656 6.828125 -6.890625 C 7.128906 -7.316406 7.203125 -7.804688 7.046875 -8.359375 C 6.972656 -8.578125 6.929688 -8.773438 6.921875 -8.953125 C 6.921875 -9.128906 7.03125 -9.269531 7.25 -9.375 L 9.328125 -10.359375 C 9.753906 -10.554688 10.082031 -10.421875 10.3125 -9.953125 Z M 10.3125 -9.953125 "/></g></g></g><g fill="#ffffff" fill-opacity="1"><g transform="translate(258.309714, 307.737777)"><g><path d="M 8.140625 -9.5625 C 8.359375 -9.707031 8.535156 -9.757812 8.671875 -9.71875 C 8.816406 -9.675781 8.953125 -9.566406 9.078125 -9.390625 L 10.171875 -7.796875 C 10.273438 -7.640625 10.320312 -7.484375 10.3125 -7.328125 C 10.3125 -7.171875 10.203125 -7.019531 9.984375 -6.875 L 1.984375 -1.359375 C 1.765625 -1.210938 1.578125 -1.164062 1.421875 -1.21875 C 1.273438 -1.269531 1.148438 -1.375 1.046875 -1.53125 L -6.90625 -13.09375 C -7.050781 -13.3125 -7.097656 -13.492188 -7.046875 -13.640625 C -6.992188 -13.785156 -6.882812 -13.914062 -6.71875 -14.03125 L -4.8125 -15.34375 C -4.632812 -15.46875 -4.472656 -15.519531 -4.328125 -15.5 C -4.179688 -15.488281 -4.035156 -15.375 -3.890625 -15.15625 L 2.59375 -5.734375 Z M 8.140625 -9.5625 "/></g></g></g><g fill="#ffffff" fill-opacity="1"><g transform="translate(274.717679, 295.901828)"><g><path d="M -1.078125 -20.25 C -0.921875 -20.394531 -0.765625 -20.472656 -0.609375 -20.484375 C -0.460938 -20.503906 -0.296875 -20.414062 -0.109375 -20.21875 L 6.8125 -13 C 7.4375 -12.332031 7.832031 -11.640625 8 -10.921875 C 8.175781 -10.203125 8.179688 -9.484375 8.015625 -8.765625 C 7.847656 -8.054688 7.5625 -7.382812 7.15625 -6.75 C 6.757812 -6.125 6.304688 -5.566406 5.796875 -5.078125 C 5.296875 -4.585938 4.722656 -4.160156 4.078125 -3.796875 C 3.441406 -3.441406 2.757812 -3.195312 2.03125 -3.0625 C 1.3125 -2.925781 0.597656 -2.957031 -0.109375 -3.15625 C -0.816406 -3.351562 -1.484375 -3.785156 -2.109375 -4.453125 L -9.03125 -11.671875 C -9.21875 -11.867188 -9.296875 -12.046875 -9.265625 -12.203125 C -9.242188 -12.359375 -9.160156 -12.503906 -9.015625 -12.640625 L -7.34375 -14.234375 C -7.1875 -14.390625 -7.035156 -14.472656 -6.890625 -14.484375 C -6.742188 -14.492188 -6.578125 -14.398438 -6.390625 -14.203125 L 0.171875 -7.359375 C 0.671875 -6.828125 1.222656 -6.570312 1.828125 -6.59375 C 2.429688 -6.613281 3.007812 -6.890625 3.5625 -7.421875 C 4.125 -7.960938 4.425781 -8.535156 4.46875 -9.140625 C 4.519531 -9.742188 4.296875 -10.3125 3.796875 -10.84375 L -2.765625 -17.6875 C -2.953125 -17.882812 -3.03125 -18.054688 -3 -18.203125 C -2.96875 -18.359375 -2.882812 -18.507812 -2.75 -18.65625 Z M -1.078125 -20.25 "/></g></g></g><g fill="#ffffff" fill-opacity="1"><g transform="translate(290.33136, 280.206531)"><g><path d="M 1.140625 -14.9375 C 1.179688 -14.957031 1.320312 -15.019531 1.5625 -15.125 C 1.800781 -15.226562 2.101562 -15.304688 2.46875 -15.359375 C 2.84375 -15.421875 3.265625 -15.398438 3.734375 -15.296875 C 4.203125 -15.203125 4.691406 -14.96875 5.203125 -14.59375 C 5.992188 -14.007812 6.519531 -13.328125 6.78125 -12.546875 C 7.039062 -11.765625 7.054688 -10.9375 6.828125 -10.0625 C 6.597656 -9.195312 6.160156 -8.332031 5.515625 -7.46875 L 1.4375 -1.9375 C 1.28125 -1.726562 1.125 -1.617188 0.96875 -1.609375 C 0.8125 -1.609375 0.648438 -1.671875 0.484375 -1.796875 L -10.796875 -10.140625 C -10.972656 -10.273438 -11.078125 -10.414062 -11.109375 -10.5625 C -11.148438 -10.707031 -11.09375 -10.882812 -10.9375 -11.09375 L -7.046875 -16.359375 C -6.296875 -17.378906 -5.523438 -18.085938 -4.734375 -18.484375 C -3.941406 -18.890625 -3.171875 -19.050781 -2.421875 -18.96875 C -1.671875 -18.894531 -1.003906 -18.640625 -0.421875 -18.203125 C 0.203125 -17.742188 0.617188 -17.273438 0.828125 -16.796875 C 1.046875 -16.316406 1.15625 -15.90625 1.15625 -15.5625 C 1.164062 -15.21875 1.160156 -15.007812 1.140625 -14.9375 Z M 2.890625 -9.46875 C 3.234375 -9.925781 3.394531 -10.351562 3.375 -10.75 C 3.363281 -11.144531 3.148438 -11.5 2.734375 -11.8125 C 2.285156 -12.132812 1.867188 -12.207031 1.484375 -12.03125 C 1.109375 -11.851562 0.757812 -11.546875 0.4375 -11.109375 L 0.109375 -10.671875 C -0.046875 -10.460938 -0.203125 -10.359375 -0.359375 -10.359375 C -0.523438 -10.359375 -0.6875 -10.414062 -0.84375 -10.53125 L -2.28125 -11.59375 C -2.457031 -11.71875 -2.5625 -11.851562 -2.59375 -12 C -2.625 -12.144531 -2.5625 -12.320312 -2.40625 -12.53125 L -2.21875 -12.78125 C -1.820312 -13.320312 -1.628906 -13.785156 -1.640625 -14.171875 C -1.648438 -14.566406 -1.84375 -14.898438 -2.21875 -15.171875 C -2.644531 -15.484375 -3.023438 -15.550781 -3.359375 -15.375 C -3.691406 -15.195312 -4.035156 -14.867188 -4.390625 -14.390625 L -6.515625 -11.515625 L 0.546875 -6.296875 Z M 2.890625 -9.46875 "/></g></g></g><g clip-path="url(#8a97ed5f48)"><path fill="#1d1d1b" d="M 322.363281 175.238281 L 326.109375 183.664062 C 326.253906 183.988281 326.480469 184.269531 326.769531 184.476562 C 327.054688 184.683594 327.390625 184.8125 327.742188 184.851562 L 336.917969 185.8125 L 330.058594 191.980469 C 329.796875 192.21875 329.601562 192.519531 329.492188 192.855469 C 329.382812 193.191406 329.363281 193.554688 329.4375 193.898438 L 331.355469 202.917969 L 323.371094 198.304688 C 323.066406 198.128906 322.71875 198.035156 322.363281 198.035156 C 322.007812 198.035156 321.660156 198.128906 321.355469 198.304688 L 313.367188 202.917969 L 315.289062 193.898438 C 315.363281 193.554688 315.34375 193.191406 315.234375 192.855469 C 315.125 192.519531 314.929688 192.21875 314.667969 191.980469 L 307.808594 185.8125 L 316.984375 184.851562 C 317.335938 184.8125 317.671875 184.683594 317.957031 184.476562 C 318.246094 184.269531 318.472656 183.988281 318.613281 183.664062 Z M 322.363281 175.238281 " fill-opacity="1" fill-rule="evenodd"/></g></svg>