<svg xmlns="http://www.w3.org/2000/svg" xmlns:xlink="http://www.w3.org/1999/xlink" width="500" zoomAndPan="magnify" viewBox="0 0 375 374.999991" height="500" preserveAspectRatio="xMidYMid meet" version="1.0"><defs><g/><clipPath id="2b57b9f48e"><path d="M 167.175781 41.351562 L 375 41.351562 L 375 325 L 167.175781 325 Z M 167.175781 41.351562 " clip-rule="nonzero"/></clipPath><clipPath id="bf13cf45bf"><path d="M 271.089844 273.144531 L 315 273.144531 L 315 317 L 271.089844 317 Z M 271.089844 273.144531 " clip-rule="nonzero"/></clipPath></defs><g clip-path="url(#2b57b9f48e)"><path fill="#000000" d="M 214.167969 266.324219 C 215.117188 266.636719 214.003906 264.691406 214.144531 263.800781 C 219.808594 260.789062 219.1875 251.507812 225.890625 249.546875 C 226.109375 246.972656 227.710938 245.773438 228.40625 243.679688 C 231.730469 244.347656 233.246094 243.117188 235.957031 242 C 236.484375 241.78125 238.601562 241.640625 239.3125 241.164062 C 242.113281 239.285156 242.324219 236.851562 244.347656 234.453125 C 242.644531 231.351562 244.917969 229.464844 244.347656 225.230469 C 248.121094 225.648438 247.199219 221.375 251.058594 221.878906 C 250.914062 219.78125 252.347656 219.253906 253.574219 218.523438 C 253.398438 216.425781 254.496094 214.800781 255.253906 212.652344 C 255.671875 211.445312 256.550781 209.972656 256.929688 208.460938 C 257.367188 206.710938 257.929688 205.746094 258.609375 204.269531 C 259.179688 203.027344 259.261719 201.140625 260.285156 199.238281 C 260.539062 198.761719 261.789062 197.964844 261.964844 197.5625 C 262.164062 197.101562 261.835938 196.378906 261.964844 195.886719 C 262.273438 194.652344 264.0625 190.058594 261.964844 186.660156 C 256.5625 188.765625 253.550781 184.816406 249.378906 183.308594 C 248.609375 182.410156 249.40625 180.566406 248.542969 179.113281 C 248.144531 178.445312 246.359375 178.09375 246.023438 177.4375 C 245.480469 176.375 245.007812 172.777344 244.347656 171.570312 C 244.101562 171.125 243.589844 171.660156 243.507812 170.730469 C 243.414062 169.691406 243.933594 168.199219 244.347656 166.539062 C 245.21875 163 245.480469 160.761719 248.542969 158.992188 C 248.558594 157.011719 247.097656 156.527344 247.703125 153.960938 C 249.296875 153.601562 249.808594 152.160156 251.894531 152.285156 C 252.113281 149.828125 250 149.710938 250.21875 147.253906 C 253.574219 145.851562 253.65625 141.191406 259.445312 142.222656 C 262.390625 141.996094 257.929688 138.507812 260.285156 138.867188 C 259.65625 135.722656 263.488281 137.039062 263.640625 134.675781 C 264.253906 132.386719 261.972656 132.992188 261.964844 131.324219 C 261.351562 129.035156 263.632812 129.636719 263.640625 127.96875 C 263.324219 126.644531 262.082031 125.929688 261.964844 124.613281 C 261.835938 123.273438 262.617188 123.148438 262.804688 122.097656 C 263.273438 119.425781 262.652344 117.066406 263.640625 113.714844 C 263.714844 113.460938 264.4375 113.671875 264.480469 112.875 C 264.515625 112.230469 265.210938 111.980469 265.320312 111.199219 C 265.65625 108.859375 263.925781 106.957031 265.320312 105.332031 C 261.898438 100.367188 257.535156 96.339844 254.414062 91.078125 C 249.90625 89.984375 246.328125 87.980469 240.152344 88.5625 C 238.699219 88.5625 238.414062 87.570312 237.636719 86.882812 C 237.0625 86.378906 236.242188 86 235.957031 85.207031 C 233.742188 84.996094 232.289062 85.484375 230.085938 85.207031 C 228.375 84.988281 226.570312 83.746094 225.050781 83.53125 C 221.207031 82.984375 217.800781 83.957031 214.144531 82.691406 C 213.835938 82.582031 214.144531 81.894531 213.304688 81.851562 C 213.078125 81.84375 212.667969 81.9375 212.46875 81.851562 C 211.71875 81.558594 209.3125 80.90625 207.433594 80.175781 C 207.089844 80.042969 207.46875 79.378906 206.59375 79.335938 C 206.367188 79.328125 205.957031 79.421875 205.753906 79.335938 C 205.242188 79.128906 205.074219 78.554688 204.917969 78.5 C 203.523438 77.996094 201.929688 77.96875 200.722656 77.660156 C 200.511719 77.609375 200.648438 76.863281 199.882812 76.820312 C 197.945312 76.722656 197.382812 76.664062 195.6875 75.984375 C 195.335938 75.839844 192.375 75.195312 191.492188 74.304688 C 188.472656 76.316406 188.136719 81.015625 185.621094 83.53125 C 183.597656 83.183594 183.800781 85.0625 181.425781 84.367188 C 179.949219 85.128906 179.890625 87.304688 178.910156 88.5625 C 176.886719 88.214844 177.089844 90.09375 174.714844 89.398438 C 172.105469 90.429688 171.34375 93.296875 167.164062 92.753906 C 167.703125 92.039062 167.339844 89.945312 168.003906 89.398438 C 169.40625 88.25 168.40625 86.28125 169.679688 84.367188 C 170.292969 83.453125 170.804688 82.84375 171.359375 81.851562 C 172.0625 80.601562 172.535156 78.339844 173.039062 77.660156 C 173.574219 76.9375 175.335938 76.203125 176.390625 75.144531 C 177.390625 74.148438 178.164062 72.292969 178.910156 71.789062 C 179.917969 71.109375 181.082031 71.4375 182.265625 70.953125 C 182.625 70.800781 182.214844 70.164062 183.105469 70.113281 C 185.371094 69.996094 187.265625 68.335938 189.816406 66.757812 C 195.117188 67.992188 201.886719 67.976562 208.273438 68.4375 C 209.613281 68.535156 209.707031 69.140625 210.789062 69.273438 C 215.546875 69.84375 220.328125 68.5625 224.210938 69.273438 C 226.242188 69.644531 228.414062 70.976562 230.085938 71.789062 C 233.011719 72.335938 234.664062 70.054688 238.472656 70.953125 C 240.363281 71.394531 240.539062 71.632812 244.347656 70.953125 C 246.660156 70.539062 248.1875 68.8125 251.058594 69.273438 C 254.320312 69.398438 254.734375 71.042969 258.609375 71.789062 C 262.441406 69.921875 269.984375 65.109375 274.546875 69.273438 C 275.648438 68.417969 277.644531 68.453125 278.742188 67.597656 C 280.09375 67.414062 279.152344 65.394531 279.582031 64.246094 C 279.707031 63.898438 281.21875 62.777344 281.257812 62.566406 C 281.5625 61.007812 280.386719 60.035156 280.421875 58.375 C 280.421875 58.542969 281.234375 58.007812 281.257812 57.535156 C 281.367188 55.414062 281.109375 53.453125 282.097656 51.667969 C 282.339844 51.222656 282.886719 51.777344 282.9375 50.828125 C 283.054688 48.640625 284.515625 49.335938 284.613281 47.476562 C 284.707031 45.730469 286.585938 47.140625 287.96875 45.800781 C 288.523438 45.261719 288.15625 43.726562 288.808594 43.285156 C 289.589844 43.097656 290.554688 43.515625 291.328125 43.285156 C 292.191406 43.023438 293.355469 42.847656 294.683594 42.445312 C 295.042969 42.332031 295.648438 41.605469 295.527344 41.605469 C 296.90625 41.460938 296.9375 42.410156 298.039062 42.445312 C 298.9375 42.46875 299.65625 41.597656 299.714844 41.605469 C 300.402344 41.664062 301.117188 42.328125 302.230469 42.445312 C 304.105469 42.636719 304.816406 42.519531 306.425781 43.285156 C 306.832031 43.476562 306.34375 44.070312 307.265625 44.121094 C 308.304688 44.179688 308.710938 45.398438 309.78125 46.636719 C 310.277344 47.207031 310.429688 48.316406 311.460938 48.316406 C 313.089844 48.316406 311.511719 50.878906 312.300781 51.667969 C 312.367188 51.734375 313.113281 51.585938 313.136719 51.667969 C 313.347656 52.40625 312.835938 53.484375 313.136719 54.183594 C 313.296875 54.554688 313.886719 54.15625 313.976562 55.023438 C 314.121094 56.371094 313.296875 56.941406 313.136719 58.375 C 312.820312 61.199219 312.644531 64.269531 312.300781 67.597656 C 312.894531 70.640625 318.414062 68.757812 321.527344 69.273438 C 323.179688 68.605469 323.414062 70.742188 324.046875 70.953125 C 325.050781 71.289062 326.386719 70.640625 327.398438 70.953125 C 327.746094 71.058594 328.875 72.59375 329.078125 72.628906 C 330.429688 72.871094 330.519531 71.832031 331.59375 71.789062 C 329.121094 68.945312 324.867188 67.890625 323.207031 64.246094 C 321.644531 64.128906 320.402344 63.691406 319.851562 62.566406 C 319.070312 61.671875 316.753906 62.304688 317.332031 60.050781 C 319.496094 58.703125 324.304688 60.519531 325.722656 62.566406 C 326.335938 62.507812 326.226562 61.082031 325.722656 60.050781 C 325.472656 59.535156 324.246094 58.8125 324.046875 58.375 C 323.246094 56.691406 322.800781 54.855469 322.367188 53.34375 C 321.6875 52.621094 320.066406 52.847656 319.851562 51.667969 C 320.109375 48.851562 322.652344 48.320312 324.882812 47.476562 C 324.253906 50.617188 328.089844 49.300781 328.238281 51.667969 C 330.21875 51.652344 330.707031 53.109375 333.273438 52.507812 C 335.269531 54.988281 338.230469 56.496094 340.824219 58.375 C 341.828125 61.261719 342.644531 63.875 344.179688 65.921875 C 349.546875 73.074219 361.167969 74.140625 369.347656 78.5 C 370.019531 80.066406 370.75 81.566406 371.023438 83.53125 C 371.660156 85.960938 375 85.699219 374.382812 89.398438 C 375.46875 91.9375 372.710938 90.875 371.863281 91.914062 C 371.761719 92.03125 371.988281 92.675781 371.863281 92.753906 C 371.554688 92.9375 370.402344 92.484375 370.183594 92.753906 C 370.101562 92.855469 370.285156 93.542969 370.183594 93.59375 C 369.882812 93.734375 368.710938 93.347656 368.507812 93.59375 C 367.601562 94.699219 366.789062 93.945312 365.152344 94.429688 C 363.070312 95.050781 361.210938 96.757812 356.761719 96.109375 C 355.480469 95.921875 354.121094 94.570312 352.566406 94.429688 C 351.125 94.292969 350.738281 95.207031 349.210938 95.269531 C 347.332031 95.335938 346.628906 94.070312 343.339844 94.429688 C 341.828125 94.597656 339.800781 95.15625 338.304688 96.109375 C 337.074219 96.894531 333.699219 96.660156 331.59375 97.785156 C 330.007812 97.875 331.015625 100.558594 329.078125 100.300781 C 328.976562 104.1875 329.273438 105.597656 328.238281 108.683594 C 328.136719 108.976562 327.441406 108.691406 327.398438 109.523438 C 327.332031 110.730469 326.503906 115.0625 325.722656 116.230469 C 324.554688 117.972656 323.960938 120.445312 324.042969 123.777344 C 323.230469 123.800781 323.390625 124.800781 323.207031 125.453125 C 320.386719 126.265625 319.019531 128.539062 317.332031 130.484375 C 319.523438 132.570312 317.417969 135.253906 316.496094 138.03125 C 315.925781 139.730469 316.089844 141.761719 315.65625 143.0625 C 315.554688 143.363281 314.859375 143.070312 314.816406 143.898438 C 314.78125 144.59375 313.625 145.242188 313.976562 146.414062 C 311.375 147.722656 309.574219 149.84375 307.265625 151.445312 C 305.050781 159.25 312.046875 162.085938 310.621094 171.570312 C 311.988281 173.832031 313.902344 175.558594 316.496094 176.601562 C 317.339844 180.632812 320.832031 182.21875 320.6875 185.824219 C 320.695312 185.679688 319.875 186.167969 319.847656 186.660156 C 319.765625 188.328125 319.414062 189.160156 318.171875 190.855469 C 316.652344 192.925781 313.304688 195.800781 311.460938 198.398438 C 301.570312 199.414062 299.800781 208.546875 290.488281 210.140625 C 288.984375 213.710938 287.476562 217.777344 285.453125 221.039062 C 285.167969 221.5 284.664062 220.914062 284.613281 221.878906 C 284.5625 222.902344 282.996094 223.898438 282.097656 225.230469 C 281.484375 226.144531 280.957031 226.75 280.417969 227.746094 C 277.675781 232.820312 271.855469 237.734375 266.15625 241.164062 C 266.9375 242.480469 265.367188 243.375 265.320312 243.679688 C 264.238281 249.855469 266.125 256.976562 267.835938 261.285156 C 266.988281 261.914062 266.183594 262.316406 265.320312 262.960938 C 263.457031 264.355469 263.558594 264.78125 261.125 262.960938 C 260.46875 262.46875 259.554688 262.316406 259.445312 261.285156 C 257.820312 261.539062 256.71875 262.148438 255.25 261.285156 C 255.203125 261.253906 256.039062 260.136719 256.089844 259.703125 C 256.023438 259.808594 255.328125 258.902344 255.242188 258.769531 C 255.234375 258.753906 255.234375 258.753906 255.234375 258.753906 C 254.679688 258.226562 253.105469 258.175781 253.574219 258.769531 C 253.480469 258.652344 251.902344 257.957031 251.894531 257.933594 C 251.71875 256.910156 253.742188 256.222656 251.894531 254.578125 C 247.355469 255.074219 245.8125 258.5625 245.183594 262.960938 C 243.15625 263.011719 242.878906 265.058594 241.828125 266.316406 C 241.039062 267.273438 238.289062 267.984375 239.3125 270.507812 C 238.75 271.3125 235.914062 270.375 235.117188 271.347656 C 235.082031 271.390625 231.9375 274.082031 231.761719 273.863281 C 229.816406 271.433594 232.902344 276.605469 230.082031 273.863281 C 228.867188 274.230469 230.167969 274.601562 230.082031 275.539062 C 227.304688 275.832031 226.441406 278.046875 225.050781 279.730469 C 223.691406 279.96875 223.605469 278.9375 222.535156 278.894531 C 223.472656 279.96875 222.996094 279.96875 222.535156 280.570312 C 222.273438 280.90625 221.191406 281.960938 220.855469 282.246094 C 220.191406 282.808594 219.101562 282.515625 218.339844 283.085938 C 218.339844 282.617188 217.660156 282.128906 217.5 283.085938 C 215.023438 284.242188 214.101562 286.960938 211.625 288.117188 C 211.300781 289.03125 210.621094 290.128906 211.625 288.957031 C 214.042969 287.824219 214.976562 285.214844 217.316406 284.023438 C 215.554688 285.835938 213.230469 289.039062 211.625 290.632812 C 210.269531 290.867188 210.183594 289.835938 209.109375 289.792969 C 210.082031 291.035156 210.082031 291.90625 209.109375 293.148438 C 207.523438 293.777344 208.53125 295.648438 206.59375 293.988281 C 207.582031 296.519531 208.640625 298.984375 207.433594 301.53125 C 205.335938 302.746094 204.136719 303.5625 201.558594 302.371094 C 198.722656 305.128906 199.554688 311.550781 196.527344 314.109375 C 196.804688 318.015625 195.871094 320.726562 194.847656 323.332031 C 193.875 323.199219 193.355469 323.515625 193.171875 324.171875 C 188.910156 325.320312 188.488281 318.277344 185.621094 320.816406 C 183.105469 320.265625 186.425781 319.023438 185.621094 317.464844 C 185.453125 314.261719 183.457031 317.445312 182.265625 315.785156 C 181.820312 315.167969 183.925781 314.226562 183.941406 314.109375 C 184.085938 312.953125 182.769531 312.148438 180.585938 312.433594 C 181.484375 312.214844 180.863281 310.480469 181.425781 309.917969 C 182.433594 308.910156 180.980469 309.253906 181.425781 307.402344 C 181.46875 307.21875 182.222656 307.308594 182.265625 306.5625 C 182.273438 306.335938 182.179688 305.925781 182.265625 305.726562 C 182.40625 305.371094 183.054688 302.414062 183.941406 301.53125 C 184.09375 299.707031 183.253906 298.867188 181.425781 299.015625 C 181.71875 297.917969 182.902344 297.703125 183.105469 296.5 C 182.734375 295.46875 182.03125 294.78125 180.585938 294.824219 C 180.863281 291.855469 182.894531 292.761719 181.425781 289.792969 C 184.671875 287.453125 188.457031 285.636719 192.332031 283.925781 C 194.246094 283.691406 195.484375 284.125 195.6875 285.601562 C 196.945312 285.585938 195.769531 284.585938 195.6875 284.761719 C 196.242188 283.546875 198.480469 283.574219 199.042969 281.410156 C 200.988281 281.140625 202.265625 281.542969 203.238281 282.246094 C 201.644531 280.636719 204.386719 279.917969 206.03125 278.582031 C 205.941406 278.683594 205.847656 278.785156 205.753906 278.894531 C 205.261719 279.453125 203.859375 280.65625 204.914062 281.410156 C 205.03125 279.90625 206.410156 280.074219 207.433594 278.894531 C 210 275.941406 208.371094 276.421875 206.660156 277.980469 C 207.164062 277.410156 208.230469 276.292969 208.273438 275.539062 C 208.328125 274.464844 209.671875 274.484375 209.949219 273.863281 C 210.746094 272.09375 209.941406 272.554688 211.625 273.023438 C 209.378906 268.09375 213.875 273.6875 211.625 268.832031 C 212.070312 268.671875 212.757812 270.074219 213.304688 269.671875 C 213.371094 269.621094 211.972656 267.785156 212.464844 267.15625 C 212.574219 267.011719 213.96875 268.34375 214.144531 267.992188 C 214.277344 267.726562 213.085938 266.382812 213.304688 265.476562 C 213.464844 264.808594 214.386719 266.324219 214.167969 266.324219 Z M 227.566406 276.378906 C 227.617188 275.867188 227.695312 275.390625 228.40625 275.539062 C 227.652344 273.265625 226.527344 277.460938 225.050781 277.214844 C 223.28125 280.679688 226.160156 276.898438 227.566406 276.378906 Z M 204.101562 252.070312 C 205.175781 251.292969 204.421875 251.628906 204.101562 252.070312 C 203.222656 252.710938 203.054688 252.867188 202.425781 253.75 C 201.351562 254.527344 202.105469 254.191406 202.425781 253.75 C 203.304688 253.113281 203.472656 252.953125 204.101562 252.070312 " fill-opacity="1" fill-rule="nonzero"/></g><path fill="#000000" d="M 228.40625 275.539062 C 227.691406 275.390625 227.617188 275.867188 227.566406 276.378906 C 226.15625 276.898438 223.28125 280.679688 225.050781 277.214844 C 226.527344 277.460938 227.652344 273.265625 228.40625 275.539062 " fill-opacity="1" fill-rule="nonzero"/><path fill="#000000" d="M 218.339844 283.085938 C 217.675781 282.945312 217.566406 283.355469 217.507812 283.824219 C 217.441406 283.890625 217.375 283.957031 217.316406 284.027344 C 214.976562 285.214844 214.042969 287.824219 211.628906 288.957031 C 210.621094 290.128906 211.300781 289.03125 211.628906 288.117188 C 214.101562 286.960938 215.023438 284.242188 217.5 283.085938 C 217.660156 282.128906 218.339844 282.617188 218.339844 283.085938 " fill-opacity="1" fill-rule="nonzero"/><path fill="#000000" d="M 217.507812 283.824219 C 217.566406 283.355469 217.675781 282.945312 218.339844 283.085938 C 218.085938 283.28125 217.800781 283.53125 217.507812 283.824219 " fill-opacity="1" fill-rule="nonzero"/><path fill="#000000" d="M 217.5 262.125 C 217.820312 261.679688 218.574219 261.34375 217.5 262.125 " fill-opacity="1" fill-rule="nonzero"/><path fill="#000000" d="M 217.507812 283.824219 C 217.507812 283.859375 217.5 283.890625 217.5 283.925781 C 217.441406 283.953125 217.375 283.984375 217.316406 284.027344 C 217.375 283.960938 217.441406 283.890625 217.507812 283.824219 " fill-opacity="1" fill-rule="nonzero"/><path fill="#000000" d="M 217.5 262.125 C 216.871094 263.003906 216.703125 263.164062 215.824219 263.800781 C 216.453125 262.921875 216.617188 262.761719 217.5 262.125 " fill-opacity="1" fill-rule="nonzero"/><path fill="#000000" d="M 215.824219 263.800781 C 215.503906 264.246094 214.75 264.582031 215.824219 263.800781 " fill-opacity="1" fill-rule="nonzero"/><path fill="#000000" d="M 206.660156 277.980469 C 208.371094 276.421875 210 275.945312 207.433594 278.894531 C 206.410156 280.078125 205.035156 279.910156 204.917969 281.410156 C 203.859375 280.65625 205.261719 279.457031 205.753906 278.894531 C 205.847656 278.785156 205.941406 278.683594 206.03125 278.585938 C 206.242188 278.425781 206.433594 278.25 206.59375 278.054688 C 206.609375 278.03125 206.636719 278.007812 206.660156 277.980469 " fill-opacity="1" fill-rule="nonzero"/><path fill="#000000" d="M 206.660156 277.980469 C 206.636719 278.007812 206.609375 278.03125 206.59375 278.054688 C 206.433594 278.25 206.242188 278.425781 206.03125 278.585938 C 206.242188 278.367188 206.453125 278.164062 206.660156 277.980469 " fill-opacity="1" fill-rule="nonzero"/><path fill="#000000" d="M 312.546875 296.886719 C 312.546875 307.925781 303.59375 316.875 292.546875 316.875 C 281.503906 316.875 272.550781 307.925781 272.550781 296.886719 C 272.550781 285.847656 281.503906 276.898438 292.546875 276.898438 C 303.59375 276.898438 312.546875 285.847656 312.546875 296.886719 " fill-opacity="1" fill-rule="nonzero"/><g clip-path="url(#bf13cf45bf)"><path fill="#ffffff" d="M 271.140625 295 C 271.171875 282.988281 281.097656 273.148438 293.132812 273.199219 C 305.175781 273.25 315.101562 283.175781 314.910156 295.328125 C 314.722656 307.355469 305.28125 316.925781 293.078125 316.949219 C 280.605469 316.972656 271.214844 307.035156 271.140625 295 Z M 303.011719 302.261719 C 302.933594 299.398438 301.816406 296.699219 300.3125 294.125 C 300.117188 293.792969 299.84375 293.613281 299.457031 293.546875 C 296.835938 293.117188 294.210938 292.6875 291.597656 292.222656 C 290.957031 292.109375 290.503906 292.292969 290.054688 292.726562 C 288.164062 294.550781 286.335938 296.425781 284.695312 298.480469 C 284.238281 299.058594 284.152344 299.574219 284.414062 300.257812 C 285.222656 302.371094 285.996094 304.5 286.753906 306.628906 C 286.933594 307.140625 287.207031 307.484375 287.710938 307.707031 C 290.378906 308.878906 293.203125 309.34375 296.070312 309.636719 C 296.441406 309.671875 296.78125 309.605469 297.066406 309.335938 C 298.992188 307.5 300.917969 305.667969 302.617188 303.617188 C 302.90625 303.273438 303.082031 302.890625 303.011719 302.261719 Z M 282.5625 281.476562 C 281.40625 281.285156 280.21875 282.011719 279.203125 283.132812 C 277.847656 284.628906 276.660156 286.25 275.472656 287.875 C 275.273438 288.144531 275.113281 288.421875 275.140625 288.761719 C 275.355469 291.335938 275.425781 293.929688 276.296875 296.40625 C 276.457031 296.863281 276.667969 297.226562 277.210938 297.355469 C 279.128906 297.816406 281.042969 298.308594 282.957031 298.796875 C 283.457031 298.921875 283.855469 298.839844 284.199219 298.410156 C 285.921875 296.242188 287.75 294.167969 289.847656 292.347656 C 290.28125 291.976562 290.402344 291.554688 290.253906 291.003906 C 289.636719 288.742188 289.371094 286.421875 289.238281 284.089844 C 289.1875 283.261719 288.824219 282.78125 288.046875 282.5 C 286.414062 281.914062 284.738281 281.5625 282.5625 281.476562 Z M 306.183594 286.0625 C 304.996094 285.96875 304.261719 286.589844 303.722656 287.933594 C 303.035156 289.632812 302.097656 291.21875 301.007812 292.699219 C 300.609375 293.238281 300.574219 293.671875 300.90625 294.257812 C 302.269531 296.648438 303.285156 299.171875 303.46875 301.957031 C 303.519531 302.730469 303.886719 302.988281 304.632812 303.019531 C 306.101562 303.085938 307.566406 303.21875 309.03125 303.363281 C 309.59375 303.417969 309.988281 303.222656 310.347656 302.816406 C 312.074219 300.859375 313.167969 298.582031 313.769531 296.0625 C 313.832031 295.789062 313.851562 295.484375 313.804688 295.207031 C 313.492188 293.253906 313.015625 291.351562 312.246094 289.511719 C 311.308594 287.261719 309.5625 286.179688 307.261719 286.0625 C 307.007812 286.046875 306.714844 286.0625 306.183594 286.0625 Z M 293.179688 273.703125 C 289.355469 273.726562 286.046875 274.550781 282.949219 276.191406 C 282.664062 276.339844 282.164062 276.539062 282.167969 276.695312 C 282.222656 278 281.402344 279.109375 281.402344 280.394531 C 281.398438 280.976562 281.605469 281.140625 282.164062 281.105469 C 284.347656 280.96875 286.445312 281.359375 288.460938 282.199219 C 288.945312 282.398438 289.375 282.519531 289.875 282.183594 C 291.464844 281.113281 293.253906 280.472656 295.054688 279.851562 C 297.925781 278.863281 297.921875 278.851562 297.65625 275.820312 C 297.652344 275.785156 297.652344 275.75 297.648438 275.714844 C 297.621094 275.03125 297.277344 274.589844 296.652344 274.320312 C 295.4375 273.796875 294.160156 273.6875 293.179688 273.703125 Z M 292.476562 316.542969 C 294.695312 316.226562 296.9375 315.78125 299.019531 314.734375 C 299.519531 314.484375 299.640625 314.195312 299.203125 313.753906 C 298.390625 312.933594 297.78125 311.957031 297.175781 310.980469 C 296.847656 310.453125 296.441406 310.191406 295.800781 310.109375 C 292.917969 309.746094 290.054688 309.265625 287.375 308.054688 C 287.019531 307.890625 286.691406 307.921875 286.367188 308.164062 C 285.101562 309.117188 283.777344 309.972656 282.339844 310.640625 C 281.941406 310.824219 281.769531 311.089844 282.074219 311.476562 C 283.34375 313.085938 284.65625 314.695312 286.609375 315.488281 C 288.453125 316.234375 290.453125 316.3125 292.476562 316.542969 Z M 311.195312 287.082031 C 311.347656 285.355469 311.164062 283.769531 310.320312 282.523438 C 308.332031 279.597656 305.636719 277.402344 302.4375 275.863281 C 301.332031 275.328125 300.179688 274.929688 298.925781 274.976562 C 298.582031 274.992188 298.132812 274.941406 298.152344 275.480469 C 298.1875 276.589844 298.234375 277.703125 298.125 278.8125 C 298.101562 279.050781 298.308594 279.1875 298.484375 279.3125 C 300.632812 280.816406 302.261719 282.816406 303.789062 284.90625 C 304.21875 285.496094 304.722656 285.707031 305.429688 285.695312 C 307.410156 285.664062 309.371094 285.777344 311.195312 287.082031 Z M 271.648438 295.167969 C 271.628906 297.375 271.984375 299.519531 272.648438 301.625 C 272.828125 302.199219 273.140625 302.644531 273.652344 302.96875 C 274.503906 303.503906 274.742188 303.429688 274.9375 302.449219 C 275.234375 300.9375 275.507812 299.417969 276.046875 297.964844 C 276.179688 297.601562 276.125 297.277344 275.996094 296.925781 C 275.433594 295.367188 275.097656 293.757812 274.96875 292.101562 C 274.886719 291.066406 274.75 290.039062 274.628906 289.003906 C 274.535156 288.183594 273.820312 287.992188 273.234375 287.875 C 272.667969 287.761719 272.679688 288.433594 272.5625 288.804688 C 271.929688 290.875 271.640625 293 271.648438 295.167969 Z M 284.003906 314.449219 C 281.976562 312.105469 280.050781 309.675781 277.753906 307.574219 C 276.800781 306.703125 275.976562 305.695312 275.257812 304.621094 C 274.839844 304.003906 274.28125 303.734375 273.386719 303.585938 C 275.648438 308.625 279.175781 312.167969 284.003906 314.449219 Z M 308.46875 309.761719 C 312.039062 306.195312 314.691406 299.980469 314.222656 296.34375 C 313.433594 299.023438 312.300781 301.4375 310.402344 303.429688 C 310.222656 303.617188 310.097656 303.828125 310.078125 304.09375 C 309.941406 306.09375 309.277344 307.9375 308.46875 309.761719 Z M 306.433594 311.648438 C 303.742188 313.300781 300.628906 314.132812 297.957031 315.855469 C 301.121094 315.148438 303.960938 313.785156 306.433594 311.648438 Z M 306.433594 311.648438 " fill-opacity="1" fill-rule="evenodd"/></g><g fill="#000000" fill-opacity="1"><g transform="translate(104.747607, 174.86864)"><g><path d="M 29.6875 -46.578125 C 33.820312 -46.578125 37.175781 -46.046875 39.75 -44.984375 C 42.332031 -43.929688 44.367188 -42.296875 45.859375 -40.078125 C 46.816406 -38.585938 47.5625 -36.898438 48.09375 -35.015625 C 48.625 -33.140625 48.890625 -30.976562 48.890625 -28.53125 C 48.890625 -26.40625 48.695312 -24.285156 48.3125 -22.171875 C 47.925781 -20.054688 47.382812 -18.019531 46.6875 -16.0625 C 45.988281 -14.113281 45.144531 -12.285156 44.15625 -10.578125 C 43.175781 -8.867188 42.082031 -7.363281 40.875 -6.0625 C 38.613281 -3.613281 36 -1.894531 33.03125 -0.90625 C 30.070312 0.0820312 26.425781 0.578125 22.09375 0.578125 C 17.90625 0.578125 14.535156 0.144531 11.984375 -0.71875 C 9.429688 -1.582031 7.410156 -2.976562 5.921875 -4.90625 C 4.859375 -6.257812 4.023438 -7.96875 3.421875 -10.03125 C 2.828125 -12.101562 2.53125 -14.707031 2.53125 -17.84375 C 2.53125 -23.1875 3.476562 -27.960938 5.375 -32.171875 C 7.28125 -36.390625 9.988281 -39.722656 13.5 -42.171875 C 15.625 -43.671875 17.984375 -44.78125 20.578125 -45.5 C 23.179688 -46.21875 26.21875 -46.578125 29.6875 -46.578125 Z M 21.515625 -4.484375 C 22.628906 -4.484375 23.675781 -4.972656 24.65625 -5.953125 C 25.644531 -6.941406 26.5625 -8.265625 27.40625 -9.921875 C 28.25 -11.585938 29.019531 -13.476562 29.71875 -15.59375 C 30.414062 -17.71875 31.003906 -19.910156 31.484375 -22.171875 C 31.960938 -24.429688 32.332031 -26.679688 32.59375 -28.921875 C 32.863281 -31.160156 33 -33.195312 33 -35.03125 C 33 -37.53125 32.742188 -39.25 32.234375 -40.1875 C 31.734375 -41.125 31.003906 -41.59375 30.046875 -41.59375 C 28.929688 -41.59375 27.867188 -41.109375 26.859375 -40.140625 C 25.847656 -39.179688 24.894531 -37.894531 24 -36.28125 C 23.113281 -34.675781 22.320312 -32.828125 21.625 -30.734375 C 20.925781 -28.640625 20.320312 -26.484375 19.8125 -24.265625 C 19.3125 -22.046875 18.925781 -19.851562 18.65625 -17.6875 C 18.394531 -15.519531 18.265625 -13.523438 18.265625 -11.703125 C 18.265625 -8.953125 18.566406 -7.0625 19.171875 -6.03125 C 19.773438 -5 20.554688 -4.484375 21.515625 -4.484375 Z M 21.515625 -4.484375 "/></g></g></g><g fill="#000000" fill-opacity="1"><g transform="translate(154.210042, 174.86864)"><g><path d="M 38.5 0 L 21.59375 0 L 13.578125 -33.140625 L 6.5 0 L 0 0 L 9.75 -45.859375 L 27.015625 -45.859375 L 34.59375 -12.28125 L 41.75 -45.859375 L 48.390625 -45.859375 Z M 38.5 0 "/></g></g></g><g fill="#000000" fill-opacity="1"><g transform="translate(200.711955, 174.86864)"><g><path d="M 9.75 -45.859375 L 40.15625 -45.859375 L 39 -40.375 L 24.265625 -40.375 L 21.234375 -26.4375 L 33.578125 -26.4375 L 32.421875 -21.015625 L 20.078125 -21.015625 L 16.75 -5.5625 L 31.484375 -5.5625 L 30.40625 0 L 0 0 Z M 9.75 -45.859375 "/></g></g></g><g fill="#000000" fill-opacity="1"><g transform="translate(7.562507, 232.593432)"><g><path d="M 28.453125 -32.578125 C 28.597656 -33.296875 28.671875 -34.28125 28.671875 -35.53125 C 28.671875 -36.25 28.617188 -36.957031 28.515625 -37.65625 C 28.421875 -38.351562 28.253906 -38.976562 28.015625 -39.53125 C 27.773438 -40.09375 27.414062 -40.53125 26.9375 -40.84375 C 26.457031 -41.15625 25.832031 -41.3125 25.0625 -41.3125 C 24.195312 -41.3125 23.398438 -41.117188 22.671875 -40.734375 C 21.953125 -40.347656 21.316406 -39.851562 20.765625 -39.25 C 20.210938 -38.644531 19.78125 -37.945312 19.46875 -37.15625 C 19.15625 -36.363281 19 -35.535156 19 -34.671875 C 19 -33.410156 19.320312 -32.441406 19.96875 -31.765625 C 20.613281 -31.097656 21.46875 -30.546875 22.53125 -30.109375 C 23.59375 -29.679688 24.796875 -29.320312 26.140625 -29.03125 C 27.492188 -28.738281 28.890625 -28.398438 30.328125 -28.015625 C 31.535156 -27.679688 32.738281 -27.25 33.9375 -26.71875 C 35.144531 -26.1875 36.21875 -25.472656 37.15625 -24.578125 C 38.09375 -23.691406 38.847656 -22.539062 39.421875 -21.125 C 40.003906 -19.707031 40.296875 -17.9375 40.296875 -15.8125 C 40.296875 -12.78125 39.691406 -10.226562 38.484375 -8.15625 C 37.285156 -6.09375 35.625 -4.410156 33.5 -3.109375 C 31.382812 -1.804688 28.867188 -0.863281 25.953125 -0.28125 C 23.046875 0.289062 19.882812 0.578125 16.46875 0.578125 C 13 0.578125 10.164062 0.347656 7.96875 -0.109375 C 5.78125 -0.566406 4.0625 -1.0625 2.8125 -1.59375 C 1.320312 -2.21875 0.21875 -2.9375 -0.5 -3.75 L 1.953125 -13.65625 L 14.65625 -13.65625 C 14.613281 -13.21875 14.566406 -12.625 14.515625 -11.875 C 14.460938 -11.132812 14.4375 -10.546875 14.4375 -10.109375 C 14.4375 -9.535156 14.507812 -8.929688 14.65625 -8.296875 C 14.800781 -7.671875 15.03125 -7.09375 15.34375 -6.5625 C 15.65625 -6.039062 16.097656 -5.609375 16.671875 -5.265625 C 17.253906 -4.929688 17.976562 -4.765625 18.84375 -4.765625 C 19.8125 -4.765625 20.664062 -4.976562 21.40625 -5.40625 C 22.15625 -5.84375 22.78125 -6.382812 23.28125 -7.03125 C 23.789062 -7.6875 24.175781 -8.410156 24.4375 -9.203125 C 24.707031 -10.003906 24.84375 -10.789062 24.84375 -11.5625 C 24.84375 -12.613281 24.585938 -13.5 24.078125 -14.21875 C 23.578125 -14.945312 22.894531 -15.5625 22.03125 -16.0625 C 21.164062 -16.570312 20.164062 -17.003906 19.03125 -17.359375 C 17.894531 -17.722656 16.726562 -18.097656 15.53125 -18.484375 C 14.375 -18.828125 13.15625 -19.238281 11.875 -19.71875 C 10.601562 -20.195312 9.4375 -20.867188 8.375 -21.734375 C 7.3125 -22.597656 6.429688 -23.691406 5.734375 -25.015625 C 5.035156 -26.347656 4.6875 -28.046875 4.6875 -30.109375 C 4.6875 -33.191406 5.46875 -35.78125 7.03125 -37.875 C 8.601562 -39.96875 10.578125 -41.664062 12.953125 -42.96875 C 15.335938 -44.269531 17.953125 -45.195312 20.796875 -45.75 C 23.640625 -46.300781 26.335938 -46.578125 28.890625 -46.578125 C 32.253906 -46.578125 35.148438 -46.179688 37.578125 -45.390625 C 40.015625 -44.597656 41.859375 -43.671875 43.109375 -42.609375 L 40.4375 -32.578125 Z M 28.453125 -32.578125 "/></g></g></g><g fill="#000000" fill-opacity="1"><g transform="translate(49.948562, 232.593432)"><g><path d="M 40.078125 0 L 24.484375 0 L 28.8125 -20.4375 L 19.9375 -20.4375 L 15.59375 0 L 0 0 L 9.75 -45.859375 L 25.421875 -45.859375 L 21.15625 -25.921875 L 29.96875 -25.921875 L 34.234375 -45.859375 L 49.96875 -45.859375 Z M 40.078125 0 "/></g></g></g><g fill="#000000" fill-opacity="1"><g transform="translate(98.03905, 232.593432)"><g><path d="M 29.6875 -46.578125 C 33.820312 -46.578125 37.175781 -46.046875 39.75 -44.984375 C 42.332031 -43.929688 44.367188 -42.296875 45.859375 -40.078125 C 46.816406 -38.585938 47.5625 -36.898438 48.09375 -35.015625 C 48.625 -33.140625 48.890625 -30.976562 48.890625 -28.53125 C 48.890625 -26.40625 48.695312 -24.285156 48.3125 -22.171875 C 47.925781 -20.054688 47.382812 -18.019531 46.6875 -16.0625 C 45.988281 -14.113281 45.144531 -12.285156 44.15625 -10.578125 C 43.175781 -8.867188 42.082031 -7.363281 40.875 -6.0625 C 38.613281 -3.613281 36 -1.894531 33.03125 -0.90625 C 30.070312 0.0820312 26.425781 0.578125 22.09375 0.578125 C 17.90625 0.578125 14.535156 0.144531 11.984375 -0.71875 C 9.429688 -1.582031 7.410156 -2.976562 5.921875 -4.90625 C 4.859375 -6.257812 4.023438 -7.96875 3.421875 -10.03125 C 2.828125 -12.101562 2.53125 -14.707031 2.53125 -17.84375 C 2.53125 -23.1875 3.476562 -27.960938 5.375 -32.171875 C 7.28125 -36.390625 9.988281 -39.722656 13.5 -42.171875 C 15.625 -43.671875 17.984375 -44.78125 20.578125 -45.5 C 23.179688 -46.21875 26.21875 -46.578125 29.6875 -46.578125 Z M 21.515625 -4.484375 C 22.628906 -4.484375 23.675781 -4.972656 24.65625 -5.953125 C 25.644531 -6.941406 26.5625 -8.265625 27.40625 -9.921875 C 28.25 -11.585938 29.019531 -13.476562 29.71875 -15.59375 C 30.414062 -17.71875 31.003906 -19.910156 31.484375 -22.171875 C 31.960938 -24.429688 32.332031 -26.679688 32.59375 -28.921875 C 32.863281 -31.160156 33 -33.195312 33 -35.03125 C 33 -37.53125 32.742188 -39.25 32.234375 -40.1875 C 31.734375 -41.125 31.003906 -41.59375 30.046875 -41.59375 C 28.929688 -41.59375 27.867188 -41.109375 26.859375 -40.140625 C 25.847656 -39.179688 24.894531 -37.894531 24 -36.28125 C 23.113281 -34.675781 22.320312 -32.828125 21.625 -30.734375 C 20.925781 -28.640625 20.320312 -26.484375 19.8125 -24.265625 C 19.3125 -22.046875 18.925781 -19.851562 18.65625 -17.6875 C 18.394531 -15.519531 18.265625 -13.523438 18.265625 -11.703125 C 18.265625 -8.953125 18.566406 -7.0625 19.171875 -6.03125 C 19.773438 -5 20.554688 -4.484375 21.515625 -4.484375 Z M 21.515625 -4.484375 "/></g></g></g><g fill="#000000" fill-opacity="1"><g transform="translate(147.501485, 232.593432)"><g><path d="M 29.6875 -46.578125 C 33.820312 -46.578125 37.175781 -46.046875 39.75 -44.984375 C 42.332031 -43.929688 44.367188 -42.296875 45.859375 -40.078125 C 46.816406 -38.585938 47.5625 -36.898438 48.09375 -35.015625 C 48.625 -33.140625 48.890625 -30.976562 48.890625 -28.53125 C 48.890625 -26.40625 48.695312 -24.285156 48.3125 -22.171875 C 47.925781 -20.054688 47.382812 -18.019531 46.6875 -16.0625 C 45.988281 -14.113281 45.144531 -12.285156 44.15625 -10.578125 C 43.175781 -8.867188 42.082031 -7.363281 40.875 -6.0625 C 38.613281 -3.613281 36 -1.894531 33.03125 -0.90625 C 30.070312 0.0820312 26.425781 0.578125 22.09375 0.578125 C 17.90625 0.578125 14.535156 0.144531 11.984375 -0.71875 C 9.429688 -1.582031 7.410156 -2.976562 5.921875 -4.90625 C 4.859375 -6.257812 4.023438 -7.96875 3.421875 -10.03125 C 2.828125 -12.101562 2.53125 -14.707031 2.53125 -17.84375 C 2.53125 -23.1875 3.476562 -27.960938 5.375 -32.171875 C 7.28125 -36.390625 9.988281 -39.722656 13.5 -42.171875 C 15.625 -43.671875 17.984375 -44.78125 20.578125 -45.5 C 23.179688 -46.21875 26.21875 -46.578125 29.6875 -46.578125 Z M 21.515625 -4.484375 C 22.628906 -4.484375 23.675781 -4.972656 24.65625 -5.953125 C 25.644531 -6.941406 26.5625 -8.265625 27.40625 -9.921875 C 28.25 -11.585938 29.019531 -13.476562 29.71875 -15.59375 C 30.414062 -17.71875 31.003906 -19.910156 31.484375 -22.171875 C 31.960938 -24.429688 32.332031 -26.679688 32.59375 -28.921875 C 32.863281 -31.160156 33 -33.195312 33 -35.03125 C 33 -37.53125 32.742188 -39.25 32.234375 -40.1875 C 31.734375 -41.125 31.003906 -41.59375 30.046875 -41.59375 C 28.929688 -41.59375 27.867188 -41.109375 26.859375 -40.140625 C 25.847656 -39.179688 24.894531 -37.894531 24 -36.28125 C 23.113281 -34.675781 22.320312 -32.828125 21.625 -30.734375 C 20.925781 -28.640625 20.320312 -26.484375 19.8125 -24.265625 C 19.3125 -22.046875 18.925781 -19.851562 18.65625 -17.6875 C 18.394531 -15.519531 18.265625 -13.523438 18.265625 -11.703125 C 18.265625 -8.953125 18.566406 -7.0625 19.171875 -6.03125 C 19.773438 -5 20.554688 -4.484375 21.515625 -4.484375 Z M 21.515625 -4.484375 "/></g></g></g><g fill="#000000" fill-opacity="1"><g transform="translate(196.96392, 232.593432)"><g><path d="M 43.984375 -40.375 L 32.359375 -40.375 L 23.765625 0 L 8.15625 0 L 16.75 -40.375 L 5.265625 -40.375 L 6.578125 -45.859375 L 45.203125 -45.859375 Z M 43.984375 -40.375 "/></g></g></g></svg>