<svg xmlns="http://www.w3.org/2000/svg" xmlns:xlink="http://www.w3.org/1999/xlink" width="500" zoomAndPan="magnify" viewBox="0 0 375 374.999991" height="500" preserveAspectRatio="xMidYMid meet" version="1.0"><defs><g/><clipPath id="96829b908f"><path d="M 130.738281 100.527344 L 247.738281 100.527344 L 247.738281 270 L 130.738281 270 Z M 130.738281 100.527344 " clip-rule="nonzero"/></clipPath></defs><g clip-path="url(#96829b908f)"><path fill="#33625a" d="M 189.164062 269.757812 C 188.875 269.757812 188.589844 269.730469 188.304688 269.675781 C 188.023438 269.617188 187.746094 269.535156 187.480469 269.425781 C 187.214844 269.3125 186.960938 269.179688 186.71875 269.019531 C 186.480469 268.859375 186.257812 268.675781 186.054688 268.472656 C 185.851562 268.265625 185.667969 268.042969 185.507812 267.804688 C 185.347656 267.5625 185.210938 267.3125 185.101562 267.042969 C 184.988281 266.777344 184.90625 266.503906 184.851562 266.21875 C 184.792969 265.9375 184.765625 265.648438 184.765625 265.359375 L 184.765625 238.636719 C 184.765625 238.347656 184.792969 238.0625 184.851562 237.777344 C 184.90625 237.496094 184.988281 237.21875 185.101562 236.953125 C 185.210938 236.6875 185.347656 236.433594 185.507812 236.191406 C 185.667969 235.953125 185.851562 235.730469 186.054688 235.527344 C 186.257812 235.320312 186.480469 235.140625 186.71875 234.980469 C 186.960938 234.820312 187.214844 234.683594 187.480469 234.574219 C 187.746094 234.460938 188.023438 234.378906 188.304688 234.324219 C 188.589844 234.265625 188.875 234.238281 189.164062 234.238281 L 236.523438 234.238281 L 189.164062 116.71875 L 141.800781 234.28125 L 162.234375 234.28125 C 162.78125 234.328125 163.304688 234.476562 163.796875 234.71875 C 164.289062 234.960938 164.722656 235.285156 165.09375 235.691406 C 165.464844 236.097656 165.75 236.558594 165.949219 237.070312 C 166.148438 237.582031 166.246094 238.113281 166.246094 238.664062 C 166.246094 239.210938 166.148438 239.742188 165.949219 240.257812 C 165.75 240.769531 165.464844 241.226562 165.09375 241.632812 C 164.722656 242.039062 164.289062 242.363281 163.796875 242.605469 C 163.304688 242.851562 162.78125 242.996094 162.234375 243.042969 L 135.339844 243.042969 C 134.984375 243.042969 134.632812 242.996094 134.285156 242.90625 C 133.9375 242.820312 133.605469 242.691406 133.292969 242.523438 C 132.976562 242.351562 132.6875 242.148438 132.421875 241.910156 C 132.15625 241.667969 131.921875 241.402344 131.722656 241.105469 C 131.523438 240.808594 131.363281 240.492188 131.238281 240.15625 C 131.117188 239.820312 131.035156 239.476562 130.996094 239.121094 C 130.957031 238.765625 130.964844 238.410156 131.011719 238.054688 C 131.058594 237.703125 131.148438 237.359375 131.28125 237.027344 L 185.097656 103.355469 C 185.265625 102.953125 185.484375 102.585938 185.761719 102.25 C 186.039062 101.914062 186.355469 101.628906 186.71875 101.386719 C 187.078125 101.144531 187.46875 100.960938 187.882812 100.835938 C 188.296875 100.710938 188.722656 100.648438 189.15625 100.648438 C 189.589844 100.648438 190.015625 100.710938 190.429688 100.835938 C 190.847656 100.960938 191.234375 101.144531 191.597656 101.386719 C 191.957031 101.628906 192.277344 101.914062 192.550781 102.25 C 192.828125 102.585938 193.050781 102.953125 193.214844 103.355469 L 247.066406 237.027344 C 247.199219 237.359375 247.289062 237.703125 247.335938 238.054688 C 247.382812 238.410156 247.390625 238.765625 247.351562 239.121094 C 247.3125 239.476562 247.230469 239.820312 247.109375 240.15625 C 246.984375 240.492188 246.824219 240.808594 246.625 241.105469 C 246.425781 241.402344 246.191406 241.667969 245.925781 241.910156 C 245.660156 242.148438 245.371094 242.351562 245.054688 242.523438 C 244.742188 242.691406 244.410156 242.820312 244.0625 242.90625 C 243.714844 242.996094 243.363281 243.042969 243.007812 243.042969 L 193.527344 243.042969 L 193.527344 265.371094 C 193.527344 265.660156 193.5 265.941406 193.441406 266.222656 C 193.386719 266.503906 193.304688 266.777344 193.191406 267.042969 C 193.082031 267.308594 192.949219 267.558594 192.789062 267.800781 C 192.632812 268.039062 192.449219 268.257812 192.246094 268.460938 C 192.046875 268.667969 191.824219 268.847656 191.585938 269.007812 C 191.351562 269.167969 191.097656 269.304688 190.832031 269.414062 C 190.570312 269.527344 190.296875 269.609375 190.015625 269.667969 C 189.734375 269.726562 189.449219 269.757812 189.164062 269.757812 Z M 189.164062 269.757812 " fill-opacity="1" fill-rule="nonzero"/></g><path fill="#33625a" d="M 219.507812 210.578125 L 191.429688 227.640625 L 191.371094 227.667969 C 191.222656 227.757812 191.066406 227.835938 190.90625 227.910156 L 190.886719 227.910156 C 190.714844 227.980469 190.542969 228.042969 190.363281 228.089844 L 190.253906 228.121094 C 190.113281 228.160156 189.972656 228.1875 189.832031 228.210938 L 189.695312 228.230469 C 189.347656 228.273438 188.996094 228.273438 188.648438 228.230469 L 188.519531 228.210938 C 188.390625 228.1875 188.265625 228.167969 188.140625 228.136719 L 188.007812 228.105469 C 187.875 228.070312 187.742188 228.027344 187.617188 227.980469 L 187.523438 227.945312 C 187.359375 227.878906 187.203125 227.804688 187.050781 227.722656 L 156 210.671875 C 155.722656 210.550781 155.457031 210.398438 155.210938 210.222656 C 154.960938 210.042969 154.734375 209.84375 154.527344 209.617188 C 154.324219 209.394531 154.140625 209.148438 153.988281 208.886719 C 153.832031 208.625 153.703125 208.347656 153.605469 208.058594 C 153.507812 207.769531 153.441406 207.472656 153.40625 207.171875 C 153.367188 206.867188 153.363281 206.566406 153.390625 206.261719 C 153.417969 205.957031 153.476562 205.660156 153.5625 205.367188 C 153.652344 205.074219 153.769531 204.796875 153.917969 204.527344 C 154.0625 204.261719 154.238281 204.011719 154.433594 203.78125 C 154.632812 203.550781 154.855469 203.339844 155.097656 203.15625 C 155.339844 202.96875 155.597656 202.8125 155.871094 202.679688 C 156.148438 202.546875 156.433594 202.445312 156.730469 202.375 C 157.027344 202.300781 157.328125 202.261719 157.632812 202.25 C 157.9375 202.242188 158.238281 202.261719 158.539062 202.316406 C 158.839844 202.371094 159.132812 202.453125 159.414062 202.566406 C 159.699219 202.679688 159.964844 202.824219 160.21875 202.992188 L 184.78125 216.492188 L 184.78125 196.308594 L 166.632812 186.335938 C 166.171875 186.03125 165.785156 185.652344 165.464844 185.199219 C 165.148438 184.75 164.921875 184.253906 164.789062 183.71875 C 164.65625 183.183594 164.628906 182.640625 164.699219 182.09375 C 164.773438 181.546875 164.941406 181.03125 165.207031 180.546875 C 165.472656 180.0625 165.820312 179.644531 166.242188 179.289062 C 166.667969 178.9375 167.140625 178.671875 167.664062 178.496094 C 168.191406 178.320312 168.726562 178.246094 169.277344 178.273438 C 169.832031 178.304688 170.359375 178.429688 170.863281 178.65625 L 184.789062 186.308594 L 184.789062 166.128906 L 176.59375 161.625 C 176.3125 161.503906 176.050781 161.351562 175.800781 161.175781 C 175.554688 160.996094 175.328125 160.796875 175.121094 160.570312 C 174.914062 160.347656 174.734375 160.101562 174.578125 159.839844 C 174.421875 159.578125 174.296875 159.300781 174.199219 159.011719 C 174.101562 158.722656 174.035156 158.429688 173.996094 158.125 C 173.960938 157.824219 173.957031 157.519531 173.984375 157.214844 C 174.007812 156.910156 174.066406 156.613281 174.15625 156.320312 C 174.246094 156.03125 174.363281 155.75 174.507812 155.484375 C 174.65625 155.214844 174.828125 154.964844 175.027344 154.734375 C 175.226562 154.503906 175.445312 154.296875 175.6875 154.109375 C 175.929688 153.925781 176.191406 153.765625 176.464844 153.632812 C 176.738281 153.5 177.027344 153.398438 177.320312 153.328125 C 177.617188 153.253906 177.917969 153.214844 178.222656 153.203125 C 178.527344 153.195312 178.832031 153.21875 179.132812 153.269531 C 179.433594 153.324219 179.722656 153.40625 180.007812 153.519531 C 180.289062 153.636719 180.558594 153.777344 180.8125 153.945312 L 184.785156 156.132812 L 184.785156 139.648438 C 184.835938 139.097656 184.980469 138.578125 185.222656 138.085938 C 185.464844 137.59375 185.792969 137.160156 186.195312 136.789062 C 186.601562 136.417969 187.0625 136.132812 187.574219 135.933594 C 188.085938 135.734375 188.617188 135.632812 189.167969 135.632812 C 189.71875 135.632812 190.25 135.734375 190.761719 135.933594 C 191.273438 136.132812 191.730469 136.417969 192.136719 136.789062 C 192.542969 137.160156 192.867188 137.59375 193.109375 138.085938 C 193.355469 138.578125 193.5 139.097656 193.546875 139.648438 L 193.546875 155.753906 L 196.253906 154.113281 C 196.5 153.929688 196.761719 153.777344 197.039062 153.652344 C 197.316406 153.523438 197.605469 153.425781 197.902344 153.359375 C 198.199219 153.292969 198.503906 153.257812 198.808594 153.253906 C 199.113281 153.25 199.414062 153.277344 199.714844 153.335938 C 200.015625 153.398438 200.304688 153.484375 200.585938 153.605469 C 200.867188 153.726562 201.132812 153.871094 201.382812 154.046875 C 201.632812 154.222656 201.863281 154.421875 202.070312 154.644531 C 202.28125 154.867188 202.464844 155.105469 202.621094 155.367188 C 202.78125 155.628906 202.910156 155.902344 203.011719 156.191406 C 203.113281 156.480469 203.183594 156.773438 203.222656 157.078125 C 203.265625 157.378906 203.273438 157.683594 203.25 157.988281 C 203.226562 158.292969 203.171875 158.589844 203.085938 158.882812 C 203 159.175781 202.886719 159.457031 202.742188 159.726562 C 202.597656 159.996094 202.425781 160.246094 202.230469 160.480469 C 202.035156 160.714844 201.816406 160.925781 201.574219 161.113281 C 201.335938 161.300781 201.078125 161.464844 200.804688 161.597656 L 193.554688 165.996094 L 193.554688 185.921875 L 206.59375 177.996094 C 207.085938 177.761719 207.605469 177.621094 208.148438 177.578125 C 208.695312 177.535156 209.226562 177.59375 209.75 177.75 C 210.273438 177.90625 210.75 178.152344 211.183594 178.484375 C 211.617188 178.820312 211.972656 179.222656 212.253906 179.6875 C 212.539062 180.15625 212.726562 180.660156 212.820312 181.199219 C 212.917969 181.734375 212.910156 182.273438 212.808594 182.808594 C 212.703125 183.34375 212.503906 183.84375 212.210938 184.304688 C 211.921875 184.769531 211.558594 185.164062 211.117188 185.488281 L 193.527344 196.179688 L 193.527344 216.105469 L 214.9375 203.085938 C 215.183594 202.90625 215.445312 202.753906 215.722656 202.625 C 216 202.5 216.289062 202.402344 216.585938 202.335938 C 216.886719 202.269531 217.1875 202.234375 217.492188 202.230469 C 217.796875 202.226562 218.097656 202.253906 218.398438 202.3125 C 218.699219 202.371094 218.988281 202.460938 219.269531 202.582031 C 219.550781 202.699219 219.816406 202.847656 220.066406 203.023438 C 220.316406 203.195312 220.546875 203.394531 220.753906 203.617188 C 220.964844 203.839844 221.148438 204.082031 221.304688 204.34375 C 221.464844 204.605469 221.59375 204.878906 221.695312 205.167969 C 221.796875 205.453125 221.867188 205.75 221.910156 206.050781 C 221.949219 206.355469 221.957031 206.660156 221.933594 206.964844 C 221.910156 207.265625 221.855469 207.566406 221.769531 207.859375 C 221.683594 208.152344 221.570312 208.433594 221.425781 208.703125 C 221.28125 208.972656 221.113281 209.222656 220.914062 209.457031 C 220.71875 209.691406 220.5 209.902344 220.261719 210.089844 C 220.019531 210.277344 219.761719 210.4375 219.488281 210.574219 Z M 219.507812 210.578125 " fill-opacity="1" fill-rule="nonzero"/><g fill="#33625a" fill-opacity="1"><g transform="translate(37.47703, 195.492696)"><g><path d="M 2.65625 0 C 1.820312 0 1.40625 -0.414062 1.40625 -1.25 L 1.40625 -11.671875 C 1.40625 -12.503906 1.820312 -12.921875 2.65625 -12.921875 L 9.203125 -12.921875 C 9.835938 -12.921875 10.15625 -12.613281 10.15625 -12 C 10.15625 -11.363281 9.835938 -11.046875 9.203125 -11.046875 L 3.671875 -11.046875 L 3.671875 -7.5 L 8.796875 -7.5 C 9.429688 -7.5 9.75 -7.1875 9.75 -6.5625 C 9.75 -5.9375 9.429688 -5.625 8.796875 -5.625 L 3.671875 -5.625 L 3.671875 -1.875 L 9.203125 -1.875 C 9.835938 -1.875 10.15625 -1.5625 10.15625 -0.9375 C 10.15625 -0.3125 9.835938 0 9.203125 0 Z M 2.65625 0 "/></g></g></g><g fill="#33625a" fill-opacity="1"><g transform="translate(52.084462, 195.492696)"><g><path d="M 5.859375 0.1875 C 5.046875 0.1875 4.25 0.0976562 3.46875 -0.078125 C 2.695312 -0.265625 2.023438 -0.546875 1.453125 -0.921875 C 1.171875 -1.097656 1 -1.320312 0.9375 -1.59375 C 0.875 -1.863281 0.894531 -2.117188 1 -2.359375 C 1.101562 -2.597656 1.265625 -2.757812 1.484375 -2.84375 C 1.710938 -2.9375 1.972656 -2.894531 2.265625 -2.71875 C 2.804688 -2.394531 3.375 -2.160156 3.96875 -2.015625 C 4.570312 -1.867188 5.203125 -1.796875 5.859375 -1.796875 C 6.828125 -1.796875 7.53125 -1.957031 7.96875 -2.28125 C 8.40625 -2.601562 8.625 -3.019531 8.625 -3.53125 C 8.625 -3.957031 8.46875 -4.289062 8.15625 -4.53125 C 7.851562 -4.78125 7.320312 -4.988281 6.5625 -5.15625 L 4.546875 -5.578125 C 2.242188 -6.066406 1.09375 -7.242188 1.09375 -9.109375 C 1.09375 -9.910156 1.304688 -10.609375 1.734375 -11.203125 C 2.160156 -11.804688 2.753906 -12.273438 3.515625 -12.609375 C 4.273438 -12.941406 5.148438 -13.109375 6.140625 -13.109375 C 6.867188 -13.109375 7.5625 -13.015625 8.21875 -12.828125 C 8.882812 -12.648438 9.476562 -12.378906 10 -12.015625 C 10.25 -11.847656 10.394531 -11.640625 10.4375 -11.390625 C 10.488281 -11.140625 10.457031 -10.90625 10.34375 -10.6875 C 10.238281 -10.476562 10.066406 -10.332031 9.828125 -10.25 C 9.585938 -10.175781 9.3125 -10.226562 9 -10.40625 C 8.550781 -10.664062 8.09375 -10.847656 7.625 -10.953125 C 7.15625 -11.066406 6.65625 -11.125 6.125 -11.125 C 5.28125 -11.125 4.617188 -10.945312 4.140625 -10.59375 C 3.660156 -10.238281 3.421875 -9.773438 3.421875 -9.203125 C 3.421875 -8.765625 3.566406 -8.410156 3.859375 -8.140625 C 4.160156 -7.878906 4.664062 -7.675781 5.375 -7.53125 L 7.375 -7.109375 C 8.582031 -6.847656 9.476562 -6.441406 10.0625 -5.890625 C 10.65625 -5.347656 10.953125 -4.617188 10.953125 -3.703125 C 10.953125 -2.929688 10.742188 -2.25 10.328125 -1.65625 C 9.921875 -1.070312 9.332031 -0.617188 8.5625 -0.296875 C 7.800781 0.0234375 6.898438 0.1875 5.859375 0.1875 Z M 5.859375 0.1875 "/></g></g></g><g fill="#33625a" fill-opacity="1"><g transform="translate(67.314843, 195.492696)"><g><path d="M 5.703125 0.140625 C 4.921875 0.140625 4.53125 -0.257812 4.53125 -1.0625 L 4.53125 -10.953125 L 0.953125 -10.953125 C 0.273438 -10.953125 -0.0625 -11.285156 -0.0625 -11.953125 C -0.0625 -12.597656 0.273438 -12.921875 0.953125 -12.921875 L 10.453125 -12.921875 C 11.117188 -12.921875 11.453125 -12.597656 11.453125 -11.953125 C 11.453125 -11.285156 11.117188 -10.953125 10.453125 -10.953125 L 6.875 -10.953125 L 6.875 -1.0625 C 6.875 -0.257812 6.484375 0.140625 5.703125 0.140625 Z M 5.703125 0.140625 "/></g></g></g><g fill="#33625a" fill-opacity="1"><g transform="translate(82.362003, 195.492696)"><g><path d="M 2.65625 0 C 1.820312 0 1.40625 -0.414062 1.40625 -1.25 L 1.40625 -11.671875 C 1.40625 -12.503906 1.820312 -12.921875 2.65625 -12.921875 L 6.21875 -12.921875 C 8.375 -12.921875 10.039062 -12.363281 11.21875 -11.25 C 12.40625 -10.132812 13 -8.539062 13 -6.46875 C 13 -4.40625 12.40625 -2.8125 11.21875 -1.6875 C 10.039062 -0.5625 8.375 0 6.21875 0 Z M 3.75 -1.9375 L 6.0625 -1.9375 C 9.039062 -1.9375 10.53125 -3.445312 10.53125 -6.46875 C 10.53125 -9.476562 9.039062 -10.984375 6.0625 -10.984375 L 3.75 -10.984375 Z M 3.75 -1.9375 "/></g></g></g><g fill="#33625a" fill-opacity="1"><g transform="translate(282.49686, 195.492696)"><g><path d="M 2.4375 0 C 2.039062 0 1.753906 -0.0859375 1.578125 -0.265625 C 1.398438 -0.441406 1.3125 -0.703125 1.3125 -1.046875 C 1.3125 -1.253906 1.367188 -1.453125 1.484375 -1.640625 C 1.597656 -1.835938 1.757812 -2.046875 1.96875 -2.265625 L 5.640625 -6.1875 C 6.203125 -6.78125 6.601562 -7.316406 6.84375 -7.796875 C 7.09375 -8.273438 7.21875 -8.757812 7.21875 -9.25 C 7.21875 -10.5 6.46875 -11.125 4.96875 -11.125 C 4.550781 -11.125 4.132812 -11.066406 3.71875 -10.953125 C 3.300781 -10.835938 2.878906 -10.640625 2.453125 -10.359375 C 2.179688 -10.171875 1.929688 -10.113281 1.703125 -10.1875 C 1.472656 -10.257812 1.296875 -10.410156 1.171875 -10.640625 C 1.046875 -10.867188 1.003906 -11.109375 1.046875 -11.359375 C 1.097656 -11.617188 1.253906 -11.835938 1.515625 -12.015625 C 2.046875 -12.378906 2.632812 -12.648438 3.28125 -12.828125 C 3.9375 -13.015625 4.597656 -13.109375 5.265625 -13.109375 C 6.640625 -13.109375 7.695312 -12.796875 8.4375 -12.171875 C 9.175781 -11.546875 9.546875 -10.65625 9.546875 -9.5 C 9.546875 -8.71875 9.359375 -7.960938 8.984375 -7.234375 C 8.617188 -6.515625 8.035156 -5.738281 7.234375 -4.90625 L 4.40625 -1.9375 L 9.1875 -1.9375 C 9.851562 -1.9375 10.1875 -1.617188 10.1875 -0.984375 C 10.1875 -0.328125 9.851562 0 9.1875 0 Z M 2.4375 0 "/></g></g></g><g fill="#33625a" fill-opacity="1"><g transform="translate(297.15926, 195.492696)"><g><path d="M 5.5 0.1875 C 3.96875 0.1875 2.796875 -0.390625 1.984375 -1.546875 C 1.179688 -2.703125 0.78125 -4.347656 0.78125 -6.484375 C 0.78125 -8.648438 1.179688 -10.296875 1.984375 -11.421875 C 2.796875 -12.546875 3.96875 -13.109375 5.5 -13.109375 C 7.039062 -13.109375 8.207031 -12.546875 9 -11.421875 C 9.800781 -10.296875 10.203125 -8.65625 10.203125 -6.5 C 10.203125 -4.351562 9.800781 -2.703125 9 -1.546875 C 8.195312 -0.390625 7.03125 0.1875 5.5 0.1875 Z M 5.5 -1.734375 C 6.332031 -1.734375 6.945312 -2.117188 7.34375 -2.890625 C 7.738281 -3.660156 7.9375 -4.863281 7.9375 -6.5 C 7.9375 -8.144531 7.738281 -9.335938 7.34375 -10.078125 C 6.945312 -10.816406 6.332031 -11.1875 5.5 -11.1875 C 4.675781 -11.1875 4.0625 -10.816406 3.65625 -10.078125 C 3.257812 -9.335938 3.0625 -8.144531 3.0625 -6.5 C 3.0625 -4.863281 3.257812 -3.660156 3.65625 -2.890625 C 4.0625 -2.117188 4.675781 -1.734375 5.5 -1.734375 Z M 5.5 -1.734375 "/></g></g></g><g fill="#33625a" fill-opacity="1"><g transform="translate(311.82166, 195.492696)"><g><path d="M 2.859375 0 C 2.179688 0 1.84375 -0.328125 1.84375 -0.984375 C 1.84375 -1.617188 2.179688 -1.9375 2.859375 -1.9375 L 4.90625 -1.9375 L 4.90625 -10.25 L 3.359375 -9.3125 C 3.066406 -9.132812 2.800781 -9.085938 2.5625 -9.171875 C 2.320312 -9.265625 2.140625 -9.421875 2.015625 -9.640625 C 1.890625 -9.859375 1.851562 -10.097656 1.90625 -10.359375 C 1.957031 -10.628906 2.128906 -10.847656 2.421875 -11.015625 L 4.953125 -12.53125 C 5.191406 -12.675781 5.429688 -12.800781 5.671875 -12.90625 C 5.921875 -13.007812 6.148438 -13.0625 6.359375 -13.0625 C 6.617188 -13.0625 6.832031 -12.988281 7 -12.84375 C 7.175781 -12.707031 7.265625 -12.484375 7.265625 -12.171875 L 7.265625 -1.9375 L 9.125 -1.9375 C 9.800781 -1.9375 10.140625 -1.617188 10.140625 -0.984375 C 10.140625 -0.328125 9.800781 0 9.125 0 Z M 2.859375 0 "/></g></g></g><g fill="#33625a" fill-opacity="1"><g transform="translate(326.48406, 195.492696)"><g><path d="M 4.484375 0.1875 C 3.960938 0.1875 3.421875 0.101562 2.859375 -0.0625 C 2.296875 -0.226562 1.769531 -0.476562 1.28125 -0.8125 C 1.050781 -0.96875 0.914062 -1.171875 0.875 -1.421875 C 0.832031 -1.671875 0.863281 -1.90625 0.96875 -2.125 C 1.082031 -2.351562 1.25 -2.507812 1.46875 -2.59375 C 1.695312 -2.675781 1.957031 -2.628906 2.25 -2.453125 C 2.664062 -2.210938 3.054688 -2.039062 3.421875 -1.9375 C 3.796875 -1.84375 4.164062 -1.796875 4.53125 -1.796875 C 5.59375 -1.796875 6.40625 -2.164062 6.96875 -2.90625 C 7.53125 -3.65625 7.8125 -4.769531 7.8125 -6.25 L 7.8125 -6.78125 C 7.550781 -6.101562 7.132812 -5.578125 6.5625 -5.203125 C 5.988281 -4.828125 5.328125 -4.640625 4.578125 -4.640625 C 3.847656 -4.640625 3.191406 -4.816406 2.609375 -5.171875 C 2.023438 -5.523438 1.566406 -6.015625 1.234375 -6.640625 C 0.910156 -7.273438 0.75 -7.988281 0.75 -8.78125 C 0.75 -9.625 0.925781 -10.367188 1.28125 -11.015625 C 1.644531 -11.660156 2.148438 -12.171875 2.796875 -12.546875 C 3.453125 -12.921875 4.191406 -13.109375 5.015625 -13.109375 C 6.617188 -13.109375 7.859375 -12.546875 8.734375 -11.421875 C 9.609375 -10.304688 10.046875 -8.726562 10.046875 -6.6875 C 10.046875 -4.5 9.554688 -2.804688 8.578125 -1.609375 C 7.597656 -0.410156 6.234375 0.1875 4.484375 0.1875 Z M 5.171875 -6.5 C 5.828125 -6.5 6.359375 -6.71875 6.765625 -7.15625 C 7.179688 -7.601562 7.390625 -8.179688 7.390625 -8.890625 C 7.390625 -9.597656 7.179688 -10.164062 6.765625 -10.59375 C 6.359375 -11.03125 5.828125 -11.25 5.171875 -11.25 C 4.503906 -11.25 3.96875 -11.03125 3.5625 -10.59375 C 3.15625 -10.164062 2.953125 -9.597656 2.953125 -8.890625 C 2.953125 -8.179688 3.15625 -7.601562 3.5625 -7.15625 C 3.96875 -6.71875 4.503906 -6.5 5.171875 -6.5 Z M 5.171875 -6.5 "/></g></g></g><g fill="#33625a" fill-opacity="1"><g transform="translate(72.736687, 136.203535)"><g><path d="M 3.890625 -7.640625 C 3.378906 -6.578125 2.578125 -6.304688 1.484375 -6.828125 L -11.9375 -13.21875 L -14.234375 -8.375 C -14.671875 -7.457031 -15.332031 -7.210938 -16.21875 -7.640625 C -17.101562 -8.054688 -17.328125 -8.722656 -16.890625 -9.640625 L -10.765625 -22.5 C -10.335938 -23.414062 -9.679688 -23.664062 -8.796875 -23.25 C -7.910156 -22.820312 -7.679688 -22.148438 -8.109375 -21.234375 L -10.421875 -16.390625 L 3 -10 C 4.09375 -9.476562 4.390625 -8.691406 3.890625 -7.640625 Z M 3.890625 -7.640625 "/></g></g></g><g fill="#33625a" fill-opacity="1"><g transform="translate(82.789125, 115.911811)"><g><path d="M 2.484375 -2.984375 C 1.785156 -2.046875 0.953125 -1.9375 -0.015625 -2.65625 L -13 -12.359375 C -13.96875 -13.085938 -14.101562 -13.921875 -13.40625 -14.859375 C -12.695312 -15.796875 -11.859375 -15.898438 -10.890625 -15.171875 L -5.6875 -11.28125 L 0.28125 -19.28125 L -4.921875 -23.171875 C -5.890625 -23.898438 -6.019531 -24.738281 -5.3125 -25.6875 C -4.601562 -26.625 -3.765625 -26.726562 -2.796875 -26 L 10.1875 -16.296875 C 11.15625 -15.578125 11.285156 -14.75 10.578125 -13.8125 C 9.867188 -12.863281 9.03125 -12.75 8.0625 -13.46875 L 2.640625 -17.515625 L -3.328125 -9.515625 L 2.09375 -5.46875 C 3.0625 -4.75 3.191406 -3.921875 2.484375 -2.984375 Z M 2.484375 -2.984375 "/></g></g></g><g fill="#33625a" fill-opacity="1"><g transform="translate(99.451083, 94.899737)"><g><path d="M 2.953125 -2.671875 C 2.035156 -1.835938 1.160156 -1.882812 0.328125 -2.8125 L -10.171875 -14.4375 C -11.015625 -15.363281 -10.976562 -16.242188 -10.0625 -17.078125 L -2.765625 -23.671875 C -2.054688 -24.304688 -1.390625 -24.28125 -0.765625 -23.59375 C -0.128906 -22.882812 -0.164062 -22.210938 -0.875 -21.578125 L -7.046875 -16 L -3.46875 -12.03125 L 2.25 -17.1875 C 2.957031 -17.832031 3.628906 -17.8125 4.265625 -17.125 C 4.878906 -16.425781 4.832031 -15.753906 4.125 -15.109375 L -1.59375 -9.953125 L 2.1875 -5.78125 L 8.359375 -11.359375 C 9.066406 -11.992188 9.738281 -11.960938 10.375 -11.265625 C 11 -10.566406 10.957031 -9.898438 10.25 -9.265625 Z M 2.953125 -2.671875 "/></g></g></g><g fill="#33625a" fill-opacity="1"><g transform="translate(116.566105, 80.44878)"><g/></g></g><g fill="#33625a" fill-opacity="1"><g transform="translate(127.637312, 72.963041)"><g><path d="M 10.515625 -4.5625 C 8.566406 -3.664062 6.75 -3.269531 5.0625 -3.375 C 3.375 -3.476562 1.867188 -4.046875 0.546875 -5.078125 C -0.773438 -6.109375 -1.863281 -7.546875 -2.71875 -9.390625 C -3.582031 -11.242188 -3.96875 -13.015625 -3.875 -14.703125 C -3.789062 -16.398438 -3.242188 -17.929688 -2.234375 -19.296875 C -1.234375 -20.660156 0.203125 -21.78125 2.078125 -22.65625 C 3.003906 -23.082031 3.988281 -23.398438 5.03125 -23.609375 C 6.082031 -23.828125 7.144531 -23.863281 8.21875 -23.71875 C 8.695312 -23.664062 9.046875 -23.472656 9.265625 -23.140625 C 9.492188 -22.816406 9.597656 -22.457031 9.578125 -22.0625 C 9.554688 -21.664062 9.40625 -21.328125 9.125 -21.046875 C 8.851562 -20.773438 8.460938 -20.660156 7.953125 -20.703125 C 7.160156 -20.785156 6.394531 -20.753906 5.65625 -20.609375 C 4.925781 -20.472656 4.164062 -20.222656 3.375 -19.859375 C 1.507812 -18.992188 0.351562 -17.796875 -0.09375 -16.265625 C -0.550781 -14.742188 -0.3125 -12.96875 0.625 -10.9375 C 1.570312 -8.894531 2.785156 -7.566406 4.265625 -6.953125 C 5.742188 -6.347656 7.445312 -6.492188 9.375 -7.390625 C 9.925781 -7.640625 10.46875 -7.941406 11 -8.296875 C 11.53125 -8.648438 12.039062 -9.054688 12.53125 -9.515625 L 10.625 -13.609375 L 7.875 -12.328125 C 7 -11.921875 6.378906 -12.113281 6.015625 -12.90625 C 5.648438 -13.695312 5.90625 -14.296875 6.78125 -14.703125 L 10.890625 -16.609375 C 11.753906 -17.015625 12.382812 -16.78125 12.78125 -15.90625 L 15.59375 -9.84375 C 15.957031 -9.082031 15.890625 -8.457031 15.390625 -7.96875 C 14.773438 -7.34375 14.035156 -6.722656 13.171875 -6.109375 C 12.304688 -5.503906 11.421875 -4.988281 10.515625 -4.5625 Z M 10.515625 -4.5625 "/></g></g></g><g fill="#33625a" fill-opacity="1"><g transform="translate(151.268009, 62.688725)"><g><path d="M 3.8125 -0.6875 C 2.675781 -0.414062 1.96875 -0.867188 1.6875 -2.046875 L -2.03125 -17.625 C -2.300781 -18.789062 -1.859375 -19.507812 -0.703125 -19.78125 L 5.75 -21.3125 C 7.820312 -21.8125 9.535156 -21.695312 10.890625 -20.96875 C 12.253906 -20.25 13.148438 -19 13.578125 -17.21875 C 13.910156 -15.8125 13.820312 -14.554688 13.3125 -13.453125 C 12.800781 -12.359375 11.898438 -11.492188 10.609375 -10.859375 C 11.566406 -10.785156 12.476562 -10.273438 13.34375 -9.328125 L 16.234375 -6.078125 C 16.671875 -5.585938 16.851562 -5.078125 16.78125 -4.546875 C 16.707031 -4.015625 16.300781 -3.660156 15.5625 -3.484375 C 15.082031 -3.367188 14.664062 -3.375 14.3125 -3.5 C 13.96875 -3.632812 13.628906 -3.894531 13.296875 -4.28125 L 9.40625 -8.609375 C 8.9375 -9.140625 8.457031 -9.453125 7.96875 -9.546875 C 7.488281 -9.648438 6.910156 -9.625 6.234375 -9.46875 L 3.6875 -8.859375 L 5.109375 -2.859375 C 5.390625 -1.679688 4.957031 -0.957031 3.8125 -0.6875 Z M 3.078125 -11.40625 L 7.265625 -12.40625 C 9.753906 -13 10.753906 -14.3125 10.265625 -16.34375 C 9.785156 -18.363281 8.300781 -19.078125 5.8125 -18.484375 L 1.625 -17.484375 Z M 3.078125 -11.40625 "/></g></g></g><g fill="#33625a" fill-opacity="1"><g transform="translate(175.24194, 57.621593)"><g><path d="M 3.984375 -0.1875 C 2.742188 -0.132812 2.09375 -0.734375 2.03125 -1.984375 L 1.265625 -17.625 C 1.210938 -18.875 1.804688 -19.523438 3.046875 -19.578125 L 12.859375 -20.0625 C 13.816406 -20.101562 14.316406 -19.660156 14.359375 -18.734375 C 14.398438 -17.785156 13.941406 -17.289062 12.984375 -17.25 L 4.6875 -16.84375 L 4.953125 -11.5 L 12.640625 -11.875 C 13.597656 -11.925781 14.097656 -11.484375 14.140625 -10.546875 C 14.191406 -9.617188 13.738281 -9.128906 12.78125 -9.078125 L 5.09375 -8.703125 L 5.359375 -3.078125 L 13.65625 -3.484375 C 14.613281 -3.523438 15.117188 -3.078125 15.171875 -2.140625 C 15.210938 -1.203125 14.753906 -0.710938 13.796875 -0.671875 Z M 3.984375 -0.1875 "/></g></g></g><g fill="#33625a" fill-opacity="1"><g transform="translate(197.372584, 57.049101)"><g><path d="M 3.953125 0.515625 C 2.722656 0.347656 2.1875 -0.351562 2.34375 -1.59375 L 4.34375 -17.125 C 4.5 -18.363281 5.191406 -18.898438 6.421875 -18.734375 L 16.171875 -17.484375 C 17.117188 -17.367188 17.535156 -16.851562 17.421875 -15.9375 C 17.296875 -14.988281 16.757812 -14.570312 15.8125 -14.6875 L 7.5625 -15.75 L 6.890625 -10.453125 L 14.53125 -9.46875 C 15.476562 -9.351562 15.890625 -8.832031 15.765625 -7.90625 C 15.648438 -6.988281 15.117188 -6.585938 14.171875 -6.703125 L 6.53125 -7.6875 L 5.8125 -2.09375 L 14.0625 -1.03125 C 15.007812 -0.914062 15.421875 -0.390625 15.296875 0.546875 C 15.179688 1.472656 14.648438 1.878906 13.703125 1.765625 Z M 3.953125 0.515625 "/></g></g></g><g fill="#33625a" fill-opacity="1"><g transform="translate(219.175603, 60.193269)"><g><path d="M 3.515625 1.390625 C 2.472656 1.046875 2.128906 0.335938 2.484375 -0.734375 L 7.625 -16.28125 C 7.800781 -16.8125 8.070312 -17.175781 8.4375 -17.375 C 8.800781 -17.582031 9.203125 -17.613281 9.640625 -17.46875 C 10.046875 -17.34375 10.320312 -17.171875 10.46875 -16.953125 C 10.625 -16.742188 10.78125 -16.414062 10.9375 -15.96875 L 16.265625 -0.78125 L 20.0625 -12.25 C 20.414062 -13.3125 21.113281 -13.671875 22.15625 -13.328125 C 23.1875 -12.984375 23.523438 -12.28125 23.171875 -11.21875 L 17.984375 4.453125 C 17.816406 4.941406 17.566406 5.28125 17.234375 5.46875 C 16.898438 5.664062 16.523438 5.695312 16.109375 5.5625 C 15.710938 5.425781 15.421875 5.238281 15.234375 5 C 15.046875 4.769531 14.875 4.4375 14.71875 4 L 9.390625 -11.21875 L 5.578125 0.28125 C 5.222656 1.351562 4.535156 1.722656 3.515625 1.390625 Z M 3.515625 1.390625 "/></g></g></g><g fill="#33625a" fill-opacity="1"><g transform="translate(243.920139, 69.425604)"><g/></g></g><g fill="#33625a" fill-opacity="1"><g transform="translate(255.813849, 75.653721)"><g><path d="M 3.015625 2.453125 C 2.066406 1.765625 1.945312 0.929688 2.65625 -0.046875 L 12.046875 -13.015625 C 12.753906 -13.984375 13.585938 -14.117188 14.546875 -13.421875 L 19.921875 -9.53125 C 21.648438 -8.28125 22.664062 -6.882812 22.96875 -5.34375 C 23.28125 -3.800781 22.875 -2.253906 21.75 -0.703125 C 20.632812 0.835938 19.296875 1.703125 17.734375 1.890625 C 16.171875 2.078125 14.523438 1.546875 12.796875 0.296875 L 8.828125 -2.578125 L 5.5 2.015625 C 4.789062 2.992188 3.960938 3.140625 3.015625 2.453125 Z M 10.453125 -4.828125 L 13.96875 -2.28125 C 16.019531 -0.789062 17.691406 -0.929688 18.984375 -2.703125 C 20.265625 -4.484375 19.878906 -6.117188 17.828125 -7.609375 L 14.3125 -10.15625 Z M 10.453125 -4.828125 "/></g></g></g><g fill="#33625a" fill-opacity="1"><g transform="translate(274.630156, 90.313519)"><g><path d="M 2.609375 2.875 C 1.773438 2.050781 1.785156 1.207031 2.640625 0.34375 L 14 -11.203125 C 14.851562 -12.078125 15.695312 -12.101562 16.53125 -11.28125 C 17.363281 -10.457031 17.351562 -9.609375 16.5 -8.734375 L 5.140625 2.8125 C 4.285156 3.675781 3.441406 3.695312 2.609375 2.875 Z M 2.609375 2.875 "/></g></g></g><g fill="#33625a" fill-opacity="1"><g transform="translate(284.392715, 99.849443)"><g><path d="M 2.0625 3.15625 C 1.414062 2.28125 1.550781 1.507812 2.46875 0.84375 L 15.65625 -8.859375 C 16.101562 -9.191406 16.535156 -9.335938 16.953125 -9.296875 C 17.367188 -9.253906 17.710938 -9.046875 17.984375 -8.671875 C 18.234375 -8.328125 18.359375 -8.023438 18.359375 -7.765625 C 18.359375 -7.503906 18.289062 -7.148438 18.15625 -6.703125 L 13.71875 8.765625 L 23.453125 1.609375 C 24.359375 0.941406 25.140625 1.050781 25.796875 1.9375 C 26.429688 2.8125 26.296875 3.582031 25.390625 4.25 L 12.09375 14.015625 C 11.675781 14.328125 11.273438 14.460938 10.890625 14.421875 C 10.503906 14.390625 10.179688 14.195312 9.921875 13.84375 C 9.671875 13.507812 9.539062 13.191406 9.53125 12.890625 C 9.519531 12.585938 9.570312 12.21875 9.6875 11.78125 L 14.140625 -3.703125 L 4.390625 3.46875 C 3.472656 4.132812 2.695312 4.03125 2.0625 3.15625 Z M 2.0625 3.15625 "/></g></g></g><g fill="#33625a" fill-opacity="1"><g transform="translate(299.286748, 121.345891)"><g><path d="M 1.703125 3.59375 C 1.171875 2.476562 1.46875 1.65625 2.59375 1.125 L 16.75 -5.578125 C 17.882812 -6.109375 18.71875 -5.816406 19.25 -4.703125 L 23.453125 4.1875 C 23.867188 5.050781 23.65625 5.679688 22.8125 6.078125 C 21.957031 6.484375 21.320312 6.253906 20.90625 5.390625 L 17.359375 -2.125 L 12.53125 0.15625 L 15.828125 7.125 C 16.234375 7.988281 16.007812 8.617188 15.15625 9.015625 C 14.320312 9.421875 13.703125 9.191406 13.296875 8.328125 L 10 1.359375 L 4.90625 3.765625 L 8.453125 11.28125 C 8.867188 12.144531 8.648438 12.773438 7.796875 13.171875 C 6.953125 13.578125 6.320312 13.347656 5.90625 12.484375 Z M 1.703125 3.59375 "/></g></g></g><g fill="#33625a" fill-opacity="1"><g transform="translate(59.844245, 276.153594)"><g><path d="M 6.9375 7.328125 C 5.707031 6.085938 4.898438 4.734375 4.515625 3.265625 C 4.140625 1.804688 4.191406 0.332031 4.671875 -1.15625 C 5.160156 -2.65625 6.078125 -4.070312 7.421875 -5.40625 C 8.765625 -6.738281 10.179688 -7.640625 11.671875 -8.109375 C 13.160156 -8.578125 14.628906 -8.617188 16.078125 -8.234375 C 17.535156 -7.847656 18.890625 -7.03125 20.140625 -5.78125 C 21.378906 -4.53125 22.1875 -3.171875 22.5625 -1.703125 C 22.9375 -0.242188 22.882812 1.226562 22.40625 2.71875 C 21.9375 4.207031 21.035156 5.613281 19.703125 6.9375 C 18.347656 8.28125 16.921875 9.1875 15.421875 9.65625 C 13.921875 10.132812 12.441406 10.175781 10.984375 9.78125 C 9.523438 9.394531 8.175781 8.578125 6.9375 7.328125 Z M 8.921875 5.34375 C 10.085938 6.519531 11.40625 7.035156 12.875 6.890625 C 14.351562 6.742188 15.816406 5.953125 17.265625 4.515625 C 18.710938 3.078125 19.515625 1.632812 19.671875 0.1875 C 19.828125 -1.257812 19.3125 -2.582031 18.125 -3.78125 C 16.945312 -4.957031 15.632812 -5.472656 14.1875 -5.328125 C 12.738281 -5.191406 11.289062 -4.40625 9.84375 -2.96875 C 8.394531 -1.53125 7.582031 -0.0820312 7.40625 1.375 C 7.238281 2.84375 7.742188 4.164062 8.921875 5.34375 Z M 8.921875 5.34375 "/></g></g></g><g fill="#33625a" fill-opacity="1"><g transform="translate(79.774571, 295.323389)"><g><path d="M 7.53125 5.8125 C 5.53125 4.351562 4.378906 2.710938 4.078125 0.890625 C 3.773438 -0.921875 4.375 -2.847656 5.875 -4.890625 L 11.3125 -12.328125 C 11.96875 -13.222656 12.738281 -13.347656 13.625 -12.703125 C 14.507812 -12.054688 14.625 -11.285156 13.96875 -10.390625 L 8.53125 -2.96875 C 7.570312 -1.65625 7.15625 -0.453125 7.28125 0.640625 C 7.40625 1.742188 8.039062 2.710938 9.1875 3.546875 C 11.519531 5.253906 13.644531 4.796875 15.5625 2.171875 L 21 -5.25 C 21.65625 -6.144531 22.425781 -6.269531 23.3125 -5.625 C 24.175781 -4.988281 24.28125 -4.222656 23.625 -3.328125 L 18.1875 4.109375 C 16.6875 6.148438 15.035156 7.3125 13.234375 7.59375 C 11.441406 7.882812 9.539062 7.289062 7.53125 5.8125 Z M 7.53125 5.8125 "/></g></g></g><g fill="#33625a" fill-opacity="1"><g transform="translate(101.406801, 310.360219)"><g><path d="M 6.953125 3.90625 C 5.992188 3.394531 5.78125 2.644531 6.3125 1.65625 L 12.796875 -10.59375 L 8.359375 -12.9375 C 7.535156 -13.375 7.34375 -14 7.78125 -14.8125 C 8.195312 -15.613281 8.816406 -15.796875 9.640625 -15.359375 L 21.40625 -9.125 C 22.226562 -8.6875 22.429688 -8.066406 22.015625 -7.265625 C 21.578125 -6.453125 20.945312 -6.265625 20.125 -6.703125 L 15.6875 -9.046875 L 9.203125 3.203125 C 8.671875 4.191406 7.921875 4.425781 6.953125 3.90625 Z M 6.953125 3.90625 "/></g></g></g><g fill="#33625a" fill-opacity="1"><g transform="translate(122.242174, 320.946469)"><g><path d="M 3.5 1.25 C 2.414062 0.863281 2.066406 0.117188 2.453125 -0.984375 L 7.34375 -14.75 C 7.738281 -15.832031 8.476562 -16.179688 9.5625 -15.796875 L 14.265625 -14.140625 C 17.117188 -13.117188 19.0625 -11.597656 20.09375 -9.578125 C 21.132812 -7.554688 21.164062 -5.179688 20.1875 -2.453125 C 19.21875 0.273438 17.691406 2.101562 15.609375 3.03125 C 13.523438 3.96875 11.054688 3.925781 8.203125 2.90625 Z M 5.875 -0.796875 L 8.921875 0.28125 C 12.847656 1.675781 15.519531 0.378906 16.9375 -3.609375 C 18.34375 -7.566406 17.082031 -10.242188 13.15625 -11.640625 L 10.109375 -12.71875 Z M 5.875 -0.796875 "/></g></g></g><g fill="#33625a" fill-opacity="1"><g transform="translate(147.948803, 329.467579)"><g><path d="M 9.875 2.078125 C 8.15625 1.765625 6.722656 1.109375 5.578125 0.109375 C 4.429688 -0.878906 3.628906 -2.125 3.171875 -3.625 C 2.722656 -5.125 2.671875 -6.800781 3.015625 -8.65625 C 3.359375 -10.519531 4.007812 -12.070312 4.96875 -13.3125 C 5.925781 -14.550781 7.109375 -15.425781 8.515625 -15.9375 C 9.929688 -16.457031 11.507812 -16.554688 13.25 -16.234375 C 14.976562 -15.910156 16.414062 -15.253906 17.5625 -14.265625 C 18.707031 -13.285156 19.503906 -12.046875 19.953125 -10.546875 C 20.410156 -9.046875 20.472656 -7.375 20.140625 -5.53125 C 19.785156 -3.65625 19.128906 -2.097656 18.171875 -0.859375 C 17.210938 0.378906 16.019531 1.257812 14.59375 1.78125 C 13.175781 2.300781 11.601562 2.398438 9.875 2.078125 Z M 10.390625 -0.6875 C 12.023438 -0.382812 13.398438 -0.710938 14.515625 -1.671875 C 15.640625 -2.640625 16.382812 -4.125 16.75 -6.125 C 17.125 -8.144531 16.960938 -9.796875 16.265625 -11.078125 C 15.566406 -12.359375 14.390625 -13.148438 12.734375 -13.453125 C 11.097656 -13.753906 9.722656 -13.429688 8.609375 -12.484375 C 7.503906 -11.535156 6.765625 -10.050781 6.390625 -8.03125 C 6.023438 -6.03125 6.191406 -4.378906 6.890625 -3.078125 C 7.585938 -1.785156 8.753906 -0.988281 10.390625 -0.6875 Z M 10.390625 -0.6875 "/></g></g></g><g fill="#33625a" fill-opacity="1"><g transform="translate(175.278516, 333.889507)"><g><path d="M 10.09375 0.46875 C 8.34375 0.425781 6.820312 0.0078125 5.53125 -0.78125 C 4.238281 -1.570312 3.25 -2.671875 2.5625 -4.078125 C 1.875 -5.492188 1.546875 -7.144531 1.578125 -9.03125 C 1.617188 -10.925781 2.015625 -12.5625 2.765625 -13.9375 C 3.515625 -15.3125 4.546875 -16.363281 5.859375 -17.09375 C 7.171875 -17.832031 8.710938 -18.179688 10.484375 -18.140625 C 12.242188 -18.097656 13.765625 -17.679688 15.046875 -16.890625 C 16.335938 -16.109375 17.328125 -15.015625 18.015625 -13.609375 C 18.703125 -12.203125 19.03125 -10.5625 19 -8.6875 C 18.957031 -6.78125 18.5625 -5.132812 17.8125 -3.75 C 17.0625 -2.375 16.023438 -1.316406 14.703125 -0.578125 C 13.390625 0.160156 11.851562 0.507812 10.09375 0.46875 Z M 10.15625 -2.34375 C 11.8125 -2.3125 13.113281 -2.859375 14.0625 -3.984375 C 15.007812 -5.109375 15.503906 -6.691406 15.546875 -8.734375 C 15.597656 -10.785156 15.175781 -12.382812 14.28125 -13.53125 C 13.382812 -14.6875 12.097656 -15.28125 10.421875 -15.3125 C 8.753906 -15.351562 7.445312 -14.816406 6.5 -13.703125 C 5.5625 -12.585938 5.066406 -11.003906 5.015625 -8.953125 C 4.972656 -6.910156 5.398438 -5.304688 6.296875 -4.140625 C 7.203125 -2.984375 8.488281 -2.382812 10.15625 -2.34375 Z M 10.15625 -2.34375 "/></g></g></g><g fill="#33625a" fill-opacity="1"><g transform="translate(202.898099, 333.814115)"><g><path d="M 3.625 -0.265625 C 2.539062 -0.128906 1.925781 -0.617188 1.78125 -1.734375 L -0.1875 -16.5625 C -0.332031 -17.65625 0.140625 -18.273438 1.234375 -18.421875 L 7.375 -19.234375 C 9.34375 -19.492188 10.921875 -19.222656 12.109375 -18.421875 C 13.304688 -17.628906 14.015625 -16.382812 14.234375 -14.6875 C 14.421875 -13.34375 14.222656 -12.1875 13.640625 -11.21875 C 13.054688 -10.257812 12.132812 -9.535156 10.875 -9.046875 C 11.769531 -8.890625 12.566406 -8.335938 13.265625 -7.390625 L 15.640625 -4.09375 C 16.003906 -3.582031 16.125 -3.085938 16 -2.609375 C 15.882812 -2.128906 15.484375 -1.84375 14.796875 -1.75 C 14.335938 -1.6875 13.953125 -1.734375 13.640625 -1.890625 C 13.328125 -2.054688 13.03125 -2.320312 12.75 -2.6875 L 9.53125 -7.09375 C 9.15625 -7.625 8.742188 -7.957031 8.296875 -8.09375 C 7.859375 -8.238281 7.320312 -8.269531 6.6875 -8.1875 L 4.265625 -7.859375 L 5.03125 -2.15625 C 5.175781 -1.039062 4.707031 -0.410156 3.625 -0.265625 Z M 3.953125 -10.28125 L 7.921875 -10.8125 C 10.296875 -11.125 11.351562 -12.25 11.09375 -14.1875 C 10.84375 -16.09375 9.53125 -16.890625 7.15625 -16.578125 L 3.1875 -16.046875 Z M 3.953125 -10.28125 "/></g></g></g><g fill="#33625a" fill-opacity="1"><g transform="translate(227.350533, 329.86795)"><g/></g></g><g fill="#33625a" fill-opacity="1"><g transform="translate(241.082894, 326.366235)"><g><path d="M 10.078125 -3.546875 C 8.203125 -2.835938 6.488281 -2.585938 4.9375 -2.796875 C 3.382812 -3.015625 2.023438 -3.644531 0.859375 -4.6875 C -0.296875 -5.726562 -1.210938 -7.140625 -1.890625 -8.921875 C -2.566406 -10.710938 -2.804688 -12.390625 -2.609375 -13.953125 C -2.421875 -15.515625 -1.8125 -16.894531 -0.78125 -18.09375 C 0.238281 -19.300781 1.65625 -20.25 3.46875 -20.9375 C 4.363281 -21.28125 5.304688 -21.515625 6.296875 -21.640625 C 7.285156 -21.765625 8.28125 -21.722656 9.28125 -21.515625 C 9.695312 -21.429688 10 -21.226562 10.1875 -20.90625 C 10.375 -20.582031 10.445312 -20.238281 10.40625 -19.875 C 10.363281 -19.507812 10.203125 -19.207031 9.921875 -18.96875 C 9.648438 -18.738281 9.28125 -18.65625 8.8125 -18.71875 C 8.070312 -18.84375 7.359375 -18.867188 6.671875 -18.796875 C 5.984375 -18.722656 5.253906 -18.539062 4.484375 -18.25 C 2.691406 -17.570312 1.53125 -16.535156 1 -15.140625 C 0.476562 -13.753906 0.585938 -12.085938 1.328125 -10.140625 C 2.066406 -8.171875 3.101562 -6.847656 4.4375 -6.171875 C 5.769531 -5.503906 7.363281 -5.519531 9.21875 -6.21875 C 9.757812 -6.425781 10.285156 -6.675781 10.796875 -6.96875 C 11.316406 -7.269531 11.816406 -7.609375 12.296875 -7.984375 L 10.8125 -11.9375 L 8.15625 -10.9375 C 7.332031 -10.625 6.773438 -10.847656 6.484375 -11.609375 C 6.203125 -12.367188 6.472656 -12.90625 7.296875 -13.21875 L 11.265625 -14.71875 C 12.097656 -15.039062 12.671875 -14.785156 12.984375 -13.953125 L 15.1875 -8.109375 C 15.46875 -7.378906 15.351562 -6.789062 14.84375 -6.34375 C 14.25 -5.832031 13.523438 -5.320312 12.671875 -4.8125 C 11.828125 -4.300781 10.960938 -3.878906 10.078125 -3.546875 Z M 10.078125 -3.546875 "/></g></g></g><g fill="#33625a" fill-opacity="1"><g transform="translate(265.422861, 316.459826)"><g><path d="M 3.25 -1.796875 C 2.238281 -1.234375 1.453125 -1.460938 0.890625 -2.484375 L -6.171875 -15.28125 C -6.722656 -16.289062 -6.492188 -17.078125 -5.484375 -17.640625 L 2.546875 -22.0625 C 3.328125 -22.488281 3.921875 -22.328125 4.328125 -21.578125 C 4.765625 -20.804688 4.59375 -20.207031 3.8125 -19.78125 L -2.96875 -16.046875 L -0.5625 -11.671875 L 5.734375 -15.140625 C 6.503906 -15.566406 7.097656 -15.398438 7.515625 -14.640625 C 7.941406 -13.867188 7.769531 -13.269531 7 -12.84375 L 0.703125 -9.375 L 3.234375 -4.78125 L 10.015625 -8.515625 C 10.796875 -8.941406 11.394531 -8.773438 11.8125 -8.015625 C 12.238281 -7.242188 12.0625 -6.644531 11.28125 -6.21875 Z M 3.25 -1.796875 "/></g></g></g><g fill="#33625a" fill-opacity="1"><g transform="translate(285.133724, 305.144234)"><g><path d="M 1.84375 -1.140625 C 1.375 -0.785156 0.910156 -0.691406 0.453125 -0.859375 C -0.00390625 -1.035156 -0.300781 -1.4375 -0.4375 -2.0625 L -4.078125 -18.125 C -4.191406 -18.65625 -4.1875 -19.097656 -4.0625 -19.453125 C -3.945312 -19.804688 -3.722656 -20.109375 -3.390625 -20.359375 C -3.078125 -20.597656 -2.726562 -20.726562 -2.34375 -20.75 C -1.96875 -20.78125 -1.539062 -20.664062 -1.0625 -20.40625 L 13.40625 -12.515625 C 13.988281 -12.203125 14.304688 -11.8125 14.359375 -11.34375 C 14.410156 -10.882812 14.207031 -10.484375 13.75 -10.140625 C 13.363281 -9.847656 12.992188 -9.710938 12.640625 -9.734375 C 12.296875 -9.753906 11.898438 -9.890625 11.453125 -10.140625 L 8.609375 -11.765625 L 1.578125 -6.4375 L 2.375 -3.28125 C 2.488281 -2.769531 2.515625 -2.351562 2.453125 -2.03125 C 2.398438 -1.707031 2.195312 -1.410156 1.84375 -1.140625 Z M -1.140625 -17.34375 L 0.90625 -9.203125 L 6.15625 -13.15625 L -1.109375 -17.359375 Z M -1.140625 -17.34375 "/></g></g></g><g fill="#33625a" fill-opacity="1"><g transform="translate(305.93928, 288.657613)"><g><path d="M 2.671875 -2.453125 C 1.910156 -1.671875 1.128906 -1.671875 0.328125 -2.453125 L -10.359375 -12.90625 C -11.148438 -13.675781 -11.160156 -14.457031 -10.390625 -15.25 L -6.0625 -19.671875 C -4.675781 -21.085938 -3.265625 -21.847656 -1.828125 -21.953125 C -0.398438 -22.066406 0.921875 -21.53125 2.140625 -20.34375 C 3.109375 -19.394531 3.660156 -18.363281 3.796875 -17.25 C 3.941406 -16.132812 3.664062 -15 2.96875 -13.84375 C 3.757812 -14.257812 4.734375 -14.3125 5.890625 -14 L 9.78125 -12.859375 C 10.375 -12.691406 10.769531 -12.378906 10.96875 -11.921875 C 11.175781 -11.472656 11.035156 -11 10.546875 -10.5 C 10.222656 -10.175781 9.890625 -9.976562 9.546875 -9.90625 C 9.203125 -9.832031 8.804688 -9.859375 8.359375 -9.984375 L 3.125 -11.484375 C 2.5 -11.671875 1.96875 -11.679688 1.53125 -11.515625 C 1.101562 -11.347656 0.664062 -11.035156 0.21875 -10.578125 L -1.484375 -8.828125 L 2.625 -4.796875 C 3.425781 -4.015625 3.441406 -3.234375 2.671875 -2.453125 Z M -3.234375 -10.53125 L -0.4375 -13.390625 C 1.226562 -15.109375 1.363281 -16.648438 -0.03125 -18.015625 C -1.40625 -19.359375 -2.925781 -19.171875 -4.59375 -17.453125 L -7.390625 -14.59375 Z M -3.234375 -10.53125 "/></g></g></g></svg>