<svg xmlns="http://www.w3.org/2000/svg" xmlns:xlink="http://www.w3.org/1999/xlink" width="500" zoomAndPan="magnify" viewBox="0 0 375 374.999991" height="500" preserveAspectRatio="xMidYMid meet" version="1.0"><defs><g/><clipPath id="b2daa97a10"><path d="M 7.839844 7.839844 L 367.089844 7.839844 L 367.089844 367.089844 L 7.839844 367.089844 Z M 7.839844 7.839844 " clip-rule="nonzero"/></clipPath><clipPath id="dfc3aac1c0"><path d="M 27.433594 27.433594 L 347.566406 27.433594 L 347.566406 347.566406 L 27.433594 347.566406 Z M 27.433594 27.433594 " clip-rule="nonzero"/></clipPath><clipPath id="ff0a9c4d21"><path d="M 187.5 27.433594 C 99.097656 27.433594 27.433594 99.097656 27.433594 187.5 C 27.433594 275.902344 99.097656 347.566406 187.5 347.566406 C 275.902344 347.566406 347.566406 275.902344 347.566406 187.5 C 347.566406 99.097656 275.902344 27.433594 187.5 27.433594 Z M 187.5 27.433594 " clip-rule="nonzero"/></clipPath><clipPath id="d2bb632bfe"><path d="M 210 150 L 256.773438 150 L 256.773438 199 L 210 199 Z M 210 150 " clip-rule="nonzero"/></clipPath><clipPath id="fb69ff7815"><path d="M 118.023438 210 L 256.773438 210 L 256.773438 346 L 118.023438 346 Z M 118.023438 210 " clip-rule="nonzero"/></clipPath><clipPath id="196dc67362"><path d="M 208.136719 147.996094 L 262.136719 147.996094 L 262.136719 201.996094 L 208.136719 201.996094 Z M 208.136719 147.996094 " clip-rule="nonzero"/></clipPath></defs><g clip-path="url(#b2daa97a10)"><path fill="#a82323" d="M 356.042969 235.402344 C 351.488281 250.914062 344.535156 265.625 335.902344 279.175781 C 328.777344 290.203125 320.675781 300.570312 311.570312 309.996094 C 310.390625 311.285156 309.078125 312.4375 307.828125 313.652344 C 306.554688 314.847656 305.320312 316.082031 304.023438 317.246094 L 300.074219 320.675781 L 298.101562 322.394531 L 296.054688 324.019531 L 291.96875 327.289062 C 290.582031 328.347656 289.15625 329.347656 287.753906 330.382812 C 284.980469 332.503906 282.03125 334.371094 279.140625 336.335938 C 278.726562 336.617188 278.289062 336.90625 277.832031 337.214844 C 277.363281 337.496094 276.875 337.792969 276.363281 338.097656 C 275.34375 338.707031 274.25 339.363281 273.082031 340.058594 C 270.773438 341.511719 268.042969 342.875 265.097656 344.441406 C 264.355469 344.824219 263.613281 345.242188 262.828125 345.613281 C 262.042969 345.980469 261.238281 346.355469 260.421875 346.734375 C 258.78125 347.492188 257.085938 348.277344 255.335938 349.085938 C 251.746094 350.488281 248 352.171875 243.917969 353.480469 C 227.800781 359.324219 207.6875 362.9375 187.5 363.019531 C 167.3125 362.9375 147.199219 359.324219 131.082031 353.480469 C 126.996094 352.171875 123.257812 350.488281 119.664062 349.085938 C 117.914062 348.277344 116.21875 347.492188 114.582031 346.734375 C 113.761719 346.355469 112.957031 345.980469 112.167969 345.617188 C 111.386719 345.242188 110.644531 344.824219 109.902344 344.441406 C 106.957031 342.875 104.226562 341.511719 101.917969 340.0625 C 100.753906 339.363281 99.65625 338.707031 98.636719 338.097656 C 98.128906 337.792969 97.636719 337.5 97.167969 337.214844 C 96.710938 336.910156 96.273438 336.617188 95.859375 336.335938 C 84.890625 329.148438 74.589844 320.984375 65.226562 311.816406 C 55.347656 301.949219 46.710938 290.898438 39.097656 279.179688 C 30.464844 265.625 23.511719 250.914062 18.953125 235.402344 C 14.210938 219.945312 12.019531 203.722656 11.875 187.5 C 12.019531 171.277344 14.210938 155.054688 18.953125 139.59375 C 23.511719 124.085938 30.464844 109.375 39.097656 95.820312 C 46.222656 84.792969 54.324219 74.429688 63.429688 65 C 64.605469 63.714844 65.921875 62.5625 67.171875 61.347656 C 68.441406 60.152344 69.679688 58.917969 70.976562 57.753906 L 74.921875 54.320312 L 76.894531 52.601562 L 78.945312 50.976562 L 83.03125 47.710938 C 84.417969 46.652344 85.84375 45.652344 87.246094 44.613281 C 90.019531 42.492188 92.96875 40.628906 95.855469 38.664062 C 96.273438 38.382812 96.710938 38.089844 97.164062 37.785156 C 97.636719 37.5 98.125 37.207031 98.636719 36.898438 C 99.652344 36.289062 100.75 35.636719 101.917969 34.9375 C 104.226562 33.488281 106.953125 32.125 109.898438 30.558594 C 110.640625 30.175781 111.386719 29.757812 112.167969 29.382812 C 112.957031 29.015625 113.757812 28.644531 114.578125 28.265625 C 116.214844 27.507812 117.914062 26.722656 119.664062 25.914062 C 123.253906 24.511719 126.996094 22.828125 131.078125 21.519531 C 147.199219 15.675781 167.3125 12.0625 187.5 11.976562 C 207.683594 12.0625 227.800781 15.675781 243.917969 21.519531 C 248 22.828125 251.742188 24.511719 255.335938 25.914062 C 257.085938 26.722656 258.78125 27.507812 260.417969 28.265625 C 261.238281 28.644531 262.042969 29.015625 262.828125 29.382812 C 263.613281 29.757812 264.355469 30.175781 265.097656 30.558594 C 268.042969 32.125 270.773438 33.488281 273.078125 34.9375 C 274.246094 35.636719 275.34375 36.289062 276.363281 36.898438 C 276.871094 37.207031 277.359375 37.5 277.832031 37.785156 C 278.289062 38.089844 278.726562 38.382812 279.140625 38.664062 C 290.105469 45.847656 300.410156 54.011719 309.773438 63.183594 C 319.652344 73.046875 328.285156 84.101562 335.902344 95.820312 C 344.535156 109.371094 351.488281 124.085938 356.042969 139.59375 C 360.789062 155.054688 362.980469 171.277344 363.121094 187.5 C 362.980469 203.722656 360.789062 219.945312 356.042969 235.402344 Z M 367.15625 187.378906 L 367.15625 187.367188 C 367.007812 170.800781 364.78125 154.222656 359.953125 138.417969 C 355.3125 122.566406 348.203125 107.519531 339.339844 93.695312 L 335.078125 87.292969 C 335.078125 87.292969 333.847656 85.570312 332 82.988281 C 330.222656 80.351562 327.503906 77.101562 324.902344 73.761719 C 322.101562 70.589844 319.417969 67.316406 317.160156 65.082031 C 314.964844 62.789062 313.5 61.265625 313.5 61.265625 C 313.5 61.265625 313.132812 60.886719 312.464844 60.246094 C 311.796875 59.605469 310.847656 58.683594 309.707031 57.582031 C 307.480469 55.316406 304.253906 52.585938 301.082031 49.78125 C 299.457031 48.429688 297.785156 47.136719 296.238281 45.894531 C 295.460938 45.277344 294.710938 44.679688 294 44.113281 C 293.265625 43.582031 292.566406 43.078125 291.921875 42.617188 C 289.351562 40.757812 287.636719 39.519531 287.636719 39.519531 C 287.636719 39.519531 287.261719 39.21875 286.65625 38.824219 C 286.058594 38.425781 285.261719 37.894531 284.464844 37.359375 C 282.867188 36.289062 281.269531 35.222656 281.269531 35.222656 C 280.84375 34.933594 280.398438 34.632812 279.933594 34.316406 C 279.453125 34.023438 278.953125 33.722656 278.433594 33.410156 C 277.390625 32.78125 276.269531 32.109375 275.078125 31.394531 C 272.71875 29.90625 269.929688 28.503906 266.914062 26.898438 C 266.15625 26.503906 265.394531 26.078125 264.59375 25.691406 C 263.789062 25.316406 262.964844 24.933594 262.132812 24.542969 C 260.453125 23.769531 258.71875 22.964844 256.925781 22.132812 C 253.253906 20.691406 249.421875 18.96875 245.246094 17.625 C 228.75 11.632812 208.152344 7.921875 187.5 7.839844 C 166.84375 7.921875 146.25 11.632812 129.753906 17.625 C 125.574219 18.96875 121.742188 20.691406 118.070312 22.132812 C 116.28125 22.964844 114.542969 23.769531 112.867188 24.546875 C 112.03125 24.933594 111.207031 25.316406 110.402344 25.691406 C 109.601562 26.078125 108.839844 26.503906 108.082031 26.898438 C 105.070312 28.503906 102.277344 29.90625 99.921875 31.394531 C 98.726562 32.109375 97.609375 32.785156 96.566406 33.410156 C 96.046875 33.722656 95.542969 34.027344 95.066406 34.316406 C 94.597656 34.632812 94.152344 34.933594 93.726562 35.222656 C 93.726562 35.222656 92.132812 36.289062 90.535156 37.359375 C 89.738281 37.894531 88.9375 38.425781 88.339844 38.828125 C 87.738281 39.21875 87.363281 39.519531 87.363281 39.519531 C 87.363281 39.519531 85.648438 40.757812 83.074219 42.617188 C 82.429688 43.078125 81.734375 43.582031 80.996094 44.113281 C 80.285156 44.679688 79.535156 45.277344 78.761719 45.894531 C 77.214844 47.136719 75.542969 48.429688 73.914062 49.78125 C 70.746094 52.585938 67.515625 55.316406 65.289062 57.582031 C 64.148438 58.683594 63.199219 59.605469 62.535156 60.246094 C 61.867188 60.886719 61.496094 61.265625 61.496094 61.265625 C 61.496094 61.265625 60.035156 62.789062 57.839844 65.082031 C 55.582031 67.316406 52.894531 70.589844 50.09375 73.761719 C 47.496094 77.101562 44.773438 80.351562 42.996094 82.988281 C 41.148438 85.570312 39.917969 87.292969 39.917969 87.292969 L 35.660156 93.695312 C 26.796875 107.519531 19.6875 122.566406 15.046875 138.417969 C 10.21875 154.226562 7.992188 170.800781 7.84375 187.367188 L 7.839844 187.378906 L 7.839844 187.617188 L 7.84375 187.632812 C 7.992188 204.199219 10.21875 220.773438 15.046875 236.578125 C 19.6875 252.433594 26.796875 267.480469 35.660156 281.300781 L 39.917969 287.703125 C 39.917969 287.703125 41.152344 289.429688 42.996094 292.011719 C 44.773438 294.648438 47.496094 297.894531 50.09375 301.238281 C 52.894531 304.410156 55.582031 307.683594 57.839844 309.914062 C 60.035156 312.207031 61.496094 313.734375 61.496094 313.734375 C 61.496094 313.734375 61.867188 314.113281 62.535156 314.753906 C 63.199219 315.394531 64.148438 316.316406 65.289062 317.417969 C 67.515625 319.683594 70.746094 322.414062 73.914062 325.21875 C 75.542969 326.566406 77.214844 327.863281 78.761719 329.105469 C 79.535156 329.722656 80.285156 330.320312 80.996094 330.886719 C 81.734375 331.417969 82.429688 331.917969 83.074219 332.382812 C 85.648438 334.242188 87.363281 335.476562 87.363281 335.476562 C 87.363281 335.476562 87.738281 335.78125 88.339844 336.171875 C 88.941406 336.574219 89.738281 337.105469 90.535156 337.640625 C 92.132812 338.710938 93.726562 339.777344 93.726562 339.777344 C 94.152344 340.066406 94.597656 340.367188 95.066406 340.679688 C 95.546875 340.972656 96.046875 341.277344 96.566406 341.589844 C 97.609375 342.21875 98.730469 342.890625 99.921875 343.605469 C 102.28125 345.089844 105.070312 346.496094 108.082031 348.101562 C 108.84375 348.492188 109.601562 348.921875 110.402344 349.304688 C 111.210938 349.683594 112.03125 350.066406 112.867188 350.457031 C 114.542969 351.230469 116.28125 352.035156 118.074219 352.867188 C 121.746094 354.308594 125.574219 356.03125 129.753906 357.375 C 146.25 363.367188 166.84375 367.078125 187.5 367.160156 C 208.152344 367.078125 228.75 363.367188 245.246094 357.375 C 249.421875 356.03125 253.253906 354.308594 256.929688 352.863281 C 258.71875 352.035156 260.453125 351.230469 262.132812 350.453125 C 262.96875 350.0625 263.789062 349.679688 264.597656 349.304688 C 265.398438 348.921875 266.160156 348.492188 266.917969 348.101562 C 269.929688 346.496094 272.71875 345.089844 275.078125 343.605469 C 276.269531 342.890625 277.390625 342.214844 278.433594 341.589844 C 278.953125 341.277344 279.453125 340.972656 279.933594 340.679688 C 280.402344 340.367188 280.847656 340.066406 281.273438 339.777344 C 281.273438 339.777344 282.867188 338.710938 284.464844 337.640625 C 285.261719 337.105469 286.058594 336.574219 286.65625 336.171875 C 287.261719 335.78125 287.636719 335.476562 287.636719 335.476562 C 287.636719 335.476562 289.351562 334.242188 291.921875 332.382812 C 292.566406 331.917969 293.265625 331.417969 294 330.886719 C 294.710938 330.320312 295.460938 329.722656 296.238281 329.105469 C 297.785156 327.863281 299.457031 326.566406 301.082031 325.21875 C 304.253906 322.414062 307.480469 319.683594 309.707031 317.417969 C 310.847656 316.316406 311.796875 315.394531 312.464844 314.753906 C 313.132812 314.113281 313.5 313.734375 313.5 313.734375 C 313.5 313.734375 314.964844 312.207031 317.160156 309.914062 C 319.417969 307.683594 322.101562 304.410156 324.902344 301.238281 C 327.503906 297.894531 330.226562 294.648438 332 292.011719 C 333.851562 289.425781 335.078125 287.703125 335.078125 287.703125 L 339.339844 281.300781 C 348.203125 267.480469 355.3125 252.429688 359.953125 236.578125 C 364.78125 220.773438 367.007812 204.195312 367.15625 187.632812 L 367.15625 187.617188 L 367.160156 187.5 L 367.15625 187.378906 " fill-opacity="1" fill-rule="nonzero"/></g><g clip-path="url(#dfc3aac1c0)"><g clip-path="url(#ff0a9c4d21)"><path fill="#a82323" d="M 27.433594 27.433594 L 347.566406 27.433594 L 347.566406 347.566406 L 27.433594 347.566406 Z M 27.433594 27.433594 " fill-opacity="1" fill-rule="nonzero"/></g></g><g fill="#ffffff" fill-opacity="1"><g transform="translate(67.129262, 179.529442)"><g><path d="M -24.46875 -17.40625 C -23.613281 -20.945312 -22.296875 -23.351562 -20.515625 -24.625 C -18.734375 -25.90625 -16.578125 -26.238281 -14.046875 -25.625 C -12.554688 -25.269531 -11.238281 -24.601562 -10.09375 -23.625 C -8.957031 -22.644531 -8.175781 -21.265625 -7.75 -19.484375 C -7.320312 -17.710938 -7.4375 -15.46875 -8.09375 -12.75 L -8.84375 -9.640625 L 1.71875 -7.09375 L 0.890625 -3.671875 L -26.203125 -10.21875 Z M -21.640625 -16.390625 L -22.46875 -12.921875 L -11.75 -10.34375 L -11.09375 -13.078125 C -10.46875 -15.660156 -10.421875 -17.6875 -10.953125 -19.15625 C -11.492188 -20.625 -12.757812 -21.597656 -14.75 -22.078125 C -16.5 -22.503906 -17.941406 -22.253906 -19.078125 -21.328125 C -20.210938 -20.410156 -21.066406 -18.765625 -21.640625 -16.390625 Z M -21.640625 -16.390625 "/></g></g></g><g fill="#ffffff" fill-opacity="1"><g transform="translate(71.983613, 158.390951)"><g><path d="M 8.6875 -19.421875 L -0.546875 -19.890625 L -5.0625 -9.8125 L 1.453125 -3.234375 L 0 0 L -21.109375 -21.375 L -19.8125 -24.265625 L 10.171875 -22.734375 Z M -3.828125 -20.203125 L -12.796875 -20.796875 C -13.023438 -20.804688 -13.425781 -20.835938 -14 -20.890625 C -14.570312 -20.953125 -15.160156 -21.023438 -15.765625 -21.109375 C -16.367188 -21.203125 -16.832031 -21.265625 -17.15625 -21.296875 C -16.507812 -20.765625 -15.878906 -20.238281 -15.265625 -19.71875 C -14.660156 -19.207031 -14.1875 -18.789062 -13.84375 -18.46875 L -7.4375 -12.140625 Z M -3.828125 -20.203125 "/></g></g></g><g fill="#ffffff" fill-opacity="1"><g transform="translate(81.233629, 137.352032)"><g><path d="M -16.328125 -25.328125 C -14.359375 -28.171875 -12.363281 -29.894531 -10.34375 -30.5 C -8.320312 -31.101562 -6.222656 -30.648438 -4.046875 -29.140625 C -2.828125 -28.296875 -1.96875 -27.363281 -1.46875 -26.34375 C -0.96875 -25.332031 -0.707031 -24.3125 -0.6875 -23.28125 C -0.675781 -22.25 -0.816406 -21.257812 -1.109375 -20.3125 L 13.53125 -19.46875 L 11.1875 -16.09375 L -2.125 -17.125 L -5.28125 -12.5625 L 4.171875 -5.984375 L 2.15625 -3.109375 L -20.734375 -19.015625 Z M -13.953125 -23.4375 L -16.21875 -20.15625 L -7.71875 -14.25 L -5.328125 -17.6875 C -4.046875 -19.550781 -3.472656 -21.164062 -3.609375 -22.53125 C -3.753906 -23.90625 -4.539062 -25.085938 -5.96875 -26.078125 C -7.46875 -27.117188 -8.84375 -27.40625 -10.09375 -26.9375 C -11.351562 -26.476562 -12.640625 -25.3125 -13.953125 -23.4375 Z M -13.953125 -23.4375 "/></g></g></g><g fill="#ffffff" fill-opacity="1"><g transform="translate(93.996997, 118.906858)"><g><path d="M 13.65625 -13.75 L 2.671875 -2.6875 L -17.109375 -22.328125 L -6.125 -33.390625 L -3.9375 -31.21875 L -12.453125 -22.640625 L -6.28125 -16.515625 L 1.734375 -24.59375 L 3.890625 -22.4375 L -4.125 -14.359375 L 2.953125 -7.34375 L 11.46875 -15.921875 Z M 13.65625 -13.75 "/></g></g></g><g fill="#ffffff" fill-opacity="1"><g transform="translate(107.463409, 104.511101)"><g><path d="M 21.453125 -14.5 L 18.046875 -12.1875 L -7.265625 -23.03125 L -7.40625 -22.953125 C -6.84375 -22.222656 -6.148438 -21.316406 -5.328125 -20.234375 C -4.503906 -19.160156 -3.691406 -18.03125 -2.890625 -16.84375 L 5.828125 -3.9375 L 3.140625 -2.109375 L -12.46875 -25.203125 L -9.109375 -27.484375 L 16.140625 -16.6875 L 16.265625 -16.78125 C 16.015625 -17.125 15.640625 -17.625 15.140625 -18.28125 C 14.640625 -18.945312 14.097656 -19.675781 13.515625 -20.46875 C 12.941406 -21.257812 12.414062 -22.007812 11.9375 -22.71875 L 3.125 -35.75 L 5.84375 -37.59375 Z M 21.453125 -14.5 "/></g></g></g><g fill="#ffffff" fill-opacity="1"><g transform="translate(130.430834, 89.215432)"><g><path d="M 11.609375 -4.90625 L 8.375 -3.53125 L -1.265625 -26.375 L -9.28125 -23 L -10.484375 -25.828125 L 8.765625 -33.953125 L 9.96875 -31.125 L 1.96875 -27.75 Z M 11.609375 -4.90625 "/></g></g></g><g fill="#ffffff" fill-opacity="1"><g transform="translate(148.776385, 81.32592)"><g><path d="M 17.296875 -11.828125 C 17.878906 -9.421875 17.460938 -7.335938 16.046875 -5.578125 C 14.628906 -3.828125 12.4375 -2.59375 9.46875 -1.875 C 7.945312 -1.507812 6.507812 -1.285156 5.15625 -1.203125 C 3.8125 -1.117188 2.660156 -1.175781 1.703125 -1.375 L 0.921875 -4.640625 C 1.929688 -4.453125 3.15625 -4.351562 4.59375 -4.34375 C 6.03125 -4.34375 7.46875 -4.519531 8.90625 -4.875 C 10.90625 -5.351562 12.328125 -6.109375 13.171875 -7.140625 C 14.023438 -8.179688 14.289062 -9.367188 13.96875 -10.703125 C 13.757812 -11.597656 13.394531 -12.300781 12.875 -12.8125 C 12.351562 -13.332031 11.5625 -13.734375 10.5 -14.015625 C 9.4375 -14.296875 8.019531 -14.546875 6.25 -14.765625 C 3.71875 -15.035156 1.722656 -15.632812 0.265625 -16.5625 C -1.179688 -17.5 -2.160156 -19.015625 -2.671875 -21.109375 C -3.003906 -22.535156 -2.925781 -23.851562 -2.4375 -25.0625 C -1.957031 -26.28125 -1.140625 -27.320312 0.015625 -28.1875 C 1.171875 -29.0625 2.609375 -29.703125 4.328125 -30.109375 C 5.796875 -30.460938 7.179688 -30.648438 8.484375 -30.671875 C 9.796875 -30.691406 11.019531 -30.597656 12.15625 -30.390625 L 11.796875 -27.21875 C 10.773438 -27.40625 9.671875 -27.5 8.484375 -27.5 C 7.304688 -27.507812 6.132812 -27.375 4.96875 -27.09375 C 3.269531 -26.6875 2.078125 -26.015625 1.390625 -25.078125 C 0.710938 -24.148438 0.515625 -23.097656 0.796875 -21.921875 C 1.015625 -21.003906 1.382812 -20.285156 1.90625 -19.765625 C 2.425781 -19.253906 3.175781 -18.851562 4.15625 -18.5625 C 5.144531 -18.28125 6.4375 -18.046875 8.03125 -17.859375 C 9.757812 -17.671875 11.253906 -17.375 12.515625 -16.96875 C 13.773438 -16.5625 14.800781 -15.957031 15.59375 -15.15625 C 16.394531 -14.351562 16.960938 -13.242188 17.296875 -11.828125 Z M 17.296875 -11.828125 "/></g></g></g><g fill="#ffffff" fill-opacity="1"><g transform="translate(168.398378, 76.870649)"><g/></g></g><g fill="#ffffff" fill-opacity="1"><g transform="translate(176.991002, 75.076924)"><g><path d="M 12.765625 -27.921875 C 14.847656 -27.859375 16.472656 -27.28125 17.640625 -26.1875 C 18.804688 -25.09375 19.363281 -23.597656 19.3125 -21.703125 C 19.257812 -20.054688 18.691406 -18.675781 17.609375 -17.5625 C 16.523438 -16.457031 15.160156 -15.46875 13.515625 -14.59375 L 20.8125 -7.09375 C 21.507812 -7.875 22.085938 -8.785156 22.546875 -9.828125 C 23.003906 -10.867188 23.398438 -11.992188 23.734375 -13.203125 L 27.203125 -13.09375 C 26.734375 -11.425781 26.160156 -9.890625 25.484375 -8.484375 C 24.816406 -7.078125 23.972656 -5.859375 22.953125 -4.828125 L 28.484375 0.890625 L 23.84375 0.75 L 20.546875 -2.640625 C 19.285156 -1.585938 17.890625 -0.742188 16.359375 -0.109375 C 14.835938 0.515625 13 0.796875 10.84375 0.734375 C 8.132812 0.648438 6.007812 -0.078125 4.46875 -1.453125 C 2.9375 -2.835938 2.210938 -4.753906 2.296875 -7.203125 C 2.359375 -9.179688 2.945312 -10.765625 4.0625 -11.953125 C 5.1875 -13.140625 6.6875 -14.226562 8.5625 -15.21875 C 7.757812 -16.164062 7.015625 -17.179688 6.328125 -18.265625 C 5.648438 -19.359375 5.335938 -20.625 5.390625 -22.0625 C 5.441406 -23.957031 6.125 -25.425781 7.4375 -26.46875 C 8.75 -27.507812 10.523438 -27.992188 12.765625 -27.921875 Z M 12.546875 -25.109375 C 11.453125 -25.148438 10.550781 -24.894531 9.84375 -24.34375 C 9.144531 -23.789062 8.78125 -23.003906 8.75 -21.984375 C 8.71875 -21.046875 8.9375 -20.171875 9.40625 -19.359375 C 9.875 -18.554688 10.5625 -17.660156 11.46875 -16.671875 C 13.03125 -17.503906 14.15625 -18.296875 14.84375 -19.046875 C 15.539062 -19.804688 15.90625 -20.722656 15.9375 -21.796875 C 15.96875 -22.734375 15.675781 -23.507812 15.0625 -24.125 C 14.457031 -24.75 13.617188 -25.078125 12.546875 -25.109375 Z M 10.578125 -13 C 9.140625 -12.207031 8.007812 -11.394531 7.1875 -10.5625 C 6.363281 -9.726562 5.929688 -8.609375 5.890625 -7.203125 C 5.847656 -5.773438 6.289062 -4.613281 7.21875 -3.71875 C 8.15625 -2.832031 9.429688 -2.363281 11.046875 -2.3125 C 12.710938 -2.257812 14.144531 -2.488281 15.34375 -3 C 16.550781 -3.507812 17.582031 -4.125 18.4375 -4.84375 Z M 10.578125 -13 "/></g></g></g><g fill="#ffffff" fill-opacity="1"><g transform="translate(203.917793, 76.477295)"><g/></g></g><g fill="#ffffff" fill-opacity="1"><g transform="translate(212.87325, 77.726321)"><g><path d="M 6.984375 2.109375 L 3.625 1.09375 L 11.71875 -25.578125 L 26.640625 -21.046875 L 25.734375 -18.109375 L 14.171875 -21.625 L 11.3125 -12.171875 L 22.15625 -8.875 L 21.265625 -5.90625 L 10.421875 -9.203125 Z M 6.984375 2.109375 "/></g></g></g><g fill="#ffffff" fill-opacity="1"><g transform="translate(230.658276, 82.782973)"><g><path d="M 22.734375 -19.8125 C 25.828125 -18.257812 27.816406 -16.53125 28.703125 -14.625 C 29.585938 -12.71875 29.441406 -10.570312 28.265625 -8.1875 C 27.597656 -6.863281 26.796875 -5.878906 25.859375 -5.234375 C 24.929688 -4.597656 23.957031 -4.203125 22.9375 -4.046875 C 21.914062 -3.890625 20.914062 -3.878906 19.9375 -4.015625 L 21.203125 10.59375 L 17.53125 8.75 L 16.625 -4.5625 L 11.671875 -7.03125 L 6.53125 3.265625 L 3.390625 1.6875 L 15.84375 -23.25 Z M 21.1875 -17.171875 L 17.625 -18.953125 L 13 -9.6875 L 16.75 -7.828125 C 18.769531 -6.816406 20.445312 -6.476562 21.78125 -6.8125 C 23.113281 -7.15625 24.171875 -8.109375 24.953125 -9.671875 C 25.765625 -11.296875 25.851562 -12.695312 25.21875 -13.875 C 24.582031 -15.050781 23.238281 -16.148438 21.1875 -17.171875 Z M 21.1875 -17.171875 "/></g></g></g><g fill="#ffffff" fill-opacity="1"><g transform="translate(250.872572, 93.190581)"><g><path d="M 9.578125 6.625 L 1.28125 0.890625 L 2.4375 -0.78125 L 5.5625 0.46875 L 18.25 -17.859375 L 15.984375 -20.359375 L 17.140625 -22.03125 L 25.4375 -16.296875 L 24.28125 -14.625 L 21.140625 -15.859375 L 8.453125 2.46875 L 10.734375 4.953125 Z M 9.578125 6.625 "/></g></g></g><g fill="#ffffff" fill-opacity="1"><g transform="translate(260.813409, 99.616802)"><g><path d="M 14.34375 13.03125 L 2.796875 2.546875 L 21.546875 -18.078125 L 33.09375 -7.59375 L 31.03125 -5.3125 L 22.09375 -13.4375 L 16.234375 -7 L 24.640625 0.65625 L 22.59375 2.90625 L 14.1875 -4.75 L 7.484375 2.625 L 16.421875 10.75 Z M 14.34375 13.03125 "/></g></g></g><g fill="#ffffff" fill-opacity="1"><g transform="translate(275.786363, 112.438351)"><g><path d="M 15.421875 20.796875 L 12.984375 17.5 L 22.6875 -8.28125 L 22.59375 -8.40625 C 21.894531 -7.820312 21.023438 -7.09375 19.984375 -6.21875 C 18.953125 -5.351562 17.859375 -4.492188 16.703125 -3.640625 L 4.1875 5.640625 L 2.25 3.03125 L 24.640625 -13.578125 L 27.0625 -10.3125 L 17.390625 15.390625 L 17.484375 15.515625 C 17.804688 15.242188 18.285156 14.84375 18.921875 14.3125 C 19.566406 13.789062 20.269531 13.222656 21.03125 12.609375 C 21.800781 11.992188 22.53125 11.429688 23.21875 10.921875 L 35.859375 1.546875 L 37.8125 4.1875 Z M 15.421875 20.796875 "/></g></g></g><g fill="#ffffff" fill-opacity="1"><g transform="translate(292.255252, 134.31648)"><g><path d="M 23.59375 18.109375 C 19.28125 20.023438 15.515625 20.296875 12.296875 18.921875 C 9.085938 17.546875 6.550781 14.757812 4.6875 10.5625 L 1.53125 3.453125 L 27.015625 -7.859375 L 30.5 0 C 31.632812 2.550781 32.144531 4.984375 32.03125 7.296875 C 31.914062 9.609375 31.15625 11.6875 29.75 13.53125 C 28.351562 15.375 26.300781 16.898438 23.59375 18.109375 Z M 21.96875 14.765625 C 25.375 13.253906 27.492188 11.304688 28.328125 8.921875 C 29.171875 6.546875 28.910156 3.828125 27.546875 0.765625 L 25.6875 -3.421875 L 5.6875 5.453125 L 7.234375 8.921875 C 10.296875 15.816406 15.207031 17.765625 21.96875 14.765625 Z M 21.96875 14.765625 "/></g></g></g><g fill="#ffffff" fill-opacity="1"><g transform="translate(302.868264, 158.579367)"><g><path d="M 11.703125 17.390625 C 9.296875 17.953125 7.21875 17.515625 5.46875 16.078125 C 3.71875 14.648438 2.5 12.453125 1.8125 9.484375 C 1.457031 7.960938 1.238281 6.523438 1.15625 5.171875 C 1.082031 3.816406 1.148438 2.664062 1.359375 1.71875 L 4.640625 0.96875 C 4.441406 1.96875 4.335938 3.179688 4.328125 4.609375 C 4.316406 6.046875 4.476562 7.488281 4.8125 8.9375 C 5.28125 10.945312 6.023438 12.378906 7.046875 13.234375 C 8.078125 14.085938 9.257812 14.359375 10.59375 14.046875 C 11.488281 13.847656 12.195312 13.484375 12.71875 12.953125 C 13.238281 12.429688 13.640625 11.644531 13.921875 10.59375 C 14.210938 9.539062 14.476562 8.128906 14.71875 6.359375 C 15 3.835938 15.613281 1.847656 16.5625 0.390625 C 17.507812 -1.054688 19.035156 -2.023438 21.140625 -2.515625 C 22.554688 -2.835938 23.867188 -2.753906 25.078125 -2.265625 C 26.296875 -1.773438 27.332031 -0.945312 28.1875 0.21875 C 29.050781 1.382812 29.679688 2.828125 30.078125 4.546875 C 30.421875 6.023438 30.59375 7.414062 30.59375 8.71875 C 30.601562 10.03125 30.507812 11.253906 30.3125 12.390625 L 27.140625 12 C 27.328125 10.976562 27.425781 9.875 27.4375 8.6875 C 27.457031 7.507812 27.332031 6.335938 27.0625 5.171875 C 26.664062 3.472656 26.003906 2.273438 25.078125 1.578125 C 24.148438 0.878906 23.09375 0.671875 21.90625 0.953125 C 20.988281 1.160156 20.269531 1.523438 19.75 2.046875 C 19.226562 2.566406 18.820312 3.316406 18.53125 4.296875 C 18.25 5.273438 18.007812 6.5625 17.8125 8.15625 C 17.613281 9.894531 17.300781 11.390625 16.875 12.640625 C 16.457031 13.898438 15.84375 14.921875 15.03125 15.703125 C 14.226562 16.492188 13.117188 17.054688 11.703125 17.390625 Z M 11.703125 17.390625 "/></g></g></g><path fill="#ffffff" d="M 142.433594 198.863281 C 143.210938 198.84375 143.980469 198.785156 144.75 198.691406 C 145.519531 198.59375 146.285156 198.460938 147.039062 198.292969 C 147.796875 198.121094 148.542969 197.914062 149.28125 197.667969 C 150.015625 197.425781 150.738281 197.148438 151.449219 196.832031 C 152.15625 196.515625 152.847656 196.167969 153.523438 195.785156 C 154.195312 195.402344 154.851562 194.988281 155.484375 194.542969 C 156.121094 194.097656 156.730469 193.621094 157.316406 193.113281 C 157.902344 192.605469 158.464844 192.074219 159 191.511719 C 159.535156 190.949219 160.042969 190.363281 160.519531 189.753906 C 160.996094 189.140625 161.441406 188.507812 161.855469 187.851562 C 162.273438 187.199219 162.65625 186.523438 163.003906 185.832031 C 163.351562 185.140625 163.667969 184.429688 163.949219 183.707031 C 164.226562 182.984375 164.472656 182.25 164.679688 181.503906 C 164.886719 180.753906 165.058594 180 165.191406 179.234375 C 165.324219 178.472656 165.421875 177.703125 165.476562 176.929688 C 165.535156 176.15625 165.558594 175.382812 165.539062 174.609375 C 165.558594 173.832031 165.539062 173.058594 165.480469 172.285156 C 165.421875 171.511719 165.324219 170.742188 165.191406 169.976562 C 165.058594 169.214844 164.886719 168.457031 164.679688 167.710938 C 164.472656 166.964844 164.230469 166.226562 163.949219 165.503906 C 163.671875 164.78125 163.355469 164.074219 163.007812 163.378906 C 162.65625 162.6875 162.277344 162.011719 161.859375 161.359375 C 161.445312 160.703125 161 160.070312 160.519531 159.457031 C 160.042969 158.847656 159.539062 158.261719 159.003906 157.699219 C 158.46875 157.136719 157.90625 156.601562 157.320312 156.097656 C 156.734375 155.589844 156.121094 155.113281 155.488281 154.664062 C 154.855469 154.21875 154.199219 153.804688 153.523438 153.421875 C 152.851562 153.039062 152.160156 152.691406 151.449219 152.375 C 150.742188 152.0625 150.019531 151.78125 149.28125 151.539062 C 148.546875 151.292969 147.796875 151.085938 147.042969 150.914062 C 146.285156 150.746094 145.523438 150.613281 144.753906 150.515625 C 143.984375 150.421875 143.210938 150.363281 142.433594 150.34375 C 141.660156 150.363281 140.886719 150.417969 140.117188 150.515625 C 139.347656 150.609375 138.582031 150.742188 137.824219 150.914062 C 137.070312 151.085938 136.324219 151.292969 135.585938 151.535156 C 134.847656 151.777344 134.125 152.058594 133.417969 152.375 C 132.707031 152.6875 132.015625 153.035156 131.339844 153.417969 C 130.667969 153.800781 130.011719 154.214844 129.378906 154.664062 C 128.742188 155.109375 128.132812 155.585938 127.542969 156.09375 C 126.957031 156.601562 126.394531 157.132812 125.859375 157.695312 C 125.324219 158.257812 124.820312 158.84375 124.339844 159.457031 C 123.863281 160.066406 123.417969 160.699219 123.003906 161.355469 C 122.585938 162.011719 122.203125 162.683594 121.855469 163.378906 C 121.507812 164.070312 121.191406 164.777344 120.910156 165.503906 C 120.632812 166.226562 120.386719 166.960938 120.179688 167.710938 C 119.972656 168.457031 119.800781 169.210938 119.667969 169.976562 C 119.535156 170.742188 119.441406 171.511719 119.382812 172.285156 C 119.324219 173.058594 119.304688 173.832031 119.320312 174.609375 C 119.304688 175.382812 119.324219 176.15625 119.382812 176.929688 C 119.441406 177.703125 119.535156 178.472656 119.671875 179.238281 C 119.804688 180 119.976562 180.757812 120.183594 181.503906 C 120.390625 182.25 120.632812 182.988281 120.914062 183.710938 C 121.195312 184.433594 121.507812 185.140625 121.859375 185.835938 C 122.207031 186.527344 122.589844 187.199219 123.003906 187.855469 C 123.421875 188.511719 123.867188 189.144531 124.34375 189.753906 C 124.824219 190.367188 125.328125 190.953125 125.863281 191.515625 C 126.398438 192.074219 126.960938 192.609375 127.546875 193.117188 C 128.136719 193.621094 128.746094 194.097656 129.378906 194.546875 C 130.015625 194.992188 130.667969 195.40625 131.34375 195.789062 C 132.019531 196.171875 132.710938 196.519531 133.417969 196.835938 C 134.128906 197.148438 134.851562 197.429688 135.585938 197.671875 C 136.324219 197.914062 137.070312 198.121094 137.828125 198.292969 C 138.582031 198.464844 139.347656 198.597656 140.117188 198.691406 C 140.886719 198.785156 141.660156 198.84375 142.433594 198.863281 Z M 142.433594 198.863281 " fill-opacity="1" fill-rule="nonzero"/><g clip-path="url(#d2bb632bfe)"><path fill="#ffffff" d="M 233.25 198.863281 C 234.027344 198.84375 234.796875 198.785156 235.566406 198.691406 C 236.335938 198.59375 237.101562 198.460938 237.855469 198.289062 C 238.613281 198.117188 239.359375 197.910156 240.09375 197.667969 C 240.832031 197.421875 241.554688 197.144531 242.261719 196.828125 C 242.96875 196.515625 243.660156 196.167969 244.335938 195.785156 C 245.011719 195.402344 245.664062 194.988281 246.296875 194.539062 C 246.933594 194.09375 247.542969 193.617188 248.128906 193.109375 C 248.714844 192.605469 249.277344 192.070312 249.8125 191.507812 C 250.347656 190.945312 250.851562 190.359375 251.328125 189.75 C 251.804688 189.136719 252.253906 188.503906 252.667969 187.851562 C 253.082031 187.195312 253.464844 186.523438 253.8125 185.828125 C 254.164062 185.136719 254.476562 184.429688 254.757812 183.707031 C 255.035156 182.984375 255.28125 182.25 255.488281 181.5 C 255.695312 180.753906 255.867188 180 256 179.234375 C 256.132812 178.472656 256.230469 177.703125 256.285156 176.929688 C 256.34375 176.15625 256.367188 175.382812 256.347656 174.609375 C 256.382812 173.828125 256.382812 173.050781 256.339844 172.269531 C 256.296875 171.492188 256.214844 170.714844 256.09375 169.945312 C 255.972656 169.175781 255.816406 168.410156 255.617188 167.65625 C 255.417969 166.902344 255.183594 166.160156 254.910156 165.429688 C 254.636719 164.699219 254.328125 163.984375 253.984375 163.285156 C 253.636719 162.582031 253.257812 161.902344 252.84375 161.242188 C 252.429688 160.582031 251.980469 159.941406 251.503906 159.328125 C 251.023438 158.710938 250.515625 158.121094 249.976562 157.554688 C 249.4375 156.992188 248.871094 156.457031 248.28125 155.949219 C 247.6875 155.441406 247.070312 154.964844 246.429688 154.519531 C 245.789062 154.074219 245.125 153.664062 244.445312 153.285156 C 243.761719 152.910156 243.0625 152.566406 242.34375 152.257812 C 241.628906 151.953125 240.894531 151.683594 240.152344 151.449219 C 239.40625 151.214844 238.652344 151.023438 237.886719 150.863281 C 237.125 150.707031 236.355469 150.589844 235.578125 150.511719 C 234.800781 150.433594 234.023438 150.394531 233.242188 150.394531 C 232.460938 150.394531 231.683594 150.433594 230.910156 150.511719 C 230.132812 150.589844 229.363281 150.707031 228.597656 150.863281 C 227.832031 151.023438 227.078125 151.214844 226.335938 151.449219 C 225.589844 151.683594 224.859375 151.953125 224.140625 152.257812 C 223.425781 152.566406 222.722656 152.910156 222.042969 153.285156 C 221.359375 153.664062 220.699219 154.074219 220.054688 154.519531 C 219.414062 154.964844 218.796875 155.441406 218.207031 155.949219 C 217.613281 156.457031 217.046875 156.992188 216.507812 157.554688 C 215.96875 158.121094 215.460938 158.710938 214.984375 159.328125 C 214.503906 159.941406 214.058594 160.582031 213.644531 161.242188 C 213.230469 161.902344 212.847656 162.582031 212.503906 163.285156 C 212.15625 163.984375 211.847656 164.699219 211.574219 165.429688 C 211.300781 166.160156 211.066406 166.902344 210.871094 167.65625 C 210.671875 168.410156 210.511719 169.175781 210.390625 169.945312 C 210.269531 170.714844 210.1875 171.492188 210.148438 172.269531 C 210.105469 173.050781 210.101562 173.828125 210.136719 174.609375 C 210.121094 175.382812 210.140625 176.15625 210.199219 176.929688 C 210.257812 177.703125 210.355469 178.472656 210.488281 179.238281 C 210.621094 180 210.792969 180.757812 211 181.503906 C 211.207031 182.25 211.449219 182.988281 211.730469 183.710938 C 212.011719 184.433594 212.324219 185.140625 212.675781 185.835938 C 213.023438 186.527344 213.40625 187.199219 213.820312 187.855469 C 214.238281 188.511719 214.683594 189.144531 215.160156 189.753906 C 215.640625 190.367188 216.144531 190.953125 216.679688 191.515625 C 217.214844 192.074219 217.777344 192.609375 218.363281 193.117188 C 218.953125 193.621094 219.5625 194.097656 220.195312 194.546875 C 220.832031 194.992188 221.484375 195.40625 222.160156 195.789062 C 222.835938 196.171875 223.527344 196.519531 224.234375 196.835938 C 224.945312 197.148438 225.667969 197.429688 226.40625 197.671875 C 227.140625 197.914062 227.886719 198.121094 228.644531 198.292969 C 229.402344 198.464844 230.164062 198.597656 230.933594 198.691406 C 231.703125 198.785156 232.476562 198.84375 233.25 198.863281 Z M 233.25 198.863281 " fill-opacity="1" fill-rule="nonzero"/></g><g clip-path="url(#fb69ff7815)"><path fill="#ffffff" d="M 253.738281 210.4375 C 253.351562 210.292969 252.953125 210.210938 252.542969 210.1875 C 252.132812 210.164062 251.730469 210.199219 251.328125 210.300781 C 250.929688 210.398438 250.554688 210.554688 250.203125 210.765625 C 249.851562 210.980469 249.539062 211.242188 249.265625 211.546875 C 230.886719 232.390625 210.933594 242.945312 189.957031 242.945312 C 154.117188 242.945312 126.691406 211.902344 126.414062 211.597656 C 126.144531 211.289062 125.839844 211.027344 125.492188 210.8125 C 125.144531 210.597656 124.777344 210.4375 124.378906 210.335938 C 123.984375 210.230469 123.585938 210.1875 123.175781 210.207031 C 122.769531 210.222656 122.375 210.300781 121.988281 210.4375 C 121.605469 210.574219 121.25 210.765625 120.921875 211.011719 C 120.597656 211.257812 120.3125 211.542969 120.074219 211.875 C 119.835938 212.203125 119.648438 212.5625 119.519531 212.949219 C 119.386719 213.335938 119.316406 213.734375 119.304688 214.140625 C 117.820312 269.871094 119.304688 339 119.304688 339.675781 C 119.3125 340.117188 119.390625 340.542969 119.539062 340.957031 C 119.683594 341.371094 119.894531 341.753906 120.164062 342.101562 C 120.433594 342.445312 120.753906 342.742188 121.117188 342.984375 C 121.484375 343.230469 121.878906 343.410156 122.304688 343.523438 C 126.597656 344.472656 130.945312 344.890625 135.34375 344.777344 C 142.648438 344.691406 149.917969 344.167969 157.160156 343.210938 C 157.628906 343.144531 158.074219 343 158.492188 342.777344 C 158.910156 342.554688 159.277344 342.269531 159.597656 341.917969 C 159.914062 341.566406 160.164062 341.171875 160.34375 340.730469 C 160.523438 340.292969 160.621094 339.835938 160.640625 339.363281 C 161.761719 310.449219 161.226562 284.023438 160.871094 272.167969 C 169.417969 275.648438 178.304688 277.394531 187.535156 277.40625 C 196.6875 277.40625 205.515625 275.710938 214.019531 272.320312 C 212.460938 327.257812 213.453125 339.457031 213.503906 339.972656 C 213.5625 340.6875 213.800781 341.339844 214.207031 341.929688 C 214.617188 342.519531 215.144531 342.96875 215.789062 343.277344 C 220.347656 344.898438 225.039062 345.542969 229.863281 345.210938 C 237.539062 345.09375 245.1875 344.554688 252.804688 343.59375 C 253.296875 343.527344 253.757812 343.378906 254.195312 343.144531 C 254.628906 342.914062 255.007812 342.609375 255.332031 342.238281 C 255.65625 341.867188 255.90625 341.449219 256.078125 340.984375 C 256.25 340.523438 256.332031 340.042969 256.332031 339.550781 C 256 294.113281 256.332031 215.046875 256.332031 214.25 C 256.332031 213.839844 256.273438 213.4375 256.152344 213.042969 C 256.03125 212.648438 255.855469 212.28125 255.625 211.941406 C 255.394531 211.601562 255.117188 211.304688 254.796875 211.046875 C 254.472656 210.789062 254.121094 210.585938 253.738281 210.4375 Z M 253.738281 210.4375 " fill-opacity="1" fill-rule="nonzero"/></g><g clip-path="url(#196dc67362)"><path fill="#ffffff" d="M 235.097656 147.996094 C 220.230469 147.996094 208.136719 160.089844 208.136719 174.957031 C 208.136719 189.820312 220.230469 201.914062 235.097656 201.914062 C 249.960938 201.914062 262.054688 189.820312 262.054688 174.957031 C 262.054688 160.089844 249.960938 147.996094 235.097656 147.996094 Z M 235.097656 147.996094 " fill-opacity="1" fill-rule="nonzero"/></g></svg>