<svg xmlns="http://www.w3.org/2000/svg" xmlns:xlink="http://www.w3.org/1999/xlink" width="500" zoomAndPan="magnify" viewBox="0 0 375 374.999991" height="500" preserveAspectRatio="xMidYMid meet" version="1.0"><defs><g/></defs><path fill="#000000" d="M 360.261719 114.515625 C 350.820312 92.1875 337.300781 72.136719 320.082031 54.917969 C 302.863281 37.699219 282.8125 24.179688 260.484375 14.738281 C 237.367188 4.957031 212.8125 0 187.5 0 C 162.1875 0 137.632812 4.957031 114.515625 14.734375 C 92.1875 24.179688 72.136719 37.699219 54.917969 54.917969 C 37.699219 72.136719 24.179688 92.1875 14.738281 114.515625 C 4.957031 137.632812 0 162.1875 0 187.5 C 0 212.8125 4.957031 237.367188 14.734375 260.484375 C 24.179688 282.8125 37.699219 302.863281 54.917969 320.082031 C 72.136719 337.300781 92.1875 350.820312 114.515625 360.261719 C 137.632812 370.042969 162.1875 375 187.5 375 C 212.8125 375 237.367188 370.042969 260.484375 360.261719 C 282.8125 350.820312 302.863281 337.300781 320.082031 320.082031 C 337.300781 302.863281 350.820312 282.8125 360.261719 260.484375 C 370.039062 237.367188 375 212.8125 375 187.5 C 375 162.1875 370.042969 137.632812 360.261719 114.515625 Z M 187.5 370.03125 C 86.851562 370.03125 4.96875 288.148438 4.96875 187.5 C 4.96875 86.851562 86.851562 4.96875 187.5 4.96875 C 288.148438 4.96875 370.03125 86.851562 370.03125 187.5 C 370.03125 288.148438 288.148438 370.03125 187.5 370.03125 Z M 187.5 370.03125 " fill-opacity="1" fill-rule="nonzero"/><path fill="#000000" d="M 284.808594 90.191406 C 258.816406 64.199219 224.257812 49.886719 187.5 49.886719 C 150.742188 49.886719 116.183594 64.199219 90.191406 90.191406 C 64.199219 116.183594 49.886719 150.742188 49.886719 187.5 C 49.886719 224.257812 64.199219 258.816406 90.191406 284.808594 C 116.183594 310.800781 150.742188 325.113281 187.5 325.113281 C 224.257812 325.113281 258.816406 310.800781 284.808594 284.808594 C 310.800781 258.816406 325.113281 224.257812 325.113281 187.5 C 325.113281 150.742188 310.800781 116.183594 284.808594 90.191406 Z M 187.5 54.855469 C 256.019531 54.855469 312.566406 107.074219 319.441406 173.808594 C 316.710938 174.75 307.425781 174.847656 278.515625 157.667969 C 261.300781 147.4375 246.910156 136.914062 244.777344 134.988281 C 243.269531 131.65625 238.953125 128.8125 233.8125 127.820312 C 228.496094 126.796875 218.054688 126.941406 206.710938 138.851562 C 205.015625 133.160156 201.675781 128.097656 197.042969 124.304688 C 191.355469 119.644531 183.949219 117.078125 176.199219 117.078125 C 164.078125 117.078125 152.988281 124.089844 147.679688 134.8125 C 146.292969 133.683594 144.839844 132.75 143.289062 132.066406 C 140.636719 130.902344 135.902344 130.433594 131.765625 132.15625 C 128.84375 133.375 126.714844 135.503906 125.601562 138.320312 C 124.917969 139.28125 120.179688 143.324219 88.332031 156.964844 C 74.757812 162.78125 61.386719 168.132812 55.96875 170.28125 C 64.4375 105.246094 120.191406 54.855469 187.5 54.855469 Z M 159.375 149.160156 C 156.75 145.308594 154.195312 141.574219 151.457031 138.488281 C 155.609375 128.613281 165.421875 122.046875 176.199219 122.046875 C 189.515625 122.046875 200.160156 130.433594 202.53125 142.601562 C 193.816406 148.414062 173.851562 154.613281 164.9375 157.03125 C 162.976562 154.433594 161.148438 151.757812 159.375 149.160156 Z M 78.699219 231.3125 L 78.699219 227.960938 C 81.6875 230.917969 85.441406 232.910156 88.359375 234.144531 C 85.992188 235.097656 83.71875 235.980469 81.546875 236.789062 C 80.035156 235.046875 78.988281 233.207031 78.699219 231.3125 Z M 73.734375 244.726562 L 73.734375 255.632812 C 71.886719 252.5625 70.160156 249.40625 68.5625 246.179688 C 70.183594 245.773438 71.914062 245.285156 73.734375 244.726562 Z M 73.734375 231.3125 C 73.199219 234.835938 70.046875 238.179688 66.144531 241.019531 C 65.183594 238.847656 64.277344 236.640625 63.429688 234.410156 C 66.417969 233.207031 70.519531 231.140625 73.734375 227.960938 Z M 121.425781 292.417969 C 121.039062 294.980469 119.257812 297.449219 116.820312 299.695312 C 114.769531 298.398438 112.753906 297.054688 110.78125 295.652344 C 113.792969 294.472656 118.089844 292.371094 121.425781 289.066406 Z M 126.394531 305.207031 L 126.394531 302.128906 C 128.539062 304.355469 131.351562 306.53125 134.847656 308.644531 C 136.277344 309.507812 137.699219 310.289062 139.046875 310.980469 C 134.710938 309.273438 130.492188 307.34375 126.394531 305.207031 Z M 185.015625 320.113281 C 180 320.023438 175.050781 319.652344 170.183594 319.015625 C 172.117188 318.09375 174.332031 316.949219 176.5625 315.601562 C 180.058594 313.484375 182.871094 311.308594 185.015625 309.085938 Z M 189.984375 320.113281 L 189.984375 309.085938 C 192.128906 311.308594 194.941406 313.484375 198.4375 315.597656 C 200.667969 316.949219 202.882812 318.09375 204.816406 319.015625 C 199.949219 319.652344 195 320.019531 189.984375 320.113281 Z M 253.574219 292.417969 L 253.574219 289.066406 C 256.914062 292.371094 261.207031 294.472656 264.21875 295.652344 C 262.246094 297.054688 260.230469 298.398438 258.179688 299.695312 C 255.742188 297.449219 253.960938 294.980469 253.574219 292.417969 Z M 248.605469 305.207031 C 244.507812 307.339844 240.285156 309.277344 235.953125 310.984375 C 237.300781 310.289062 238.722656 309.507812 240.152344 308.644531 C 243.648438 306.53125 246.460938 304.355469 248.605469 302.128906 Z M 269.050781 292.042969 C 268.222656 291.820312 254.742188 288.015625 253.574219 278.910156 L 253.574219 274.484375 C 258.433594 279.894531 265.003906 281.542969 265.417969 281.640625 C 265.609375 281.6875 265.804688 281.710938 265.996094 281.710938 C 267.121094 281.710938 268.136719 280.945312 268.410156 279.804688 C 268.730469 278.472656 267.910156 277.132812 266.578125 276.8125 C 266.09375 276.691406 255.21875 273.886719 253.574219 263.238281 L 253.574219 255.273438 C 258.847656 260.699219 266.449219 265.65625 267.636719 266.414062 C 268.789062 267.152344 270.324219 266.816406 271.066406 265.660156 C 271.808594 264.507812 271.46875 262.972656 270.316406 262.230469 C 264.46875 258.484375 254.726562 250.957031 253.472656 246.726562 C 253.15625 245.65625 252.175781 244.953125 251.089844 244.953125 C 250.003906 244.949219 249.023438 245.65625 248.710938 246.726562 C 247.453125 250.960938 237.710938 258.484375 231.867188 262.230469 C 230.710938 262.972656 230.375 264.507812 231.113281 265.660156 C 231.855469 266.816406 233.390625 267.152344 234.546875 266.414062 C 235.730469 265.65625 243.332031 260.699219 248.605469 255.273438 L 248.605469 263.238281 C 246.960938 273.886719 236.085938 276.691406 235.601562 276.8125 C 234.273438 277.132812 233.453125 278.472656 233.769531 279.804688 C 234.042969 280.945312 235.0625 281.710938 236.183594 281.710938 C 236.375 281.710938 236.570312 281.6875 236.765625 281.640625 C 237.175781 281.542969 243.75 279.894531 248.605469 274.484375 L 248.605469 278.910156 C 247.40625 288.253906 233.234375 292.015625 233.085938 292.054688 C 231.757812 292.394531 230.957031 293.746094 231.296875 295.074219 C 231.582031 296.199219 232.59375 296.945312 233.699219 296.945312 C 233.90625 296.945312 234.109375 296.921875 234.316406 296.867188 C 234.832031 296.738281 243.050781 294.570312 248.605469 289.066406 L 248.605469 292.417969 C 247.367188 300.613281 231.96875 307.84375 225.914062 310.007812 C 224.621094 310.46875 223.945312 311.886719 224.40625 313.179688 C 224.628906 313.800781 225.074219 314.277344 225.617188 314.554688 C 221.683594 315.738281 217.679688 316.742188 213.605469 317.558594 C 213.347656 317.300781 213.042969 317.089844 212.679688 316.960938 C 206.625 314.800781 191.226562 307.566406 189.984375 299.375 L 189.984375 296.019531 C 195.542969 301.523438 203.757812 303.691406 204.273438 303.824219 C 204.480469 303.875 204.6875 303.902344 204.890625 303.902344 C 206 303.902344 207.007812 303.152344 207.296875 302.03125 C 207.632812 300.703125 206.832031 299.351562 205.503906 299.011719 C 205.355469 298.972656 191.183594 295.207031 189.984375 285.867188 L 189.984375 281.4375 C 194.84375 286.847656 201.414062 288.5 201.828125 288.597656 C 202.019531 288.644531 202.214844 288.664062 202.40625 288.664062 C 203.53125 288.664062 204.546875 287.898438 204.820312 286.757812 C 205.140625 285.425781 204.320312 284.089844 202.988281 283.765625 C 202.503906 283.648438 191.628906 280.839844 189.984375 270.191406 L 189.984375 262.226562 C 195.257812 267.65625 202.859375 272.609375 204.046875 273.367188 C 205.199219 274.109375 206.734375 273.773438 207.476562 272.617188 C 208.214844 271.460938 207.878906 269.925781 206.726562 269.183594 C 200.878906 265.4375 191.136719 257.914062 189.882812 253.679688 C 189.566406 252.613281 188.585938 251.90625 187.5 251.90625 C 186.414062 251.90625 185.433594 252.613281 185.117188 253.679688 C 183.863281 257.914062 174.121094 265.4375 168.277344 269.183594 C 167.121094 269.925781 166.785156 271.460938 167.523438 272.617188 C 168.265625 273.773438 169.800781 274.109375 170.957031 273.367188 C 172.140625 272.609375 179.742188 267.65625 185.015625 262.226562 L 185.015625 270.191406 C 183.371094 280.839844 172.496094 283.648438 172.011719 283.765625 C 170.679688 284.089844 169.863281 285.425781 170.179688 286.757812 C 170.453125 287.898438 171.472656 288.664062 172.59375 288.664062 C 172.785156 288.664062 172.980469 288.644531 173.175781 288.597656 C 173.585938 288.5 180.160156 286.847656 185.015625 281.4375 L 185.015625 285.867188 C 183.816406 295.207031 169.644531 298.972656 169.496094 299.011719 C 168.167969 299.351562 167.367188 300.703125 167.707031 302.03125 C 167.992188 303.152344 169.003906 303.902344 170.109375 303.902344 C 170.3125 303.902344 170.519531 303.875 170.726562 303.824219 C 171.242188 303.691406 179.460938 301.523438 185.015625 296.019531 L 185.015625 299.375 C 183.773438 307.566406 168.375 314.800781 162.324219 316.960938 C 161.960938 317.089844 161.652344 317.300781 161.398438 317.558594 C 157.320312 316.742188 153.316406 315.738281 149.382812 314.554688 C 149.929688 314.277344 150.371094 313.800781 150.59375 313.179688 C 151.054688 311.886719 150.378906 310.46875 149.089844 310.007812 C 143.035156 307.84375 127.636719 300.613281 126.394531 292.417969 L 126.394531 289.066406 C 131.953125 294.570312 140.167969 296.738281 140.683594 296.867188 C 140.890625 296.921875 141.097656 296.945312 141.300781 296.945312 C 142.410156 296.945312 143.417969 296.199219 143.707031 295.074219 C 144.042969 293.746094 143.242188 292.394531 141.914062 292.054688 C 141.765625 292.015625 127.59375 288.253906 126.394531 278.910156 L 126.394531 274.484375 C 131.253906 279.894531 137.824219 281.542969 138.238281 281.640625 C 138.429688 281.6875 138.625 281.710938 138.816406 281.710938 C 139.9375 281.710938 140.957031 280.945312 141.230469 279.804688 C 141.550781 278.472656 140.730469 277.132812 139.398438 276.8125 C 138.914062 276.691406 128.039062 273.886719 126.394531 263.238281 L 126.394531 255.273438 C 131.667969 260.699219 139.269531 265.65625 140.457031 266.414062 C 141.609375 267.152344 143.144531 266.816406 143.886719 265.660156 C 144.625 264.507812 144.289062 262.972656 143.136719 262.230469 C 137.289062 258.484375 127.546875 250.957031 126.292969 246.726562 C 125.976562 245.65625 124.996094 244.953125 123.910156 244.953125 C 122.824219 244.949219 121.84375 245.65625 121.527344 246.726562 C 120.273438 250.960938 110.53125 258.484375 104.6875 262.230469 C 103.53125 262.972656 103.195312 264.507812 103.933594 265.660156 C 104.675781 266.816406 106.210938 267.152344 107.367188 266.414062 C 108.550781 265.65625 116.152344 260.699219 121.425781 255.273438 L 121.425781 263.238281 C 119.78125 273.886719 108.90625 276.691406 108.421875 276.8125 C 107.09375 277.132812 106.273438 278.472656 106.589844 279.804688 C 106.863281 280.945312 107.882812 281.710938 109.003906 281.710938 C 109.195312 281.710938 109.390625 281.6875 109.585938 281.640625 C 109.996094 281.542969 116.570312 279.894531 121.425781 274.484375 L 121.425781 278.910156 C 120.257812 288.015625 106.773438 291.820312 105.949219 292.042969 C 95.503906 283.875 86.308594 274.175781 78.703125 263.285156 L 78.703125 243.105469 C 79.226562 242.921875 79.757812 242.738281 80.292969 242.550781 C 82.179688 244.246094 84.460938 245.910156 87.15625 247.539062 C 93.375 251.300781 99.472656 253.488281 99.726562 253.578125 C 100.003906 253.679688 100.285156 253.722656 100.5625 253.722656 C 101.582031 253.722656 102.539062 253.089844 102.898438 252.074219 C 103.359375 250.78125 102.6875 249.359375 101.394531 248.898438 C 97.804688 247.617188 90.929688 244.554688 85.667969 240.5625 C 115.132812 229.285156 155.730469 207.652344 162.277344 200.335938 C 172.441406 188.972656 181.457031 188.722656 185.921875 189.582031 C 190.101562 190.390625 192.699219 192.5625 193.304688 193.933594 L 194.777344 201.707031 C 193.375 203.242188 189.726562 206.6875 183.714844 208.75 C 178.9375 210.386719 170.460938 217.277344 163.097656 225.503906 C 157.988281 231.214844 149.414062 242.070312 149.414062 250.59375 C 149.414062 251.964844 150.523438 253.078125 151.898438 253.078125 C 153.269531 253.078125 154.382812 251.964844 154.382812 250.59375 C 154.382812 250.585938 154.382812 250.578125 154.382812 250.566406 C 155.050781 250.671875 155.765625 250.734375 156.492188 250.792969 C 157.632812 250.886719 160.253906 251.101562 160.9375 251.589844 C 162.613281 255.230469 167.460938 256.992188 176.613281 257.300781 C 176.640625 257.300781 176.667969 257.300781 176.695312 257.300781 C 178.03125 257.300781 179.132812 256.242188 179.179688 254.898438 C 179.222656 253.527344 178.148438 252.378906 176.777344 252.335938 C 167.265625 252.015625 165.691406 250.070312 165.4375 249.480469 C 164.113281 246.433594 160.113281 246.105469 156.898438 245.84375 C 156.449219 245.804688 155.910156 245.761719 155.464844 245.710938 C 156.386719 243.289062 157.886719 240.539062 159.890625 237.582031 C 163.519531 242.882812 172.167969 243.496094 173.210938 243.554688 C 173.257812 243.554688 173.300781 243.554688 173.34375 243.554688 C 174.65625 243.554688 175.753906 242.527344 175.824219 241.203125 C 175.894531 239.832031 174.84375 238.664062 173.472656 238.59375 C 171.410156 238.484375 165.179688 237.445312 163.667969 234.222656 C 163.503906 233.871094 163.265625 233.585938 162.984375 233.359375 C 164.078125 231.964844 165.265625 230.546875 166.539062 229.113281 C 169.507812 231.886719 177.046875 234.234375 179.4375 234.929688 C 179.671875 234.996094 179.902344 235.027344 180.132812 235.027344 C 181.210938 235.027344 182.203125 234.320312 182.515625 233.234375 C 182.898438 231.917969 182.140625 230.539062 180.824219 230.15625 C 175.867188 228.71875 170.847656 226.5625 169.921875 225.484375 C 171.984375 223.367188 174.007812 221.480469 175.902344 219.855469 C 179.59375 225.007812 188.078125 225.613281 189.109375 225.667969 C 189.152344 225.671875 189.195312 225.671875 189.242188 225.671875 C 190.554688 225.671875 191.648438 224.644531 191.71875 223.320312 C 191.792969 221.949219 190.738281 220.78125 189.371094 220.707031 C 187.394531 220.601562 181.613281 219.644531 179.796875 216.734375 C 182.109375 215.027344 184.039062 213.890625 185.324219 213.449219 C 185.976562 213.226562 186.605469 212.984375 187.210938 212.738281 C 190.355469 215.390625 197.492188 217.613281 199.808594 218.285156 C 200.039062 218.351562 200.273438 218.386719 200.5 218.386719 C 201.578125 218.386719 202.570312 217.679688 202.886719 216.59375 C 203.269531 215.277344 202.511719 213.898438 201.191406 213.515625 C 197.808594 212.53125 194.390625 211.214844 192.269531 210.132812 C 194.292969 208.859375 195.878906 207.554688 197.039062 206.46875 C 201.140625 210.566406 213.308594 215.996094 217.238281 217.6875 C 217.558594 217.824219 217.890625 217.890625 218.21875 217.890625 C 219.179688 217.890625 220.097656 217.324219 220.5 216.386719 C 221.042969 215.125 220.460938 213.664062 219.199219 213.121094 C 210.996094 209.59375 201.441406 204.558594 200.304688 202.6875 C 200.191406 202.5 200.050781 202.339844 199.898438 202.195312 C 199.890625 202.109375 199.894531 202.027344 199.878906 201.941406 L 199.34375 199.128906 C 200.824219 200.136719 202.667969 201.351562 204.992188 202.824219 C 210.765625 206.480469 220.15625 212.09375 232.109375 218.050781 C 247.511719 225.730469 268.785156 234.730469 290.996094 239.21875 C 285.617188 243.859375 277.589844 247.480469 273.605469 248.902344 C 272.316406 249.363281 271.640625 250.78125 272.101562 252.074219 C 272.464844 253.089844 273.417969 253.726562 274.441406 253.726562 C 274.71875 253.726562 275 253.679688 275.273438 253.582031 C 275.53125 253.488281 281.625 251.300781 287.847656 247.539062 C 291.34375 245.425781 294.15625 243.25 296.300781 241.023438 L 296.300781 263.289062 C 288.691406 274.175781 279.5 283.875 269.050781 292.042969 Z M 301.265625 231.3125 L 301.265625 227.960938 C 304.480469 231.140625 308.582031 233.207031 311.570312 234.410156 C 311.257812 235.234375 310.9375 236.054688 310.609375 236.871094 C 308.300781 236.726562 305.980469 236.515625 303.660156 236.242188 C 302.394531 234.664062 301.523438 233.011719 301.265625 231.3125 Z M 306.730469 245.59375 C 305.050781 249.023438 303.226562 252.375 301.265625 255.632812 L 301.265625 241.023438 C 302.757812 242.570312 304.582031 244.09375 306.730469 245.59375 Z M 296.300781 231.3125 C 296.113281 232.539062 295.605469 233.746094 294.859375 234.917969 C 292.578125 234.503906 290.304688 234.035156 288.03125 233.523438 C 290.6875 232.277344 293.769531 230.464844 296.300781 227.960938 Z M 313.253906 229.71875 C 308.933594 227.953125 302.085938 224.179688 301.265625 217.804688 L 301.265625 213.378906 C 306.125 218.785156 312.695312 220.4375 313.109375 220.535156 C 313.304688 220.582031 313.496094 220.605469 313.6875 220.605469 C 314.8125 220.605469 315.828125 219.835938 316.101562 218.695312 C 316.421875 217.367188 315.601562 216.027344 314.273438 215.707031 C 313.785156 215.585938 302.914062 212.777344 301.265625 202.132812 L 301.265625 194.167969 C 306.539062 199.59375 314.144531 204.546875 315.328125 205.308594 C 316.480469 206.046875 318.019531 205.710938 318.757812 204.554688 C 319.5 203.402344 319.164062 201.863281 318.007812 201.125 C 312.160156 197.375 302.417969 189.851562 301.164062 185.617188 C 300.847656 184.550781 299.867188 183.84375 298.785156 183.847656 C 297.699219 183.84375 296.71875 184.550781 296.402344 185.617188 C 295.148438 189.851562 285.40625 197.375 279.558594 201.125 C 278.402344 201.863281 278.066406 203.402344 278.808594 204.554688 C 279.546875 205.710938 281.082031 206.046875 282.238281 205.308594 C 283.421875 204.546875 291.027344 199.59375 296.296875 194.167969 L 296.296875 202.132812 C 294.652344 212.777344 283.78125 215.585938 283.292969 215.707031 C 281.964844 216.027344 281.144531 217.367188 281.460938 218.695312 C 281.734375 219.835938 282.753906 220.605469 283.878906 220.605469 C 284.066406 220.605469 284.261719 220.582031 284.457031 220.535156 C 284.867188 220.4375 291.441406 218.785156 296.300781 213.378906 L 296.300781 217.804688 C 295.101562 227.148438 280.925781 230.910156 280.777344 230.949219 C 280.40625 231.042969 280.082031 231.226562 279.804688 231.457031 C 238.433594 220.050781 201.480469 195.0625 197.824219 191.855469 C 196.308594 188.53125 191.996094 185.695312 186.863281 184.703125 C 181.363281 183.644531 170.375 183.832031 158.574219 197.023438 C 155.117188 200.886719 138.203125 210.796875 118.359375 220.585938 C 110.160156 224.628906 102.292969 228.257812 95.066406 231.351562 C 94.820312 231.171875 94.535156 231.03125 94.222656 230.949219 C 94.074219 230.910156 79.898438 227.148438 78.699219 217.804688 L 78.699219 213.375 C 83.558594 218.785156 90.132812 220.4375 90.542969 220.535156 C 90.738281 220.582031 90.929688 220.605469 91.121094 220.605469 C 92.246094 220.605469 93.265625 219.835938 93.535156 218.695312 C 93.855469 217.367188 93.035156 216.027344 91.703125 215.703125 C 91.21875 215.585938 80.347656 212.777344 78.699219 202.132812 L 78.699219 194.167969 C 83.972656 199.59375 91.578125 204.546875 92.761719 205.308594 C 93.917969 206.046875 95.453125 205.710938 96.191406 204.554688 C 96.933594 203.402344 96.597656 201.863281 95.441406 201.125 C 89.59375 197.375 79.851562 189.851562 78.597656 185.617188 C 78.28125 184.550781 77.300781 183.84375 76.214844 183.847656 C 75.132812 183.84375 74.152344 184.550781 73.835938 185.617188 C 72.582031 189.851562 62.839844 197.375 56.992188 201.125 C 55.835938 201.863281 55.5 203.402344 56.242188 204.554688 C 56.980469 205.710938 58.515625 206.046875 59.671875 205.308594 C 60.855469 204.546875 68.460938 199.59375 73.734375 194.167969 L 73.734375 202.132812 C 72.085938 212.777344 61.214844 215.585938 60.726562 215.703125 C 59.398438 216.027344 58.578125 217.367188 58.898438 218.695312 C 59.167969 219.835938 60.1875 220.605469 61.3125 220.605469 C 61.503906 220.605469 61.695312 220.582031 61.890625 220.535156 C 62.304688 220.4375 68.875 218.785156 73.734375 213.375 L 73.734375 217.804688 C 72.914062 224.179688 66.066406 227.953125 61.746094 229.71875 C 57.277344 216.453125 54.855469 202.253906 54.855469 187.5 C 54.855469 183.578125 55.035156 179.695312 55.371094 175.859375 C 56.828125 175.289062 73.960938 168.546875 91.167969 161.152344 C 128.273438 145.214844 129.527344 141.953125 130.203125 140.203125 C 130.8125 138.613281 131.980469 137.449219 133.675781 136.742188 C 136.476562 135.578125 139.816406 135.96875 141.292969 136.617188 C 144.136719 137.867188 146.769531 140.460938 149.355469 143.707031 C 148.4375 150.632812 135.414062 162.167969 124.675781 167.199219 C 113.121094 172.617188 109.230469 188.734375 109.070312 189.417969 C 108.757812 190.753906 109.585938 192.085938 110.921875 192.402344 C 111.113281 192.445312 111.304688 192.46875 111.492188 192.46875 C 112.617188 192.46875 113.636719 191.695312 113.90625 190.550781 C 113.914062 190.523438 114.054688 189.953125 114.339844 189.027344 C 114.875 189.09375 115.433594 189.144531 116.003906 189.191406 C 117.140625 189.285156 119.765625 189.5 120.449219 189.984375 C 122.125 193.628906 126.972656 195.390625 136.121094 195.695312 C 136.152344 195.695312 136.179688 195.695312 136.207031 195.695312 C 137.539062 195.695312 138.644531 194.640625 138.6875 193.296875 C 138.734375 191.925781 137.660156 190.777344 136.289062 190.730469 C 126.777344 190.414062 125.203125 188.464844 124.945312 187.875 C 123.621094 184.832031 119.621094 184.503906 116.410156 184.238281 C 116.324219 184.230469 116.238281 184.222656 116.148438 184.21875 C 118.125 179.757812 121.527344 174.164062 126.785156 171.699219 C 128.003906 171.128906 129.28125 170.457031 130.59375 169.714844 C 130.683594 169.964844 130.785156 170.222656 130.902344 170.492188 C 133.082031 175.382812 139.082031 181.128906 147.101562 182.179688 C 147.210938 182.195312 147.320312 182.203125 147.429688 182.203125 C 148.65625 182.203125 149.722656 181.289062 149.886719 180.039062 C 150.066406 178.679688 149.109375 177.433594 147.75 177.253906 C 141.570312 176.445312 137.828125 172.074219 136.828125 170.753906 C 135.4375 168.917969 135.019531 167.496094 135.019531 167.019531 C 135.03125 166.996094 135.039062 166.972656 135.050781 166.953125 C 139.027344 164.285156 143.015625 161.066406 146.332031 157.648438 C 147.035156 158.984375 148.070312 160.300781 149.367188 161.949219 C 150.4375 163.308594 151.769531 165.003906 153.34375 167.238281 C 158.886719 175.105469 164.378906 176.402344 164.988281 176.523438 C 165.152344 176.554688 165.316406 176.570312 165.480469 176.570312 C 166.644531 176.570312 167.695312 175.757812 167.929688 174.578125 C 168.199219 173.230469 167.347656 171.929688 166 171.660156 C 165.960938 171.648438 161.800781 170.617188 157.40625 164.375 C 155.753906 162.035156 154.378906 160.285156 153.269531 158.878906 C 150.917969 155.886719 150.238281 154.957031 150.238281 153.386719 C 150.238281 153.292969 150.222656 153.207031 150.214844 153.117188 C 151.328125 151.605469 152.257812 150.089844 152.957031 148.589844 C 153.722656 149.691406 154.492188 150.820312 155.273438 151.960938 C 163.089844 163.421875 172.820312 177.6875 191.101562 179.210938 C 191.171875 179.21875 191.242188 179.21875 191.3125 179.21875 C 192.589844 179.21875 193.675781 178.238281 193.785156 176.941406 C 193.898438 175.574219 192.882812 174.375 191.515625 174.261719 C 181.359375 173.414062 174.179688 167.96875 168.335938 161.246094 C 177.46875 158.675781 202.34375 151.136719 209.222656 143.449219 C 219.390625 132.089844 228.402344 131.835938 232.871094 132.699219 C 237.050781 133.503906 239.648438 135.679688 240.253906 137.050781 L 241.722656 144.8125 C 240.300781 146.355469 236.613281 149.824219 230.660156 151.863281 C 220.714844 155.273438 218.675781 165.492188 218.59375 165.925781 C 218.339844 167.273438 219.222656 168.570312 220.570312 168.828125 C 220.726562 168.855469 220.882812 168.871094 221.035156 168.871094 C 222.207031 168.871094 223.25 168.039062 223.476562 166.847656 C 223.480469 166.820312 223.671875 165.859375 224.226562 164.515625 C 228.320312 168.25 235.136719 168.734375 236.054688 168.785156 C 236.101562 168.785156 236.144531 168.785156 236.1875 168.785156 C 237.5 168.785156 238.59375 167.761719 238.664062 166.4375 C 238.738281 165.070312 237.6875 163.898438 236.320312 163.824219 C 234.410156 163.714844 228.9375 162.804688 226.9375 160.136719 C 228.222656 158.691406 229.953125 157.359375 232.273438 156.5625 C 232.925781 156.339844 233.550781 156.101562 234.15625 155.851562 C 237.304688 158.507812 244.4375 160.730469 246.753906 161.402344 C 246.984375 161.46875 247.21875 161.5 247.449219 161.5 C 248.523438 161.5 249.515625 160.796875 249.832031 159.710938 C 250.214844 158.390625 249.457031 157.015625 248.140625 156.632812 C 244.753906 155.648438 241.339844 154.328125 239.21875 153.246094 C 241.230469 151.980469 242.8125 150.679688 243.972656 149.597656 C 248.042969 153.890625 260.328125 160.828125 264.300781 163.015625 C 264.679688 163.222656 265.089844 163.324219 265.496094 163.324219 C 266.371094 163.324219 267.222656 162.859375 267.671875 162.035156 C 268.335938 160.835938 267.898438 159.324219 266.695312 158.660156 C 258.292969 154.035156 248.46875 147.804688 247.25 145.800781 C 247.136719 145.613281 246.996094 145.457031 246.84375 145.3125 C 246.839844 145.226562 246.839844 145.140625 246.824219 145.058594 L 246.332031 142.457031 C 246.472656 142.558594 246.613281 142.660156 246.757812 142.769531 C 250.648438 145.597656 255.519531 148.953125 260.472656 152.214844 C 268.472656 157.484375 283.914062 167.234375 297.429688 173.375 C 305.867188 177.207031 312.34375 179.101562 317.039062 179.101562 C 318.066406 179.101562 318.996094 179 319.855469 178.820312 C 320.039062 181.691406 320.144531 184.582031 320.144531 187.5 C 320.144531 202.253906 317.722656 216.453125 313.253906 229.71875 Z M 313.253906 229.71875 " fill-opacity="1" fill-rule="nonzero"/><path fill="#000000" d="M 139.558594 121.542969 C 140.042969 122.015625 140.667969 122.253906 141.296875 122.253906 C 141.941406 122.253906 142.585938 122.003906 143.070312 121.507812 C 144.03125 120.53125 144.015625 118.957031 143.039062 117.996094 L 125.484375 100.773438 C 124.503906 99.8125 122.929688 99.828125 121.972656 100.808594 C 121.011719 101.785156 121.023438 103.359375 122.003906 104.320312 Z M 139.558594 121.542969 " fill-opacity="1" fill-rule="nonzero"/><path fill="#000000" d="M 158.515625 108.722656 C 158.890625 109.71875 159.835938 110.332031 160.839844 110.332031 C 161.128906 110.332031 161.425781 110.28125 161.714844 110.171875 C 163 109.6875 163.648438 108.253906 163.164062 106.96875 L 155.546875 86.765625 C 155.0625 85.484375 153.628906 84.835938 152.34375 85.320312 C 151.0625 85.804688 150.414062 87.234375 150.894531 88.519531 Z M 158.515625 108.722656 " fill-opacity="1" fill-rule="nonzero"/><path fill="#000000" d="M 199.566406 109.710938 C 199.972656 109.960938 200.425781 110.082031 200.871094 110.082031 C 201.703125 110.082031 202.515625 109.664062 202.984375 108.902344 L 214.289062 90.605469 C 215.007812 89.4375 214.648438 87.90625 213.480469 87.1875 C 212.3125 86.464844 210.78125 86.828125 210.0625 87.992188 L 198.757812 106.292969 C 198.039062 107.460938 198.398438 108.992188 199.566406 109.710938 Z M 199.566406 109.710938 " fill-opacity="1" fill-rule="nonzero"/><path fill="#000000" d="M 182.210938 107.636719 C 182.25 107.636719 182.289062 107.640625 182.328125 107.640625 C 183.644531 107.640625 184.746094 106.601562 184.804688 105.269531 L 186.171875 75.835938 C 186.238281 74.464844 185.175781 73.300781 183.808594 73.238281 C 182.429688 73.175781 181.273438 74.234375 181.210938 75.605469 L 179.84375 105.039062 C 179.78125 106.410156 180.839844 107.574219 182.210938 107.636719 Z M 182.210938 107.636719 " fill-opacity="1" fill-rule="nonzero"/><path fill="#000000" d="M 212.058594 122.835938 C 212.542969 123.332031 213.1875 123.578125 213.832031 123.578125 C 214.457031 123.578125 215.085938 123.339844 215.570312 122.867188 L 233.453125 105.3125 C 234.433594 104.351562 234.449219 102.78125 233.488281 101.800781 C 232.527344 100.820312 230.953125 100.808594 229.976562 101.769531 L 212.089844 119.320312 C 211.113281 120.28125 211.097656 121.855469 212.058594 122.835938 Z M 212.058594 122.835938 " fill-opacity="1" fill-rule="nonzero"/><g fill="#000000" fill-opacity="1"><g transform="translate(41.995059, 166.341913)"><g><path d="M -27.15625 -6.0625 L -23.421875 -25.828125 L -18.09375 -24.8125 L -19.40625 -17.828125 L 2.59375 -13.671875 L 1.484375 -7.859375 L -20.515625 -12.015625 L -21.828125 -5.046875 Z M -27.15625 -6.0625 "/></g></g></g><g fill="#000000" fill-opacity="1"><g transform="translate(45.406853, 146.240932)"><g><path d="M -19.171875 -28.765625 L -17.140625 -34.359375 L 9.015625 -24.890625 L 6.984375 -19.296875 L -4.265625 -23.375 L -8.609375 -11.375 L 2.640625 -7.296875 L 0.625 -1.734375 L -25.53125 -11.203125 L -23.515625 -16.765625 L -13.703125 -13.21875 L -9.359375 -25.21875 Z M -19.171875 -28.765625 "/></g></g></g><g fill="#000000" fill-opacity="1"><g transform="translate(54.66683, 121.137553)"><g><path d="M -23.421875 -15.109375 L -15 -30.3125 L -10.265625 -27.6875 L -15.796875 -17.703125 L -11.40625 -15.265625 L -6.546875 -24.0625 L -1.8125 -21.453125 L -6.671875 -12.65625 L -0.90625 -9.46875 L 4.625 -19.453125 L 9.328125 -16.84375 L 0.90625 -1.640625 Z M -23.421875 -15.109375 "/></g></g></g><g fill="#000000" fill-opacity="1"><g transform="translate(64.590134, 103.644507)"><g/></g></g><g fill="#000000" fill-opacity="1"><g transform="translate(68.613865, 95.186257)"><g><path d="M 5.671875 -45.296875 L 10.015625 -49.703125 L 24.28125 -24.578125 L 19.09375 -19.328125 L 1.78125 -28.40625 L 11.0625 -11.1875 L 5.9375 -6 L -19.359375 -19.96875 L -15.015625 -24.375 L 3.8125 -13.5 L -6.71875 -32.765625 L -2.6875 -36.84375 L 16.84375 -26.46875 Z M 5.671875 -45.296875 "/></g></g></g><g fill="#000000" fill-opacity="1"><g transform="translate(98.398386, 66.701026)"><g><path d="M -6.109375 -29.65625 L -3.234375 -25.53125 L -4.9375 -24.328125 L 5.25 -9.75 L 6.953125 -10.953125 L 9.8125 -6.859375 L 1.515625 -1.0625 L -1.34375 -5.15625 L 0.359375 -6.34375 L -9.828125 -20.921875 L -11.53125 -19.734375 L -14.40625 -23.859375 Z M -6.109375 -29.65625 "/></g></g></g><g fill="#000000" fill-opacity="1"><g transform="translate(108.702739, 59.251489)"><g><path d="M 4.234375 -8.46875 L 14.25 -13.96875 L 16.84375 -9.265625 L 1.609375 -0.890625 L -11.796875 -25.25 L -6.578125 -28.125 Z M 4.234375 -8.46875 "/></g></g></g><g fill="#000000" fill-opacity="1"><g transform="translate(124.450009, 50.15569)"><g><path d="M 2.625 -30.625 C 4.519531 -31.320312 6.316406 -31.59375 8.015625 -31.4375 C 9.710938 -31.289062 11.257812 -30.804688 12.65625 -29.984375 C 14.0625 -29.171875 15.3125 -28.0625 16.40625 -26.65625 C 17.507812 -25.25 18.390625 -23.65625 19.046875 -21.875 C 19.722656 -20.050781 20.085938 -18.25 20.140625 -16.46875 C 20.191406 -14.6875 19.96875 -13.035156 19.46875 -11.515625 C 18.976562 -9.992188 18.21875 -8.660156 17.1875 -7.515625 C 16.164062 -6.367188 14.910156 -5.519531 13.421875 -4.96875 L 1.765625 -0.65625 L -7.890625 -26.734375 Z M 10.46875 -9.609375 C 11.519531 -10.003906 12.335938 -10.550781 12.921875 -11.25 C 13.503906 -11.957031 13.90625 -12.769531 14.125 -13.6875 C 14.34375 -14.601562 14.390625 -15.582031 14.265625 -16.625 C 14.148438 -17.664062 13.894531 -18.710938 13.5 -19.765625 C 13.113281 -20.816406 12.628906 -21.785156 12.046875 -22.671875 C 11.472656 -23.566406 10.800781 -24.289062 10.03125 -24.84375 C 9.257812 -25.394531 8.414062 -25.75 7.5 -25.90625 C 6.582031 -26.070312 5.597656 -25.957031 4.546875 -25.5625 L -0.421875 -23.71875 L 5.5 -7.765625 Z M 10.46875 -9.609375 "/></g></g></g><g fill="#000000" fill-opacity="1"><g transform="translate(148.569835, 41.655298)"><g/></g></g><g fill="#000000" fill-opacity="1"><g transform="translate(157.634152, 38.683095)"><g><path d="M 16.078125 -29.5625 L 30.390625 -3.046875 L 24 -2.40625 L 20.90625 -8.09375 L 9.15625 -6.921875 L 7.296875 -0.734375 L 0.859375 -0.078125 L 9.640625 -28.921875 Z M 18.140625 -13.25 L 13.65625 -21.59375 L 10.875 -12.515625 Z M 18.140625 -13.25 "/></g></g></g><g fill="#000000" fill-opacity="1"><g transform="translate(187.102181, 35.777217)"><g><path d="M 15.4375 -26.578125 C 17.445312 -26.398438 19.1875 -25.878906 20.65625 -25.015625 C 22.132812 -24.160156 23.332031 -23.0625 24.25 -21.71875 C 25.164062 -20.382812 25.816406 -18.847656 26.203125 -17.109375 C 26.597656 -15.367188 26.710938 -13.550781 26.546875 -11.65625 C 26.378906 -9.71875 25.941406 -7.929688 25.234375 -6.296875 C 24.535156 -4.671875 23.632812 -3.273438 22.53125 -2.109375 C 21.4375 -0.941406 20.179688 -0.0625 18.765625 0.53125 C 17.347656 1.132812 15.847656 1.367188 14.265625 1.234375 L 1.875 0.15625 L 4.265625 -27.546875 Z M 13.5625 -4.234375 C 14.675781 -4.128906 15.648438 -4.269531 16.484375 -4.65625 C 17.316406 -5.039062 18.023438 -5.601562 18.609375 -6.34375 C 19.203125 -7.082031 19.664062 -7.945312 20 -8.9375 C 20.332031 -9.9375 20.546875 -11 20.640625 -12.125 C 20.734375 -13.238281 20.707031 -14.316406 20.5625 -15.359375 C 20.425781 -16.410156 20.128906 -17.347656 19.671875 -18.171875 C 19.210938 -19.003906 18.597656 -19.6875 17.828125 -20.21875 C 17.066406 -20.757812 16.128906 -21.082031 15.015625 -21.1875 L 9.734375 -21.640625 L 8.28125 -4.6875 Z M 13.5625 -4.234375 "/></g></g></g><g fill="#000000" fill-opacity="1"><g transform="translate(212.062145, 37.537245)"><g><path d="M 30.890625 -20.234375 L 37.125 -18.484375 L 18.359375 5.140625 L 12.046875 3.375 L 8.28125 -26.5625 L 14.515625 -24.8125 L 17.125 -2.484375 Z M 30.890625 -20.234375 "/></g></g></g><g fill="#000000" fill-opacity="1"><g transform="translate(240.815963, 45.893141)"><g><path d="M 13.578125 -24.34375 L 29.28125 -16.921875 L 26.96875 -12.03125 L 16.65625 -16.90625 L 14.515625 -12.359375 L 23.59375 -8.0625 L 21.28125 -3.1875 L 12.203125 -7.484375 L 9.390625 -1.515625 L 19.703125 3.359375 L 17.40625 8.21875 L 1.703125 0.796875 Z M 13.578125 -24.34375 "/></g></g></g><g fill="#000000" fill-opacity="1"><g transform="translate(258.73394, 53.886503)"><g><path d="M 32.921875 -11.171875 L 37.796875 -7.828125 L 22.09375 15.125 L 17.4375 11.9375 L 16.65625 -10.59375 L 6.40625 4.390625 L 1.515625 1.046875 L 17.21875 -21.90625 L 21.8125 -18.765625 L 22.609375 3.921875 Z M 32.921875 -11.171875 "/></g></g></g><g fill="#000000" fill-opacity="1"><g transform="translate(280.964154, 69.281039)"><g><path d="M 19.859375 -19.5 L 34.40625 -5.625 L 30.65625 -1.703125 L 25.53125 -6.59375 L 10.078125 9.609375 L 5.78125 5.515625 L 21.234375 -10.6875 L 16.109375 -15.578125 Z M 19.859375 -19.5 "/></g></g></g><g fill="#000000" fill-opacity="1"><g transform="translate(295.930141, 83.242049)"><g><path d="M 32.75 -3.140625 L 36.375 1.546875 L 22.3125 12.421875 C 21.21875 13.273438 19.988281 13.863281 18.625 14.1875 C 17.269531 14.519531 15.90625 14.585938 14.53125 14.390625 C 13.15625 14.203125 11.832031 13.757812 10.5625 13.0625 C 9.300781 12.375 8.207031 11.429688 7.28125 10.234375 C 6.363281 9.054688 5.722656 7.757812 5.359375 6.34375 C 5.003906 4.9375 4.910156 3.550781 5.078125 2.1875 C 5.242188 0.820312 5.65625 -0.476562 6.3125 -1.71875 C 6.96875 -2.957031 7.84375 -4.003906 8.9375 -4.859375 L 23 -15.734375 L 26.625 -11.046875 L 13.5 -0.875 C 12.875 -0.40625 12.367188 0.144531 11.984375 0.78125 C 11.597656 1.414062 11.328125 2.070312 11.171875 2.75 C 11.023438 3.425781 11.015625 4.101562 11.140625 4.78125 C 11.273438 5.46875 11.550781 6.078125 11.96875 6.609375 C 12.394531 7.171875 12.914062 7.59375 13.53125 7.875 C 14.15625 8.15625 14.816406 8.3125 15.515625 8.34375 C 16.210938 8.375 16.914062 8.28125 17.625 8.0625 C 18.332031 7.84375 19 7.5 19.625 7.03125 Z M 32.75 -3.140625 "/></g></g></g><g fill="#000000" fill-opacity="1"><g transform="translate(310.482431, 101.685161)"><g><path d="M 27.53125 10.015625 C 26.757812 10.429688 25.960938 10.71875 25.140625 10.875 C 24.316406 11.039062 23.503906 11.082031 22.703125 11 C 21.910156 10.925781 21.140625 10.734375 20.390625 10.421875 C 19.648438 10.109375 18.96875 9.703125 18.34375 9.203125 L 12.296875 22.90625 L 9.015625 16.796875 L 14.84375 3.921875 L 13.578125 1.578125 L 3.6875 6.875 L 0.875 1.625 L 25.390625 -11.515625 L 31.0625 -0.9375 C 31.570312 0.0195312 31.867188 1.035156 31.953125 2.109375 C 32.035156 3.179688 31.914062 4.207031 31.59375 5.1875 C 31.28125 6.164062 30.773438 7.078125 30.078125 7.921875 C 29.390625 8.773438 28.539062 9.472656 27.53125 10.015625 Z M 20.84375 3.671875 C 21.207031 4.347656 21.765625 4.796875 22.515625 5.015625 C 23.273438 5.234375 24.007812 5.148438 24.71875 4.765625 C 25.414062 4.398438 25.878906 3.84375 26.109375 3.09375 C 26.347656 2.34375 26.285156 1.628906 25.921875 0.953125 L 23.421875 -3.703125 L 18.34375 -0.984375 Z M 20.84375 3.671875 "/></g></g></g><g fill="#000000" fill-opacity="1"><g transform="translate(322.405122, 124.150291)"><g><path d="M 26.859375 -7.484375 L 32.625 8.90625 L 27.515625 10.71875 L 23.734375 -0.046875 L 19 1.609375 L 22.34375 11.09375 L 17.234375 12.890625 L 13.890625 3.40625 L 7.671875 5.609375 L 11.453125 16.375 L 6.390625 18.15625 L 0.625 1.765625 Z M 26.859375 -7.484375 "/></g></g></g><g fill="#000000" fill-opacity="1"><g transform="translate(329.161703, 142.688432)"><g><path d="M 17.8125 16.40625 C 17.375 17.613281 16.710938 18.59375 15.828125 19.34375 C 14.953125 20.101562 13.859375 20.613281 12.546875 20.875 C 11.304688 21.113281 10.09375 21.039062 8.90625 20.65625 C 7.726562 20.28125 6.625 19.640625 5.59375 18.734375 C 4.664062 17.898438 3.878906 16.898438 3.234375 15.734375 C 2.597656 14.566406 2.128906 13.296875 1.828125 11.921875 C 1.546875 10.523438 1.472656 9.160156 1.609375 7.828125 C 1.753906 6.503906 2.117188 5.273438 2.703125 4.140625 C 3.515625 2.460938 4.648438 1.203125 6.109375 0.359375 L 9.671875 5.265625 C 9.410156 5.304688 9.101562 5.453125 8.75 5.703125 C 8.40625 5.960938 8.085938 6.316406 7.796875 6.765625 C 7.515625 7.222656 7.304688 7.785156 7.171875 8.453125 C 7.035156 9.117188 7.054688 9.90625 7.234375 10.8125 C 7.378906 11.519531 7.59375 12.128906 7.875 12.640625 C 8.15625 13.160156 8.46875 13.582031 8.8125 13.90625 C 9.15625 14.226562 9.519531 14.453125 9.90625 14.578125 C 10.300781 14.703125 10.675781 14.726562 11.03125 14.65625 C 11.445312 14.582031 11.804688 14.375 12.109375 14.03125 C 12.410156 13.6875 12.613281 13.210938 12.71875 12.609375 C 12.863281 11.503906 12.941406 10.359375 12.953125 9.171875 C 12.972656 7.984375 13.066406 6.8125 13.234375 5.65625 C 13.398438 4.507812 13.703125 3.414062 14.140625 2.375 C 14.578125 1.332031 15.296875 0.4375 16.296875 -0.3125 C 17.171875 -0.988281 18.160156 -1.4375 19.265625 -1.65625 C 20.492188 -1.894531 21.738281 -1.84375 23 -1.5 C 24.257812 -1.15625 25.390625 -0.554688 26.390625 0.296875 C 27.328125 1.097656 28.109375 2.046875 28.734375 3.140625 C 29.367188 4.242188 29.8125 5.453125 30.0625 6.765625 C 30.320312 8.078125 30.375 9.363281 30.21875 10.625 C 30.070312 11.894531 29.722656 13.082031 29.171875 14.1875 C 28.648438 15.238281 27.984375 16.125 27.171875 16.84375 L 23.3125 13.046875 C 23.9375 12.359375 24.394531 11.566406 24.6875 10.671875 C 24.988281 9.773438 25.039062 8.828125 24.84375 7.828125 C 24.570312 6.453125 24.050781 5.441406 23.28125 4.796875 C 22.519531 4.160156 21.640625 3.941406 20.640625 4.140625 C 20.171875 4.234375 19.796875 4.523438 19.515625 5.015625 C 19.242188 5.503906 19.035156 6.113281 18.890625 6.84375 C 18.742188 7.582031 18.644531 8.394531 18.59375 9.28125 C 18.550781 10.175781 18.5 11.0625 18.4375 11.9375 C 18.375 12.8125 18.300781 13.644531 18.21875 14.4375 C 18.132812 15.226562 18 15.882812 17.8125 16.40625 Z M 17.8125 16.40625 "/></g></g></g><g fill="#000000" fill-opacity="1"><g transform="translate(81.870248, 323.96019)"><g><path d="M 24.203125 -0.140625 C 24.703125 1.035156 24.890625 2.203125 24.765625 3.359375 C 24.640625 4.523438 24.1875 5.648438 23.40625 6.734375 C 22.664062 7.753906 21.734375 8.523438 20.609375 9.046875 C 19.484375 9.566406 18.226562 9.847656 16.84375 9.890625 C 15.601562 9.921875 14.347656 9.726562 13.078125 9.3125 C 11.816406 8.894531 10.609375 8.285156 9.453125 7.484375 C 8.304688 6.660156 7.328125 5.707031 6.515625 4.625 C 5.710938 3.550781 5.140625 2.40625 4.796875 1.1875 C 4.253906 -0.582031 4.222656 -2.28125 4.703125 -3.90625 L 10.65625 -2.75 C 10.5 -2.539062 10.378906 -2.222656 10.296875 -1.796875 C 10.210938 -1.367188 10.222656 -0.882812 10.328125 -0.34375 C 10.429688 0.1875 10.660156 0.738281 11.015625 1.3125 C 11.367188 1.882812 11.914062 2.441406 12.65625 2.984375 C 13.25 3.410156 13.828125 3.710938 14.390625 3.890625 C 14.953125 4.078125 15.46875 4.171875 15.9375 4.171875 C 16.40625 4.171875 16.820312 4.082031 17.1875 3.90625 C 17.5625 3.738281 17.851562 3.503906 18.0625 3.203125 C 18.3125 2.867188 18.429688 2.472656 18.421875 2.015625 C 18.410156 1.554688 18.234375 1.070312 17.890625 0.5625 C 17.265625 -0.34375 16.550781 -1.234375 15.75 -2.109375 C 14.945312 -2.992188 14.210938 -3.910156 13.546875 -4.859375 C 12.878906 -5.816406 12.347656 -6.828125 11.953125 -7.890625 C 11.566406 -8.953125 11.488281 -10.101562 11.71875 -11.34375 C 11.882812 -12.4375 12.300781 -13.4375 12.96875 -14.34375 C 13.695312 -15.351562 14.644531 -16.160156 15.8125 -16.765625 C 16.976562 -17.378906 18.210938 -17.710938 19.515625 -17.765625 C 20.742188 -17.816406 21.960938 -17.65625 23.171875 -17.28125 C 24.390625 -16.90625 25.539062 -16.328125 26.625 -15.546875 C 27.695312 -14.765625 28.609375 -13.851562 29.359375 -12.8125 C 30.109375 -11.78125 30.65625 -10.679688 31 -9.515625 C 31.34375 -8.390625 31.460938 -7.28125 31.359375 -6.1875 L 25.9375 -6.34375 C 25.945312 -7.269531 25.75 -8.160156 25.34375 -9.015625 C 24.945312 -9.867188 24.332031 -10.597656 23.5 -11.203125 C 22.363281 -12.023438 21.300781 -12.410156 20.3125 -12.359375 C 19.320312 -12.304688 18.523438 -11.863281 17.921875 -11.03125 C 17.648438 -10.65625 17.578125 -10.191406 17.703125 -9.640625 C 17.828125 -9.085938 18.085938 -8.492188 18.484375 -7.859375 C 18.878906 -7.222656 19.363281 -6.5625 19.9375 -5.875 C 20.507812 -5.1875 21.070312 -4.503906 21.625 -3.828125 C 22.1875 -3.148438 22.707031 -2.488281 23.1875 -1.84375 C 23.664062 -1.207031 24.003906 -0.640625 24.203125 -0.140625 Z M 24.203125 -0.140625 "/></g></g></g><g fill="#000000" fill-opacity="1"><g transform="translate(102.679433, 338.544359)"><g><path d="M 23.890625 -18.59375 L 21.46875 -14.1875 L 19.65625 -15.1875 L 11.078125 0.40625 L 12.890625 1.40625 L 10.484375 5.765625 L 1.609375 0.890625 L 4.015625 -3.46875 L 5.84375 -2.46875 L 14.421875 -18.0625 L 12.59375 -19.0625 L 15.015625 -23.46875 Z M 23.890625 -18.59375 "/></g></g></g><g fill="#000000" fill-opacity="1"><g transform="translate(115.81914, 346.246165)"><g><path d="M 29.40625 -18.546875 L 34.9375 -16.421875 L 25.015625 9.5625 L 19.75 7.546875 L 13.734375 -14.203125 L 7.25 2.765625 L 1.71875 0.65625 L 11.640625 -25.328125 L 16.84375 -23.34375 L 22.890625 -1.46875 Z M 29.40625 -18.546875 "/></g></g></g><g fill="#000000" fill-opacity="1"><g transform="translate(144.423728, 356.919741)"><g><path d="M 15.671875 -2.609375 C 16.910156 -2.378906 18.171875 -2.4375 19.453125 -2.78125 C 20.742188 -3.132812 22.113281 -3.863281 23.5625 -4.96875 L 26.6875 -0.703125 C 24.820312 0.972656 22.820312 2.132812 20.6875 2.78125 C 18.5625 3.425781 16.46875 3.554688 14.40625 3.171875 C 12.550781 2.828125 10.882812 2.128906 9.40625 1.078125 C 7.9375 0.0234375 6.71875 -1.25 5.75 -2.75 C 4.78125 -4.257812 4.113281 -5.929688 3.75 -7.765625 C 3.394531 -9.597656 3.394531 -11.484375 3.75 -13.421875 C 4.101562 -15.347656 4.785156 -17.09375 5.796875 -18.65625 C 6.816406 -20.226562 8.050781 -21.546875 9.5 -22.609375 C 10.945312 -23.671875 12.5625 -24.421875 14.34375 -24.859375 C 16.132812 -25.304688 17.953125 -25.363281 19.796875 -25.03125 C 21.515625 -24.707031 23.09375 -24.078125 24.53125 -23.140625 C 25.976562 -22.210938 27.3125 -20.867188 28.53125 -19.109375 L 24.375 -15.609375 C 23.46875 -16.804688 22.566406 -17.664062 21.671875 -18.1875 C 20.773438 -18.71875 19.800781 -19.082031 18.75 -19.28125 C 17.695312 -19.46875 16.660156 -19.425781 15.640625 -19.15625 C 14.617188 -18.894531 13.691406 -18.457031 12.859375 -17.84375 C 12.035156 -17.226562 11.328125 -16.445312 10.734375 -15.5 C 10.148438 -14.550781 9.75 -13.503906 9.53125 -12.359375 C 9.320312 -11.203125 9.320312 -10.082031 9.53125 -9 C 9.75 -7.925781 10.132812 -6.945312 10.6875 -6.0625 C 11.238281 -5.175781 11.941406 -4.425781 12.796875 -3.8125 C 13.660156 -3.195312 14.617188 -2.796875 15.671875 -2.609375 Z M 15.671875 -2.609375 "/></g></g></g><g fill="#000000" fill-opacity="1"><g transform="translate(172.885667, 361.794779)"><g><path d="M 2.5625 -27.75 L 19.9375 -27.328125 L 19.796875 -21.921875 L 8.390625 -22.203125 L 8.265625 -17.1875 L 18.3125 -16.9375 L 18.1875 -11.53125 L 8.140625 -11.78125 L 7.96875 -5.1875 L 19.375 -4.90625 L 19.25 0.46875 L 1.875 0.046875 Z M 2.5625 -27.75 "/></g></g></g><g fill="#000000" fill-opacity="1"><g transform="translate(195.074679, 362.012754)"><g/></g></g><g fill="#000000" fill-opacity="1"><g transform="translate(206.95009, 361.306525)"><g><path d="M 5.796875 -29.796875 C 6.992188 -30.023438 8.171875 -30.003906 9.328125 -29.734375 C 10.484375 -29.472656 11.523438 -29.03125 12.453125 -28.40625 C 13.378906 -27.789062 14.171875 -27.003906 14.828125 -26.046875 C 15.492188 -25.085938 15.9375 -24.03125 16.15625 -22.875 C 16.34375 -21.9375 16.328125 -20.898438 16.109375 -19.765625 C 15.890625 -18.628906 15.4375 -17.488281 14.75 -16.34375 L 9.359375 -7.234375 L 18.625 -8.984375 L 19.625 -3.703125 L 1.890625 -0.359375 L 1.171875 -4.140625 C 2.628906 -6.722656 3.957031 -9.0625 5.15625 -11.15625 C 5.65625 -12.050781 6.148438 -12.929688 6.640625 -13.796875 C 7.128906 -14.671875 7.570312 -15.472656 7.96875 -16.203125 C 8.375 -16.929688 8.71875 -17.539062 9 -18.03125 C 9.289062 -18.53125 9.457031 -18.851562 9.5 -19 C 9.757812 -19.539062 9.953125 -20.039062 10.078125 -20.5 C 10.210938 -20.957031 10.242188 -21.398438 10.171875 -21.828125 C 9.972656 -22.859375 9.507812 -23.59375 8.78125 -24.03125 C 8.0625 -24.46875 7.253906 -24.601562 6.359375 -24.4375 C 5.929688 -24.351562 5.53125 -24.179688 5.15625 -23.921875 C 4.789062 -23.671875 4.488281 -23.359375 4.25 -22.984375 C 4.019531 -22.617188 3.859375 -22.222656 3.765625 -21.796875 C 3.671875 -21.378906 3.660156 -20.957031 3.734375 -20.53125 L -1.359375 -19.5625 C -1.578125 -20.71875 -1.550781 -21.863281 -1.28125 -23 C -1.007812 -24.132812 -0.554688 -25.160156 0.078125 -26.078125 C 0.722656 -26.992188 1.535156 -27.785156 2.515625 -28.453125 C 3.492188 -29.117188 4.585938 -29.566406 5.796875 -29.796875 Z M 5.796875 -29.796875 "/></g></g></g><g fill="#000000" fill-opacity="1"><g transform="translate(230.114276, 356.9066)"><g><path d="M 2.328125 -30.671875 C 3.804688 -31.203125 5.273438 -31.40625 6.734375 -31.28125 C 8.203125 -31.15625 9.570312 -30.703125 10.84375 -29.921875 C 12.070312 -29.171875 13.195312 -28.15625 14.21875 -26.875 C 15.238281 -25.59375 16.066406 -24.054688 16.703125 -22.265625 L 17.828125 -19.046875 C 18.429688 -17.335938 18.71875 -15.679688 18.6875 -14.078125 C 18.664062 -12.484375 18.390625 -11 17.859375 -9.625 C 17.328125 -8.207031 16.546875 -7.003906 15.515625 -6.015625 C 14.484375 -5.023438 13.25 -4.273438 11.8125 -3.765625 C 10.40625 -3.273438 8.972656 -3.109375 7.515625 -3.265625 C 6.054688 -3.421875 4.664062 -3.890625 3.34375 -4.671875 C 2.082031 -5.421875 0.941406 -6.40625 -0.078125 -7.625 C -1.109375 -8.84375 -1.910156 -10.265625 -2.484375 -11.890625 L -3.609375 -15.109375 C -4.242188 -16.890625 -4.570312 -18.597656 -4.59375 -20.234375 C -4.625 -21.867188 -4.390625 -23.363281 -3.890625 -24.71875 C -3.378906 -26.132812 -2.585938 -27.347656 -1.515625 -28.359375 C -0.453125 -29.378906 0.828125 -30.148438 2.328125 -30.671875 Z M 11.109375 -20.078125 C 10.273438 -22.441406 9.15625 -24.097656 7.75 -25.046875 C 6.625 -25.847656 5.390625 -26.015625 4.046875 -25.546875 C 2.722656 -25.078125 1.863281 -24.175781 1.46875 -22.84375 C 0.988281 -21.226562 1.164062 -19.238281 2 -16.875 L 2.96875 -14.09375 C 3.332031 -13.0625 3.789062 -12.148438 4.34375 -11.359375 C 4.90625 -10.578125 5.546875 -9.953125 6.265625 -9.484375 C 7.503906 -8.617188 8.726562 -8.398438 9.9375 -8.828125 C 10.625 -9.066406 11.1875 -9.453125 11.625 -9.984375 C 12.070312 -10.515625 12.382812 -11.148438 12.5625 -11.890625 C 12.75 -12.628906 12.804688 -13.457031 12.734375 -14.375 C 12.660156 -15.289062 12.441406 -16.265625 12.078125 -17.296875 Z M 11.109375 -20.078125 "/></g></g></g><g fill="#000000" fill-opacity="1"><g transform="translate(254.636755, 348.044052)"><g><path d="M -3.390625 -30.15625 C -2.304688 -30.738281 -1.175781 -31.078125 0 -31.171875 C 1.1875 -31.265625 2.3125 -31.15625 3.375 -30.84375 C 4.445312 -30.53125 5.441406 -30.015625 6.359375 -29.296875 C 7.273438 -28.585938 8.015625 -27.710938 8.578125 -26.671875 C 9.023438 -25.828125 9.316406 -24.828125 9.453125 -23.671875 C 9.585938 -22.523438 9.5 -21.300781 9.1875 -20 L 6.765625 -9.703125 L 15.078125 -14.140625 L 17.609375 -9.40625 L 1.703125 -0.90625 L -0.109375 -4.296875 C 0.492188 -7.191406 1.0625 -9.820312 1.59375 -12.1875 C 1.800781 -13.1875 2.003906 -14.175781 2.203125 -15.15625 C 2.410156 -16.132812 2.597656 -17.03125 2.765625 -17.84375 C 2.929688 -18.664062 3.078125 -19.351562 3.203125 -19.90625 C 3.328125 -20.457031 3.382812 -20.8125 3.375 -20.96875 C 3.46875 -21.570312 3.507812 -22.109375 3.5 -22.578125 C 3.488281 -23.046875 3.378906 -23.472656 3.171875 -23.859375 C 2.679688 -24.796875 2.023438 -25.363281 1.203125 -25.5625 C 0.378906 -25.757812 -0.429688 -25.644531 -1.234375 -25.21875 C -1.617188 -25.007812 -1.945312 -24.726562 -2.21875 -24.375 C -2.5 -24.019531 -2.695312 -23.628906 -2.8125 -23.203125 C -2.925781 -22.785156 -2.960938 -22.359375 -2.921875 -21.921875 C -2.890625 -21.492188 -2.769531 -21.09375 -2.5625 -20.71875 L -7.125 -18.28125 C -7.6875 -19.320312 -8.007812 -20.421875 -8.09375 -21.578125 C -8.1875 -22.734375 -8.0625 -23.84375 -7.71875 -24.90625 C -7.375 -25.976562 -6.835938 -26.976562 -6.109375 -27.90625 C -5.378906 -28.832031 -4.472656 -29.582031 -3.390625 -30.15625 Z M -3.390625 -30.15625 "/></g></g></g><g fill="#000000" fill-opacity="1"><g transform="translate(275.302057, 336.891058)"><g><path d="M -7.671875 -29.359375 C -6.671875 -30.085938 -5.59375 -30.582031 -4.4375 -30.84375 C -3.289062 -31.101562 -2.164062 -31.15625 -1.0625 -31 C 0.03125 -30.84375 1.082031 -30.476562 2.09375 -29.90625 C 3.113281 -29.332031 3.972656 -28.570312 4.671875 -27.625 C 5.242188 -26.851562 5.675781 -25.910156 5.96875 -24.796875 C 6.257812 -23.679688 6.347656 -22.457031 6.234375 -21.125 L 5.3125 -10.578125 L 12.90625 -16.15625 L 16.09375 -11.828125 L 1.546875 -1.140625 L -0.734375 -4.234375 C -0.535156 -7.191406 -0.347656 -9.878906 -0.171875 -12.296875 C -0.109375 -13.304688 -0.046875 -14.3125 0.015625 -15.3125 C 0.078125 -16.3125 0.128906 -17.222656 0.171875 -18.046875 C 0.222656 -18.878906 0.269531 -19.578125 0.3125 -20.140625 C 0.351562 -20.710938 0.363281 -21.082031 0.34375 -21.25 C 0.34375 -21.851562 0.300781 -22.390625 0.21875 -22.859375 C 0.144531 -23.328125 -0.0195312 -23.738281 -0.28125 -24.09375 C -0.90625 -24.9375 -1.632812 -25.394531 -2.46875 -25.46875 C -3.300781 -25.550781 -4.085938 -25.320312 -4.828125 -24.78125 C -5.179688 -24.519531 -5.46875 -24.195312 -5.6875 -23.8125 C -5.914062 -23.425781 -6.054688 -23.015625 -6.109375 -22.578125 C -6.171875 -22.140625 -6.148438 -21.707031 -6.046875 -21.28125 C -5.941406 -20.863281 -5.765625 -20.484375 -5.515625 -20.140625 L -9.6875 -17.078125 C -10.382812 -18.023438 -10.859375 -19.0625 -11.109375 -20.1875 C -11.359375 -21.320312 -11.390625 -22.441406 -11.203125 -23.546875 C -11.015625 -24.648438 -10.625 -25.710938 -10.03125 -26.734375 C -9.445312 -27.753906 -8.660156 -28.628906 -7.671875 -29.359375 Z M -7.671875 -29.359375 "/></g></g></g></svg>