<svg xmlns="http://www.w3.org/2000/svg" xmlns:xlink="http://www.w3.org/1999/xlink" width="500" zoomAndPan="magnify" viewBox="0 0 375 374.999991" height="500" preserveAspectRatio="xMidYMid meet" version="1.0"><defs><g/><clipPath id="392c12a22d"><path d="M 98 90 L 287.628906 90 L 287.628906 198.34375 L 98 198.34375 Z M 98 90 " clip-rule="nonzero"/></clipPath></defs><path fill="#78857b" d="M 165.480469 107.21875 C 173.386719 113.976562 183.074219 117.351562 192.765625 117.351562 C 202.453125 117.351562 212.140625 113.972656 220.042969 107.21875 C 231.917969 97.0625 238.28125 84.9375 238.945312 71.175781 C 240.320312 42.695312 216.597656 17.730469 215.589844 16.683594 C 213.617188 14.636719 210.355469 14.574219 208.308594 16.550781 C 206.261719 18.527344 206.203125 21.789062 208.175781 23.84375 C 208.390625 24.070312 229.820312 46.601562 228.660156 70.679688 C 228.136719 81.488281 222.992188 91.148438 213.355469 99.378906 C 201.429688 109.578125 184.105469 109.578125 172.179688 99.378906 C 162.558594 91.152344 157.414062 81.507812 156.878906 70.71875 C 155.699219 46.804688 176.996094 24.21875 177.359375 23.839844 C 179.332031 21.789062 179.273438 18.527344 177.226562 16.550781 C 175.179688 14.574219 171.914062 14.636719 169.945312 16.683594 C 168.929688 17.734375 145.214844 42.695312 146.589844 71.175781 C 147.253906 84.9375 153.617188 97.0625 165.492188 107.21875 Z M 165.480469 107.21875 " fill-opacity="1" fill-rule="nonzero"/><g clip-path="url(#392c12a22d)"><path fill="#78857b" d="M 287.402344 95.117188 C 287.367188 92.296875 285.066406 90.027344 282.25 90.027344 C 250.535156 90.027344 225.480469 107.964844 209.8125 141.90625 C 206.113281 149.910156 203.363281 157.878906 201.320312 165.042969 C 198.535156 165.207031 195.679688 165.28125 192.761719 165.28125 C 189.839844 165.28125 186.984375 165.199219 184.199219 165.035156 C 182.15625 157.871094 179.40625 149.910156 175.707031 141.898438 C 160.03125 107.960938 134.984375 90.019531 103.269531 90.019531 C 100.453125 90.03125 98.152344 92.296875 98.117188 95.117188 C 98.101562 96.402344 97.980469 126.882812 120.96875 150.191406 C 134.484375 163.890625 152.964844 172.097656 176.058594 174.695312 C 178.664062 185.53125 179.421875 193.203125 179.441406 193.425781 C 179.6875 196.097656 181.933594 198.109375 184.5625 198.109375 C 184.722656 198.109375 184.878906 198.105469 185.042969 198.089844 C 187.878906 197.828125 189.960938 195.320312 189.699219 192.480469 C 189.648438 191.953125 189.007812 185.25 186.84375 175.488281 C 190.734375 175.632812 194.796875 175.632812 198.683594 175.488281 C 196.519531 185.25 195.875 191.949219 195.828125 192.480469 C 195.570312 195.3125 197.652344 197.824219 200.484375 198.085938 C 203.320312 198.34375 205.828125 196.261719 206.089844 193.429688 C 206.097656 193.296875 206.851562 185.59375 209.472656 174.695312 C 232.5625 172.097656 251.046875 163.890625 264.558594 150.191406 C 287.550781 126.882812 287.425781 96.402344 287.410156 95.117188 Z M 128.394531 143.042969 C 113.71875 128.226562 109.824219 109.53125 108.792969 100.550781 C 133.820312 102.480469 153.136719 117.746094 166.25 146 C 169.070312 152.082031 171.316406 158.195312 173.097656 163.910156 C 154.382812 161.132812 139.402344 154.144531 128.398438 143.042969 Z M 257.21875 142.945312 C 246.207031 154.101562 231.191406 161.125 212.425781 163.910156 C 214.199219 158.191406 216.445312 152.082031 219.269531 146 C 232.390625 117.738281 251.707031 102.472656 276.742188 100.546875 C 275.734375 109.492188 271.890625 128.070312 257.21875 142.945312 Z M 257.21875 142.945312 " fill-opacity="1" fill-rule="nonzero"/></g><path fill="#78857b" d="M 192.761719 92.59375 C 203.929688 92.59375 213.011719 81.835938 213.011719 68.625 C 213.011719 55.410156 203.925781 44.65625 192.761719 44.65625 C 181.59375 44.65625 172.507812 55.410156 172.507812 68.625 C 172.507812 81.835938 181.59375 92.59375 192.761719 92.59375 Z M 192.761719 54.964844 C 198.152344 54.964844 202.710938 61.21875 202.710938 68.625 C 202.710938 76.03125 198.152344 82.28125 192.761719 82.28125 C 187.367188 82.28125 182.808594 76.03125 182.808594 68.625 C 182.808594 61.21875 187.367188 54.964844 192.761719 54.964844 Z M 192.761719 54.964844 " fill-opacity="1" fill-rule="nonzero"/><g fill="#78857b" fill-opacity="1"><g transform="translate(4.145031, 314.730812)"><g><path d="M 20.90625 -94.515625 L 52.265625 -45.15625 L 83.1875 -94.515625 L 97.71875 -94.515625 L 58.21875 -32.375 L 58.21875 0 L 46.171875 0 L 46.171875 -32.375 L 6.53125 -94.515625 Z M 20.90625 -94.515625 "/></g></g></g><g fill="#78857b" fill-opacity="1"><g transform="translate(95.760368, 314.730812)"><g><path d="M 95.96875 -23.234375 C 91.613281 -15.773438 85.804688 -9.914062 78.546875 -5.65625 C 71.191406 -1.300781 63.207031 0.875 54.59375 0.875 C 45.882812 0.875 37.898438 -1.300781 30.640625 -5.65625 C 23.273438 -9.914062 17.46875 -15.773438 13.21875 -23.234375 C 8.957031 -30.585938 6.828125 -38.617188 6.828125 -47.328125 C 6.828125 -55.941406 8.957031 -63.976562 13.21875 -71.4375 C 17.570312 -78.789062 23.425781 -84.644531 30.78125 -89 C 38.039062 -93.257812 45.976562 -95.390625 54.59375 -95.390625 C 63.101562 -95.390625 71.085938 -93.257812 78.546875 -89 C 85.898438 -84.644531 91.707031 -78.789062 95.96875 -71.4375 C 100.226562 -63.976562 102.359375 -55.941406 102.359375 -47.328125 C 102.359375 -38.710938 100.226562 -30.679688 95.96875 -23.234375 Z M 85.515625 -65.328125 C 82.316406 -70.847656 77.960938 -75.253906 72.453125 -78.546875 C 66.929688 -81.742188 60.976562 -83.34375 54.59375 -83.34375 C 48.101562 -83.34375 42.148438 -81.742188 36.734375 -78.546875 C 31.210938 -75.253906 26.859375 -70.847656 23.671875 -65.328125 C 20.472656 -59.816406 18.875 -53.816406 18.875 -47.328125 C 18.875 -40.742188 20.472656 -34.695312 23.671875 -29.1875 C 26.859375 -23.664062 31.210938 -19.304688 36.734375 -16.109375 C 42.253906 -12.816406 48.207031 -11.171875 54.59375 -11.171875 C 61.175781 -11.171875 67.175781 -12.816406 72.59375 -16.109375 C 78.113281 -19.304688 82.46875 -23.664062 85.65625 -29.1875 C 88.757812 -34.695312 90.3125 -40.742188 90.3125 -47.328125 C 90.3125 -53.816406 88.710938 -59.816406 85.515625 -65.328125 Z M 85.515625 -65.328125 "/></g></g></g><g fill="#78857b" fill-opacity="1"><g transform="translate(192.312222, 314.730812)"><g><path d="M 89.296875 0 L 54.296875 0 C 45.785156 0 37.898438 -2.175781 30.640625 -6.53125 C 23.273438 -10.882812 17.515625 -16.691406 13.359375 -23.953125 C 9.097656 -31.210938 6.96875 -39.148438 6.96875 -47.765625 C 6.96875 -56.378906 9.097656 -64.414062 13.359375 -71.875 C 17.710938 -79.226562 23.519531 -85.035156 30.78125 -89.296875 C 37.945312 -93.453125 45.785156 -95.53125 54.296875 -95.53125 C 60.878906 -95.53125 67.269531 -94.175781 73.46875 -91.46875 C 79.5625 -88.757812 84.835938 -84.9375 89.296875 -80 L 80.28125 -71.875 C 77.09375 -75.550781 73.222656 -78.40625 68.671875 -80.4375 C 64.117188 -82.375 59.328125 -83.34375 54.296875 -83.34375 C 47.816406 -83.34375 41.914062 -81.742188 36.59375 -78.546875 C 31.164062 -75.347656 26.90625 -71.039062 23.8125 -65.625 C 20.613281 -60.101562 19.015625 -54.148438 19.015625 -47.765625 C 19.015625 -41.285156 20.613281 -35.332031 23.8125 -29.90625 C 26.90625 -24.394531 31.164062 -20.039062 36.59375 -16.84375 C 42.007812 -13.644531 47.910156 -12.046875 54.296875 -12.046875 L 77.09375 -12.046875 L 77.09375 -37.890625 L 51.109375 -37.890625 L 51.109375 -49.9375 L 89.296875 -49.9375 Z M 89.296875 0 "/></g></g></g><g fill="#78857b" fill-opacity="1"><g transform="translate(281.459291, 314.730812)"><g><path d="M 71.875 -18.296875 L 28.609375 -18.296875 L 20.1875 0 L 6.828125 0 L 51.109375 -95.53125 L 93.0625 0 L 79.859375 0 Z M 66.640625 -30.34375 L 50.671875 -66.203125 L 34.125 -30.34375 Z M 66.640625 -30.34375 "/></g></g></g><g fill="#78857b" fill-opacity="0.4"><g transform="translate(93.42348, 356.383489)"><g><path d="M 4.671875 0.171875 C 3.847656 0.171875 3.050781 0.0625 2.28125 -0.15625 C 1.507812 -0.382812 0.890625 -0.675781 0.421875 -1.03125 L 1.234375 -2.859375 C 1.679688 -2.523438 2.210938 -2.257812 2.828125 -2.0625 C 3.453125 -1.863281 4.070312 -1.765625 4.6875 -1.765625 C 5.375 -1.765625 5.878906 -1.863281 6.203125 -2.0625 C 6.535156 -2.269531 6.703125 -2.546875 6.703125 -2.890625 C 6.703125 -3.128906 6.601562 -3.332031 6.40625 -3.5 C 6.21875 -3.664062 5.972656 -3.796875 5.671875 -3.890625 C 5.367188 -3.992188 4.957031 -4.109375 4.4375 -4.234375 C 3.632812 -4.421875 2.976562 -4.609375 2.46875 -4.796875 C 1.96875 -4.984375 1.535156 -5.285156 1.171875 -5.703125 C 0.804688 -6.117188 0.625 -6.675781 0.625 -7.375 C 0.625 -7.988281 0.785156 -8.539062 1.109375 -9.03125 C 1.441406 -9.519531 1.9375 -9.910156 2.59375 -10.203125 C 3.257812 -10.492188 4.070312 -10.640625 5.03125 -10.640625 C 5.695312 -10.640625 6.347656 -10.554688 6.984375 -10.390625 C 7.628906 -10.234375 8.1875 -10.003906 8.65625 -9.703125 L 7.921875 -7.875 C 6.953125 -8.414062 5.984375 -8.6875 5.015625 -8.6875 C 4.335938 -8.6875 3.835938 -8.578125 3.515625 -8.359375 C 3.191406 -8.140625 3.03125 -7.851562 3.03125 -7.5 C 3.03125 -7.132812 3.21875 -6.863281 3.59375 -6.6875 C 3.96875 -6.519531 4.535156 -6.351562 5.296875 -6.1875 C 6.097656 -6 6.75 -5.804688 7.25 -5.609375 C 7.757812 -5.421875 8.195312 -5.125 8.5625 -4.71875 C 8.925781 -4.3125 9.109375 -3.757812 9.109375 -3.0625 C 9.109375 -2.46875 8.941406 -1.921875 8.609375 -1.421875 C 8.273438 -0.929688 7.773438 -0.539062 7.109375 -0.25 C 6.441406 0.03125 5.628906 0.171875 4.671875 0.171875 Z M 4.671875 0.171875 "/></g></g></g><g fill="#78857b" fill-opacity="0.4"><g transform="translate(108.730895, 356.383489)"><g><path d="M 5.765625 -10.453125 C 6.691406 -10.453125 7.492188 -10.296875 8.171875 -9.984375 C 8.859375 -9.679688 9.382812 -9.242188 9.75 -8.671875 C 10.125 -8.109375 10.3125 -7.4375 10.3125 -6.65625 C 10.3125 -5.894531 10.125 -5.226562 9.75 -4.65625 C 9.382812 -4.082031 8.859375 -3.644531 8.171875 -3.34375 C 7.492188 -3.039062 6.691406 -2.890625 5.765625 -2.890625 L 3.65625 -2.890625 L 3.65625 0 L 1.234375 0 L 1.234375 -10.453125 Z M 5.625 -4.859375 C 6.351562 -4.859375 6.90625 -5.015625 7.28125 -5.328125 C 7.664062 -5.640625 7.859375 -6.082031 7.859375 -6.65625 C 7.859375 -7.25 7.664062 -7.703125 7.28125 -8.015625 C 6.90625 -8.328125 6.351562 -8.484375 5.625 -8.484375 L 3.65625 -8.484375 L 3.65625 -4.859375 Z M 5.625 -4.859375 "/></g></g></g><g fill="#78857b" fill-opacity="0.4"><g transform="translate(125.44304, 356.383489)"><g><path d="M 6.296875 0.171875 C 5.210938 0.171875 4.234375 -0.0546875 3.359375 -0.515625 C 2.492188 -0.984375 1.8125 -1.628906 1.3125 -2.453125 C 0.820312 -3.273438 0.578125 -4.203125 0.578125 -5.234375 C 0.578125 -6.253906 0.820312 -7.175781 1.3125 -8 C 1.8125 -8.820312 2.492188 -9.46875 3.359375 -9.9375 C 4.234375 -10.40625 5.210938 -10.640625 6.296875 -10.640625 C 7.390625 -10.640625 8.367188 -10.40625 9.234375 -9.9375 C 10.097656 -9.46875 10.78125 -8.820312 11.28125 -8 C 11.78125 -7.175781 12.03125 -6.253906 12.03125 -5.234375 C 12.03125 -4.203125 11.78125 -3.273438 11.28125 -2.453125 C 10.78125 -1.628906 10.097656 -0.984375 9.234375 -0.515625 C 8.367188 -0.0546875 7.390625 0.171875 6.296875 0.171875 Z M 6.296875 -1.875 C 6.921875 -1.875 7.476562 -2.015625 7.96875 -2.296875 C 8.46875 -2.585938 8.859375 -2.984375 9.140625 -3.484375 C 9.429688 -3.992188 9.578125 -4.578125 9.578125 -5.234375 C 9.578125 -5.878906 9.429688 -6.453125 9.140625 -6.953125 C 8.859375 -7.460938 8.46875 -7.859375 7.96875 -8.140625 C 7.476562 -8.429688 6.921875 -8.578125 6.296875 -8.578125 C 5.679688 -8.578125 5.125 -8.429688 4.625 -8.140625 C 4.132812 -7.859375 3.742188 -7.460938 3.453125 -6.953125 C 3.171875 -6.453125 3.03125 -5.878906 3.03125 -5.234375 C 3.03125 -4.578125 3.171875 -3.992188 3.453125 -3.484375 C 3.742188 -2.984375 4.132812 -2.585938 4.625 -2.296875 C 5.125 -2.015625 5.679688 -1.875 6.296875 -1.875 Z M 6.296875 -1.875 "/></g></g></g><g fill="#78857b" fill-opacity="0.4"><g transform="translate(143.828913, 356.383489)"><g><path d="M 7.90625 0 L 5.890625 -2.90625 L 3.65625 -2.90625 L 3.65625 0 L 1.234375 0 L 1.234375 -10.453125 L 5.765625 -10.453125 C 6.691406 -10.453125 7.492188 -10.296875 8.171875 -9.984375 C 8.859375 -9.679688 9.382812 -9.242188 9.75 -8.671875 C 10.125 -8.109375 10.3125 -7.4375 10.3125 -6.65625 C 10.3125 -5.882812 10.125 -5.21875 9.75 -4.65625 C 9.375 -4.09375 8.84375 -3.660156 8.15625 -3.359375 L 10.5 0 Z M 7.859375 -6.65625 C 7.859375 -7.25 7.664062 -7.703125 7.28125 -8.015625 C 6.90625 -8.328125 6.351562 -8.484375 5.625 -8.484375 L 3.65625 -8.484375 L 3.65625 -4.84375 L 5.625 -4.84375 C 6.351562 -4.84375 6.90625 -5 7.28125 -5.3125 C 7.664062 -5.632812 7.859375 -6.082031 7.859375 -6.65625 Z M 7.859375 -6.65625 "/></g></g></g><g fill="#78857b" fill-opacity="0.4"><g transform="translate(160.585885, 356.383489)"><g><path d="M 3.40625 -8.484375 L 0.0625 -8.484375 L 0.0625 -10.453125 L 9.171875 -10.453125 L 9.171875 -8.484375 L 5.828125 -8.484375 L 5.828125 0 L 3.40625 0 Z M 3.40625 -8.484375 "/></g></g></g><g fill="#78857b" fill-opacity="0.4"><g transform="translate(175.59442, 356.383489)"><g><path d="M 1.234375 -10.453125 L 3.65625 -10.453125 L 3.65625 0 L 1.234375 0 Z M 1.234375 -10.453125 "/></g></g></g><g fill="#78857b" fill-opacity="0.4"><g transform="translate(186.269182, 356.383489)"><g><path d="M 10.828125 -10.453125 L 10.828125 0 L 8.84375 0 L 3.625 -6.34375 L 3.625 0 L 1.234375 0 L 1.234375 -10.453125 L 3.234375 -10.453125 L 8.4375 -4.109375 L 8.4375 -10.453125 Z M 10.828125 -10.453125 "/></g></g></g><g fill="#78857b" fill-opacity="0.4"><g transform="translate(204.117071, 356.383489)"><g><path d="M 8.3125 -5.390625 L 10.515625 -5.390625 L 10.515625 -1.15625 C 9.953125 -0.726562 9.296875 -0.398438 8.546875 -0.171875 C 7.796875 0.0546875 7.039062 0.171875 6.28125 0.171875 C 5.195312 0.171875 4.222656 -0.0546875 3.359375 -0.515625 C 2.492188 -0.972656 1.8125 -1.613281 1.3125 -2.4375 C 0.820312 -3.257812 0.578125 -4.191406 0.578125 -5.234375 C 0.578125 -6.265625 0.820312 -7.191406 1.3125 -8.015625 C 1.8125 -8.835938 2.5 -9.476562 3.375 -9.9375 C 4.25 -10.40625 5.234375 -10.640625 6.328125 -10.640625 C 7.242188 -10.640625 8.078125 -10.484375 8.828125 -10.171875 C 9.578125 -9.859375 10.203125 -9.410156 10.703125 -8.828125 L 9.15625 -7.390625 C 8.40625 -8.179688 7.503906 -8.578125 6.453125 -8.578125 C 5.785156 -8.578125 5.191406 -8.4375 4.671875 -8.15625 C 4.160156 -7.875 3.757812 -7.476562 3.46875 -6.96875 C 3.175781 -6.46875 3.03125 -5.890625 3.03125 -5.234375 C 3.03125 -4.578125 3.175781 -3.992188 3.46875 -3.484375 C 3.757812 -2.984375 4.160156 -2.585938 4.671875 -2.296875 C 5.179688 -2.015625 5.765625 -1.875 6.421875 -1.875 C 7.117188 -1.875 7.75 -2.023438 8.3125 -2.328125 Z M 8.3125 -5.390625 "/></g></g></g><g fill="#78857b" fill-opacity="0.4"><g transform="translate(221.412027, 356.383489)"><g/></g></g><g fill="#78857b" fill-opacity="0.4"><g transform="translate(231.414304, 356.383489)"><g><path d="M 6.25 0.171875 C 5.175781 0.171875 4.207031 -0.0546875 3.34375 -0.515625 C 2.488281 -0.972656 1.8125 -1.613281 1.3125 -2.4375 C 0.820312 -3.257812 0.578125 -4.191406 0.578125 -5.234375 C 0.578125 -6.265625 0.820312 -7.191406 1.3125 -8.015625 C 1.8125 -8.835938 2.488281 -9.476562 3.34375 -9.9375 C 4.207031 -10.40625 5.179688 -10.640625 6.265625 -10.640625 C 7.171875 -10.640625 7.988281 -10.476562 8.71875 -10.15625 C 9.445312 -9.832031 10.0625 -9.375 10.5625 -8.78125 L 9 -7.34375 C 8.300781 -8.164062 7.425781 -8.578125 6.375 -8.578125 C 5.726562 -8.578125 5.148438 -8.429688 4.640625 -8.140625 C 4.140625 -7.859375 3.742188 -7.460938 3.453125 -6.953125 C 3.171875 -6.453125 3.03125 -5.878906 3.03125 -5.234375 C 3.03125 -4.578125 3.171875 -3.992188 3.453125 -3.484375 C 3.742188 -2.984375 4.140625 -2.585938 4.640625 -2.296875 C 5.148438 -2.015625 5.726562 -1.875 6.375 -1.875 C 7.425781 -1.875 8.300781 -2.289062 9 -3.125 L 10.5625 -1.6875 C 10.0625 -1.082031 9.441406 -0.617188 8.703125 -0.296875 C 7.972656 0.015625 7.15625 0.171875 6.25 0.171875 Z M 6.25 0.171875 "/></g></g></g><g fill="#78857b" fill-opacity="0.4"><g transform="translate(248.141396, 356.383489)"><g><path d="M 1.234375 -10.453125 L 3.65625 -10.453125 L 3.65625 -1.96875 L 8.90625 -1.96875 L 8.90625 0 L 1.234375 0 Z M 1.234375 -10.453125 "/></g></g></g><g fill="#78857b" fill-opacity="0.4"><g transform="translate(262.940698, 356.383489)"><g><path d="M 5.890625 0.171875 C 4.390625 0.171875 3.222656 -0.238281 2.390625 -1.0625 C 1.566406 -1.882812 1.15625 -3.0625 1.15625 -4.59375 L 1.15625 -10.453125 L 3.5625 -10.453125 L 3.5625 -4.6875 C 3.5625 -2.8125 4.34375 -1.875 5.90625 -1.875 C 6.65625 -1.875 7.226562 -2.097656 7.625 -2.546875 C 8.03125 -3.003906 8.234375 -3.71875 8.234375 -4.6875 L 8.234375 -10.453125 L 10.625 -10.453125 L 10.625 -4.59375 C 10.625 -3.0625 10.207031 -1.882812 9.375 -1.0625 C 8.539062 -0.238281 7.378906 0.171875 5.890625 0.171875 Z M 5.890625 0.171875 "/></g></g></g><g fill="#78857b" fill-opacity="0.4"><g transform="translate(280.489715, 356.383489)"><g><path d="M 8.921875 -5.4375 C 9.515625 -5.25 9.976562 -4.929688 10.3125 -4.484375 C 10.65625 -4.046875 10.828125 -3.503906 10.828125 -2.859375 C 10.828125 -1.941406 10.46875 -1.234375 9.75 -0.734375 C 9.039062 -0.242188 8.003906 0 6.640625 0 L 1.234375 0 L 1.234375 -10.453125 L 6.34375 -10.453125 C 7.625 -10.453125 8.601562 -10.207031 9.28125 -9.71875 C 9.96875 -9.238281 10.3125 -8.578125 10.3125 -7.734375 C 10.3125 -7.222656 10.1875 -6.769531 9.9375 -6.375 C 9.695312 -5.976562 9.359375 -5.664062 8.921875 -5.4375 Z M 3.640625 -8.640625 L 3.640625 -6.171875 L 6.046875 -6.171875 C 6.648438 -6.171875 7.101562 -6.273438 7.40625 -6.484375 C 7.71875 -6.691406 7.875 -7 7.875 -7.40625 C 7.875 -7.8125 7.71875 -8.117188 7.40625 -8.328125 C 7.101562 -8.535156 6.648438 -8.640625 6.046875 -8.640625 Z M 6.46875 -1.828125 C 7.101562 -1.828125 7.582031 -1.929688 7.90625 -2.140625 C 8.226562 -2.347656 8.390625 -2.671875 8.390625 -3.109375 C 8.390625 -3.972656 7.75 -4.40625 6.46875 -4.40625 L 3.640625 -4.40625 L 3.640625 -1.828125 Z M 6.46875 -1.828125 "/></g></g></g><g fill="#78857b" fill-opacity="1"><g transform="translate(93.42348, 356.383489)"><g><path d="M 4.671875 0.171875 C 3.847656 0.171875 3.050781 0.0625 2.28125 -0.15625 C 1.507812 -0.382812 0.890625 -0.675781 0.421875 -1.03125 L 1.234375 -2.859375 C 1.679688 -2.523438 2.210938 -2.257812 2.828125 -2.0625 C 3.453125 -1.863281 4.070312 -1.765625 4.6875 -1.765625 C 5.375 -1.765625 5.878906 -1.863281 6.203125 -2.0625 C 6.535156 -2.269531 6.703125 -2.546875 6.703125 -2.890625 C 6.703125 -3.128906 6.601562 -3.332031 6.40625 -3.5 C 6.21875 -3.664062 5.972656 -3.796875 5.671875 -3.890625 C 5.367188 -3.992188 4.957031 -4.109375 4.4375 -4.234375 C 3.632812 -4.421875 2.976562 -4.609375 2.46875 -4.796875 C 1.96875 -4.984375 1.535156 -5.285156 1.171875 -5.703125 C 0.804688 -6.117188 0.625 -6.675781 0.625 -7.375 C 0.625 -7.988281 0.785156 -8.539062 1.109375 -9.03125 C 1.441406 -9.519531 1.9375 -9.910156 2.59375 -10.203125 C 3.257812 -10.492188 4.070312 -10.640625 5.03125 -10.640625 C 5.695312 -10.640625 6.347656 -10.554688 6.984375 -10.390625 C 7.628906 -10.234375 8.1875 -10.003906 8.65625 -9.703125 L 7.921875 -7.875 C 6.953125 -8.414062 5.984375 -8.6875 5.015625 -8.6875 C 4.335938 -8.6875 3.835938 -8.578125 3.515625 -8.359375 C 3.191406 -8.140625 3.03125 -7.851562 3.03125 -7.5 C 3.03125 -7.132812 3.21875 -6.863281 3.59375 -6.6875 C 3.96875 -6.519531 4.535156 -6.351562 5.296875 -6.1875 C 6.097656 -6 6.75 -5.804688 7.25 -5.609375 C 7.757812 -5.421875 8.195312 -5.125 8.5625 -4.71875 C 8.925781 -4.3125 9.109375 -3.757812 9.109375 -3.0625 C 9.109375 -2.46875 8.941406 -1.921875 8.609375 -1.421875 C 8.273438 -0.929688 7.773438 -0.539062 7.109375 -0.25 C 6.441406 0.03125 5.628906 0.171875 4.671875 0.171875 Z M 4.671875 0.171875 "/></g></g></g><g fill="#78857b" fill-opacity="1"><g transform="translate(108.730895, 356.383489)"><g><path d="M 5.765625 -10.453125 C 6.691406 -10.453125 7.492188 -10.296875 8.171875 -9.984375 C 8.859375 -9.679688 9.382812 -9.242188 9.75 -8.671875 C 10.125 -8.109375 10.3125 -7.4375 10.3125 -6.65625 C 10.3125 -5.894531 10.125 -5.226562 9.75 -4.65625 C 9.382812 -4.082031 8.859375 -3.644531 8.171875 -3.34375 C 7.492188 -3.039062 6.691406 -2.890625 5.765625 -2.890625 L 3.65625 -2.890625 L 3.65625 0 L 1.234375 0 L 1.234375 -10.453125 Z M 5.625 -4.859375 C 6.351562 -4.859375 6.90625 -5.015625 7.28125 -5.328125 C 7.664062 -5.640625 7.859375 -6.082031 7.859375 -6.65625 C 7.859375 -7.25 7.664062 -7.703125 7.28125 -8.015625 C 6.90625 -8.328125 6.351562 -8.484375 5.625 -8.484375 L 3.65625 -8.484375 L 3.65625 -4.859375 Z M 5.625 -4.859375 "/></g></g></g><g fill="#78857b" fill-opacity="1"><g transform="translate(125.44304, 356.383489)"><g><path d="M 6.296875 0.171875 C 5.210938 0.171875 4.234375 -0.0546875 3.359375 -0.515625 C 2.492188 -0.984375 1.8125 -1.628906 1.3125 -2.453125 C 0.820312 -3.273438 0.578125 -4.203125 0.578125 -5.234375 C 0.578125 -6.253906 0.820312 -7.175781 1.3125 -8 C 1.8125 -8.820312 2.492188 -9.46875 3.359375 -9.9375 C 4.234375 -10.40625 5.210938 -10.640625 6.296875 -10.640625 C 7.390625 -10.640625 8.367188 -10.40625 9.234375 -9.9375 C 10.097656 -9.46875 10.78125 -8.820312 11.28125 -8 C 11.78125 -7.175781 12.03125 -6.253906 12.03125 -5.234375 C 12.03125 -4.203125 11.78125 -3.273438 11.28125 -2.453125 C 10.78125 -1.628906 10.097656 -0.984375 9.234375 -0.515625 C 8.367188 -0.0546875 7.390625 0.171875 6.296875 0.171875 Z M 6.296875 -1.875 C 6.921875 -1.875 7.476562 -2.015625 7.96875 -2.296875 C 8.46875 -2.585938 8.859375 -2.984375 9.140625 -3.484375 C 9.429688 -3.992188 9.578125 -4.578125 9.578125 -5.234375 C 9.578125 -5.878906 9.429688 -6.453125 9.140625 -6.953125 C 8.859375 -7.460938 8.46875 -7.859375 7.96875 -8.140625 C 7.476562 -8.429688 6.921875 -8.578125 6.296875 -8.578125 C 5.679688 -8.578125 5.125 -8.429688 4.625 -8.140625 C 4.132812 -7.859375 3.742188 -7.460938 3.453125 -6.953125 C 3.171875 -6.453125 3.03125 -5.878906 3.03125 -5.234375 C 3.03125 -4.578125 3.171875 -3.992188 3.453125 -3.484375 C 3.742188 -2.984375 4.132812 -2.585938 4.625 -2.296875 C 5.125 -2.015625 5.679688 -1.875 6.296875 -1.875 Z M 6.296875 -1.875 "/></g></g></g><g fill="#78857b" fill-opacity="1"><g transform="translate(143.828913, 356.383489)"><g><path d="M 7.90625 0 L 5.890625 -2.90625 L 3.65625 -2.90625 L 3.65625 0 L 1.234375 0 L 1.234375 -10.453125 L 5.765625 -10.453125 C 6.691406 -10.453125 7.492188 -10.296875 8.171875 -9.984375 C 8.859375 -9.679688 9.382812 -9.242188 9.75 -8.671875 C 10.125 -8.109375 10.3125 -7.4375 10.3125 -6.65625 C 10.3125 -5.882812 10.125 -5.21875 9.75 -4.65625 C 9.375 -4.09375 8.84375 -3.660156 8.15625 -3.359375 L 10.5 0 Z M 7.859375 -6.65625 C 7.859375 -7.25 7.664062 -7.703125 7.28125 -8.015625 C 6.90625 -8.328125 6.351562 -8.484375 5.625 -8.484375 L 3.65625 -8.484375 L 3.65625 -4.84375 L 5.625 -4.84375 C 6.351562 -4.84375 6.90625 -5 7.28125 -5.3125 C 7.664062 -5.632812 7.859375 -6.082031 7.859375 -6.65625 Z M 7.859375 -6.65625 "/></g></g></g><g fill="#78857b" fill-opacity="1"><g transform="translate(160.585885, 356.383489)"><g><path d="M 3.40625 -8.484375 L 0.0625 -8.484375 L 0.0625 -10.453125 L 9.171875 -10.453125 L 9.171875 -8.484375 L 5.828125 -8.484375 L 5.828125 0 L 3.40625 0 Z M 3.40625 -8.484375 "/></g></g></g><g fill="#78857b" fill-opacity="1"><g transform="translate(175.59442, 356.383489)"><g><path d="M 1.234375 -10.453125 L 3.65625 -10.453125 L 3.65625 0 L 1.234375 0 Z M 1.234375 -10.453125 "/></g></g></g><g fill="#78857b" fill-opacity="1"><g transform="translate(186.269182, 356.383489)"><g><path d="M 10.828125 -10.453125 L 10.828125 0 L 8.84375 0 L 3.625 -6.34375 L 3.625 0 L 1.234375 0 L 1.234375 -10.453125 L 3.234375 -10.453125 L 8.4375 -4.109375 L 8.4375 -10.453125 Z M 10.828125 -10.453125 "/></g></g></g><g fill="#78857b" fill-opacity="1"><g transform="translate(204.117071, 356.383489)"><g><path d="M 8.3125 -5.390625 L 10.515625 -5.390625 L 10.515625 -1.15625 C 9.953125 -0.726562 9.296875 -0.398438 8.546875 -0.171875 C 7.796875 0.0546875 7.039062 0.171875 6.28125 0.171875 C 5.195312 0.171875 4.222656 -0.0546875 3.359375 -0.515625 C 2.492188 -0.972656 1.8125 -1.613281 1.3125 -2.4375 C 0.820312 -3.257812 0.578125 -4.191406 0.578125 -5.234375 C 0.578125 -6.265625 0.820312 -7.191406 1.3125 -8.015625 C 1.8125 -8.835938 2.5 -9.476562 3.375 -9.9375 C 4.25 -10.40625 5.234375 -10.640625 6.328125 -10.640625 C 7.242188 -10.640625 8.078125 -10.484375 8.828125 -10.171875 C 9.578125 -9.859375 10.203125 -9.410156 10.703125 -8.828125 L 9.15625 -7.390625 C 8.40625 -8.179688 7.503906 -8.578125 6.453125 -8.578125 C 5.785156 -8.578125 5.191406 -8.4375 4.671875 -8.15625 C 4.160156 -7.875 3.757812 -7.476562 3.46875 -6.96875 C 3.175781 -6.46875 3.03125 -5.890625 3.03125 -5.234375 C 3.03125 -4.578125 3.175781 -3.992188 3.46875 -3.484375 C 3.757812 -2.984375 4.160156 -2.585938 4.671875 -2.296875 C 5.179688 -2.015625 5.765625 -1.875 6.421875 -1.875 C 7.117188 -1.875 7.75 -2.023438 8.3125 -2.328125 Z M 8.3125 -5.390625 "/></g></g></g><g fill="#78857b" fill-opacity="1"><g transform="translate(221.412027, 356.383489)"><g/></g></g><g fill="#78857b" fill-opacity="1"><g transform="translate(231.414304, 356.383489)"><g><path d="M 6.25 0.171875 C 5.175781 0.171875 4.207031 -0.0546875 3.34375 -0.515625 C 2.488281 -0.972656 1.8125 -1.613281 1.3125 -2.4375 C 0.820312 -3.257812 0.578125 -4.191406 0.578125 -5.234375 C 0.578125 -6.265625 0.820312 -7.191406 1.3125 -8.015625 C 1.8125 -8.835938 2.488281 -9.476562 3.34375 -9.9375 C 4.207031 -10.40625 5.179688 -10.640625 6.265625 -10.640625 C 7.171875 -10.640625 7.988281 -10.476562 8.71875 -10.15625 C 9.445312 -9.832031 10.0625 -9.375 10.5625 -8.78125 L 9 -7.34375 C 8.300781 -8.164062 7.425781 -8.578125 6.375 -8.578125 C 5.726562 -8.578125 5.148438 -8.429688 4.640625 -8.140625 C 4.140625 -7.859375 3.742188 -7.460938 3.453125 -6.953125 C 3.171875 -6.453125 3.03125 -5.878906 3.03125 -5.234375 C 3.03125 -4.578125 3.171875 -3.992188 3.453125 -3.484375 C 3.742188 -2.984375 4.140625 -2.585938 4.640625 -2.296875 C 5.148438 -2.015625 5.726562 -1.875 6.375 -1.875 C 7.425781 -1.875 8.300781 -2.289062 9 -3.125 L 10.5625 -1.6875 C 10.0625 -1.082031 9.441406 -0.617188 8.703125 -0.296875 C 7.972656 0.015625 7.15625 0.171875 6.25 0.171875 Z M 6.25 0.171875 "/></g></g></g><g fill="#78857b" fill-opacity="1"><g transform="translate(248.141396, 356.383489)"><g><path d="M 1.234375 -10.453125 L 3.65625 -10.453125 L 3.65625 -1.96875 L 8.90625 -1.96875 L 8.90625 0 L 1.234375 0 Z M 1.234375 -10.453125 "/></g></g></g><g fill="#78857b" fill-opacity="1"><g transform="translate(262.940698, 356.383489)"><g><path d="M 5.890625 0.171875 C 4.390625 0.171875 3.222656 -0.238281 2.390625 -1.0625 C 1.566406 -1.882812 1.15625 -3.0625 1.15625 -4.59375 L 1.15625 -10.453125 L 3.5625 -10.453125 L 3.5625 -4.6875 C 3.5625 -2.8125 4.34375 -1.875 5.90625 -1.875 C 6.65625 -1.875 7.226562 -2.097656 7.625 -2.546875 C 8.03125 -3.003906 8.234375 -3.71875 8.234375 -4.6875 L 8.234375 -10.453125 L 10.625 -10.453125 L 10.625 -4.59375 C 10.625 -3.0625 10.207031 -1.882812 9.375 -1.0625 C 8.539062 -0.238281 7.378906 0.171875 5.890625 0.171875 Z M 5.890625 0.171875 "/></g></g></g><g fill="#78857b" fill-opacity="1"><g transform="translate(280.489715, 356.383489)"><g><path d="M 8.921875 -5.4375 C 9.515625 -5.25 9.976562 -4.929688 10.3125 -4.484375 C 10.65625 -4.046875 10.828125 -3.503906 10.828125 -2.859375 C 10.828125 -1.941406 10.46875 -1.234375 9.75 -0.734375 C 9.039062 -0.242188 8.003906 0 6.640625 0 L 1.234375 0 L 1.234375 -10.453125 L 6.34375 -10.453125 C 7.625 -10.453125 8.601562 -10.207031 9.28125 -9.71875 C 9.96875 -9.238281 10.3125 -8.578125 10.3125 -7.734375 C 10.3125 -7.222656 10.1875 -6.769531 9.9375 -6.375 C 9.695312 -5.976562 9.359375 -5.664062 8.921875 -5.4375 Z M 3.640625 -8.640625 L 3.640625 -6.171875 L 6.046875 -6.171875 C 6.648438 -6.171875 7.101562 -6.273438 7.40625 -6.484375 C 7.71875 -6.691406 7.875 -7 7.875 -7.40625 C 7.875 -7.8125 7.71875 -8.117188 7.40625 -8.328125 C 7.101562 -8.535156 6.648438 -8.640625 6.046875 -8.640625 Z M 6.46875 -1.828125 C 7.101562 -1.828125 7.582031 -1.929688 7.90625 -2.140625 C 8.226562 -2.347656 8.390625 -2.671875 8.390625 -3.109375 C 8.390625 -3.972656 7.75 -4.40625 6.46875 -4.40625 L 3.640625 -4.40625 L 3.640625 -1.828125 Z M 6.46875 -1.828125 "/></g></g></g></svg>