<svg xmlns="http://www.w3.org/2000/svg" xmlns:xlink="http://www.w3.org/1999/xlink" width="500" zoomAndPan="magnify" viewBox="0 0 375 374.999991" height="500" preserveAspectRatio="xMidYMid meet" version="1.0"><defs><g/><clipPath id="f5cd0edf73"><path d="M 234 253 L 291.332031 253 L 291.332031 312.570312 L 234 312.570312 Z M 234 253 " clip-rule="nonzero"/></clipPath><clipPath id="294fcd2ee1"><path d="M 83.582031 94.320312 L 141 94.320312 L 141 153 L 83.582031 153 Z M 83.582031 94.320312 " clip-rule="nonzero"/></clipPath><clipPath id="bf262d1b10"><path d="M 234 94.320312 L 291.332031 94.320312 L 291.332031 153 L 234 153 Z M 234 94.320312 " clip-rule="nonzero"/></clipPath><clipPath id="8a0633ba68"><path d="M 83.582031 253 L 141 253 L 141 312.570312 L 83.582031 312.570312 Z M 83.582031 253 " clip-rule="nonzero"/></clipPath></defs><g fill="#000000" fill-opacity="1"><g transform="translate(29.44595, 360.960131)"><g><path d="M 1.46875 -35.984375 L 1.46875 -29.015625 L 4.65625 -29.015625 L 4.65625 -0.34375 L 1.46875 -0.34375 L 1.46875 6.609375 L 14.796875 6.609375 L 14.796875 -0.34375 L 11.609375 -0.34375 L 11.609375 -10.390625 L 14.015625 -10.390625 L 22.34375 6.609375 L 29.40625 6.609375 L 29.40625 -0.34375 L 26.46875 -0.34375 L 21.375 -10.390625 L 23.671875 -10.390625 L 27.296875 -14.171875 L 27.296875 -32.5 L 23.671875 -35.984375 Z M 20.34375 -29.015625 L 20.34375 -17.34375 L 11.609375 -17.34375 L 11.609375 -29.015625 Z M 20.34375 -29.015625 "/></g></g></g><g fill="#000000" fill-opacity="1"><g transform="translate(59.035199, 360.960131)"><g><path d="M 1.46875 -0.34375 L 1.46875 6.609375 L 14.796875 6.609375 L 14.796875 -0.34375 L 11.125 -0.34375 L 11.859375 -3.1875 L 22.203125 -3.1875 L 22.984375 -0.34375 L 19.5625 -0.34375 L 19.5625 6.609375 L 33.234375 6.609375 L 33.234375 -0.34375 L 29.75 -0.34375 L 20.25 -35.984375 L 13.921875 -35.984375 L 4.359375 -0.34375 Z M 17.15625 -22.9375 L 20.4375 -10.046875 L 13.671875 -10.046875 Z M 17.15625 -22.9375 "/></g></g></g><g fill="#000000" fill-opacity="1"><g transform="translate(92.445677, 360.960131)"><g><path d="M 1.46875 6.609375 L 14.796875 6.609375 L 14.796875 -0.34375 L 11.609375 -0.34375 L 11.609375 -13.234375 L 20.34375 -13.234375 L 20.34375 -20.09375 L 11.609375 -20.09375 L 11.609375 -29.015625 L 20.34375 -29.015625 L 20.34375 -23.09375 L 27.296875 -23.09375 L 27.296875 -35.984375 L 1.46875 -35.984375 L 1.46875 -29.015625 L 4.65625 -29.015625 L 4.65625 -0.34375 L 1.46875 -0.34375 Z M 1.46875 6.609375 "/></g></g></g><g fill="#000000" fill-opacity="1"><g transform="translate(119.928342, 360.960131)"><g><path d="M 1.46875 -20.78125 L 8.1875 -20.78125 L 8.1875 -29.015625 L 12.5 -29.015625 L 12.5 -0.34375 L 9.3125 -0.34375 L 9.3125 6.609375 L 22.640625 6.609375 L 22.640625 -0.34375 L 19.453125 -0.34375 L 19.453125 -29.015625 L 23.765625 -29.015625 L 23.765625 -20.78125 L 30.484375 -20.78125 L 30.484375 -35.984375 L 1.46875 -35.984375 Z M 1.46875 -20.78125 "/></g></g></g><g fill="#000000" fill-opacity="1"><g transform="translate(150.595367, 360.960131)"><g><path d="M 1.46875 6.609375 L 14.796875 6.609375 L 14.796875 -0.34375 L 11.609375 -0.34375 L 11.609375 -29.015625 L 14.796875 -29.015625 L 14.796875 -35.984375 L 1.46875 -35.984375 L 1.46875 -29.015625 L 4.65625 -29.015625 L 4.65625 -0.34375 L 1.46875 -0.34375 Z M 1.46875 6.609375 "/></g></g></g><g fill="#000000" fill-opacity="1"><g transform="translate(165.585539, 360.960131)"><g><path d="M 1.46875 6.609375 L 14.796875 6.609375 L 14.796875 -0.34375 L 11.609375 -0.34375 L 11.609375 -17.203125 L 21.765625 6.609375 L 28.140625 6.609375 L 28.140625 -29.015625 L 31.328125 -29.015625 L 31.328125 -35.984375 L 17.984375 -35.984375 L 17.984375 -29.015625 L 21.171875 -29.015625 L 21.171875 -11.375 L 10.9375 -35.984375 L 1.46875 -35.984375 L 1.46875 -29.015625 L 4.65625 -29.015625 L 4.65625 -0.34375 L 1.46875 -0.34375 Z M 1.46875 6.609375 "/></g></g></g><g fill="#000000" fill-opacity="1"><g transform="translate(197.085392, 360.960131)"><g><path d="M 1.46875 2.109375 L 6.125 6.609375 L 20.25 6.609375 L 24.109375 2.40625 L 24.109375 -16.859375 L 13.09375 -16.859375 L 13.09375 -10.046875 L 17.15625 -10.046875 L 17.15625 -0.34375 L 8.4375 -0.34375 L 8.4375 -29.015625 L 17.15625 -29.015625 L 17.15625 -22.84375 L 24.109375 -22.84375 L 24.109375 -32.109375 L 20.59375 -35.984375 L 6.171875 -35.984375 L 1.46875 -31.21875 Z M 1.46875 2.109375 "/></g></g></g><g fill="#000000" fill-opacity="1"><g transform="translate(221.383697, 360.960131)"><g/></g></g><g fill="#000000" fill-opacity="1"><g transform="translate(232.94456, 360.960131)"><g><path d="M 1.46875 -31.5625 L 1.46875 2.40625 L 5.78125 6.609375 L 20.484375 6.609375 L 24.109375 2.84375 L 24.109375 -6.46875 L 17.15625 -6.46875 L 17.15625 -0.34375 L 8.4375 -0.34375 L 8.4375 -29.015625 L 17.15625 -29.015625 L 17.15625 -22.984375 L 24.109375 -22.984375 L 24.109375 -31.8125 L 20 -35.984375 L 5.828125 -35.984375 Z M 1.46875 -31.5625 "/></g></g></g><g fill="#000000" fill-opacity="1"><g transform="translate(257.242864, 360.960131)"><g><path d="M 1.46875 -35.984375 L 1.46875 -29.015625 L 4.65625 -29.015625 L 4.65625 -0.34375 L 1.46875 -0.34375 L 1.46875 6.609375 L 27.296875 6.609375 L 27.296875 -10.296875 L 20.34375 -10.296875 L 20.34375 -0.34375 L 11.609375 -0.34375 L 11.609375 -29.015625 L 14.796875 -29.015625 L 14.796875 -35.984375 Z M 1.46875 -35.984375 "/></g></g></g><g fill="#000000" fill-opacity="1"><g transform="translate(284.725529, 360.960131)"><g><path d="M 1.46875 -29.015625 L 4.65625 -29.015625 L 4.65625 2.359375 L 9.015625 6.609375 L 24.0625 6.609375 L 28.328125 2.359375 L 28.328125 -29.015625 L 31.515625 -29.015625 L 31.515625 -35.984375 L 18.1875 -35.984375 L 18.1875 -29.015625 L 21.375 -29.015625 L 21.375 -0.34375 L 11.609375 -0.34375 L 11.609375 -29.015625 L 14.796875 -29.015625 L 14.796875 -35.984375 L 1.46875 -35.984375 Z M 1.46875 -29.015625 "/></g></g></g><g fill="#000000" fill-opacity="1"><g transform="translate(316.421362, 360.960131)"><g><path d="M 1.46875 6.609375 L 22.9375 6.609375 L 27.296875 2.203125 L 27.296875 -14.015625 L 24.21875 -17.203125 L 27.296875 -20.296875 L 27.296875 -31.765625 L 22.984375 -35.984375 L 1.46875 -35.984375 L 1.46875 -29.015625 L 4.65625 -29.015625 L 4.65625 -0.34375 L 1.46875 -0.34375 Z M 11.609375 -29.015625 L 20.34375 -29.015625 L 20.34375 -20.140625 L 11.609375 -20.140625 Z M 20.34375 -13.140625 L 20.34375 -0.34375 L 11.609375 -0.34375 L 11.609375 -13.140625 Z M 20.34375 -13.140625 "/></g></g></g><g fill="#000000" fill-opacity="1"><g transform="translate(50.510224, 121.180542)"><g><path d="M 0.40625 -1.21875 L 5.453125 1.859375 L 11.34375 -7.796875 L 6.296875 -10.875 L 4.65625 -8.21875 L 2.921875 -10 L 7.5 -17.5 L 9.90625 -16.8125 L 8.390625 -14.328125 L 13.4375 -11.25 L 19.484375 -21.15625 L 14.4375 -24.234375 L 12.890625 -21.71875 L -17.125 -30.546875 L -19.90625 -25.96875 L 1.671875 -3.3125 Z M -9.046875 -22.578125 L 1.75 -19.25 L -1.234375 -14.34375 Z M -9.046875 -22.578125 "/></g></g></g><g fill="#000000" fill-opacity="1"><g transform="translate(65.317399, 97.108165)"><g><path d="M -22.1875 -21 L -17.734375 -17.125 L -15.96875 -19.171875 L 2.375 -3.171875 L 0.609375 -1.125 L 5.0625 2.75 L 17.15625 -11.140625 L 16.9375 -15.984375 L -5.59375 -35.625 L -9.8125 -35.203125 Z M -7.21875 -29.203125 L 11.125 -13.203125 L 6.265625 -7.625 L -12.078125 -23.625 Z M -7.21875 -29.203125 "/></g></g></g><g fill="#000000" fill-opacity="1"><g transform="translate(80.391588, 79.375016)"><g><path d="M -14.609375 -19.859375 L -12.703125 -21.40625 L 12.3125 -2.8125 L 17.265625 -6.875 L 3.875 -34.96875 L 5.96875 -36.671875 L 2.21875 -41.25 L -6.734375 -33.9375 L -2.984375 -29.359375 L -0.703125 -31.21875 L 8.15625 -12.953125 L -7.9375 -25.296875 L -5.84375 -27.015625 L -9.59375 -31.59375 L -18.359375 -24.4375 Z M -14.609375 -19.859375 "/></g></g></g><g fill="#000000" fill-opacity="1"><g transform="translate(102.054467, 61.793415)"><g><path d="M 0.953125 -0.890625 L 3.859375 4.25 L 22.90625 -6.578125 L 16.296875 -18.21875 L 11.171875 -15.296875 L 14.875 -8.796875 L 8.4375 -5.140625 L 3.015625 -14.671875 L 9.453125 -18.328125 L 6.515625 -23.5 L 0.078125 -19.84375 L -3.59375 -26.28125 L 2.84375 -29.9375 L 5.296875 -25.640625 L 10.421875 -28.5625 L 5.0625 -38 L -13.984375 -27.171875 L -11.078125 -22.03125 L -8.734375 -23.359375 L 3.296875 -2.21875 Z M 0.953125 -0.890625 "/></g></g></g><g fill="#000000" fill-opacity="1"><g transform="translate(122.201978, 50.077736)"><g><path d="M 3.109375 4.828125 L 13.734375 0.9375 L 11.6875 -4.609375 L 9.140625 -3.6875 L 4.21875 -17.109375 L 19.265625 -1.109375 L 24.34375 -2.96875 L 13.90625 -31.34375 L 16.453125 -32.28125 L 14.421875 -37.828125 L 3.796875 -33.921875 L 5.828125 -28.375 L 8.359375 -29.3125 L 13.53125 -15.265625 L -1.8125 -31.859375 L -9.359375 -29.09375 L -7.328125 -23.546875 L -4.796875 -24.46875 L 3.59375 -1.640625 L 1.0625 -0.71875 Z M 3.109375 4.828125 "/></g></g></g><g fill="#000000" fill-opacity="1"><g transform="translate(147.163646, 40.822822)"><g><path d="M -1.90625 -17.578125 L 3.703125 -18.59375 L 2.453125 -25.46875 L 6.046875 -26.125 L 10.390625 -2.1875 L 7.734375 -1.703125 L 8.78125 4.109375 L 19.90625 2.09375 L 18.859375 -3.71875 L 16.203125 -3.234375 L 11.859375 -27.171875 L 15.453125 -27.828125 L 16.703125 -20.953125 L 22.3125 -21.96875 L 20.015625 -34.65625 L -4.203125 -30.265625 Z M -1.90625 -17.578125 "/></g></g></g><g fill="#000000" fill-opacity="1"><g transform="translate(172.638263, 36.062734)"><g><path d="M 1.109375 -24.625 L 3.8125 -24.640625 L 3.96875 1.984375 L 7.6875 5.5625 L 20.453125 5.484375 L 24.0625 1.859375 L 23.90625 -24.765625 L 26.609375 -24.78125 L 26.578125 -30.6875 L 15.265625 -30.625 L 15.296875 -24.71875 L 18 -24.734375 L 18.140625 -0.40625 L 9.859375 -0.359375 L 9.71875 -24.6875 L 12.421875 -24.703125 L 12.390625 -30.609375 L 1.078125 -30.53125 Z M 1.109375 -24.625 "/></g></g></g><g fill="#000000" fill-opacity="1"><g transform="translate(199.444038, 35.882723)"><g><path d="M 6.25 -29.90625 L 5.28125 -24.09375 L 7.953125 -23.640625 L 3.953125 0.359375 L 1.28125 -0.09375 L 0.3125 5.734375 L 11.46875 7.59375 L 12.4375 1.765625 L 9.765625 1.328125 L 11.171875 -7.0625 L 13.1875 -6.734375 L 17.796875 8.640625 L 23.6875 9.625 L 24.65625 3.796875 L 22.203125 3.390625 L 19.34375 -5.703125 L 21.28125 -5.390625 L 24.828125 -8.0625 L 27.390625 -23.40625 L 24.84375 -26.8125 Z M 21.078125 -21.46875 L 19.453125 -11.6875 L 12.140625 -12.890625 L 13.765625 -22.671875 Z M 21.078125 -21.46875 "/></g></g></g><g fill="#000000" fill-opacity="1"><g transform="translate(224.232505, 39.990036)"><g><path d="M 1.28125 0.125 L -0.59375 5.71875 L 20.1875 12.703125 L 24.453125 0.015625 L 18.84375 -1.875 L 16.453125 5.21875 L 9.4375 2.859375 L 12.9375 -7.53125 L 19.953125 -5.171875 L 21.84375 -10.8125 L 14.828125 -13.171875 L 17.1875 -20.203125 L 24.203125 -17.84375 L 22.625 -13.140625 L 28.234375 -11.25 L 31.703125 -21.546875 L 10.921875 -28.53125 L 9.03125 -22.9375 L 11.59375 -22.078125 L 3.84375 0.984375 Z M 1.28125 0.125 "/></g></g></g><g fill="#000000" fill-opacity="1"><g transform="translate(246.683104, 47.905076)"><g/></g></g><g fill="#000000" fill-opacity="1"><g transform="translate(256.190196, 51.764141)"><g><path d="M 10.40625 -14.3125 L 15.25 -11.28125 L 18.9375 -17.203125 L 22.03125 -15.28125 L 9.15625 5.359375 L 6.859375 3.9375 L 3.734375 8.953125 L 13.34375 14.9375 L 16.46875 9.921875 L 14.171875 8.5 L 27.046875 -12.140625 L 30.140625 -10.21875 L 26.453125 -4.296875 L 31.296875 -1.265625 L 38.109375 -12.203125 L 17.21875 -25.25 Z M 10.40625 -14.3125 "/></g></g></g><g fill="#000000" fill-opacity="1"><g transform="translate(278.320282, 66.017252)"><g><path d="M -2.59375 5.125 L 6.140625 12.296875 L 9.890625 7.734375 L 7.8125 6.015625 L 23.25 -12.78125 L 25.328125 -11.0625 L 29.078125 -15.625 L 20.34375 -22.796875 L 16.59375 -18.234375 L 18.6875 -16.515625 L 3.25 2.28125 L 1.15625 0.5625 Z M -2.59375 5.125 "/></g></g></g><g fill="#000000" fill-opacity="1"><g transform="translate(288.8514, 73.379126)"><g><path d="M 23.703125 -19.28125 L 19.28125 -15.375 L 21.078125 -13.34375 L 2.84375 2.765625 L 1.046875 0.734375 L -3.375 4.65625 L 4.125 13.125 L 8.546875 9.203125 L 6.75 7.1875 L 17.71875 -2.5 L 7.8125 17.671875 L 28.953125 10.203125 L 17.984375 19.890625 L 16.203125 17.875 L 11.78125 21.796875 L 19.265625 30.265625 L 23.6875 26.34375 L 21.90625 24.328125 L 40.140625 8.21875 L 41.921875 10.234375 L 46.34375 6.328125 L 41 0.296875 L 18.484375 8.40625 L 28.828125 -13.484375 Z M 23.703125 -19.28125 "/></g></g></g><g fill="#000000" fill-opacity="1"><g transform="translate(311.859688, 100.086198)"><g><path d="M 0.890625 0.921875 L -4.1875 3.921875 L 6.921875 22.8125 L 18.453125 16.015625 L 15.46875 10.921875 L 9.015625 14.71875 L 5.25 8.34375 L 14.703125 2.78125 L 18.46875 9.15625 L 23.609375 6.140625 L 19.84375 -0.234375 L 26.21875 -4 L 29.984375 2.375 L 25.71875 4.890625 L 28.703125 9.984375 L 38.0625 4.484375 L 26.953125 -14.40625 L 21.859375 -11.421875 L 23.21875 -9.09375 L 2.25 3.25 Z M 0.890625 0.921875 "/></g></g></g><g fill="#000000" fill-opacity="1"><g transform="translate(66.105761, 206.943115)"><g><path d="M 0.59375 -0.140625 L 0.59375 2.640625 L 10.90625 2.640625 L 10.90625 -3.65625 L 8.125 -3.65625 L 8.125 -0.140625 L 4.640625 -0.140625 L 4.640625 -5.3125 L 8.125 -5.3125 L 8.125 -8.109375 L 4.640625 -8.109375 L 4.640625 -11.59375 L 8.125 -11.59375 L 8.125 -9.265625 L 10.90625 -9.265625 L 10.90625 -14.375 L 0.59375 -14.375 L 0.59375 -11.59375 L 1.859375 -11.59375 L 1.859375 -0.140625 Z M 0.59375 -0.140625 "/></g></g></g><g fill="#000000" fill-opacity="1"><g transform="translate(80.172899, 206.943115)"><g><path d="M 0.59375 -12.875 L 0.59375 -6.359375 L 2.171875 -4.78125 L 7.09375 -4.78125 L 7.09375 -0.140625 L 3.375 -0.140625 L 3.375 -2.1875 L 0.59375 -2.1875 L 0.59375 0.828125 L 2.421875 2.640625 L 7.828125 2.640625 L 9.875 0.546875 L 9.875 -5.9375 L 8.28125 -7.53125 L 3.375 -7.53125 L 3.375 -11.59375 L 7.09375 -11.59375 L 7.09375 -9.59375 L 9.875 -9.59375 L 9.875 -12.84375 L 8.296875 -14.375 L 2.09375 -14.375 Z M 0.59375 -12.875 "/></g></g></g><g fill="#000000" fill-opacity="1"><g transform="translate(93.203324, 206.943115)"><g><path d="M 0.59375 -8.296875 L 3.265625 -8.296875 L 3.265625 -11.59375 L 5 -11.59375 L 5 -0.140625 L 3.71875 -0.140625 L 3.71875 2.640625 L 9.046875 2.640625 L 9.046875 -0.140625 L 7.765625 -0.140625 L 7.765625 -11.59375 L 9.5 -11.59375 L 9.5 -8.296875 L 12.171875 -8.296875 L 12.171875 -14.375 L 0.59375 -14.375 Z M 0.59375 -8.296875 "/></g></g></g><g fill="#000000" fill-opacity="1"><g transform="translate(108.541902, 206.943115)"><g><path d="M 1.171875 -0.140625 L 1.171875 2.640625 L 3.953125 2.640625 L 3.953125 -0.140625 Z M 1.171875 -0.140625 "/></g></g></g><g fill="#000000" fill-opacity="1"><g transform="translate(259.969097, 206.943115)"><g><path d="M 0.59375 -5.515625 L 0.59375 2.640625 L 9.625 2.640625 L 9.625 -0.140625 L 3.375 -0.140625 L 3.375 -4.546875 L 8 -4.546875 L 9.625 -6.25 L 9.625 -12.53125 L 7.953125 -14.375 L 2.46875 -14.375 L 0.59375 -12.484375 L 0.59375 -9.34375 L 3.375 -9.34375 L 3.375 -11.59375 L 6.859375 -11.59375 L 6.859375 -7.296875 L 2.34375 -7.296875 Z M 0.59375 -5.515625 "/></g></g></g><g fill="#000000" fill-opacity="1"><g transform="translate(272.764796, 206.943115)"><g><path d="M 0.59375 0.796875 L 2.296875 2.640625 L 7.8125 2.640625 L 9.625 0.796875 L 9.625 -12.53125 L 7.84375 -14.375 L 2.390625 -14.375 L 0.59375 -12.53125 Z M 6.859375 -11.59375 L 6.859375 -0.140625 L 3.375 -0.140625 L 3.375 -11.59375 Z M 6.859375 -11.59375 "/></g></g></g><g fill="#000000" fill-opacity="1"><g transform="translate(285.560494, 206.943115)"><g><path d="M 0.59375 0.796875 L 2.296875 2.640625 L 7.8125 2.640625 L 9.625 0.796875 L 9.625 -12.53125 L 7.84375 -14.375 L 2.390625 -14.375 L 0.59375 -12.53125 Z M 6.859375 -11.59375 L 6.859375 -0.140625 L 3.375 -0.140625 L 3.375 -11.59375 Z M 6.859375 -11.59375 "/></g></g></g><g fill="#000000" fill-opacity="1"><g transform="translate(298.356192, 206.943115)"><g><path d="M 0.59375 0.796875 L 2.296875 2.640625 L 7.8125 2.640625 L 9.625 0.796875 L 9.625 -12.53125 L 7.84375 -14.375 L 2.390625 -14.375 L 0.59375 -12.53125 Z M 6.859375 -11.59375 L 6.859375 -0.140625 L 3.375 -0.140625 L 3.375 -11.59375 Z M 6.859375 -11.59375 "/></g></g></g><g clip-path="url(#f5cd0edf73)"><path fill="#1b1919" d="M 276.210938 303.214844 C 276.011719 303.457031 275.707031 303.792969 275.300781 304.199219 C 274.894531 304.605469 274.382812 305.078125 273.753906 305.585938 C 273.128906 306.09375 272.386719 306.617188 271.527344 307.132812 C 271.3125 307.257812 271.085938 307.382812 270.851562 307.511719 L 270.769531 307.558594 L 270.726562 307.582031 L 270.699219 307.589844 L 270.628906 307.621094 L 270.457031 307.703125 L 270.414062 307.722656 L 270.339844 307.746094 L 270.191406 307.796875 C 270.089844 307.832031 269.984375 307.863281 269.902344 307.882812 C 269.183594 308.070312 268.414062 308.035156 267.695312 307.835938 C 266.972656 307.636719 266.292969 307.261719 265.726562 306.738281 C 265.582031 306.617188 265.453125 306.472656 265.320312 306.328125 C 265.226562 306.214844 265.128906 306.101562 265.027344 305.992188 C 264.835938 305.769531 264.640625 305.546875 264.445312 305.320312 C 263.65625 304.417969 262.855469 303.472656 262.039062 302.515625 C 261.21875 301.5625 260.40625 300.578125 259.582031 299.601562 C 258.769531 298.617188 257.953125 297.636719 257.148438 296.664062 C 256.476562 295.796875 254.125 292.335938 253.542969 291.570312 C 252.964844 290.808594 252.429688 290.109375 251.96875 289.480469 C 251.503906 288.851562 251.097656 288.300781 250.769531 287.851562 C 250.441406 287.394531 250.183594 287.039062 250.007812 286.792969 C 249.835938 286.546875 249.742188 286.414062 249.742188 286.414062 L 249.863281 286.308594 C 249.863281 286.308594 249.984375 286.417969 250.203125 286.625 C 250.421875 286.828125 250.742188 287.128906 251.148438 287.515625 C 251.554688 287.90625 252.042969 288.382812 252.605469 288.921875 C 253.164062 289.46875 253.785156 290.089844 254.464844 290.769531 C 255.144531 291.445312 255.871094 292.1875 256.640625 292.976562 C 257.402344 293.765625 255.453125 291.660156 256.277344 292.53125 C 257.105469 293.394531 257.949219 294.300781 258.808594 295.214844 C 259.664062 296.144531 260.53125 297.082031 261.398438 298.023438 C 262.253906 298.964844 263.121094 299.90625 263.953125 300.847656 C 264.792969 301.78125 265.617188 302.707031 266.40625 303.605469 C 266.605469 303.832031 266.800781 304.054688 266.996094 304.277344 C 267.089844 304.382812 267.1875 304.488281 267.28125 304.597656 C 267.347656 304.667969 267.410156 304.738281 267.488281 304.800781 C 267.773438 305.0625 268.101562 305.25 268.433594 305.355469 C 268.765625 305.480469 269.09375 305.496094 269.386719 305.46875 C 269.433594 305.46875 269.449219 305.460938 269.472656 305.460938 L 269.507812 305.457031 C 269.511719 305.457031 269.519531 305.460938 269.527344 305.457031 L 269.570312 305.441406 L 269.75 305.382812 L 269.761719 305.382812 L 269.765625 305.378906 L 269.773438 305.375 L 269.78125 305.375 L 269.867188 305.339844 C 270.089844 305.261719 270.308594 305.179688 270.523438 305.09375 C 271.378906 304.761719 272.167969 304.421875 272.878906 304.125 C 273.589844 303.832031 274.214844 303.566406 274.738281 303.355469 C 275.261719 303.144531 275.675781 302.976562 275.96875 302.875 C 276.257812 302.761719 276.417969 302.710938 276.417969 302.710938 L 276.511719 302.84375 C 276.511719 302.84375 276.410156 302.980469 276.210938 303.214844 Z M 288.261719 286.410156 L 263.128906 261.976562 C 262.421875 261.285156 261.574219 260.757812 260.636719 260.433594 L 241.910156 253.902344 L 265.082031 278.578125 C 267.023438 280.648438 266.921875 283.910156 264.851562 285.851562 C 263.890625 286.75 262.640625 287.246094 261.328125 287.246094 C 259.910156 287.246094 258.542969 286.652344 257.570312 285.617188 L 234.402344 260.945312 L 239.730469 280.035156 C 240 280.988281 240.472656 281.867188 241.117188 282.613281 L 263.925781 309.234375 L 265.632812 311.207031 C 266.539062 312.253906 268.03125 312.566406 269.273438 311.953125 C 272.566406 310.335938 276.867188 307.265625 281.210938 303.273438 C 285.472656 299.195312 288.8125 295.101562 290.640625 291.921875 C 291.328125 290.722656 291.109375 289.210938 290.125 288.242188 L 288.261719 286.410156 " fill-opacity="1" fill-rule="nonzero"/></g><g clip-path="url(#294fcd2ee1)"><path fill="#1b1919" d="M 98.722656 103.675781 C 98.921875 103.429688 99.226562 103.09375 99.632812 102.6875 C 100.039062 102.277344 100.554688 101.808594 101.183594 101.304688 C 101.804688 100.796875 102.546875 100.269531 103.410156 99.757812 C 103.625 99.632812 103.847656 99.503906 104.082031 99.378906 L 104.210938 99.308594 L 104.234375 99.296875 L 104.304688 99.265625 L 104.480469 99.183594 L 104.523438 99.167969 L 104.59375 99.140625 L 104.746094 99.089844 C 104.84375 99.058594 104.949219 99.023438 105.035156 99.003906 C 105.75 98.820312 106.519531 98.851562 107.242188 99.050781 C 107.960938 99.25 108.640625 99.628906 109.207031 100.148438 C 109.351562 100.273438 109.484375 100.417969 109.613281 100.558594 C 109.710938 100.671875 109.808594 100.785156 109.910156 100.894531 C 110.097656 101.121094 110.292969 101.34375 110.488281 101.570312 C 111.277344 102.472656 112.078125 103.414062 112.894531 104.371094 C 113.714844 105.324219 114.53125 106.308594 115.351562 107.285156 C 116.167969 108.273438 116.980469 109.253906 117.785156 110.226562 C 118.460938 111.089844 120.808594 114.554688 121.390625 115.316406 C 121.972656 116.078125 122.507812 116.78125 122.96875 117.410156 C 123.433594 118.039062 123.835938 118.585938 124.167969 119.039062 C 124.496094 119.496094 124.753906 119.851562 124.929688 120.097656 C 125.101562 120.34375 125.195312 120.476562 125.195312 120.476562 L 125.070312 120.582031 C 125.070312 120.582031 124.953125 120.472656 124.734375 120.265625 C 124.511719 120.058594 124.191406 119.757812 123.785156 119.371094 C 123.382812 118.980469 122.890625 118.507812 122.332031 117.964844 C 121.769531 117.421875 121.148438 116.800781 120.46875 116.121094 C 119.789062 115.441406 119.0625 114.699219 118.292969 113.914062 C 117.53125 113.125 119.480469 115.230469 118.660156 114.359375 C 117.828125 113.496094 116.984375 112.589844 116.125 111.671875 C 115.273438 110.746094 114.40625 109.808594 113.539062 108.867188 C 112.679688 107.921875 111.816406 106.980469 110.980469 106.042969 C 110.140625 105.105469 109.316406 104.183594 108.527344 103.28125 C 108.328125 103.054688 108.132812 102.832031 107.9375 102.613281 C 107.84375 102.507812 107.75 102.398438 107.652344 102.289062 C 107.585938 102.222656 107.523438 102.148438 107.449219 102.085938 C 107.160156 101.828125 106.832031 101.640625 106.503906 101.53125 C 106.171875 101.410156 105.839844 101.390625 105.550781 101.421875 C 105.503906 101.421875 105.488281 101.425781 105.460938 101.429688 L 105.425781 101.429688 C 105.421875 101.429688 105.417969 101.429688 105.410156 101.429688 L 105.363281 101.445312 L 105.183594 101.503906 L 105.175781 101.507812 L 105.167969 101.507812 L 105.152344 101.515625 L 105.070312 101.546875 C 104.84375 101.625 104.628906 101.710938 104.414062 101.792969 C 103.554688 102.128906 102.765625 102.46875 102.054688 102.761719 C 101.347656 103.058594 100.722656 103.324219 100.199219 103.535156 C 99.671875 103.746094 99.257812 103.914062 98.964844 104.015625 C 98.675781 104.125 98.515625 104.175781 98.515625 104.175781 L 98.421875 104.042969 C 98.421875 104.042969 98.523438 103.910156 98.722656 103.675781 Z M 86.671875 120.476562 L 111.808594 144.910156 C 112.511719 145.605469 113.363281 146.128906 114.296875 146.457031 L 133.023438 152.984375 L 109.855469 128.3125 C 108.910156 127.308594 108.414062 126 108.460938 124.625 C 108.503906 123.25 109.082031 121.980469 110.082031 121.039062 C 111.042969 120.140625 112.292969 119.644531 113.609375 119.644531 C 115.023438 119.644531 116.394531 120.238281 117.363281 121.269531 L 140.53125 145.941406 L 135.203125 126.851562 C 134.933594 125.902344 134.464844 125.023438 133.816406 124.273438 L 111.007812 97.65625 L 109.300781 95.683594 C 108.398438 94.636719 106.902344 94.324219 105.660156 94.933594 C 102.367188 96.554688 98.066406 99.625 93.722656 103.613281 C 89.464844 107.695312 86.121094 111.789062 84.296875 114.96875 C 83.605469 116.164062 83.824219 117.679688 84.808594 118.644531 L 86.671875 120.476562 " fill-opacity="1" fill-rule="nonzero"/></g><g clip-path="url(#bf262d1b10)"><path fill="#1b1919" d="M 256.640625 113.914062 C 255.871094 114.699219 255.144531 115.441406 254.464844 116.121094 C 253.785156 116.800781 253.164062 117.421875 252.605469 117.964844 C 252.042969 118.507812 251.554688 118.980469 251.148438 119.371094 C 250.742188 119.757812 250.421875 120.058594 250.203125 120.265625 C 249.984375 120.472656 249.863281 120.582031 249.863281 120.582031 L 249.742188 120.476562 C 249.742188 120.476562 249.835938 120.34375 250.007812 120.097656 C 250.183594 119.851562 250.441406 119.496094 250.769531 119.039062 C 251.097656 118.585938 251.503906 118.039062 251.96875 117.410156 C 252.429688 116.78125 252.964844 116.078125 253.542969 115.316406 C 254.125 114.554688 256.476562 111.089844 257.148438 110.226562 C 257.953125 109.253906 258.769531 108.273438 259.582031 107.285156 C 260.40625 106.308594 261.21875 105.324219 262.039062 104.371094 C 262.855469 103.414062 263.65625 102.472656 264.445312 101.570312 C 264.640625 101.34375 264.835938 101.121094 265.027344 100.894531 C 265.128906 100.785156 265.226562 100.671875 265.320312 100.558594 C 265.453125 100.417969 265.582031 100.273438 265.726562 100.148438 C 266.292969 99.628906 266.972656 99.25 267.695312 99.050781 C 268.414062 98.851562 269.183594 98.820312 269.902344 99.003906 C 269.984375 99.023438 270.089844 99.058594 270.191406 99.089844 L 270.339844 99.140625 L 270.414062 99.167969 L 270.457031 99.183594 L 270.628906 99.265625 L 270.699219 99.296875 L 270.726562 99.308594 L 270.769531 99.332031 L 270.851562 99.378906 C 271.085938 99.503906 271.3125 99.632812 271.527344 99.757812 C 272.386719 100.269531 273.128906 100.796875 273.753906 101.304688 C 274.382812 101.808594 274.894531 102.277344 275.300781 102.6875 C 275.707031 103.09375 276.011719 103.429688 276.210938 103.675781 C 276.410156 103.910156 276.511719 104.042969 276.511719 104.042969 L 276.417969 104.175781 C 276.417969 104.175781 276.257812 104.125 275.96875 104.015625 C 275.675781 103.914062 275.261719 103.746094 274.738281 103.535156 C 274.214844 103.324219 273.589844 103.058594 272.878906 102.761719 C 272.167969 102.46875 271.378906 102.128906 270.523438 101.792969 C 270.308594 101.710938 270.089844 101.625 269.867188 101.546875 L 269.78125 101.515625 L 269.765625 101.507812 L 269.761719 101.507812 L 269.75 101.503906 L 269.570312 101.445312 L 269.527344 101.429688 C 269.519531 101.429688 269.511719 101.429688 269.507812 101.429688 L 269.472656 101.429688 C 269.449219 101.425781 269.433594 101.421875 269.386719 101.421875 C 269.09375 101.390625 268.765625 101.410156 268.433594 101.53125 C 268.101562 101.640625 267.773438 101.828125 267.488281 102.085938 C 267.410156 102.148438 267.347656 102.222656 267.28125 102.289062 C 267.1875 102.398438 267.089844 102.507812 266.996094 102.613281 C 266.800781 102.832031 266.605469 103.054688 266.40625 103.28125 C 265.617188 104.183594 264.792969 105.105469 263.953125 106.042969 C 263.121094 106.980469 262.253906 107.921875 261.398438 108.867188 C 260.53125 109.808594 259.664062 110.746094 258.808594 111.671875 C 257.949219 112.589844 257.105469 113.496094 256.277344 114.359375 C 255.453125 115.230469 257.402344 113.125 256.640625 113.914062 Z M 261.328125 119.644531 C 262.640625 119.644531 263.890625 120.140625 264.851562 121.039062 C 266.921875 122.980469 267.023438 126.242188 265.085938 128.3125 L 241.917969 152.984375 L 260.636719 146.457031 C 261.574219 146.128906 262.421875 145.605469 263.128906 144.910156 L 288.261719 120.476562 L 290.125 118.644531 C 291.109375 117.679688 291.328125 116.164062 290.640625 114.96875 C 288.8125 111.789062 285.472656 107.695312 281.210938 103.613281 C 276.867188 99.625 272.566406 96.554688 269.273438 94.933594 C 268.03125 94.324219 266.539062 94.636719 265.632812 95.683594 L 263.925781 97.65625 L 241.117188 124.273438 C 240.472656 125.023438 240 125.902344 239.730469 126.851562 L 234.402344 145.945312 L 257.570312 121.269531 C 258.542969 120.238281 259.910156 119.644531 261.328125 119.644531 " fill-opacity="1" fill-rule="nonzero"/></g><g clip-path="url(#8a0633ba68)"><path fill="#1b1919" d="M 118.292969 292.976562 C 119.0625 292.1875 119.789062 291.445312 120.46875 290.769531 C 121.148438 290.089844 121.769531 289.46875 122.332031 288.921875 C 122.890625 288.382812 123.382812 287.90625 123.785156 287.515625 C 124.191406 287.128906 124.511719 286.828125 124.734375 286.625 C 124.953125 286.417969 125.070312 286.308594 125.070312 286.308594 L 125.195312 286.414062 C 125.195312 286.414062 125.101562 286.546875 124.929688 286.792969 C 124.753906 287.039062 124.496094 287.394531 124.167969 287.851562 C 123.835938 288.300781 123.433594 288.851562 122.96875 289.480469 C 122.507812 290.109375 121.972656 290.808594 121.390625 291.570312 C 120.808594 292.335938 118.460938 295.796875 117.785156 296.664062 C 116.980469 297.636719 116.167969 298.617188 115.351562 299.601562 C 114.53125 300.578125 113.714844 301.5625 112.894531 302.515625 C 112.078125 303.472656 111.277344 304.417969 110.488281 305.320312 C 110.292969 305.546875 110.097656 305.769531 109.910156 305.992188 C 109.808594 306.101562 109.710938 306.214844 109.613281 306.328125 C 109.484375 306.472656 109.351562 306.617188 109.207031 306.738281 C 108.640625 307.261719 107.960938 307.636719 107.242188 307.835938 C 106.519531 308.035156 105.75 308.070312 105.035156 307.882812 C 104.949219 307.863281 104.84375 307.832031 104.746094 307.796875 L 104.523438 307.722656 L 104.480469 307.703125 L 104.304688 307.621094 L 104.234375 307.589844 L 104.210938 307.582031 L 104.082031 307.511719 C 103.847656 307.382812 103.625 307.257812 103.410156 307.132812 C 102.546875 306.617188 101.804688 306.09375 101.183594 305.585938 C 100.554688 305.078125 100.039062 304.605469 99.632812 304.199219 C 99.226562 303.792969 98.921875 303.457031 98.722656 303.214844 C 98.523438 302.980469 98.421875 302.84375 98.421875 302.84375 L 98.515625 302.710938 C 98.515625 302.710938 98.675781 302.761719 98.964844 302.875 C 99.257812 302.976562 99.671875 303.144531 100.199219 303.355469 C 100.722656 303.566406 101.347656 303.832031 102.054688 304.125 C 102.765625 304.421875 103.554688 304.761719 104.414062 305.09375 C 104.628906 305.179688 104.84375 305.261719 105.070312 305.339844 L 105.152344 305.375 L 105.160156 305.375 L 105.175781 305.382812 L 105.183594 305.382812 L 105.363281 305.441406 L 105.410156 305.457031 C 105.417969 305.460938 105.421875 305.457031 105.425781 305.457031 L 105.460938 305.460938 C 105.488281 305.460938 105.503906 305.46875 105.550781 305.46875 C 105.839844 305.496094 106.171875 305.480469 106.503906 305.355469 C 106.832031 305.25 107.160156 305.0625 107.449219 304.800781 C 107.523438 304.738281 107.585938 304.667969 107.652344 304.597656 C 107.75 304.488281 107.84375 304.382812 107.9375 304.277344 C 108.132812 304.054688 108.328125 303.832031 108.527344 303.605469 C 109.316406 302.707031 110.140625 301.78125 110.980469 300.847656 C 111.816406 299.90625 112.679688 298.964844 113.539062 298.023438 C 114.40625 297.082031 115.273438 296.144531 116.125 295.214844 C 116.984375 294.300781 117.828125 293.394531 118.660156 292.53125 C 119.480469 291.660156 117.53125 293.765625 118.292969 292.976562 Z M 113.609375 287.246094 C 112.292969 287.246094 111.042969 286.75 110.082031 285.851562 C 108.011719 283.910156 107.910156 280.648438 109.855469 278.578125 L 133.023438 253.902344 L 114.296875 260.433594 C 113.363281 260.757812 112.511719 261.285156 111.808594 261.976562 L 86.671875 286.410156 L 84.808594 288.242188 C 83.824219 289.210938 83.605469 290.722656 84.296875 291.921875 C 86.121094 295.101562 89.464844 299.195312 93.722656 303.273438 C 98.066406 307.265625 102.367188 310.335938 105.660156 311.953125 C 106.902344 312.566406 108.398438 312.253906 109.300781 311.207031 L 111.007812 309.234375 L 133.816406 282.613281 C 134.464844 281.867188 134.933594 280.988281 135.203125 280.035156 L 140.53125 260.945312 L 117.363281 285.617188 C 116.394531 286.652344 115.023438 287.246094 113.609375 287.246094 " fill-opacity="1" fill-rule="nonzero"/></g><path fill="#1b1919" d="M 209.675781 260.253906 C 209.503906 260.652344 209.335938 261.050781 209.160156 261.445312 C 203.050781 275.242188 195.144531 283.152344 187.46875 283.152344 C 179.789062 283.152344 171.882812 275.242188 165.777344 261.445312 C 165.601562 261.050781 165.429688 260.652344 165.257812 260.253906 C 163.742188 256.691406 166.382812 252.738281 170.257812 252.738281 L 204.679688 252.738281 C 208.550781 252.738281 211.191406 256.691406 209.675781 260.253906 Z M 208.480469 243.066406 L 166.453125 243.066406 C 163.929688 243.066406 161.632812 241.945312 160.070312 240.140625 L 150.382812 250.457031 C 150.597656 251.226562 150.820312 251.984375 151.046875 252.738281 C 152.445312 257.382812 154.050781 261.769531 155.847656 265.832031 C 163.890625 283.996094 175.121094 293.996094 187.46875 293.996094 C 199.816406 293.996094 211.046875 283.996094 219.085938 265.832031 C 220.886719 261.769531 222.492188 257.382812 223.890625 252.738281 C 224.113281 251.984375 224.335938 251.226562 224.554688 250.457031 L 214.863281 240.136719 C 213.304688 241.945312 211.007812 243.066406 208.480469 243.066406 " fill-opacity="1" fill-rule="nonzero"/><path fill="#1b1919" d="M 188.542969 198.605469 L 188.1875 198.605469 L 188.367188 198.792969 L 187.46875 199.753906 L 186.570312 198.792969 L 186.746094 198.605469 L 186.390625 198.605469 L 185.667969 197.835938 L 173.753906 185.148438 L 166.234375 177.140625 L 158.652344 169.0625 C 158.828125 168.632812 159.039062 168.21875 159.285156 167.824219 C 159.519531 167.445312 159.785156 167.085938 160.070312 166.75 C 161.632812 164.941406 163.929688 163.824219 166.453125 163.824219 L 208.480469 163.824219 C 211.007812 163.824219 213.304688 164.941406 214.863281 166.75 C 215.152344 167.085938 215.417969 167.445312 215.648438 167.824219 C 215.894531 168.21875 216.109375 168.632812 216.285156 169.066406 L 189.265625 197.835938 Z M 165.257812 146.636719 C 165.429688 146.234375 165.601562 145.835938 165.777344 145.441406 C 171.882812 131.648438 179.789062 123.738281 187.46875 123.738281 C 195.144531 123.738281 203.050781 131.648438 209.160156 145.441406 C 209.335938 145.835938 209.503906 146.234375 209.675781 146.636719 C 211.191406 150.199219 208.550781 154.148438 204.679688 154.148438 L 170.257812 154.148438 C 166.382812 154.148438 163.742188 150.199219 165.257812 146.636719 Z M 261.328125 284.625 C 261.949219 284.625 262.570312 284.398438 263.058594 283.941406 C 264.074219 282.984375 264.128906 281.386719 263.171875 280.371094 L 226.742188 241.574219 C 226.855469 241.058594 226.964844 240.535156 227.066406 240.011719 L 227.066406 240.007812 C 227.175781 239.484375 227.28125 238.957031 227.378906 238.429688 C 229.207031 228.957031 230.285156 218.78125 230.53125 208.285156 C 230.570312 206.675781 230.589844 205.0625 230.589844 203.445312 C 230.589844 201.828125 230.570312 200.214844 230.53125 198.605469 C 230.285156 188.105469 229.207031 177.933594 227.378906 168.460938 L 218.042969 178.40625 C 218.695312 183.074219 219.164062 187.894531 219.4375 192.820312 C 219.613281 195.960938 217.128906 198.605469 213.984375 198.605469 L 199.074219 198.605469 L 194.53125 203.445312 L 199.074219 208.285156 L 213.984375 208.285156 C 217.128906 208.285156 219.613281 210.929688 219.4375 214.066406 C 219.164062 218.992188 218.695312 223.8125 218.042969 228.480469 C 217.964844 229.035156 217.882812 229.589844 217.800781 230.136719 C 217.71875 230.6875 217.632812 231.238281 217.542969 231.78125 L 195.476562 208.285156 L 192.734375 205.359375 L 191.832031 204.402344 L 190.933594 203.445312 L 191.832031 202.488281 L 192.734375 201.53125 L 195.476562 198.605469 L 217.542969 175.109375 L 226.742188 165.3125 L 263.171875 126.519531 C 264.128906 125.5 264.074219 123.902344 263.058594 122.949219 C 262.570312 122.492188 261.949219 122.265625 261.328125 122.265625 C 260.652344 122.265625 259.980469 122.53125 259.484375 123.0625 L 225.351562 159.40625 C 225.226562 158.90625 225.09375 158.40625 224.960938 157.910156 C 224.824219 157.414062 224.691406 156.917969 224.554688 156.429688 C 224.335938 155.664062 224.113281 154.898438 223.890625 154.148438 C 222.492188 149.503906 220.886719 145.121094 219.085938 141.054688 C 211.046875 122.890625 199.816406 112.890625 187.46875 112.890625 C 175.121094 112.890625 163.890625 122.890625 155.847656 141.054688 C 154.050781 145.121094 152.445312 149.503906 151.046875 154.148438 C 150.820312 154.898438 150.597656 155.664062 150.382812 156.429688 C 150.242188 156.917969 150.109375 157.414062 149.976562 157.910156 C 149.839844 158.40625 149.710938 158.90625 149.582031 159.40625 L 115.453125 123.0625 C 114.953125 122.53125 114.28125 122.265625 113.609375 122.265625 C 112.988281 122.265625 112.367188 122.492188 111.878906 122.949219 C 110.859375 123.902344 110.808594 125.5 111.761719 126.519531 L 148.191406 165.3125 L 157.390625 175.109375 L 162.546875 180.601562 L 170.066406 188.605469 L 179.457031 198.605469 L 182.203125 201.53125 L 183.101562 202.488281 L 183.996094 203.445312 L 187.46875 207.136719 L 188.367188 208.09375 L 188.1875 208.285156 L 188.542969 208.285156 L 189.265625 209.050781 L 216.285156 237.824219 L 225.351562 247.480469 L 259.484375 283.828125 C 259.980469 284.359375 260.652344 284.625 261.328125 284.625 " fill-opacity="1" fill-rule="nonzero"/><path fill="#1b1919" d="M 166.234375 229.75 L 173.753906 221.742188 L 185.667969 209.050781 L 184.949219 208.285156 L 182.203125 205.359375 L 179.457031 208.285156 L 170.066406 218.28125 L 162.546875 226.289062 L 157.390625 231.78125 C 157.300781 231.238281 157.214844 230.691406 157.136719 230.140625 C 157.050781 229.589844 156.972656 229.035156 156.894531 228.480469 C 156.242188 223.8125 155.769531 218.992188 155.496094 214.066406 C 155.320312 210.929688 157.808594 208.285156 160.949219 208.285156 L 175.863281 208.285156 L 180.40625 203.445312 L 175.863281 198.605469 L 160.949219 198.605469 C 157.808594 198.605469 155.320312 195.960938 155.496094 192.820312 C 155.769531 187.894531 156.242188 183.074219 156.894531 178.40625 L 147.550781 168.457031 C 145.726562 177.929688 144.652344 188.105469 144.402344 198.605469 C 144.363281 200.214844 144.34375 201.828125 144.34375 203.445312 C 144.34375 205.0625 144.363281 206.675781 144.402344 208.285156 C 144.652344 218.78125 145.726562 228.957031 147.550781 238.429688 C 147.65625 238.960938 147.757812 239.488281 147.863281 240.011719 C 147.972656 240.535156 148.082031 241.058594 148.191406 241.574219 L 111.761719 280.371094 C 110.808594 281.386719 110.859375 282.984375 111.878906 283.941406 C 112.367188 284.398438 112.988281 284.625 113.609375 284.625 C 114.28125 284.625 114.953125 284.359375 115.453125 283.828125 L 149.582031 247.480469 L 158.652344 237.824219 L 166.234375 229.75 " fill-opacity="1" fill-rule="nonzero"/></svg>