<svg xmlns="http://www.w3.org/2000/svg" xmlns:xlink="http://www.w3.org/1999/xlink" width="500" zoomAndPan="magnify" viewBox="0 0 375 374.999991" height="500" preserveAspectRatio="xMidYMid meet" version="1.0"><defs><g/><clipPath id="771c155807"><path d="M 30.800781 187.5 L 47.328125 187.5 L 47.328125 204.027344 L 30.800781 204.027344 Z M 30.800781 187.5 " clip-rule="nonzero"/></clipPath><clipPath id="79f301157f"><path d="M 39.066406 187.5 C 34.5 187.5 30.800781 191.199219 30.800781 195.761719 C 30.800781 200.328125 34.5 204.027344 39.066406 204.027344 C 43.628906 204.027344 47.328125 200.328125 47.328125 195.761719 C 47.328125 191.199219 43.628906 187.5 39.066406 187.5 Z M 39.066406 187.5 " clip-rule="nonzero"/></clipPath><clipPath id="4bca269eec"><path d="M 259.253906 187.5 L 267.714844 187.5 L 267.714844 195.960938 L 259.253906 195.960938 Z M 259.253906 187.5 " clip-rule="nonzero"/></clipPath><clipPath id="4f8cd1dcee"><path d="M 263.484375 187.5 C 261.148438 187.5 259.253906 189.394531 259.253906 191.730469 C 259.253906 194.066406 261.148438 195.960938 263.484375 195.960938 C 265.820312 195.960938 267.714844 194.066406 267.714844 191.730469 C 267.714844 189.394531 265.820312 187.5 263.484375 187.5 Z M 263.484375 187.5 " clip-rule="nonzero"/></clipPath><clipPath id="45aad7cf1f"><path d="M 79.035156 79.035156 L 295.785156 79.035156 L 295.785156 295.785156 L 79.035156 295.785156 Z M 79.035156 79.035156 " clip-rule="nonzero"/></clipPath></defs><path fill="#bc1823" d="M 187.5 0 C 84.050781 0 0 84.050781 0 187.5 C 0 290.949219 84.050781 375 187.5 375 C 290.949219 375 375 290.949219 375 187.5 C 375 84.050781 290.949219 0 187.5 0 Z M 187.5 8.152344 C 286.65625 8.152344 366.847656 88.34375 366.847656 187.5 C 366.847656 286.65625 286.65625 366.847656 187.5 366.847656 C 88.34375 366.847656 8.152344 286.65625 8.152344 187.5 C 8.152344 88.34375 88.34375 8.152344 187.5 8.152344 Z M 187.5 8.152344 " fill-opacity="1" fill-rule="nonzero"/><g clip-path="url(#771c155807)"><g clip-path="url(#79f301157f)"><path fill="#022135" d="M 30.800781 187.5 L 47.328125 187.5 L 47.328125 204.027344 L 30.800781 204.027344 Z M 30.800781 187.5 " fill-opacity="1" fill-rule="nonzero"/></g></g><g clip-path="url(#4bca269eec)"><g clip-path="url(#4f8cd1dcee)"><path fill="#022135" d="M 259.253906 187.5 L 267.714844 187.5 L 267.714844 195.960938 L 259.253906 195.960938 Z M 259.253906 187.5 " fill-opacity="1" fill-rule="nonzero"/></g></g><g fill="#022135" fill-opacity="1"><g transform="translate(65.740815, 141.259164)"><g><path d="M 7.984375 -13.96875 C 5.960938 -10.070312 3.328125 -7.578125 0.078125 -6.484375 C -3.160156 -5.390625 -6.6875 -5.832031 -10.5 -7.8125 L -24.515625 -15.09375 L -20.046875 -23.6875 L -6.296875 -16.546875 C -4.421875 -15.566406 -2.882812 -15.191406 -1.6875 -15.421875 C -0.5 -15.648438 0.421875 -16.394531 1.078125 -17.65625 C 1.734375 -18.914062 1.8125 -20.097656 1.3125 -21.203125 C 0.8125 -22.316406 -0.375 -23.363281 -2.25 -24.34375 L -16 -31.484375 L -11.625 -39.921875 L 2.390625 -32.640625 C 6.203125 -30.660156 8.59375 -28.03125 9.5625 -24.75 C 10.539062 -21.476562 10.015625 -17.882812 7.984375 -13.96875 Z M 7.984375 -13.96875 "/></g></g></g><g fill="#022135" fill-opacity="1"><g transform="translate(83.408427, 108.665848)"><g><path d="M 0.609375 -42 L 21.28125 -22.0625 L 15.75 -16.328125 L -1.21875 -17.546875 L 8.171875 -8.484375 L 1.625 -1.6875 L -19.046875 -21.625 L -13.53125 -27.34375 L 3.453125 -26.140625 L -5.9375 -35.203125 Z M 0.609375 -42 "/></g></g></g><g fill="#022135" fill-opacity="1"><g transform="translate(111.279124, 82.17792)"><g><path d="M -13.71875 -25.328125 L -5.625 -30.609375 L 10.0625 -6.5625 L 1.96875 -1.28125 Z M -13.71875 -25.328125 "/></g></g></g><g fill="#022135" fill-opacity="1"><g transform="translate(127.868306, 70.91563)"><g><path d="M 20.96875 -38.421875 L 19.578125 -7.265625 L 10.65625 -3.953125 L -10.734375 -26.65625 L -0.96875 -30.28125 L 11.3125 -16.921875 L 12.046875 -35.109375 Z M 20.96875 -38.421875 "/></g></g></g><g fill="#022135" fill-opacity="1"><g transform="translate(163.172659, 58.875931)"><g><path d="M 25.5 -9.515625 L 26.125 -2.25 L 2.328125 -0.203125 L -0.140625 -28.8125 L 23.125 -30.8125 L 23.75 -23.546875 L 9.96875 -22.359375 L 10.265625 -19 L 22.359375 -20.046875 L 22.953125 -13.09375 L 10.859375 -12.046875 L 11.1875 -8.28125 Z M 25.5 -9.515625 "/></g></g></g><g fill="#022135" fill-opacity="1"><g transform="translate(195.87386, 56.550597)"><g><path d="M 15.6875 -4.515625 L 13.109375 -4.984375 L 11.828125 2.125 L 2.3125 0.421875 L 7.390625 -27.84375 L 21 -25.40625 C 23.601562 -24.9375 25.796875 -24.097656 27.578125 -22.890625 C 29.367188 -21.679688 30.640625 -20.175781 31.390625 -18.375 C 32.148438 -16.570312 32.332031 -14.59375 31.9375 -12.4375 C 31.582031 -10.414062 30.8125 -8.734375 29.625 -7.390625 C 28.445312 -6.046875 26.914062 -5.082031 25.03125 -4.5 L 29.40625 5.28125 L 19.21875 3.453125 Z M 22.328125 -14.171875 C 22.515625 -15.210938 22.335938 -16.082031 21.796875 -16.78125 C 21.253906 -17.476562 20.335938 -17.941406 19.046875 -18.171875 L 15.578125 -18.796875 L 14.390625 -12.171875 L 17.859375 -11.546875 C 19.148438 -11.316406 20.171875 -11.4375 20.921875 -11.90625 C 21.671875 -12.375 22.140625 -13.128906 22.328125 -14.171875 Z M 22.328125 -14.171875 "/></g></g></g><g fill="#022135" fill-opacity="1"><g transform="translate(230.851654, 63.760448)"><g><path d="M 11.53125 6.140625 C 9.375 5.128906 7.390625 3.90625 5.578125 2.46875 C 3.765625 1.03125 2.390625 -0.410156 1.453125 -1.859375 L 7.296875 -6.921875 C 8.179688 -5.617188 9.289062 -4.390625 10.625 -3.234375 C 11.957031 -2.078125 13.328125 -1.171875 14.734375 -0.515625 C 15.953125 0.0546875 16.875 0.347656 17.5 0.359375 C 18.132812 0.367188 18.5625 0.140625 18.78125 -0.328125 C 19.039062 -0.867188 18.894531 -1.4375 18.34375 -2.03125 C 17.789062 -2.632812 16.804688 -3.460938 15.390625 -4.515625 C 13.585938 -5.867188 12.128906 -7.101562 11.015625 -8.21875 C 9.910156 -9.332031 9.117188 -10.671875 8.640625 -12.234375 C 8.171875 -13.796875 8.378906 -15.515625 9.265625 -17.390625 C 10.035156 -19.035156 11.191406 -20.3125 12.734375 -21.21875 C 14.273438 -22.125 16.132812 -22.535156 18.3125 -22.453125 C 20.488281 -22.367188 22.878906 -21.710938 25.484375 -20.484375 C 27.265625 -19.648438 28.925781 -18.632812 30.46875 -17.4375 C 32.007812 -16.25 33.257812 -14.976562 34.21875 -13.625 L 28.609375 -8.5 C 26.660156 -10.988281 24.550781 -12.765625 22.28125 -13.828125 C 20.03125 -14.890625 18.644531 -14.875 18.125 -13.78125 C 17.882812 -13.269531 18.035156 -12.726562 18.578125 -12.15625 C 19.128906 -11.582031 20.101562 -10.78125 21.5 -9.75 C 23.300781 -8.457031 24.765625 -7.25 25.890625 -6.125 C 27.023438 -5 27.835938 -3.65625 28.328125 -2.09375 C 28.828125 -0.53125 28.640625 1.1875 27.765625 3.0625 C 26.992188 4.695312 25.835938 5.960938 24.296875 6.859375 C 22.753906 7.753906 20.890625 8.160156 18.703125 8.078125 C 16.523438 8.003906 14.132812 7.359375 11.53125 6.140625 Z M 11.53125 6.140625 "/></g></g></g><g fill="#022135" fill-opacity="1"><g transform="translate(259.902793, 78.759671)"><g><path d="M 19.09375 -21.578125 L 26.828125 -15.78125 L 9.609375 7.203125 L 1.875 1.40625 Z M 19.09375 -21.578125 "/></g></g></g><g fill="#022135" fill-opacity="1"><g transform="translate(276.099199, 90.853752)"><g><path d="M 21.578125 -7.640625 L 16 -13.9375 L 21.625 -18.90625 L 39.1875 0.953125 L 33.5625 5.921875 L 27.984375 -0.375 L 12.09375 13.6875 L 5.6875 6.421875 Z M 21.578125 -7.640625 "/></g></g></g><g fill="#022135" fill-opacity="1"><g transform="translate(296.958028, 115.221684)"><g><path d="M 18.0625 12.609375 L 8.765625 17.3125 L 4.390625 8.671875 L 13.796875 3.90625 L 25.125 -13.953125 L 29.734375 -4.84375 L 23.515625 4.875 L 35.0625 5.671875 L 39.28125 14.015625 Z M 18.0625 12.609375 "/></g></g></g><g fill="#bc1823" fill-opacity="1"><g transform="translate(49.338911, 256.839174)"><g><path d="M 4.03125 7.71875 C 3.226562 6.34375 2.597656 4.921875 2.140625 3.453125 C 1.679688 1.984375 1.46875 0.675781 1.5 -0.46875 L 6.609375 -1.046875 C 6.609375 0.00390625 6.753906 1.097656 7.046875 2.234375 C 7.347656 3.367188 7.765625 4.382812 8.296875 5.28125 C 8.742188 6.050781 9.140625 6.554688 9.484375 6.796875 C 9.828125 7.035156 10.148438 7.066406 10.453125 6.890625 C 10.796875 6.679688 10.929688 6.3125 10.859375 5.78125 C 10.785156 5.25 10.554688 4.429688 10.171875 3.328125 C 9.679688 1.890625 9.335938 0.660156 9.140625 -0.359375 C 8.953125 -1.390625 9.023438 -2.425781 9.359375 -3.46875 C 9.691406 -4.507812 10.453125 -5.378906 11.640625 -6.078125 C 12.679688 -6.691406 13.796875 -6.957031 14.984375 -6.875 C 16.179688 -6.789062 17.359375 -6.3125 18.515625 -5.4375 C 19.679688 -4.570312 20.753906 -3.3125 21.734375 -1.65625 C 22.390625 -0.53125 22.914062 0.648438 23.3125 1.890625 C 23.71875 3.128906 23.929688 4.300781 23.953125 5.40625 L 18.921875 6.09375 C 18.796875 4 18.304688 2.226562 17.453125 0.78125 C 16.617188 -0.644531 15.851562 -1.15625 15.15625 -0.75 C 14.820312 -0.550781 14.695312 -0.195312 14.78125 0.3125 C 14.875 0.832031 15.113281 1.632812 15.5 2.71875 C 16 4.125 16.347656 5.347656 16.546875 6.390625 C 16.742188 7.429688 16.6875 8.472656 16.375 9.515625 C 16.0625 10.566406 15.304688 11.441406 14.109375 12.140625 C 13.078125 12.742188 11.96875 13 10.78125 12.90625 C 9.601562 12.820312 8.425781 12.347656 7.25 11.484375 C 6.070312 10.617188 5 9.363281 4.03125 7.71875 Z M 4.03125 7.71875 "/></g></g></g><g fill="#bc1823" fill-opacity="1"><g transform="translate(65.85305, 282.785061)"><g><path d="M 7.546875 8.8125 C 6.140625 7.289062 5.195312 5.632812 4.71875 3.84375 C 4.238281 2.0625 4.242188 0.316406 4.734375 -1.390625 C 5.222656 -3.109375 6.171875 -4.617188 7.578125 -5.921875 C 8.972656 -7.210938 10.546875 -8.035156 12.296875 -8.390625 C 14.046875 -8.742188 15.789062 -8.609375 17.53125 -7.984375 C 19.269531 -7.367188 20.84375 -6.300781 22.25 -4.78125 C 23.644531 -3.269531 24.585938 -1.625 25.078125 0.15625 C 25.566406 1.945312 25.5625 3.703125 25.0625 5.421875 C 24.570312 7.140625 23.628906 8.644531 22.234375 9.9375 C 20.828125 11.238281 19.25 12.0625 17.5 12.40625 C 15.757812 12.757812 14.015625 12.625 12.265625 12 C 10.515625 11.382812 8.941406 10.320312 7.546875 8.8125 Z M 11.390625 5.265625 C 11.929688 5.847656 12.5625 6.242188 13.28125 6.453125 C 14.007812 6.660156 14.769531 6.660156 15.5625 6.453125 C 16.351562 6.253906 17.101562 5.828125 17.8125 5.171875 C 18.519531 4.515625 19.007812 3.796875 19.28125 3.015625 C 19.550781 2.242188 19.609375 1.488281 19.453125 0.75 C 19.304688 0.0078125 18.960938 -0.648438 18.421875 -1.234375 C 17.867188 -1.828125 17.226562 -2.226562 16.5 -2.4375 C 15.78125 -2.644531 15.023438 -2.644531 14.234375 -2.4375 C 13.441406 -2.226562 12.691406 -1.796875 11.984375 -1.140625 C 11.273438 -0.484375 10.785156 0.226562 10.515625 1 C 10.242188 1.769531 10.179688 2.523438 10.328125 3.265625 C 10.484375 4.003906 10.835938 4.671875 11.390625 5.265625 Z M 11.390625 5.265625 "/></g></g></g><g fill="#bc1823" fill-opacity="1"><g transform="translate(91.450036, 308.12066)"><g><path d="M 9.1875 6.84375 C 7.519531 5.695312 6.257812 4.316406 5.40625 2.703125 C 4.550781 1.085938 4.175781 -0.601562 4.28125 -2.375 C 4.382812 -4.15625 4.984375 -5.84375 6.078125 -7.4375 C 7.160156 -9.03125 8.515625 -10.191406 10.140625 -10.921875 C 11.765625 -11.660156 13.484375 -11.921875 15.296875 -11.703125 C 17.109375 -11.484375 18.847656 -10.800781 20.515625 -9.65625 C 22.054688 -8.601562 23.242188 -7.394531 24.078125 -6.03125 C 24.910156 -4.664062 25.363281 -3.203125 25.4375 -1.640625 L 20.015625 -0.953125 C 19.890625 -2.859375 19.164062 -4.265625 17.84375 -5.171875 C 16.726562 -5.929688 15.585938 -6.1875 14.421875 -5.9375 C 13.253906 -5.695312 12.257812 -4.972656 11.4375 -3.765625 C 10.613281 -2.566406 10.289062 -1.375 10.46875 -0.1875 C 10.65625 1 11.304688 1.972656 12.421875 2.734375 C 13.742188 3.640625 15.320312 3.804688 17.15625 3.234375 L 18.453125 8.546875 C 16.960938 9.023438 15.429688 9.125 13.859375 8.84375 C 12.285156 8.5625 10.726562 7.894531 9.1875 6.84375 Z M 9.1875 6.84375 "/></g></g></g><g fill="#bc1823" fill-opacity="1"><g transform="translate(119.489957, 325.70565)"><g><path d="M 10.4375 4.734375 C 8.5625 3.972656 7.035156 2.890625 5.859375 1.484375 C 4.679688 0.0859375 3.953125 -1.484375 3.671875 -3.234375 C 3.390625 -4.992188 3.617188 -6.769531 4.359375 -8.5625 C 5.085938 -10.351562 6.164062 -11.773438 7.59375 -12.828125 C 9.019531 -13.890625 10.644531 -14.503906 12.46875 -14.671875 C 14.289062 -14.847656 16.140625 -14.554688 18.015625 -13.796875 C 19.734375 -13.085938 21.140625 -12.148438 22.234375 -10.984375 C 23.335938 -9.828125 24.097656 -8.5 24.515625 -7 L 19.359375 -5.171875 C 18.835938 -7.015625 17.832031 -8.238281 16.34375 -8.84375 C 15.101562 -9.351562 13.9375 -9.359375 12.84375 -8.859375 C 11.75 -8.367188 10.925781 -7.445312 10.375 -6.09375 C 9.820312 -4.75 9.765625 -3.519531 10.203125 -2.40625 C 10.640625 -1.289062 11.476562 -0.476562 12.71875 0.03125 C 14.207031 0.632812 15.78125 0.460938 17.4375 -0.484375 L 19.84375 4.4375 C 18.488281 5.226562 17.007812 5.648438 15.40625 5.703125 C 13.8125 5.765625 12.15625 5.441406 10.4375 4.734375 Z M 10.4375 4.734375 "/></g></g></g><g fill="#bc1823" fill-opacity="1"><g transform="translate(150.575139, 336.877444)"><g><path d="M 18.0625 -1.65625 L 17.1875 3.140625 L 1.53125 0.28125 L 4.96875 -18.546875 L 20.28125 -15.75 L 19.40625 -10.96875 L 10.34375 -12.625 L 9.953125 -10.40625 L 17.90625 -8.953125 L 17.0625 -4.390625 L 9.109375 -5.84375 L 8.65625 -3.375 Z M 18.0625 -1.65625 "/></g></g></g><g fill="#bc1823" fill-opacity="1"><g transform="translate(181.368525, 341.276418)"><g><path d="M 9.640625 -5.0625 L 7.890625 -5.015625 L 8.015625 -0.203125 L 1.5625 -0.046875 L 1.0625 -19.1875 L 10.28125 -19.421875 C 12.039062 -19.460938 13.582031 -19.207031 14.90625 -18.65625 C 16.238281 -18.113281 17.273438 -17.300781 18.015625 -16.21875 C 18.765625 -15.144531 19.15625 -13.878906 19.1875 -12.421875 C 19.226562 -11.054688 18.953125 -9.851562 18.359375 -8.8125 C 17.765625 -7.78125 16.890625 -6.945312 15.734375 -6.3125 L 19.90625 -0.515625 L 13.015625 -0.34375 Z M 12.671875 -12.265625 C 12.648438 -12.972656 12.414062 -13.515625 11.96875 -13.890625 C 11.519531 -14.273438 10.859375 -14.457031 9.984375 -14.4375 L 7.640625 -14.375 L 7.765625 -9.890625 L 10.109375 -9.953125 C 10.984375 -9.972656 11.632812 -10.1875 12.0625 -10.59375 C 12.488281 -11 12.691406 -11.554688 12.671875 -12.265625 Z M 12.671875 -12.265625 "/></g></g></g><g fill="#bc1823" fill-opacity="1"><g transform="translate(214.011129, 338.838663)"><g/></g></g><g fill="#bc1823" fill-opacity="1"><g transform="translate(234.024403, 334.19059)"><g><path d="M 0.34375 -15.25 L -4.890625 -13.25 L -6.671875 -17.9375 L 9.84375 -24.203125 L 11.625 -19.515625 L 6.390625 -17.53125 L 11.390625 -4.3125 L 5.34375 -2.03125 Z M 0.34375 -15.25 "/></g></g></g><g fill="#bc1823" fill-opacity="1"><g transform="translate(262.096609, 322.251735)"><g><path d="M 12.203125 -13.40625 L 14.796875 -9.28125 L 1.328125 -0.828125 L -8.84375 -17.046875 L 4.328125 -25.328125 L 6.90625 -21.203125 L -0.890625 -16.296875 L 0.3125 -14.390625 L 7.15625 -18.6875 L 9.625 -14.765625 L 2.78125 -10.46875 L 4.109375 -8.328125 Z M 12.203125 -13.40625 "/></g></g></g><g fill="#bc1823" fill-opacity="1"><g transform="translate(287.857097, 304.714166)"><g><path d="M 8.125 -12.59375 L 2.921875 -7.515625 L 4.328125 -4.21875 L -0.375 0.359375 L -7.75 -19.1875 L -3.203125 -23.609375 L 16.15625 -15.75 L 11.375 -11.09375 Z M 3.609375 -14.671875 L -1.09375 -16.8125 L 0.9375 -12.078125 Z M 3.609375 -14.671875 "/></g></g></g><g fill="#bc1823" fill-opacity="1"><g transform="translate(312.007479, 279.322061)"><g><path d="M 9.890625 -15.8125 L 2.46875 -20.390625 L 6.203125 -13.140625 L 4.6875 -10.734375 L -3.203125 -10.78125 L 3.9375 -6.3125 L 0.828125 -1.328125 L -15.40625 -11.484375 L -12.59375 -15.96875 L -0.640625 -15.828125 L -6.0625 -26.40625 L -3.265625 -30.90625 L 13 -20.796875 Z M 9.890625 -15.8125 "/></g></g></g><g clip-path="url(#45aad7cf1f)"><path fill="#022135" d="M 187.511719 79.035156 C 217.457031 79.035156 244.574219 91.179688 264.207031 110.8125 C 283.835938 130.441406 295.980469 157.558594 295.980469 187.511719 C 295.980469 217.457031 283.835938 244.574219 264.207031 264.207031 C 244.574219 283.84375 217.457031 295.980469 187.511719 295.980469 C 157.558594 295.980469 130.441406 283.84375 110.8125 264.207031 C 91.179688 244.574219 79.035156 217.457031 79.035156 187.511719 C 79.035156 157.558594 91.179688 130.441406 110.8125 110.8125 C 130.441406 91.179688 157.558594 79.035156 187.511719 79.035156 Z M 275.417969 137.113281 C 274.707031 137.089844 274 137.066406 273.289062 137.039062 C 269.421875 131.902344 264.199219 127.789062 258.777344 123.820312 C 263.308594 129.078125 267.328125 134.546875 269.921875 140.582031 L 270.914062 182.410156 L 283.640625 219.59375 C 278.867188 233.878906 271.007812 246.75 260.847656 257.414062 L 237.773438 264.726562 L 215.226562 284.988281 C 206.414062 287.492188 197.121094 288.828125 187.511719 288.828125 C 178.703125 288.828125 170.160156 287.699219 162.011719 285.59375 L 148.898438 262.175781 C 136.511719 256.316406 124.117188 250.445312 111.722656 244.585938 C 108.070312 238.566406 105.519531 232.003906 103.464844 225.1875 C 103.445312 232.144531 104.558594 239.097656 107.339844 246.054688 C 107.132812 246.917969 106.921875 247.777344 106.714844 248.644531 C 93.859375 231.683594 86.222656 210.550781 86.191406 187.640625 C 89.6875 189.578125 93.175781 191.523438 96.671875 193.460938 C 97.777344 200.671875 99.824219 207.878906 102.128906 215.085938 C 101.484375 207.769531 101.113281 200.460938 102.066406 193.144531 L 123.40625 174.765625 C 123.292969 160.746094 123.179688 146.734375 123.066406 132.722656 C 126.5625 126.859375 131.765625 121.855469 137.597656 117.15625 C 131.207031 120.609375 125.136719 124.570312 119.917969 129.964844 L 104.113281 129.964844 C 107.609375 124.914062 111.542969 120.195312 115.867188 115.871094 C 130.542969 101.199219 149.695312 91.003906 171.097656 87.515625 C 167.882812 92.085938 164.671875 96.660156 161.453125 101.230469 C 156.167969 104.421875 151.042969 108.085938 146.148438 112.4375 C 151.832031 109.753906 157.515625 107.695312 163.199219 106.558594 L 202.9375 125.742188 C 213.742188 120.335938 224.550781 114.929688 235.351562 109.519531 C 241.824219 111.390625 246.488281 114.355469 251.007812 117.402344 C 247.714844 113 243.566406 108.785156 236.777344 105.160156 L 233.921875 97.429688 C 243.269531 102.257812 251.773438 108.496094 259.144531 115.871094 C 265.457031 122.183594 270.945312 129.320312 275.417969 137.113281 Z M 202.917969 130.632812 C 201.96875 142.597656 200.117188 154.566406 196.257812 166.535156 L 161.46875 186.828125 C 151.023438 185.304688 140.582031 182.210938 130.136719 176.816406 C 138.851562 186.019531 148.0625 192.804688 157.753906 197.167969 L 170.023438 236.207031 C 165.578125 246.214844 159.191406 254.28125 150.871094 260.410156 C 161.457031 255.710938 170.589844 249.070312 178.265625 240.496094 L 217.917969 243.019531 L 235.382812 261.550781 L 225.304688 238.625 L 239.894531 202.507812 C 249.800781 197.574219 259.222656 191.183594 268.160156 183.339844 C 258.171875 188.0625 247.789062 191.207031 236.828125 192.046875 L 206.847656 168.273438 C 207.476562 155.722656 206.164062 143.175781 202.917969 130.632812 Z M 202.917969 130.632812 " fill-opacity="1" fill-rule="evenodd"/></g></svg>