<svg xmlns="http://www.w3.org/2000/svg" xmlns:xlink="http://www.w3.org/1999/xlink" width="500" zoomAndPan="magnify" viewBox="0 0 375 374.999991" height="500" preserveAspectRatio="xMidYMid meet" version="1.0"><defs><g/><clipPath id="9f20405a15"><path d="M 142 37.5 L 230 37.5 L 230 188.25 L 142 188.25 Z M 142 37.5 " clip-rule="nonzero"/></clipPath><clipPath id="730dd961ce"><path d="M 86 117 L 294.855469 117 L 294.855469 141 L 86 141 Z M 86 117 " clip-rule="nonzero"/></clipPath></defs><g clip-path="url(#9f20405a15)"><path fill="#4c4740" d="M 223.0625 172.082031 C 222.835938 172.226562 222.902344 172.8125 223.222656 173.136719 C 223.546875 173.460938 224.4375 172.800781 223.785156 172.40625 C 223.398438 172.191406 223.230469 172.003906 223.0625 172.082031 Z M 228.621094 178.292969 C 229.269531 177.976562 229.832031 176.523438 229.269531 175.960938 C 228.96875 175.667969 228.617188 175.480469 228.207031 175.390625 C 227.800781 175.304688 227.398438 175.332031 227.007812 175.476562 C 226.363281 175.796875 226.445312 176.921875 226.769531 177.8125 C 227.09375 178.707031 227.449219 178.90625 228.621094 178.320312 Z M 195.09375 156.363281 C 194.609375 156.683594 195.257812 157.332031 195.816406 157.730469 C 196.378906 158.132812 196.710938 157.570312 196.300781 157.167969 C 196.277344 157.222656 195.578125 156.066406 195.09375 156.386719 Z M 200.332031 161.117188 C 200.332031 161.117188 199.125 160.554688 198.71875 160.792969 C 198.3125 161.035156 198.15625 161.839844 198.800781 162.894531 C 199.445312 163.949219 200.253906 163.703125 200.65625 163.054688 C 201.054688 162.410156 201.539062 161.789062 200.332031 161.144531 Z M 229.261719 185.859375 C 228.707031 185.722656 226.820312 183.980469 226.820312 183.980469 C 226.792969 183.144531 226.589844 182.351562 226.21875 181.601562 C 226.054688 182.425781 225.734375 183.1875 225.253906 183.878906 C 224.777344 184.574219 224.179688 185.144531 223.464844 185.585938 C 223.429688 185.585938 223.390625 185.585938 223.410156 185.53125 C 224.378906 183.726562 224.742188 179.785156 224.878906 179.171875 C 224.960938 178.3125 224.988281 177.449219 224.953125 176.585938 C 224.953125 176.414062 224.863281 176.320312 224.691406 176.308594 L 223.203125 176.191406 L 220.382812 174.253906 C 220.640625 174.03125 220.769531 173.75 220.777344 173.40625 C 220.777344 171.707031 220.777344 169.53125 220.132812 168.097656 C 220.6875 166.84375 219.484375 165.9375 218.878906 166.285156 C 218.386719 163.296875 219.363281 149.152344 215.328125 145.738281 C 213.253906 143.988281 211.535156 143.472656 210.355469 140.214844 C 210.34375 140.179688 210.355469 140.152344 210.386719 140.136719 C 210.414062 140.117188 210.445312 140.121094 210.46875 140.144531 C 210.980469 140.691406 212.199219 141.894531 213.558594 142.164062 C 212.710938 141.164062 212.265625 138.734375 211.851562 135.769531 C 213.316406 134.738281 214.335938 133.371094 214.90625 131.671875 C 216.527344 127.175781 217.15625 122.546875 216.792969 117.78125 C 217.421875 117.738281 218.027344 117.585938 218.601562 117.320312 C 220.203125 116.488281 225.910156 102.832031 223.890625 95.382812 C 221.914062 88.101562 217.019531 86.984375 214.003906 86.984375 C 213.972656 86.980469 213.953125 86.964844 213.945312 86.9375 C 213.9375 86.90625 213.945312 86.882812 213.96875 86.867188 C 216.972656 84.78125 221.886719 86.796875 223.933594 90.742188 C 223.933594 80.785156 217.1875 76.722656 212.820312 76.25 C 211.078125 76.097656 209.375 76.292969 207.714844 76.835938 C 206.050781 77.375 204.558594 78.21875 203.238281 79.363281 C 203.777344 80.410156 203.921875 81.503906 203.671875 82.652344 C 203.648438 82.707031 203.609375 82.734375 203.550781 82.734375 C 203.492188 82.734375 203.453125 82.707031 203.429688 82.652344 C 202.988281 81.714844 202.429688 80.855469 201.753906 80.070312 C 201.667969 79.164062 201.503906 78.269531 201.261719 77.394531 C 201.222656 77.261719 201.160156 77.148438 201.070312 77.046875 C 200.976562 76.945312 200.871094 76.867188 200.742188 76.816406 C 200.617188 76.765625 200.488281 76.742188 200.351562 76.753906 C 200.214844 76.761719 200.089844 76.796875 199.96875 76.863281 C 199.875 76.921875 199.777344 76.980469 199.6875 77.046875 C 199.382812 74.429688 199.441406 71.824219 199.867188 69.226562 C 199.519531 69.066406 198.988281 68.851562 198.664062 68.722656 C 198.613281 68.703125 198.585938 68.667969 198.585938 68.613281 C 198.585938 68.558594 198.613281 68.519531 198.664062 68.503906 C 199.152344 68.386719 199.648438 68.359375 200.144531 68.425781 C 199.878906 68.128906 199.558594 67.910156 199.183594 67.777344 C 198.808594 67.644531 198.425781 67.605469 198.03125 67.667969 C 197.492188 67.023438 194.339844 66.378906 193.679688 65.648438 C 193.597656 66.113281 193.683594 66.542969 193.9375 66.9375 C 193.097656 66.902344 189.703125 67.8125 188.773438 67.410156 C 188.777344 67.820312 188.886719 68.195312 189.101562 68.542969 C 188.550781 69.910156 188.179688 71.324219 187.992188 72.785156 C 187.976562 72.886719 187.996094 72.976562 188.054688 73.058594 C 188.210938 73.265625 188.386719 73.453125 188.585938 73.621094 C 188.4375 74.707031 188.09375 76.207031 187.996094 76.605469 C 187.976562 76.6875 188.003906 76.75 188.074219 76.792969 C 188.414062 76.964844 188.765625 77.101562 189.132812 77.199219 C 189.09375 77.503906 189.0625 77.730469 189.042969 77.847656 C 189.035156 77.941406 189.074219 78.003906 189.160156 78.039062 C 189.316406 78.101562 189.464844 78.167969 189.613281 78.246094 L 189.613281 78.640625 C 189.609375 78.785156 189.675781 78.886719 189.8125 78.9375 C 190.007812 79.015625 190.230469 79.125 190.230469 79.125 C 190.269531 79.539062 190.375 80.203125 190.464844 80.734375 C 190.496094 80.992188 190.613281 81.199219 190.8125 81.359375 C 191.011719 81.523438 191.242188 81.589844 191.496094 81.570312 C 192.019531 81.511719 195.308594 79.140625 196.773438 78.816406 C 196.804688 78.8125 196.828125 78.828125 196.84375 78.859375 C 196.855469 78.890625 196.847656 78.914062 196.824219 78.9375 C 195.183594 80.082031 193.695312 81.394531 192.355469 82.878906 C 192.210938 83.0625 192.140625 83.269531 192.148438 83.5 C 192.152344 83.734375 192.238281 83.9375 192.394531 84.109375 C 192.863281 84.574219 193.207031 85.117188 193.421875 85.742188 C 191.136719 86.679688 183.21875 93.132812 180.660156 93.277344 C 180.625 93.273438 180.601562 93.257812 180.589844 93.21875 C 180.582031 93.183594 180.59375 93.15625 180.625 93.132812 C 181.199219 92.773438 181.703125 92.328125 182.128906 91.796875 C 180.507812 90.859375 175.113281 86.925781 174.488281 86.089844 C 173.863281 85.257812 173.09375 85.601562 172.609375 85.878906 C 172.054688 85.617188 171.628906 85.21875 171.324219 84.683594 C 171.019531 84.152344 170.898438 83.582031 170.957031 82.96875 C 171.003906 82.714844 170.964844 82.46875 170.84375 82.238281 C 170.726562 82.003906 170.546875 81.832031 170.308594 81.722656 C 169.777344 81.480469 169.273438 81.191406 168.792969 80.859375 C 168.75 80.828125 168.707031 80.808594 168.65625 80.792969 L 168.65625 47.484375 C 170.59375 47.566406 177.960938 48.046875 179.914062 50.410156 C 181.585938 48.890625 183.308594 47.824219 183.308594 45.886719 C 183.308594 44.304688 180.511719 42.980469 178.789062 41.777344 C 178.761719 41.757812 178.753906 41.734375 178.769531 41.703125 C 178.785156 41.671875 178.808594 41.664062 178.839844 41.675781 C 181.132812 42.320312 184.382812 43.742188 184.582031 45.9375 C 184.691406 47.132812 183.640625 48.8125 182.128906 50.066406 C 178.390625 53.164062 173.191406 58.230469 177.03125 62.84375 C 177.0625 62.886719 177.101562 62.898438 177.152344 62.886719 C 177.199219 62.875 177.226562 62.84375 177.234375 62.789062 C 177.652344 59.746094 179.816406 59.042969 183.484375 55.683594 C 187.457031 52.078125 187.066406 45.828125 184.511719 43.507812 C 179.675781 39.121094 169.960938 39.070312 169.960938 39.070312 C 169.960938 39.070312 169.316406 42.261719 168.773438 44.699219 C 168.765625 44.722656 168.75 44.730469 168.726562 44.730469 C 168.699219 44.730469 168.683594 44.722656 168.675781 44.699219 L 168.675781 37.769531 C 168.675781 37.695312 168.648438 37.632812 168.597656 37.578125 C 168.542969 37.527344 168.480469 37.5 168.40625 37.5 L 167.757812 37.5 C 167.683594 37.5 167.621094 37.527344 167.570312 37.578125 C 167.519531 37.632812 167.492188 37.695312 167.496094 37.769531 L 167.496094 81.0625 C 166.945312 81.183594 166.40625 81.332031 165.875 81.515625 C 165.65625 81.597656 165.480469 81.730469 165.34375 81.921875 C 165.210938 82.109375 165.140625 82.320312 165.132812 82.550781 C 165.085938 83.53125 165.019531 85.367188 165.046875 86.582031 C 165.058594 87.140625 165.296875 87.570312 165.765625 87.875 C 166.234375 88.183594 166.875 88.574219 167.496094 88.941406 L 167.496094 154.105469 C 167.273438 154.398438 167.054688 154.695312 166.847656 155.03125 C 165.667969 154.753906 162.972656 156.632812 162.042969 156.910156 C 161.257812 157.160156 160.46875 157.160156 159.679688 156.910156 C 159.035156 157.816406 156.414062 158.921875 156.066406 160.308594 C 156.832031 159.824219 158.5625 160.308594 158.914062 160.808594 C 159.417969 161.777344 159.859375 162.777344 160.238281 163.804688 C 160.585938 164.644531 163.367188 166.035156 164.484375 166.390625 C 165.136719 166.644531 165.710938 167.011719 166.210938 167.5 C 166.714844 167.984375 167.101562 168.550781 167.371094 169.195312 C 167.707031 170.261719 169.601562 172.582031 169.03125 175.09375 C 169.03125 175.140625 169.007812 175.164062 168.960938 175.164062 C 168.914062 175.164062 168.890625 175.140625 168.890625 175.09375 C 168.46875 173.027344 166.269531 170.253906 165.878906 169.722656 C 165.492188 169.195312 162.003906 167.140625 160.863281 166.867188 C 159.71875 166.597656 157.382812 163.734375 156.476562 162.902344 C 155.574219 162.066406 154.539062 163.109375 153.894531 163.109375 C 153.25 163.109375 151.460938 162.273438 150.554688 162.828125 C 149.652344 163.386719 144.777344 168.890625 143.871094 169.445312 C 142.96875 170.003906 143.523438 171.261719 143.316406 172.375 C 143.109375 173.484375 142.476562 175.160156 142.96875 176 C 143.378906 176.984375 143.519531 178.003906 143.386719 179.0625 C 143.316406 179.824219 144.984375 181.777344 145.402344 182.820312 C 145.824219 183.867188 145.195312 185.121094 144.222656 188.257812 L 151.394531 188.257812 C 151.988281 187.699219 152.539062 187.210938 152.539062 187.210938 C 152.539062 187.210938 155.042969 187.628906 155.988281 186.898438 C 156.929688 186.167969 158.492188 185.851562 159.429688 185.011719 C 160.367188 184.171875 162.148438 182.195312 163.085938 181.363281 C 165.175781 182.503906 167.785156 182.820312 168.722656 183.132812 C 169.78125 183.542969 170.757812 184.101562 171.648438 184.804688 C 172.292969 185.328125 173.628906 186.265625 174.984375 186.164062 C 176.339844 186.058594 177.078125 186.265625 177.496094 187.210938 C 177.71875 187.609375 178.007812 187.960938 178.355469 188.257812 L 197.160156 188.257812 C 197.621094 187.929688 198.128906 187.789062 198.691406 187.835938 C 200.253906 188.050781 201.511719 187.191406 202.65625 186.582031 C 202.871094 186.441406 203.109375 186.347656 203.359375 186.296875 C 203.613281 186.246094 203.867188 186.246094 204.121094 186.296875 C 204.375 186.34375 204.609375 186.4375 204.828125 186.578125 C 205.042969 186.71875 205.226562 186.894531 205.375 187.105469 C 205.84375 187.65625 206.421875 188.039062 207.113281 188.257812 L 229.84375 188.257812 C 230.238281 187.589844 229.816406 186.027344 229.261719 185.886719 Z M 153.707031 170.261719 C 152.765625 170.46875 151.984375 170.097656 151.984375 169.265625 C 151.984375 168.433594 152.351562 167.910156 152.976562 168.0625 C 153.605469 168.21875 153.234375 168.433594 153.757812 168.792969 C 154.613281 169.402344 154.667969 170.074219 153.734375 170.285156 Z M 211.710938 134.605469 C 211.503906 132.90625 211.328125 131.117188 211.160156 129.4375 C 211.898438 129.238281 212.570312 128.90625 213.171875 128.4375 C 213.777344 127.972656 214.265625 127.40625 214.640625 126.742188 C 215.222656 125.734375 215.679688 124.675781 216.011719 123.5625 C 215.347656 128.441406 213.984375 132.570312 211.710938 134.605469 Z M 209.578125 104.054688 C 211.238281 107.511719 212.683594 113.242188 212.683594 117.160156 C 213.332031 117.664062 214.824219 117.960938 216.417969 117.871094 C 216.015625 122.632812 214.410156 126.871094 211.050781 128.304688 C 210.914062 126.171875 210.601562 124.0625 210.113281 121.980469 C 211.832031 117.042969 210.582031 111.105469 209.46875 104.085938 C 209.449219 104.050781 209.457031 104.023438 209.492188 104 C 209.527344 103.980469 209.558594 103.984375 209.578125 104.023438 Z M 170.386719 160.027344 C 170.070312 159.296875 170.757812 159.242188 170.757812 159.242188 C 171.402344 159.65625 172.007812 160.335938 171.402344 160.496094 C 170.792969 160.660156 170.699219 160.722656 170.386719 159.992188 Z M 170.097656 153.808594 C 170.367188 153.429688 170.941406 153.808594 171.1875 153.945312 C 171.835938 154.351562 172.933594 154.875 172.480469 155.535156 C 172.027344 156.195312 171.503906 156.589844 170.921875 155.636719 C 170.34375 154.6875 169.800781 154.152344 170.097656 153.777344 Z M 173.519531 181.394531 C 172.789062 181.550781 171.484375 181.859375 171.484375 180.820312 C 171.484375 179.777344 171.640625 179.144531 172.371094 179.09375 C 172.585938 179.046875 172.796875 179.058594 173.007812 179.136719 C 173.214844 179.210938 173.386719 179.335938 173.519531 179.515625 C 174.199219 180.054688 174.25 181.199219 173.519531 181.363281 Z M 177.140625 152.523438 C 176.796875 152.535156 176.5625 152.703125 176.445312 153.027344 C 176.378906 153.230469 176.359375 153.433594 176.386719 153.644531 C 176.414062 153.851562 176.480469 154.046875 176.59375 154.226562 C 176.707031 154.40625 176.851562 154.550781 177.027344 154.667969 C 177.207031 154.78125 177.398438 154.851562 177.605469 154.882812 C 176.296875 155.128906 175.023438 155.003906 173.785156 154.507812 C 172.808594 154.085938 170.511719 152.066406 169.8125 152.136719 C 169.390625 152.242188 169.03125 152.457031 168.734375 152.78125 L 168.734375 89.515625 C 168.890625 89.019531 169.152344 88.585938 169.511719 88.210938 C 169.871094 87.835938 170.296875 87.558594 170.789062 87.382812 C 170.808594 87.378906 170.828125 87.386719 170.835938 87.40625 C 170.847656 87.429688 170.84375 87.445312 170.828125 87.460938 C 170.433594 87.808594 169.464844 88.984375 169.535156 90.148438 C 169.644531 92.3125 178.484375 98.308594 182.753906 99.730469 C 183.023438 99.824219 183.296875 99.847656 183.574219 99.796875 C 190.582031 98.554688 195.753906 94.453125 199.5625 92.042969 C 199.585938 92.035156 199.605469 92.039062 199.621094 92.054688 C 199.636719 92.074219 199.636719 92.09375 199.628906 92.113281 C 198.332031 94.070312 196.722656 95.722656 194.796875 97.0625 C 196.019531 100.332031 195.59375 106.328125 194.210938 110.148438 C 194.097656 110.457031 194.070312 110.773438 194.128906 111.097656 C 194.1875 111.421875 194.324219 111.707031 194.539062 111.957031 C 196.84375 114.640625 200.210938 116.769531 204.128906 118.671875 C 204.179688 118.6875 204.195312 118.71875 204.179688 118.769531 C 204.164062 118.816406 204.132812 118.835938 204.082031 118.820312 C 200.75 118.320312 196.507812 116.234375 193.582031 114.042969 C 188.09375 116.28125 182.367188 122.148438 178.964844 124.097656 C 178.386719 124.417969 178.0625 124.90625 177.980469 125.558594 C 177.878906 126.449219 177.722656 127.75 177.605469 128.75 C 177.53125 129.46875 177.746094 130.082031 178.253906 130.59375 C 180.382812 132.800781 182.238281 136.609375 182.929688 139.917969 C 183.339844 141.914062 183.621094 144.441406 184.253906 145.835938 C 184.253906 145.835938 185.929688 146.597656 186.46875 147.683594 C 186.484375 147.734375 186.472656 147.773438 186.429688 147.804688 C 186.386719 147.832031 186.347656 147.832031 186.304688 147.800781 C 185.699219 147.292969 185.003906 147.039062 184.214844 147.039062 C 184.03125 147.035156 183.894531 147.113281 183.808594 147.273438 C 183.71875 147.429688 183.722656 147.589844 183.820312 147.742188 C 184.039062 148.039062 184.171875 148.375 184.210938 148.742188 C 184.25 149.113281 184.191406 149.464844 184.039062 149.804688 C 183.394531 150.796875 178.898438 152.402344 177.140625 152.492188 Z M 185 169.21875 C 184.226562 169.117188 183.710938 169.640625 183.179688 169.742188 C 182.652344 169.847656 182.65625 168.59375 182.605469 167.914062 C 182.554688 167.238281 182.605469 166.5 183.179688 166.242188 C 183.753906 165.984375 183.910156 166.398438 184.273438 166.550781 C 184.761719 166.765625 184.847656 167.023438 185.371094 167.753906 C 185.890625 168.484375 185.789062 169.292969 185 169.1875 Z M 213.414062 182.175781 C 212.996094 182.75 211.847656 182.332031 211.21875 182.074219 C 210.59375 181.8125 210.070312 180.78125 210.386719 180.242188 C 210.703125 179.707031 211.742188 179.144531 212.421875 179.515625 C 212.617188 179.664062 212.757812 179.859375 212.84375 180.09375 C 212.925781 180.324219 212.945312 180.5625 212.890625 180.804688 C 212.832031 181.253906 213.820312 181.570312 213.410156 182.144531 Z M 214.453125 168.050781 C 214.203125 167.75 213.898438 167.523438 213.539062 167.371094 C 213.179688 167.21875 212.804688 167.15625 212.414062 167.183594 C 212.332031 167.1875 212.253906 167.207031 212.183594 167.25 C 212.113281 167.292969 212.054688 167.347656 212.015625 167.417969 C 211.972656 167.492188 211.949219 167.566406 211.949219 167.648438 C 211.945312 167.730469 211.964844 167.808594 212 167.882812 C 212.34375 168.605469 212.648438 169.742188 212.214844 170.527344 C 211.722656 171.441406 208.421875 172.582031 206.601562 172.507812 C 206.394531 172.5 206.214844 172.566406 206.0625 172.710938 C 205.914062 172.855469 205.839844 173.03125 205.839844 173.238281 C 205.859375 173.78125 206.105469 174.191406 206.578125 174.460938 C 206.179688 174.648438 205.785156 174.648438 205.386719 174.460938 C 204.554688 173.976562 202.675781 173.277344 201.421875 173.628906 C 200.171875 173.976562 196.832031 174.324219 195.785156 173.90625 C 195.347656 173.710938 194.890625 173.660156 194.417969 173.75 C 193.945312 173.839844 193.542969 174.054688 193.203125 174.394531 C 192.433594 175.042969 190.621094 175.925781 189.578125 175.855469 C 188.539062 175.785156 186.351562 176.691406 185.964844 177.53125 C 185.574219 178.371094 183.859375 180.191406 181.980469 179.726562 C 181.9375 179.710938 181.917969 179.679688 181.917969 179.636719 C 181.917969 179.59375 181.9375 179.5625 181.980469 179.546875 C 182.972656 179.230469 183.777344 178.652344 184.386719 177.808594 C 184.882812 176.953125 185.53125 176.234375 186.324219 175.648438 C 187.617188 174.621094 190.0625 174.757812 190.761719 173.996094 C 191.460938 173.234375 192.542969 173.347656 193.5625 172.703125 C 195.25 171.675781 197.742188 172.425781 198.851562 171.933594 C 199.964844 171.441406 201.046875 171.417969 202.824219 171.796875 L 202.539062 169.5 C 201.871094 168.976562 201.175781 168.488281 200.453125 168.039062 C 199.335938 167.339844 197.046875 164.34375 196.417969 164.0625 C 195.792969 163.785156 193.769531 163.367188 193.007812 162.605469 C 192.125 161.648438 191.128906 160.835938 190.011719 160.167969 C 191.027344 160.179688 191.980469 160.433594 192.867188 160.929688 C 193.621094 161.457031 194.453125 161.738281 195.371094 161.769531 C 194.886719 160.652344 194.046875 157.660156 194.046875 157.660156 L 189.527344 154.648438 C 189.785156 154.464844 189.933594 154.214844 189.980469 153.898438 C 190.199219 152.207031 190.238281 150.507812 190.097656 148.808594 C 190.859375 147.976562 190.445312 147.210938 189.449219 146.871094 C 188.269531 142.546875 189.585938 135.886719 187.707031 131.058594 C 186.667969 129.496094 185.167969 128.785156 183.753906 128.125 C 183.707031 128.113281 183.683594 128.082031 183.683594 128.03125 C 183.683594 127.980469 183.707031 127.949219 183.753906 127.9375 C 185.273438 127.730469 186.472656 128.390625 188.171875 129.105469 C 189.632812 128.410156 195.144531 128.429688 196.46875 127.523438 C 196.148438 124.816406 196.25 122.121094 196.78125 119.445312 C 196.78125 119.40625 196.800781 119.386719 196.839844 119.386719 C 196.878906 119.386719 196.894531 119.40625 196.894531 119.445312 C 197.542969 128.90625 202.746094 139.988281 204.808594 141.417969 C 204.808594 141.417969 205.601562 144.40625 206.265625 146.074219 C 206.390625 146.386719 206.570312 146.660156 206.800781 146.902344 C 210.445312 150.832031 211.5625 156.980469 211.5625 158.269531 C 211.5625 159.554688 211.417969 161.6875 211.839844 162.792969 C 212.292969 163.855469 212.664062 164.945312 212.949219 166.066406 C 212.949219 166.066406 214.359375 166.863281 214.53125 167.933594 C 214.558594 167.960938 214.558594 167.992188 214.53125 168.019531 C 214.503906 168.046875 214.476562 168.046875 214.449219 168.019531 Z M 214.453125 168.050781 " fill-opacity="1" fill-rule="evenodd"/></g><g clip-path="url(#730dd961ce)"><path fill="#978556" d="M 289.414062 129.054688 C 288.964844 128.667969 288.574219 128.3125 288.324219 128.105469 C 287.945312 127.800781 287.65625 127.425781 287.453125 126.988281 C 286.714844 125.449219 285.890625 125.824219 285.371094 127.136719 C 284.230469 130.019531 280.503906 128.183594 280.207031 129.71875 C 279.882812 131.394531 279.171875 129.152344 279.851562 133.421875 C 280 134.339844 276.730469 133.71875 276.53125 132.464844 C 276.453125 131.976562 268.480469 132.214844 269.085938 129.675781 C 269.300781 128.789062 267.878906 126.84375 267.742188 126.84375 C 266.121094 126.84375 265.714844 125.28125 265.367188 125.082031 C 264.003906 124.3125 263.398438 122.347656 262.351562 121.734375 C 260.664062 120.746094 259.992188 118.601562 258.476562 117.746094 C 257.871094 117.40625 255.007812 120.332031 254.523438 120.90625 C 252.839844 122.980469 251.972656 125.773438 250.4375 127.316406 C 248.136719 129.636719 245.207031 130.546875 242.84375 133.132812 C 241.351562 134.742188 243.0625 133.65625 244.132812 134.082031 C 246.941406 135.1875 246.71875 134.476562 249.269531 133.65625 C 250.496094 133.269531 252.496094 130.683594 253.664062 130.523438 C 254.371094 130.429688 252.851562 135.554688 253.949219 133.585938 C 254.710938 132.214844 257.824219 132.667969 257.824219 132.691406 C 257.292969 132.90625 258.558594 135.394531 258.910156 135.640625 C 260.847656 137.027344 261.066406 134.0625 262.542969 133.4375 C 263.191406 133.558594 265.734375 134.210938 265.820312 134.941406 C 265.96875 136.164062 268.582031 138.578125 268.691406 138.605469 C 270.160156 138.929688 271.191406 139.367188 270.808594 137.449219 C 270.339844 135.121094 275.265625 137.183594 275.332031 137.324219 C 276.558594 137.539062 276.707031 137.824219 277.773438 138.617188 C 280.050781 140.277344 279.832031 141.117188 281.453125 139.566406 C 284.035156 137.101562 283.261719 138.921875 287.457031 138.277344 C 289.503906 137.953125 289.027344 136.117188 288.386719 135.425781 C 286.355469 133.195312 288.332031 131.742188 288.640625 132.164062 C 290.074219 134.101562 291.332031 133.230469 293.851562 133.816406 C 296.371094 134.40625 290.132812 129.675781 289.414062 129.054688 Z M 130.035156 127.316406 C 128.496094 125.773438 127.632812 122.980469 125.945312 120.90625 C 125.460938 120.304688 122.601562 117.40625 121.996094 117.746094 C 120.464844 118.601562 119.792969 120.746094 118.121094 121.734375 C 117.074219 122.347656 116.464844 124.320312 115.105469 125.082031 C 114.753906 125.28125 114.347656 126.824219 112.726562 126.84375 C 112.59375 126.84375 111.171875 128.785156 111.382812 129.675781 C 111.992188 132.214844 104.015625 131.976562 103.9375 132.464844 C 103.738281 133.71875 100.472656 134.339844 100.621094 133.421875 C 101.265625 129.152344 100.585938 131.394531 100.257812 129.71875 C 99.960938 128.183594 96.234375 130.019531 95.089844 127.136719 C 94.574219 125.84375 93.75 125.449219 93.011719 126.988281 C 92.808594 127.425781 92.515625 127.800781 92.140625 128.105469 C 91.890625 128.3125 91.496094 128.667969 91.050781 129.054688 C 90.332031 129.699219 84.140625 134.351562 86.65625 133.765625 C 89.175781 133.175781 90.4375 134.0625 91.871094 132.109375 C 92.179688 131.691406 94.15625 133.144531 92.121094 135.375 C 91.476562 136.066406 91.003906 137.902344 93.050781 138.222656 C 97.25 138.871094 96.480469 137.0625 99.058594 139.515625 C 100.675781 141.066406 100.457031 140.226562 102.738281 138.566406 C 103.804688 137.796875 103.953125 137.511719 105.179688 137.273438 C 105.238281 137.132812 110.164062 135.070312 109.699219 137.398438 C 109.316406 139.335938 110.34375 138.875 111.816406 138.554688 C 111.925781 138.554688 114.542969 136.109375 114.691406 134.890625 C 114.773438 134.160156 117.273438 133.507812 117.964844 133.382812 C 119.445312 134.03125 119.6875 136.976562 121.601562 135.585938 C 121.949219 135.34375 123.214844 132.855469 122.683594 132.640625 C 122.683594 132.640625 125.765625 132.164062 126.527344 133.53125 C 127.625 135.503906 126.109375 130.378906 126.8125 130.46875 C 128.011719 130.632812 129.980469 133.214844 131.210938 133.605469 C 133.792969 134.425781 133.535156 135.136719 136.375 134.03125 C 137.460938 133.605469 139.171875 134.675781 137.667969 133.082031 C 135.265625 130.554688 132.347656 129.636719 130.035156 127.316406 Z M 130.035156 127.316406 " fill-opacity="1" fill-rule="evenodd"/></g><g fill="#4c4740" fill-opacity="1"><g transform="translate(12.734727, 252.310595)"><g><path d="M 25.8125 -16.578125 L 13.03125 -16.578125 L 13.03125 -5.796875 L 25.203125 -5.796875 L 25.546875 -10.3125 L 31.296875 -10.3125 L 31.296875 0 L 1.453125 0 L 1.453125 -4.53125 L 5.46875 -5.3125 L 5.46875 -32.390625 L 1.453125 -33.171875 L 1.453125 -37.71875 L 31.25 -37.71875 L 31.25 -27.390625 L 25.4375 -27.390625 L 25.109375 -31.890625 L 13.03125 -31.890625 L 13.03125 -22.40625 L 25.8125 -22.40625 Z M 25.8125 -16.578125 "/></g></g></g><g fill="#4c4740" fill-opacity="1"><g transform="translate(57.23237, 252.310595)"><g><path d="M 0.859375 -4.53125 L 4.046875 -5.15625 L 14.015625 -19.015625 L 4.296875 -32.515625 L 1.140625 -33.171875 L 1.140625 -37.71875 L 15.625 -37.71875 L 15.625 -33.171875 L 12.546875 -32.828125 L 18.375 -23.578125 L 24.21875 -32.828125 L 21.1875 -33.171875 L 21.1875 -37.71875 L 35.734375 -37.71875 L 35.734375 -33.171875 L 32.5625 -32.515625 L 22.859375 -19.015625 L 33.03125 -5.1875 L 36.375 -4.53125 L 36.375 0 L 21.53125 0 L 21.53125 -4.53125 L 24.53125 -4.84375 L 18.46875 -14.375 L 12.390625 -4.84375 L 15.421875 -4.53125 L 15.421875 0 L 0.859375 0 Z M 0.859375 -4.53125 "/></g></g></g><g fill="#4c4740" fill-opacity="1"><g transform="translate(105.097741, 252.310595)"><g><path d="M 19.40625 -37.71875 C 23.726562 -37.71875 27.132812 -36.609375 29.625 -34.390625 C 32.125 -32.171875 33.375 -29.265625 33.375 -25.671875 C 33.375 -22.066406 32.125 -19.164062 29.625 -16.96875 C 27.132812 -14.78125 23.726562 -13.6875 19.40625 -13.6875 L 13.03125 -13.6875 L 13.03125 -5.3125 L 17.078125 -4.53125 L 17.078125 0 L 1.453125 0 L 1.453125 -4.53125 L 5.46875 -5.3125 L 5.46875 -32.390625 L 1.453125 -33.171875 L 1.453125 -37.71875 Z M 13.03125 -19.515625 L 19.40625 -19.515625 C 21.507812 -19.515625 23.101562 -20.085938 24.1875 -21.234375 C 25.269531 -22.378906 25.8125 -23.84375 25.8125 -25.625 C 25.8125 -27.4375 25.269531 -28.929688 24.1875 -30.109375 C 23.101562 -31.296875 21.507812 -31.890625 19.40625 -31.890625 L 13.03125 -31.890625 Z M 13.03125 -19.515625 "/></g></g></g><g fill="#4c4740" fill-opacity="1"><g transform="translate(150.03578, 252.310595)"><g><path d="M 1.453125 0 L 1.453125 -4.53125 L 5.46875 -5.3125 L 5.46875 -32.390625 L 1.453125 -33.171875 L 1.453125 -37.71875 L 17.078125 -37.71875 L 17.078125 -33.171875 L 13.03125 -32.390625 L 13.03125 -5.796875 L 23.6875 -5.796875 L 24.046875 -10.546875 L 29.828125 -10.546875 L 29.828125 0 Z M 1.453125 0 "/></g></g></g><g fill="#4c4740" fill-opacity="1"><g transform="translate(191.735619, 252.310595)"><g><path d="M 35.9375 -18.578125 C 35.9375 -13.046875 34.351562 -8.472656 31.1875 -4.859375 C 28.03125 -1.253906 23.894531 0.546875 18.78125 0.546875 C 13.6875 0.546875 9.570312 -1.253906 6.4375 -4.859375 C 3.300781 -8.472656 1.734375 -13.046875 1.734375 -18.578125 L 1.734375 -19.140625 C 1.734375 -24.640625 3.296875 -29.203125 6.421875 -32.828125 C 9.546875 -36.453125 13.660156 -38.265625 18.765625 -38.265625 C 23.867188 -38.265625 28.003906 -36.453125 31.171875 -32.828125 C 34.347656 -29.203125 35.9375 -24.640625 35.9375 -19.140625 Z M 28.390625 -19.203125 C 28.390625 -23.097656 27.578125 -26.265625 25.953125 -28.703125 C 24.335938 -31.140625 21.941406 -32.359375 18.765625 -32.359375 C 15.578125 -32.359375 13.203125 -31.148438 11.640625 -28.734375 C 10.078125 -26.316406 9.296875 -23.140625 9.296875 -19.203125 L 9.296875 -18.578125 C 9.296875 -14.609375 10.085938 -11.410156 11.671875 -8.984375 C 13.253906 -6.554688 15.625 -5.34375 18.78125 -5.34375 C 21.976562 -5.34375 24.378906 -6.554688 25.984375 -8.984375 C 27.585938 -11.410156 28.390625 -14.609375 28.390625 -18.578125 Z M 28.390625 -19.203125 "/></g></g></g><g fill="#4c4740" fill-opacity="1"><g transform="translate(239.860047, 252.310595)"><g><path d="M 18.390625 -37.71875 C 22.679688 -37.71875 26.039062 -36.738281 28.46875 -34.78125 C 30.90625 -32.820312 32.125 -30.113281 32.125 -26.65625 C 32.125 -24.757812 31.613281 -23.109375 30.59375 -21.703125 C 29.582031 -20.304688 28.085938 -19.175781 26.109375 -18.3125 C 28.335938 -17.65625 29.941406 -16.5625 30.921875 -15.03125 C 31.898438 -13.507812 32.390625 -11.617188 32.390625 -9.359375 L 32.390625 -7.4375 C 32.390625 -6.601562 32.550781 -5.957031 32.875 -5.5 C 33.207031 -5.039062 33.753906 -4.769531 34.515625 -4.6875 L 35.4375 -4.5625 L 35.4375 0 L 31.53125 0 C 29.0625 0 27.328125 -0.660156 26.328125 -1.984375 C 25.328125 -3.316406 24.828125 -5.039062 24.828125 -7.15625 L 24.828125 -9.296875 C 24.828125 -11.128906 24.335938 -12.566406 23.359375 -13.609375 C 22.378906 -14.660156 21 -15.210938 19.21875 -15.265625 L 13.03125 -15.265625 L 13.03125 -5.3125 L 17.078125 -4.53125 L 17.078125 0 L 1.453125 0 L 1.453125 -4.53125 L 5.46875 -5.3125 L 5.46875 -32.390625 L 1.453125 -33.171875 L 1.453125 -37.71875 Z M 13.03125 -21.09375 L 18.265625 -21.09375 C 20.367188 -21.09375 21.945312 -21.539062 23 -22.4375 C 24.0625 -23.332031 24.59375 -24.628906 24.59375 -26.328125 C 24.59375 -28.015625 24.066406 -29.363281 23.015625 -30.375 C 21.972656 -31.382812 20.429688 -31.890625 18.390625 -31.890625 L 13.03125 -31.890625 Z M 13.03125 -21.09375 "/></g></g></g><g fill="#4c4740" fill-opacity="1"><g transform="translate(286.948266, 252.310595)"><g><path d="M 25.8125 -16.578125 L 13.03125 -16.578125 L 13.03125 -5.796875 L 25.203125 -5.796875 L 25.546875 -10.3125 L 31.296875 -10.3125 L 31.296875 0 L 1.453125 0 L 1.453125 -4.53125 L 5.46875 -5.3125 L 5.46875 -32.390625 L 1.453125 -33.171875 L 1.453125 -37.71875 L 31.25 -37.71875 L 31.25 -27.390625 L 25.4375 -27.390625 L 25.109375 -31.890625 L 13.03125 -31.890625 L 13.03125 -22.40625 L 25.8125 -22.40625 Z M 25.8125 -16.578125 "/></g></g></g><g fill="#4c4740" fill-opacity="1"><g transform="translate(331.445909, 252.310595)"><g><path d="M 18.390625 -37.71875 C 22.679688 -37.71875 26.039062 -36.738281 28.46875 -34.78125 C 30.90625 -32.820312 32.125 -30.113281 32.125 -26.65625 C 32.125 -24.757812 31.613281 -23.109375 30.59375 -21.703125 C 29.582031 -20.304688 28.085938 -19.175781 26.109375 -18.3125 C 28.335938 -17.65625 29.941406 -16.5625 30.921875 -15.03125 C 31.898438 -13.507812 32.390625 -11.617188 32.390625 -9.359375 L 32.390625 -7.4375 C 32.390625 -6.601562 32.550781 -5.957031 32.875 -5.5 C 33.207031 -5.039062 33.753906 -4.769531 34.515625 -4.6875 L 35.4375 -4.5625 L 35.4375 0 L 31.53125 0 C 29.0625 0 27.328125 -0.660156 26.328125 -1.984375 C 25.328125 -3.316406 24.828125 -5.039062 24.828125 -7.15625 L 24.828125 -9.296875 C 24.828125 -11.128906 24.335938 -12.566406 23.359375 -13.609375 C 22.378906 -14.660156 21 -15.210938 19.21875 -15.265625 L 13.03125 -15.265625 L 13.03125 -5.3125 L 17.078125 -4.53125 L 17.078125 0 L 1.453125 0 L 1.453125 -4.53125 L 5.46875 -5.3125 L 5.46875 -32.390625 L 1.453125 -33.171875 L 1.453125 -37.71875 Z M 13.03125 -21.09375 L 18.265625 -21.09375 C 20.367188 -21.09375 21.945312 -21.539062 23 -22.4375 C 24.0625 -23.332031 24.59375 -24.628906 24.59375 -26.328125 C 24.59375 -28.015625 24.066406 -29.363281 23.015625 -30.375 C 21.972656 -31.382812 20.429688 -31.890625 18.390625 -31.890625 L 13.03125 -31.890625 Z M 13.03125 -21.09375 "/></g></g></g><g fill="#978556" fill-opacity="1"><g transform="translate(92.424394, 295.522818)"><g><path d="M 14.078125 0 L 14.046875 -8.859375 L 9.65625 -1.53125 L 8.546875 -1.53125 L 4.15625 -8.75 L 4.15625 0 L 1.796875 0 L 1.796875 -13.359375 L 3.84375 -13.359375 L 9.140625 -4.5 L 14.359375 -13.359375 L 16.40625 -13.359375 L 16.421875 0 Z M 14.078125 0 "/></g></g></g><g fill="#978556" fill-opacity="1"><g transform="translate(114.4717, 295.522818)"><g><path d="M 8.03125 0.1875 C 6.675781 0.1875 5.453125 -0.101562 4.359375 -0.6875 C 3.265625 -1.28125 2.40625 -2.101562 1.78125 -3.15625 C 1.15625 -4.207031 0.84375 -5.382812 0.84375 -6.6875 C 0.84375 -7.976562 1.15625 -9.148438 1.78125 -10.203125 C 2.40625 -11.253906 3.265625 -12.078125 4.359375 -12.671875 C 5.453125 -13.265625 6.675781 -13.5625 8.03125 -13.5625 C 9.394531 -13.5625 10.625 -13.265625 11.71875 -12.671875 C 12.8125 -12.078125 13.671875 -11.257812 14.296875 -10.21875 C 14.921875 -9.175781 15.234375 -8 15.234375 -6.6875 C 15.234375 -5.375 14.921875 -4.191406 14.296875 -3.140625 C 13.671875 -2.097656 12.8125 -1.28125 11.71875 -0.6875 C 10.625 -0.101562 9.394531 0.1875 8.03125 0.1875 Z M 8.03125 -1.984375 C 8.925781 -1.984375 9.726562 -2.179688 10.4375 -2.578125 C 11.15625 -2.984375 11.71875 -3.546875 12.125 -4.265625 C 12.53125 -4.984375 12.734375 -5.789062 12.734375 -6.6875 C 12.734375 -7.570312 12.53125 -8.375 12.125 -9.09375 C 11.71875 -9.8125 11.15625 -10.367188 10.4375 -10.765625 C 9.726562 -11.171875 8.925781 -11.375 8.03125 -11.375 C 7.144531 -11.375 6.34375 -11.171875 5.625 -10.765625 C 4.914062 -10.367188 4.359375 -9.8125 3.953125 -9.09375 C 3.546875 -8.375 3.34375 -7.570312 3.34375 -6.6875 C 3.34375 -5.789062 3.546875 -4.984375 3.953125 -4.265625 C 4.359375 -3.546875 4.914062 -2.984375 5.625 -2.578125 C 6.34375 -2.179688 7.144531 -1.984375 8.03125 -1.984375 Z M 8.03125 -1.984375 "/></g></g></g><g fill="#978556" fill-opacity="1"><g transform="translate(134.362501, 295.522818)"><g><path d="M 7.546875 0.1875 C 5.703125 0.1875 4.265625 -0.328125 3.234375 -1.359375 C 2.203125 -2.398438 1.6875 -3.890625 1.6875 -5.828125 L 1.6875 -13.359375 L 4.15625 -13.359375 L 4.15625 -5.921875 C 4.15625 -3.296875 5.289062 -1.984375 7.5625 -1.984375 C 9.8125 -1.984375 10.9375 -3.296875 10.9375 -5.921875 L 10.9375 -13.359375 L 13.390625 -13.359375 L 13.390625 -5.828125 C 13.390625 -3.890625 12.875 -2.398438 11.84375 -1.359375 C 10.820312 -0.328125 9.390625 0.1875 7.546875 0.1875 Z M 7.546875 0.1875 "/></g></g></g><g fill="#978556" fill-opacity="1"><g transform="translate(153.241842, 295.522818)"><g><path d="M 13.671875 -13.359375 L 13.671875 0 L 11.625 0 L 4.265625 -9.046875 L 4.265625 0 L 1.796875 0 L 1.796875 -13.359375 L 3.84375 -13.359375 L 11.203125 -4.3125 L 11.203125 -13.359375 Z M 13.671875 -13.359375 "/></g></g></g><g fill="#978556" fill-opacity="1"><g transform="translate(172.521963, 295.522818)"><g><path d="M 4.5 -11.265625 L 0.078125 -11.265625 L 0.078125 -13.359375 L 11.421875 -13.359375 L 11.421875 -11.265625 L 6.984375 -11.265625 L 6.984375 0 L 4.5 0 Z M 4.5 -11.265625 "/></g></g></g><g fill="#978556" fill-opacity="1"><g transform="translate(187.832587, 295.522818)"><g><path d="M 10.46875 -3.09375 L 3.78125 -3.09375 L 2.46875 0 L -0.09375 0 L 5.921875 -13.359375 L 8.359375 -13.359375 L 14.390625 0 L 11.796875 0 Z M 9.640625 -5.046875 L 7.125 -10.890625 L 4.625 -5.046875 Z M 9.640625 -5.046875 "/></g></g></g><g fill="#978556" fill-opacity="1"><g transform="translate(205.948575, 295.522818)"><g><path d="M 13.671875 -13.359375 L 13.671875 0 L 11.625 0 L 4.265625 -9.046875 L 4.265625 0 L 1.796875 0 L 1.796875 -13.359375 L 3.84375 -13.359375 L 11.203125 -4.3125 L 11.203125 -13.359375 Z M 13.671875 -13.359375 "/></g></g></g><g fill="#978556" fill-opacity="1"><g transform="translate(225.228696, 295.522818)"><g><path d="M 11.8125 -2.078125 L 11.8125 0 L 1.796875 0 L 1.796875 -13.359375 L 11.546875 -13.359375 L 11.546875 -11.28125 L 4.28125 -11.28125 L 4.28125 -7.8125 L 10.734375 -7.8125 L 10.734375 -5.765625 L 4.28125 -5.765625 L 4.28125 -2.078125 Z M 11.8125 -2.078125 "/></g></g></g><g fill="#978556" fill-opacity="1"><g transform="translate(241.837031, 295.522818)"><g><path d="M 11.8125 -2.078125 L 11.8125 0 L 1.796875 0 L 1.796875 -13.359375 L 11.546875 -13.359375 L 11.546875 -11.28125 L 4.28125 -11.28125 L 4.28125 -7.8125 L 10.734375 -7.8125 L 10.734375 -5.765625 L 4.28125 -5.765625 L 4.28125 -2.078125 Z M 11.8125 -2.078125 "/></g></g></g><g fill="#978556" fill-opacity="1"><g transform="translate(258.445367, 295.522818)"><g><path d="M 10.546875 0 L 7.8125 -3.921875 C 7.695312 -3.898438 7.523438 -3.890625 7.296875 -3.890625 L 4.28125 -3.890625 L 4.28125 0 L 1.796875 0 L 1.796875 -13.359375 L 7.296875 -13.359375 C 8.453125 -13.359375 9.457031 -13.164062 10.3125 -12.78125 C 11.175781 -12.40625 11.835938 -11.859375 12.296875 -11.140625 C 12.753906 -10.429688 12.984375 -9.585938 12.984375 -8.609375 C 12.984375 -7.609375 12.738281 -6.742188 12.25 -6.015625 C 11.757812 -5.285156 11.054688 -4.742188 10.140625 -4.390625 L 13.21875 0 Z M 10.484375 -8.609375 C 10.484375 -9.460938 10.203125 -10.117188 9.640625 -10.578125 C 9.078125 -11.035156 8.253906 -11.265625 7.171875 -11.265625 L 4.28125 -11.265625 L 4.28125 -5.9375 L 7.171875 -5.9375 C 8.253906 -5.9375 9.078125 -6.164062 9.640625 -6.625 C 10.203125 -7.09375 10.484375 -7.753906 10.484375 -8.609375 Z M 10.484375 -8.609375 "/></g></g></g><g fill="#978556" fill-opacity="1"><g transform="translate(276.217836, 295.522818)"><g><path d="M 5.9375 0.1875 C 4.90625 0.1875 3.910156 0.0390625 2.953125 -0.25 C 1.992188 -0.539062 1.234375 -0.925781 0.671875 -1.40625 L 1.53125 -3.34375 C 2.070312 -2.90625 2.738281 -2.550781 3.53125 -2.28125 C 4.332031 -2.007812 5.132812 -1.875 5.9375 -1.875 C 6.925781 -1.875 7.664062 -2.03125 8.15625 -2.34375 C 8.644531 -2.664062 8.890625 -3.085938 8.890625 -3.609375 C 8.890625 -3.992188 8.753906 -4.304688 8.484375 -4.546875 C 8.210938 -4.796875 7.863281 -4.988281 7.4375 -5.125 C 7.019531 -5.269531 6.453125 -5.429688 5.734375 -5.609375 C 4.710938 -5.847656 3.882812 -6.085938 3.25 -6.328125 C 2.625 -6.578125 2.082031 -6.957031 1.625 -7.46875 C 1.175781 -7.988281 0.953125 -8.6875 0.953125 -9.5625 C 0.953125 -10.300781 1.148438 -10.972656 1.546875 -11.578125 C 1.953125 -12.179688 2.554688 -12.660156 3.359375 -13.015625 C 4.171875 -13.378906 5.164062 -13.5625 6.34375 -13.5625 C 7.15625 -13.5625 7.953125 -13.457031 8.734375 -13.25 C 9.523438 -13.050781 10.207031 -12.757812 10.78125 -12.375 L 10 -10.4375 C 9.414062 -10.78125 8.804688 -11.039062 8.171875 -11.21875 C 7.535156 -11.40625 6.914062 -11.5 6.3125 -11.5 C 5.332031 -11.5 4.601562 -11.332031 4.125 -11 C 3.65625 -10.664062 3.421875 -10.226562 3.421875 -9.6875 C 3.421875 -9.300781 3.554688 -8.984375 3.828125 -8.734375 C 4.097656 -8.492188 4.441406 -8.304688 4.859375 -8.171875 C 5.285156 -8.035156 5.863281 -7.875 6.59375 -7.6875 C 7.582031 -7.457031 8.394531 -7.21875 9.03125 -6.96875 C 9.664062 -6.726562 10.207031 -6.351562 10.65625 -5.84375 C 11.113281 -5.332031 11.34375 -4.644531 11.34375 -3.78125 C 11.34375 -3.039062 11.140625 -2.367188 10.734375 -1.765625 C 10.335938 -1.171875 9.726562 -0.695312 8.90625 -0.34375 C 8.09375 0.0078125 7.101562 0.1875 5.9375 0.1875 Z M 5.9375 0.1875 "/></g></g></g></svg>