<svg xmlns="http://www.w3.org/2000/svg" xmlns:xlink="http://www.w3.org/1999/xlink" width="500" zoomAndPan="magnify" viewBox="0 0 375 374.999991" height="500" preserveAspectRatio="xMidYMid meet" version="1.0"><defs><g/><clipPath id="851a1cc918"><path d="M 103 37.5 L 127 37.5 L 127 61 L 103 61 Z M 103 37.5 " clip-rule="nonzero"/></clipPath><clipPath id="ecc02a26b5"><path d="M 9 84 L 182 84 L 182 255.75 L 9 255.75 Z M 9 84 " clip-rule="nonzero"/></clipPath><clipPath id="afc513a6cc"><path d="M 137 15.183594 L 249.476562 15.183594 L 249.476562 103 L 137 103 Z M 137 15.183594 " clip-rule="nonzero"/></clipPath><clipPath id="6a9c7dad16"><path d="M 125.726562 51 L 185 51 L 185 109.683594 L 125.726562 109.683594 Z M 125.726562 51 " clip-rule="nonzero"/></clipPath></defs><g clip-path="url(#851a1cc918)"><path fill="#003a8a" d="M 115.253906 60.390625 C 121.5625 60.390625 126.707031 55.246094 126.707031 48.9375 C 126.707031 42.628906 121.5625 37.488281 115.253906 37.488281 C 108.945312 37.488281 103.804688 42.628906 103.804688 48.9375 C 103.804688 55.246094 108.945312 60.390625 115.253906 60.390625 Z M 115.253906 60.390625 " fill-opacity="1" fill-rule="evenodd"/></g><g clip-path="url(#ecc02a26b5)"><path fill="#003a8a" d="M 181.597656 126.785156 C 181.328125 125.722656 177.773438 119.195312 176.941406 118.53125 C 176.109375 117.867188 173.445312 118.199219 171.078125 118.097656 C 168.710938 117.992188 168.648438 117.621094 167.050781 117.558594 C 165.449219 117.496094 155.558594 117.660156 149.109375 117.328125 C 142.648438 116.996094 140.652344 118.453125 136.519531 118.863281 C 132.386719 119.261719 128.726562 119.734375 126.859375 119.65625 L 124.992188 119.59375 C 124.992188 119.59375 124.558594 118.160156 124.121094 117.96875 C 123.6875 117.761719 124.121094 117.761719 122.394531 117.828125 C 120.667969 117.890625 120.359375 118.429688 119.066406 117.828125 C 117.777344 117.226562 115.410156 116.457031 113.667969 116.535156 C 111.941406 116.597656 110.738281 116.738281 107.410156 117.597656 C 104.085938 118.46875 102.152344 119.59375 100.617188 119.863281 C 99.082031 120.128906 96.816406 119.925781 96.089844 119.988281 L 94.628906 120.117188 C 94.628906 120.117188 93.785156 119.4375 93.695312 118.824219 C 93.605469 118.210938 94.117188 117.390625 94.847656 116.894531 C 95.578125 116.394531 96.445312 115.730469 96.574219 114.832031 C 96.714844 113.9375 95.871094 112.605469 95.703125 112.363281 C 95.539062 112.132812 95.269531 111.738281 95.5 111.261719 C 95.730469 110.789062 95.703125 110.394531 95.578125 110.164062 C 95.460938 109.933594 94.960938 109.601562 94.960938 109.601562 C 94.960938 109.601562 94.769531 108.949219 94.859375 108.613281 C 94.960938 108.28125 95.027344 108.066406 94.921875 107.949219 C 94.820312 107.835938 94.375 107.554688 94.015625 107.195312 C 93.644531 106.847656 93.734375 106.632812 93.734375 106.632812 C 93.734375 106.632812 94.4375 106.121094 94.335938 105.25 C 94.234375 104.378906 93.402344 104.378906 92.109375 104.046875 C 90.816406 103.714844 90.546875 103.253906 90.546875 103.253906 C 90.546875 103.253906 90.753906 102.449219 89.921875 101.320312 C 89.089844 100.195312 86.824219 98.558594 85.289062 98.160156 C 85.109375 98.109375 84.945312 98.070312 84.804688 98.019531 C 84.777344 97.96875 84.75 97.917969 84.714844 97.867188 C 84.714844 97.765625 84.714844 97.664062 84.648438 97.585938 L 84.585938 97.738281 C 84.457031 97.597656 84.304688 97.484375 84.125 97.378906 C 84.0625 97.316406 83.996094 97.265625 83.933594 97.203125 C 83.921875 97.175781 83.921875 97.152344 83.90625 97.125 L 83.90625 97.175781 C 83.691406 96.984375 83.433594 96.832031 83.179688 96.753906 L 83.355469 97.046875 C 83.304688 97.035156 83.265625 97.023438 83.214844 97.023438 C 82.972656 96.921875 82.742188 96.84375 82.523438 96.804688 L 82.84375 97.175781 C 82.320312 96.945312 82.011719 96.78125 82.179688 96.972656 C 82.257812 97.0625 82.332031 97.175781 82.398438 97.277344 C 82.128906 97.226562 81.859375 97.238281 81.640625 97.316406 L 81.730469 97.367188 C 81.617188 97.484375 81.960938 97.675781 81.785156 97.675781 C 81.589844 97.675781 81.015625 97.738281 81.015625 97.738281 C 81.015625 97.738281 80.464844 98.035156 79.671875 98.609375 C 79.417969 98.699219 79.132812 98.789062 78.800781 98.878906 C 78.761719 98.851562 78.726562 98.828125 78.675781 98.800781 C 78.699219 98.828125 78.738281 98.851562 78.761719 98.878906 C 78.660156 98.902344 78.546875 98.941406 78.429688 98.96875 C 78.535156 98.953125 78.660156 98.941406 78.816406 98.917969 C 78.816406 98.917969 78.828125 98.929688 78.828125 98.929688 C 78.851562 98.941406 78.867188 98.953125 78.890625 98.96875 L 78.839844 98.929688 C 78.878906 98.96875 78.917969 99.003906 78.96875 99.042969 C 78.777344 99.09375 78.546875 99.144531 78.289062 99.199219 C 78.394531 99.199219 78.535156 99.183594 78.6875 99.171875 L 78.585938 99.199219 C 78.648438 99.199219 78.726562 99.199219 78.816406 99.199219 C 78.726562 99.261719 78.609375 99.324219 78.457031 99.375 C 78.265625 99.441406 77.984375 99.492188 77.636719 99.453125 C 77.714844 99.480469 77.816406 99.503906 77.933594 99.515625 L 77.855469 99.515625 C 77.957031 99.554688 78.125 99.570312 78.304688 99.582031 C 78.277344 99.605469 78.25 99.632812 78.214844 99.660156 C 78.125 99.660156 78.023438 99.660156 77.90625 99.660156 C 77.96875 99.683594 78.058594 99.695312 78.148438 99.710938 C 78.074219 99.773438 77.984375 99.851562 77.867188 99.925781 C 77.726562 100.03125 77.5625 100.144531 77.367188 100.246094 C 77.175781 100.347656 76.945312 100.464844 76.714844 100.527344 C 76.804688 100.527344 76.960938 100.503906 77.125 100.4375 L 77.023438 100.488281 C 76.910156 100.515625 76.792969 100.542969 76.679688 100.554688 C 76.792969 100.566406 76.960938 100.554688 77.164062 100.527344 L 77.023438 100.554688 C 77.0625 100.554688 77.113281 100.554688 77.164062 100.542969 C 76.945312 100.644531 76.714844 100.757812 76.449219 100.898438 C 76.5625 100.859375 76.730469 100.796875 76.910156 100.734375 L 76.820312 100.769531 C 76.792969 100.785156 76.753906 100.796875 76.730469 100.796875 C 76.820312 100.796875 76.933594 100.785156 77.074219 100.734375 L 76.984375 100.769531 C 76.996094 100.769531 77.035156 100.757812 77.050781 100.757812 C 76.996094 100.796875 76.960938 100.824219 76.910156 100.859375 C 76.972656 100.835938 77.050781 100.796875 77.140625 100.734375 C 77.175781 100.71875 77.226562 100.707031 77.28125 100.695312 C 77.28125 100.695312 77.292969 100.695312 77.292969 100.695312 C 77.265625 100.71875 77.242188 100.757812 77.214844 100.785156 C 77.101562 100.835938 76.972656 100.886719 76.84375 100.949219 C 76.921875 100.925781 77.023438 100.898438 77.152344 100.859375 C 77.140625 100.875 77.140625 100.875 77.140625 100.875 C 77.113281 100.886719 77.101562 100.886719 77.085938 100.898438 C 77.085938 100.898438 77.101562 100.898438 77.101562 100.898438 C 76.960938 100.964844 76.820312 101.015625 76.652344 101.066406 C 76.753906 101.066406 76.882812 101.039062 77.035156 100.988281 L 76.945312 101.015625 C 76.960938 101.015625 76.996094 101 77.011719 101 C 77.011719 101.015625 76.996094 101.015625 76.996094 101.027344 C 76.972656 101.039062 76.960938 101.039062 76.933594 101.039062 L 76.832031 101.054688 C 76.730469 101.21875 76.574219 101.386719 76.359375 101.578125 C 76.128906 101.757812 75.820312 102 75.410156 102.167969 C 75.4375 102.152344 75.476562 102.152344 75.5 102.140625 C 75.371094 102.203125 75.230469 102.269531 75.089844 102.332031 C 75.195312 102.320312 75.347656 102.28125 75.515625 102.21875 L 75.410156 102.269531 C 75.589844 102.242188 75.898438 102.128906 76.242188 101.988281 C 76.242188 102 76.230469 102 76.230469 102 C 76.101562 102.078125 75.949219 102.167969 75.78125 102.242188 C 75.847656 102.230469 75.9375 102.203125 76.027344 102.167969 C 75.859375 102.242188 75.679688 102.332031 75.476562 102.421875 C 75.617188 102.394531 75.808594 102.34375 76.027344 102.253906 C 75.972656 102.320312 75.921875 102.371094 75.871094 102.433594 C 75.820312 102.5 75.757812 102.5625 75.707031 102.625 C 75.527344 102.753906 75.347656 102.882812 75.144531 103.011719 C 75.230469 102.972656 75.371094 102.921875 75.515625 102.832031 C 75.515625 102.832031 75.5 102.84375 75.5 102.84375 L 75.488281 102.882812 C 75.5 102.882812 75.515625 102.871094 75.515625 102.871094 C 75.296875 103.101562 75.054688 103.355469 74.773438 103.664062 C 74.875 103.574219 75.027344 103.457031 75.195312 103.316406 L 75.089844 103.421875 C 75.195312 103.355469 75.335938 103.242188 75.5 103.113281 C 75.425781 103.226562 75.347656 103.355469 75.246094 103.484375 C 74.988281 103.84375 74.667969 104.265625 74.246094 104.851562 C 74.347656 104.75 74.476562 104.609375 74.617188 104.445312 L 74.515625 104.570312 C 74.628906 104.457031 74.808594 104.289062 75 104.085938 C 74.925781 104.226562 74.847656 104.378906 74.785156 104.507812 L 74.628906 104.699219 C 74.667969 104.675781 74.695312 104.636719 74.746094 104.597656 C 74.667969 104.75 74.605469 104.890625 74.527344 105.046875 L 74.453125 105.082031 C 74.285156 105.503906 73.953125 106.003906 73.222656 106.886719 C 73.3125 106.8125 73.429688 106.707031 73.554688 106.582031 L 73.480469 106.671875 C 73.605469 106.566406 73.785156 106.414062 73.992188 106.210938 C 73.964844 106.261719 73.953125 106.300781 73.925781 106.351562 C 73.800781 106.503906 73.671875 106.671875 73.519531 106.835938 C 73.554688 106.8125 73.59375 106.773438 73.644531 106.734375 C 73.632812 106.746094 73.621094 106.757812 73.605469 106.785156 C 73.671875 106.734375 73.746094 106.671875 73.824219 106.59375 C 73.8125 106.605469 73.8125 106.632812 73.800781 106.644531 C 73.722656 106.722656 73.660156 106.785156 73.570312 106.863281 C 73.621094 106.835938 73.683594 106.785156 73.746094 106.746094 L 73.070312 108.191406 C 73.148438 108.078125 73.25 107.910156 73.363281 107.71875 L 73.300781 107.859375 C 73.402344 107.71875 73.554688 107.5 73.722656 107.21875 C 73.683594 107.347656 73.644531 107.488281 73.621094 107.617188 L 73.429688 107.976562 C 73.480469 107.910156 73.53125 107.835938 73.582031 107.757812 C 73.53125 107.976562 73.492188 108.179688 73.453125 108.382812 C 73.414062 108.449219 73.375 108.523438 73.339844 108.589844 C 73.363281 108.550781 73.402344 108.511719 73.441406 108.460938 C 73.429688 108.539062 73.414062 108.613281 73.402344 108.691406 C 73.324219 108.859375 73.25 109.035156 73.148438 109.242188 C 73.070312 109.371094 72.980469 109.511719 72.878906 109.664062 C 72.917969 109.625 72.96875 109.585938 73.007812 109.523438 C 72.992188 109.546875 72.980469 109.574219 72.953125 109.613281 C 72.992188 109.5625 73.042969 109.496094 73.09375 109.421875 C 73.109375 109.394531 73.132812 109.382812 73.148438 109.355469 L 73.082031 109.445312 C 73.109375 109.421875 73.132812 109.394531 73.171875 109.355469 C 73.160156 109.371094 73.160156 109.382812 73.148438 109.394531 C 73.160156 109.371094 73.183594 109.34375 73.210938 109.320312 C 73.25 109.265625 73.300781 109.214844 73.339844 109.164062 C 73.339844 109.242188 73.324219 109.320312 73.324219 109.382812 C 73.289062 109.433594 73.261719 109.472656 73.222656 109.523438 C 73.25 109.496094 73.289062 109.460938 73.324219 109.433594 C 73.3125 109.625 73.300781 109.816406 73.300781 110.007812 C 73.210938 110.289062 73.082031 110.609375 72.929688 110.980469 C 72.992188 110.878906 73.082031 110.738281 73.171875 110.558594 L 73.121094 110.675781 C 73.171875 110.597656 73.234375 110.496094 73.300781 110.378906 C 73.300781 110.484375 73.300781 110.574219 73.300781 110.675781 C 73.289062 110.699219 73.273438 110.738281 73.261719 110.765625 C 73.273438 110.75 73.273438 110.738281 73.289062 110.726562 C 73.199219 110.945312 73.09375 111.199219 72.96875 111.480469 C 73.042969 111.378906 73.121094 111.226562 73.222656 111.046875 L 73.171875 111.160156 C 73.210938 111.097656 73.261719 111.03125 73.3125 110.945312 C 73.3125 111.007812 73.324219 111.085938 73.324219 111.148438 C 73.261719 111.378906 73.199219 111.660156 73.132812 112.019531 L 73.289062 111.542969 L 73.261719 111.671875 C 73.289062 111.609375 73.3125 111.542969 73.351562 111.46875 C 73.351562 111.519531 73.363281 111.570312 73.363281 111.632812 C 73.300781 111.914062 73.210938 112.261719 73.132812 112.710938 C 73.183594 112.59375 73.222656 112.441406 73.289062 112.261719 L 73.261719 112.375 C 73.3125 112.273438 73.378906 112.121094 73.441406 111.953125 C 73.453125 112.019531 73.480469 112.082031 73.492188 112.144531 C 73.464844 112.234375 73.441406 112.324219 73.414062 112.425781 C 73.441406 112.363281 73.480469 112.285156 73.519531 112.210938 C 73.53125 112.25 73.542969 112.285156 73.554688 112.324219 C 73.492188 112.453125 73.414062 112.59375 73.3125 112.746094 C 73.378906 112.695312 73.441406 112.605469 73.519531 112.515625 L 73.480469 112.582031 C 73.519531 112.542969 73.554688 112.503906 73.605469 112.453125 C 73.605469 112.464844 73.605469 112.480469 73.59375 112.480469 C 73.605469 112.464844 73.605469 112.453125 73.605469 112.453125 C 73.621094 112.492188 73.632812 112.53125 73.644531 112.554688 C 73.644531 112.554688 73.644531 112.570312 73.644531 112.570312 C 73.632812 112.582031 73.632812 112.582031 73.632812 112.59375 C 73.632812 112.59375 73.644531 112.582031 73.644531 112.582031 C 73.632812 112.65625 73.605469 112.734375 73.582031 112.851562 C 73.519531 112.914062 73.453125 113.003906 73.351562 113.082031 C 73.414062 113.042969 73.480469 113.003906 73.554688 112.941406 L 73.53125 112.964844 C 73.542969 112.964844 73.542969 112.953125 73.554688 112.941406 C 73.53125 113.054688 73.503906 113.183594 73.480469 113.335938 L 73.59375 113.015625 L 73.570312 113.09375 L 73.710938 112.8125 C 73.722656 112.796875 73.734375 112.785156 73.746094 112.773438 C 73.761719 112.796875 73.773438 112.824219 73.785156 112.851562 C 73.746094 112.886719 73.722656 112.914062 73.683594 112.953125 C 73.722656 112.925781 73.746094 112.902344 73.785156 112.875 C 73.761719 112.925781 73.746094 112.992188 73.734375 113.054688 L 73.8125 112.902344 C 73.8125 112.914062 73.824219 112.925781 73.824219 112.941406 C 73.785156 113.054688 73.710938 113.195312 73.605469 113.375 C 73.660156 113.324219 73.710938 113.234375 73.761719 113.15625 L 73.734375 113.207031 C 73.773438 113.167969 73.8125 113.105469 73.863281 113.042969 C 73.863281 113.09375 73.875 113.144531 73.875 113.195312 C 73.851562 113.308594 73.824219 113.425781 73.800781 113.554688 C 73.851562 113.464844 73.890625 113.347656 73.941406 113.207031 L 73.914062 113.296875 C 73.925781 113.273438 73.941406 113.234375 73.964844 113.195312 C 73.976562 113.222656 73.992188 113.246094 74.003906 113.273438 C 73.964844 113.363281 73.925781 113.453125 73.875 113.539062 C 73.925781 113.488281 73.964844 113.425781 74.015625 113.347656 C 74.003906 113.566406 73.976562 113.808594 73.964844 114.117188 C 73.992188 114.015625 74.03125 113.859375 74.054688 113.695312 L 74.042969 113.808594 C 74.042969 113.796875 74.054688 113.769531 74.054688 113.757812 C 74.042969 113.910156 74.003906 114.066406 73.941406 114.246094 C 73.992188 114.179688 74.042969 114.078125 74.082031 113.949219 L 74.054688 114.039062 C 74.105469 113.949219 74.171875 113.808594 74.207031 113.65625 L 74.222656 113.667969 C 74.207031 113.71875 74.207031 113.769531 74.195312 113.824219 C 74.183594 113.847656 74.171875 113.859375 74.15625 113.886719 C 74.195312 113.847656 74.234375 113.808594 74.273438 113.757812 C 74.261719 113.847656 74.234375 113.9375 74.207031 114.027344 C 74.246094 113.976562 74.273438 113.898438 74.3125 113.808594 C 74.347656 113.859375 74.386719 113.925781 74.425781 113.976562 C 74.4375 114.207031 74.425781 114.476562 74.3125 114.792969 C 74.363281 114.730469 74.414062 114.617188 74.453125 114.5 L 74.425781 114.578125 C 74.476562 114.488281 74.527344 114.359375 74.578125 114.191406 C 74.59375 114.21875 74.605469 114.246094 74.632812 114.257812 C 74.632812 114.308594 74.632812 114.347656 74.632812 114.410156 C 74.617188 114.460938 74.605469 114.511719 74.59375 114.5625 C 74.605469 114.539062 74.617188 114.511719 74.632812 114.488281 C 74.617188 114.652344 74.578125 114.847656 74.503906 115.101562 C 74.542969 115.039062 74.578125 114.933594 74.632812 114.820312 L 74.605469 114.898438 C 74.65625 114.792969 74.734375 114.652344 74.785156 114.488281 C 74.796875 114.527344 74.808594 114.5625 74.835938 114.601562 C 74.808594 114.679688 74.785156 114.769531 74.757812 114.859375 C 74.785156 114.808594 74.824219 114.742188 74.847656 114.667969 C 74.859375 114.691406 74.859375 114.71875 74.875 114.742188 C 74.949219 115.023438 74.988281 115.382812 75.078125 115.90625 C 75.078125 115.804688 75.078125 115.652344 75.078125 115.5 L 75.089844 115.601562 C 75.105469 115.433594 75.117188 115.164062 75.105469 114.859375 C 75.128906 114.882812 75.15625 114.921875 75.179688 114.949219 C 75.207031 115.128906 75.21875 115.332031 75.246094 115.5625 C 75.257812 115.449219 75.269531 115.292969 75.269531 115.101562 C 75.398438 115.269531 75.527344 115.460938 75.65625 115.730469 C 75.820312 116.046875 75.988281 116.472656 76.21875 117.035156 C 76.191406 116.917969 76.152344 116.753906 76.089844 116.574219 L 76.140625 116.6875 C 76.101562 116.484375 76.027344 116.152344 75.910156 115.753906 C 75.949219 115.792969 75.988281 115.832031 76.011719 115.871094 C 76.101562 116.085938 76.191406 116.34375 76.308594 116.636719 C 76.292969 116.523438 76.242188 116.34375 76.191406 116.152344 C 76.449219 116.382812 76.574219 116.675781 76.78125 116.996094 L 76.832031 117.109375 C 77.035156 117.226562 77.28125 117.417969 77.511719 117.710938 C 77.636719 117.867188 77.765625 118.058594 77.882812 118.261719 C 77.933594 118.402344 77.996094 118.554688 78.085938 118.722656 C 78.109375 118.800781 78.136719 118.863281 78.164062 118.941406 C 78.148438 118.824219 78.125 118.671875 78.074219 118.492188 L 78.109375 118.609375 C 78.097656 118.46875 78.035156 118.238281 77.933594 117.980469 C 77.917969 117.902344 77.90625 117.828125 77.894531 117.738281 C 77.957031 117.839844 78.023438 117.96875 78.085938 118.097656 C 78.109375 118.171875 78.136719 118.238281 78.164062 118.324219 L 78.148438 118.222656 C 78.199219 118.339844 78.25 118.441406 78.289062 118.570312 C 78.277344 118.429688 78.214844 118.199219 78.109375 117.941406 L 78.074219 117.699219 L 78.136719 117.726562 C 78.214844 117.8125 78.277344 117.917969 78.355469 118.007812 C 78.367188 118.210938 78.378906 118.441406 78.429688 118.734375 C 78.429688 118.59375 78.417969 118.414062 78.429688 118.222656 L 78.445312 118.351562 C 78.457031 118.300781 78.457031 118.222656 78.46875 118.160156 C 78.480469 118.183594 78.507812 118.210938 78.519531 118.222656 C 78.507812 118.199219 78.496094 118.160156 78.46875 118.132812 C 78.480469 118.058594 78.480469 117.980469 78.496094 117.890625 C 78.535156 117.902344 78.570312 117.929688 78.597656 117.941406 C 78.597656 118.070312 78.609375 118.210938 78.609375 118.363281 C 78.621094 118.261719 78.636719 118.121094 78.648438 117.96875 C 78.738281 118.007812 78.800781 118.03125 78.867188 118.058594 L 78.648438 117.929688 C 78.648438 117.917969 78.648438 117.890625 78.648438 117.878906 C 78.710938 117.917969 78.777344 117.953125 78.839844 118.007812 C 78.851562 118.019531 78.867188 118.03125 78.878906 118.03125 L 78.90625 118.121094 C 78.90625 118.097656 78.90625 118.070312 78.890625 118.042969 C 78.90625 118.058594 78.917969 118.070312 78.917969 118.070312 C 79.019531 118.183594 79.136719 118.324219 79.25 118.453125 C 79.222656 118.582031 79.171875 118.75 79.070312 118.953125 C 79.121094 118.890625 79.171875 118.8125 79.222656 118.722656 L 79.199219 118.785156 C 79.238281 118.734375 79.277344 118.671875 79.328125 118.59375 C 79.300781 118.710938 79.238281 118.839844 79.109375 118.964844 C 79.160156 118.925781 79.222656 118.863281 79.289062 118.785156 L 79.25 118.839844 C 79.261719 118.824219 79.277344 118.8125 79.289062 118.785156 C 79.261719 118.890625 79.222656 118.992188 79.160156 119.09375 C 79.210938 119.03125 79.277344 118.953125 79.328125 118.839844 L 79.300781 118.914062 C 79.339844 118.863281 79.390625 118.773438 79.429688 118.671875 C 79.429688 118.671875 79.441406 118.683594 79.441406 118.683594 C 79.429688 118.722656 79.402344 118.75 79.378906 118.785156 C 79.402344 118.761719 79.429688 118.734375 79.441406 118.710938 C 79.453125 118.734375 79.46875 118.75 79.492188 118.761719 C 79.480469 118.8125 79.453125 118.863281 79.441406 118.902344 C 79.480469 118.851562 79.519531 118.773438 79.558594 118.683594 C 79.558594 118.695312 79.570312 118.710938 79.570312 118.722656 C 79.609375 118.914062 79.609375 119.195312 79.429688 119.453125 C 79.480469 119.402344 79.542969 119.324219 79.59375 119.222656 L 79.570312 119.285156 C 79.660156 119.171875 79.761719 118.941406 79.773438 118.660156 C 79.773438 118.683594 79.773438 118.710938 79.773438 118.734375 C 79.773438 118.722656 79.789062 118.695312 79.789062 118.671875 C 79.800781 118.683594 79.8125 118.695312 79.824219 118.695312 C 79.824219 118.863281 79.8125 119.054688 79.722656 119.261719 C 79.789062 119.183594 79.851562 119.054688 79.890625 118.890625 C 79.902344 119.054688 79.902344 119.234375 79.863281 119.4375 C 79.890625 119.363281 79.929688 119.246094 79.953125 119.121094 L 79.941406 119.207031 C 79.964844 119.121094 80.003906 119.003906 80.019531 118.863281 C 80.019531 118.863281 80.03125 118.875 80.03125 118.875 C 80.042969 118.941406 80.042969 119.003906 80.042969 119.066406 C 80.054688 119.03125 80.054688 118.980469 80.054688 118.914062 C 80.070312 118.925781 80.082031 118.941406 80.09375 118.953125 C 80.09375 119.015625 80.082031 119.09375 80.070312 119.171875 C 80.09375 119.121094 80.105469 119.054688 80.121094 118.980469 C 80.363281 119.234375 80.566406 119.503906 80.746094 119.863281 C 81.273438 120.921875 82.410156 122.585938 82.207031 123.394531 C 82 124.1875 81.335938 124.851562 81.078125 125.183594 C 80.8125 125.515625 79.875 126.054688 79.875 126.054688 C 79.875 126.054688 74.488281 126.117188 73.351562 126.324219 C 72.226562 126.515625 72.558594 126.71875 70.957031 127.527344 C 69.359375 128.472656 66.824219 128.472656 66.824219 128.472656 C 66.824219 128.472656 64.828125 127.808594 64.226562 127.933594 C 63.628906 128.074219 63.292969 127.808594 62.691406 127.601562 C 62.089844 127.398438 60.363281 126.734375 58.96875 126.539062 C 57.574219 126.335938 53.238281 126.273438 53.238281 126.273438 C 53.238281 126.273438 54.695312 119.210938 56.4375 115.089844 C 58.164062 110.957031 60.964844 106.695312 60.964844 106.695312 C 60.964844 106.695312 63.292969 105.59375 64.164062 104.53125 C 65.035156 103.472656 65.328125 103.265625 65.535156 103.164062 C 65.738281 103.0625 67.925781 102.601562 68.527344 102.394531 C 69.128906 102.203125 70.0625 102.484375 69.28125 101.425781 C 68.796875 100.757812 67.160156 100.542969 66.03125 100.707031 C 64.90625 100.875 64.226562 101.207031 64.035156 100.847656 C 63.832031 100.476562 64.203125 96.691406 64.496094 95.050781 C 64.765625 93.59375 67.09375 88.054688 66.632812 87.15625 C 66.328125 86.570312 65.519531 86.824219 65.226562 87.324219 C 65.058594 87.59375 64.882812 87.859375 64.765625 88.15625 C 64.265625 88.972656 63.714844 90.140625 63.308594 91.148438 C 62.601562 92.8125 62.039062 94.246094 61.875 93.8125 C 61.707031 93.375 62.410156 87.347656 62.410156 86.019531 C 62.410156 84.6875 62.179688 84.417969 61.644531 84.316406 C 60.554688 84.113281 60.007812 87.847656 60.007812 87.847656 C 60.007812 87.847656 60.238281 85.851562 59.878906 85.621094 C 59.519531 85.390625 59.136719 85.480469 58.765625 85.851562 C 57.984375 86.621094 57.804688 93.503906 57.164062 93.503906 C 56.652344 93.59375 56.742188 91.765625 56.617188 89.410156 C 56.617188 89.382812 56.601562 87.605469 56.140625 87.515625 C 54.9375 87.285156 54.8125 88.859375 54.9375 89.832031 C 54.9375 89.84375 54.9375 89.84375 54.9375 89.855469 C 54.976562 91.980469 55.144531 94.078125 54.835938 96.191406 C 53.902344 101.371094 55.183594 104.289062 54.9375 104.890625 C 54.695312 105.542969 46.328125 114.921875 45.101562 117.6875 C 43.871094 120.449219 42.628906 123.816406 41.734375 125.003906 C 40.839844 126.207031 40.507812 127.039062 40.238281 128.304688 C 39.96875 129.574219 40.339844 130.597656 43.398438 132.335938 C 46.457031 134.0625 51.089844 137.199219 54.414062 138.160156 C 57.742188 139.117188 58.113281 139.324219 58.113281 139.324219 C 58.113281 139.324219 58.011719 140.386719 58.546875 140.386719 C 59.085938 140.386719 58.753906 140.359375 60.503906 140.652344 C 62.269531 140.949219 63.332031 140.949219 64.0625 141.152344 C 64.792969 141.355469 68.71875 143.25 69.921875 143.046875 C 71.125 142.839844 70.984375 142.316406 71.917969 143.648438 C 72.851562 144.976562 73.519531 144.644531 74.785156 146.78125 C 76.050781 148.90625 76.574219 152.707031 77.585938 154.636719 C 78.585938 156.570312 79.644531 156.300781 79.914062 158.234375 C 80.183594 160.164062 79.789062 162.496094 78.917969 163.890625 C 78.046875 165.285156 77.523438 167.816406 77.855469 167.882812 C 78.1875 167.945312 78.621094 168.6875 79.453125 168.878906 C 80.285156 169.085938 81.195312 169.019531 81.195312 169.019531 C 80.65625 169.417969 79.160156 172.449219 78.164062 173.714844 C 77.164062 174.984375 75.667969 173.382812 74.273438 176.710938 C 72.878906 180.035156 73.605469 180.636719 71.878906 182.441406 C 70.152344 184.234375 68.617188 187.097656 68.617188 187.097656 L 68.949219 187.894531 C 68.949219 187.894531 65.023438 191.820312 62.960938 194.417969 C 60.902344 197.015625 60.492188 198.078125 60.492188 198.078125 C 60.492188 198.078125 59.367188 197.871094 58.292969 198.601562 C 57.230469 199.332031 56.4375 199.332031 55.4375 199.125 C 54.441406 198.933594 54.03125 199 53.839844 198.527344 C 53.632812 198.066406 53.378906 197.730469 53.046875 197.65625 C 52.714844 197.589844 52.445312 197.515625 51.90625 197.515625 C 51.382812 197.515625 49.976562 198.179688 49.976562 198.179688 C 49.976562 198.179688 47.273438 198.207031 43.820312 199.140625 C 40.351562 200.074219 37.960938 201.261719 37.960938 201.261719 C 37.960938 201.261719 37.421875 201.199219 37.191406 201.226562 C 36.960938 201.261719 34.222656 202.289062 33.558594 202.289062 C 32.894531 202.289062 32.6875 202.183594 32.6875 202.183594 C 32.6875 202.183594 33.160156 201.6875 32.085938 200.546875 C 31.023438 199.421875 29.15625 198.347656 26.765625 198.488281 C 24.371094 198.613281 23.960938 199.691406 20.90625 202.8125 C 17.847656 205.945312 16.988281 207.328125 15.082031 209.234375 C 12.640625 211.679688 12.742188 211.882812 10.9375 215.402344 C 6.203125 224.652344 13.023438 227.070312 14.289062 226.738281 C 15.554688 226.40625 19.816406 221.210938 22.144531 219.074219 C 24.472656 216.949219 28.402344 215.082031 29.605469 214.480469 C 30.808594 213.878906 31.933594 212.816406 32.40625 211.882812 C 32.867188 210.949219 33.277344 210.820312 33.277344 210.820312 C 33.277344 210.820312 35.824219 210.65625 36.183594 210.617188 C 36.527344 210.578125 36.871094 210.386719 36.871094 210.386719 L 47.160156 210.949219 C 47.160156 210.949219 47.59375 211.613281 48.195312 211.820312 C 48.796875 212.011719 49.066406 212.089844 49.066406 212.089844 C 49.066406 212.089844 47.132812 212.625 51.996094 214.019531 C 56.859375 215.414062 61.492188 215.183594 62.550781 214.558594 C 63.628906 213.917969 63.945312 213.457031 63.945312 213.457031 C 63.945312 213.457031 64.777344 213.417969 64.984375 213.0625 C 65.1875 212.703125 65.316406 212.625 65.316406 212.625 C 65.316406 212.625 68.539062 211.230469 69.015625 210.359375 C 69.472656 209.492188 69.613281 209.03125 69.613281 209.03125 C 69.613281 209.03125 75.144531 205.433594 78.007812 203.234375 C 80.875 201.035156 82.871094 200.367188 82.871094 200.367188 C 82.871094 200.367188 85.199219 202.03125 85.671875 201.699219 C 86.132812 201.367188 87.398438 200.304688 88.808594 198.230469 C 90.203125 196.171875 94.003906 190.976562 94.128906 191.308594 C 94.257812 191.640625 93.527344 198.4375 94.257812 200.035156 C 94.988281 201.632812 94.257812 203.898438 94.257812 203.898438 L 96.460938 204.296875 C 96.460938 204.296875 97.253906 208.890625 98.058594 211.949219 C 98.863281 215.003906 99.453125 217.539062 99.453125 217.539062 C 99.453125 217.539062 96.816406 217.246094 96.089844 217.371094 C 95.359375 217.5 95.359375 217.769531 95.359375 217.769531 C 95.359375 217.769531 93.425781 217.476562 91.035156 219.035156 C 88.640625 220.597656 88.539062 221.070312 86.8125 222.234375 C 85.070312 223.398438 81.886719 224.894531 81.886719 224.894531 C 81.886719 224.894531 81.21875 224.628906 80.886719 224.792969 C 80.554688 224.960938 77.394531 227.121094 75.757812 227.351562 C 74.117188 227.582031 73.199219 227.457031 72.992188 227.378906 C 72.980469 227.378906 72.953125 227.367188 72.929688 227.367188 C 73.03125 227.097656 72.953125 226.777344 72.75 226.558594 C 71.777344 225.511719 70.484375 225.484375 69.167969 225.496094 C 67.9375 225.050781 66.671875 224.769531 66.222656 224.769531 L 65.496094 224.769531 C 65.496094 224.769531 65.164062 224.269531 63.832031 224.664062 C 62.5 225.0625 61.503906 226.765625 60.964844 229.964844 C 60.441406 233.160156 61.363281 234.160156 62.167969 236.960938 C 62.960938 239.765625 62.832031 240.289062 62.359375 242.347656 C 61.898438 244.421875 62.988281 249.9375 64.085938 252.007812 C 65.1875 254.070312 67.683594 255.273438 69.015625 255.398438 C 70.34375 255.539062 70.78125 254.273438 70.78125 254.273438 C 70.78125 254.273438 72.210938 253.941406 72.210938 250.714844 C 72.210938 249.796875 72.210938 248.617188 72.277344 247.390625 C 72.570312 247.324219 72.582031 246.902344 72.316406 246.8125 C 72.328125 246.558594 72.351562 246.289062 72.390625 246.035156 C 72.40625 246.019531 72.417969 246.019531 72.429688 246.007812 C 72.710938 245.945312 72.722656 245.535156 72.480469 245.445312 C 72.53125 245.175781 72.582031 244.90625 72.648438 244.640625 L 72.671875 244.640625 C 73.03125 244.640625 73.058594 244.128906 72.75 244.050781 C 72.839844 243.792969 72.929688 243.539062 73.03125 243.28125 C 73.375 243.449219 73.671875 242.9375 73.324219 242.757812 C 73.3125 242.757812 73.3125 242.746094 73.300781 242.746094 C 73.441406 242.488281 73.582031 242.246094 73.722656 242.027344 C 73.734375 242.042969 73.734375 242.042969 73.746094 242.042969 C 74.082031 242.21875 74.375 241.722656 74.066406 241.542969 C 75.039062 240.261719 76.039062 239.675781 76.550781 239.023438 C 77.214844 238.152344 77.214844 237.027344 77.214844 237.027344 C 77.214844 237.027344 80.886719 235.261719 82.140625 234.914062 C 83.394531 234.570312 84.636719 234.59375 84.777344 234.378906 C 84.917969 234.160156 84.957031 234.03125 84.957031 234.03125 C 84.957031 234.03125 97.699219 231.972656 97.96875 231.90625 C 98.238281 231.84375 102.230469 232.472656 103.894531 232.472656 C 105.554688 232.472656 106.492188 231.34375 107.820312 231.011719 C 109.152344 230.679688 110.816406 230.015625 111.878906 228.542969 C 112.9375 227.085938 113.273438 225.675781 113.078125 224.078125 C 112.886719 222.476562 112.683594 222.605469 112.683594 222.015625 C 112.683594 221.414062 112.886719 220.214844 112.886719 220.214844 C 112.886719 220.214844 114.421875 213.148438 115.214844 208.761719 L 116.277344 202.902344 L 117.148438 202.503906 L 116.878906 200.765625 C 116.878906 200.765625 116.675781 194.636719 116.085938 191.640625 C 115.484375 188.648438 115.152344 188.648438 115.152344 187.648438 C 115.152344 186.652344 115.34375 184.183594 114.882812 181.929688 C 114.421875 179.664062 114.617188 177.667969 114.359375 175.53125 C 114.089844 173.410156 112.695312 172.066406 112.695312 172.066406 C 112.695312 172.066406 112.695312 169.800781 112.363281 169.261719 C 112.03125 168.726562 111.492188 168.535156 111.492188 168.535156 L 111.558594 166.140625 L 112.351562 165.808594 C 112.351562 165.808594 112.222656 163.210938 112.554688 160.550781 C 112.886719 157.886719 113.757812 154.292969 113.679688 153.753906 C 113.617188 153.21875 113.347656 146.296875 113.078125 143.902344 C 112.8125 141.511719 111.8125 139.375 112.144531 136.046875 C 112.480469 132.71875 114.207031 130.789062 114.808594 130.125 C 115.410156 129.457031 115.269531 129.523438 115.804688 129.585938 C 116.328125 129.648438 122.125 130.851562 123.1875 130.789062 C 124.25 130.726562 124.582031 131.519531 124.453125 130.789062 C 124.328125 130.058594 124.59375 129.328125 124.59375 129.328125 C 124.59375 129.328125 131.8125 128.832031 134.050781 128.230469 C 136.277344 127.628906 137.8125 127.460938 138.414062 127.460938 C 139.015625 127.460938 144.273438 128.433594 148.472656 127.5 C 152.667969 126.566406 159.988281 123.96875 163.25 123.304688 C 166.511719 122.636719 167.777344 123.238281 167.777344 123.238281 C 167.777344 123.238281 168.570312 124.839844 170.835938 125.632812 C 173.101562 126.425781 174.035156 126.132812 175.238281 126.59375 C 176.441406 127.066406 177.132812 127.628906 177.296875 127.421875 C 177.464844 127.21875 177.796875 127.921875 177.9375 128.625 C 178.066406 129.328125 178.128906 130.558594 178.566406 130.6875 C 179 130.8125 179.625 130.417969 179.625 130.417969 C 179.625 130.417969 179.894531 130.777344 180.355469 130.777344 C 180.816406 130.777344 181.289062 129.984375 181.289062 129.984375 C 181.289062 129.984375 181.558594 130.125 181.851562 129.613281 C 182.171875 129.253906 181.867188 127.859375 181.597656 126.785156 Z M 76.167969 116.265625 C 76.152344 116.214844 76.140625 116.175781 76.128906 116.125 C 76.292969 116.292969 76.472656 116.457031 76.640625 116.613281 C 76.460938 116.523438 76.308594 116.394531 76.167969 116.265625 Z M 79.1875 98.992188 C 79.171875 98.992188 79.160156 99.003906 79.132812 99.003906 C 79.070312 98.980469 79.007812 98.953125 78.929688 98.917969 C 79.046875 98.902344 79.199219 98.890625 79.363281 98.851562 C 79.300781 98.902344 79.25 98.953125 79.1875 98.992188 Z M 79.1875 98.992188 " fill-opacity="1" fill-rule="evenodd"/></g><g clip-path="url(#afc513a6cc)"><path fill="#003a8a" d="M 137.8125 67.363281 C 137.8125 67.363281 141.871094 57.921875 148.824219 52.996094 C 155.773438 48.070312 164.808594 43.914062 168.980469 39.371094 C 173.148438 34.832031 176.703125 27.285156 187.515625 29.210938 C 187.515625 29.210938 172.609375 37.753906 177.785156 40.296875 C 182.957031 42.835938 183.808594 34.832031 190.757812 30.675781 C 197.710938 26.515625 201.03125 31.90625 207.207031 26.210938 C 207.207031 26.210938 209.214844 30.980469 200.722656 33.523438 C 192.226562 36.0625 188.828125 38.0625 189.910156 41.140625 C 190.992188 44.222656 201.03125 38.21875 207.363281 34.445312 C 213.695312 30.675781 218.792969 32.214844 222.65625 28.289062 C 226.515625 24.363281 229.296875 15.203125 229.296875 15.203125 C 229.296875 15.203125 233.929688 23.976562 227.210938 31.597656 C 220.492188 39.21875 214.160156 39.296875 212.304688 41.605469 C 210.453125 43.914062 219.257812 47.761719 224.585938 43.835938 C 229.914062 39.910156 233.851562 30.210938 233.851562 30.210938 C 233.851562 30.210938 236.554688 40.296875 228.988281 45.992188 C 221.417969 51.6875 213.851562 50.148438 211.378906 54.535156 C 208.90625 58.921875 216.398438 61.15625 220.105469 58.382812 C 223.8125 55.613281 227.519531 51.226562 227.519531 51.226562 C 227.519531 51.226562 225.898438 61.308594 217.945312 64.234375 C 209.988281 67.160156 204.351562 64.695312 202.421875 70.394531 C 200.488281 76.089844 209.0625 78.707031 211.378906 75.472656 C 213.695312 72.238281 218.40625 64.695312 222.808594 64.621094 C 222.808594 64.621094 218.253906 66.699219 217.324219 71.316406 C 216.398438 75.933594 214.082031 86.328125 205.125 87.019531 C 196.164062 87.710938 193.847656 85.480469 190.0625 88.328125 C 186.28125 91.175781 197.476562 92.714844 197.476562 92.714844 C 197.476562 92.714844 188.132812 98.566406 186.203125 96.101562 C 184.269531 93.640625 171.800781 102.445312 171.800781 102.445312 C 171.800781 102.445312 182.882812 83.710938 179.097656 74.855469 C 175.3125 66.003906 163.804688 58 156.546875 59.460938 C 149.285156 60.925781 137.8125 67.363281 137.8125 67.363281 Z M 201.226562 91.511719 C 201.226562 91.511719 203.5625 88.433594 207.480469 88.433594 C 211.402344 88.433594 217.074219 86.4375 218.996094 82.613281 C 218.996094 82.613281 219.160156 88.515625 212.570312 90.929688 C 205.980469 93.339844 206.5625 88.597656 201.226562 91.511719 Z M 227.40625 59.902344 C 227.40625 59.902344 229.015625 55.75 234.511719 52.257812 C 240.003906 48.765625 249.472656 43.101562 249.472656 43.101562 C 249.472656 43.101562 248.339844 47.632812 240.855469 52.164062 C 233.375 56.695312 231.289062 55.9375 227.40625 59.902344 Z M 190.753906 26.863281 C 190.753906 26.863281 193.121094 22.238281 199.183594 21.484375 C 205.246094 20.730469 207.894531 20.917969 210.738281 16.386719 C 210.738281 16.386719 209.789062 23.089844 202.972656 25.070312 C 196.152344 27.054688 195.585938 22.429688 190.753906 26.863281 Z M 190.753906 26.863281 " fill-opacity="1" fill-rule="evenodd"/></g><path fill="#ffffff" d="M 149.117188 60.828125 C 149.117188 60.828125 154.582031 51.820312 163.058594 53.15625 C 171.539062 54.488281 181.019531 47.597656 181.019531 47.597656 C 181.019531 47.597656 181.800781 52.488281 175.554688 55.269531 C 175.554688 55.269531 181.355469 58.269531 186.375 55.710938 C 191.394531 53.15625 189.835938 47.707031 199.761719 46.152344 C 199.761719 46.152344 196.082031 48.820312 193.070312 53.933594 C 190.058594 59.046875 187.601562 63.164062 191.507812 63.828125 C 195.414062 64.496094 201.882812 56.269531 201.882812 56.269531 C 201.882812 56.269531 204.558594 61.160156 199.207031 65.832031 C 193.851562 70.5 191.0625 65.71875 188.496094 69.277344 C 185.929688 72.835938 183.699219 76.503906 187.269531 77.394531 C 190.839844 78.285156 198.089844 75.394531 198.089844 75.394531 C 198.089844 75.394531 197.421875 80.0625 192.957031 81.730469 C 188.496094 83.398438 185.816406 79.839844 184.367188 82.507812 C 182.917969 85.175781 182.695312 90.292969 185.707031 91.070312 C 185.707031 91.070312 180.128906 93.183594 180.015625 88.070312 C 179.90625 82.953125 180.910156 77.617188 177.226562 71.058594 C 173.546875 64.496094 164.84375 56.269531 149.117188 60.828125 Z M 149.117188 60.828125 " fill-opacity="1" fill-rule="evenodd"/><path fill="#ffffff" d="M 182.976562 80.371094 C 182.976562 81.285156 182.933594 82.195312 182.84375 83.105469 C 182.753906 84.015625 182.617188 84.917969 182.441406 85.816406 C 182.261719 86.710938 182.039062 87.597656 181.773438 88.472656 C 181.503906 89.347656 181.195312 90.207031 180.847656 91.050781 C 180.496094 91.894531 180.101562 92.71875 179.671875 93.527344 C 179.238281 94.332031 178.769531 95.117188 178.257812 95.875 C 177.75 96.636719 177.203125 97.371094 176.621094 98.074219 C 176.039062 98.78125 175.421875 99.460938 174.773438 100.105469 C 174.125 100.753906 173.449219 101.363281 172.738281 101.945312 C 172.03125 102.523438 171.292969 103.070312 170.53125 103.578125 C 169.769531 104.085938 168.984375 104.554688 168.175781 104.984375 C 167.363281 105.414062 166.535156 105.804688 165.691406 106.15625 C 164.84375 106.503906 163.980469 106.8125 163.101562 107.078125 C 162.222656 107.34375 161.335938 107.566406 160.4375 107.746094 C 159.535156 107.921875 158.628906 108.058594 157.71875 108.144531 C 156.804688 108.234375 155.890625 108.28125 154.972656 108.28125 C 154.054688 108.28125 153.140625 108.234375 152.226562 108.144531 C 151.316406 108.058594 150.410156 107.921875 149.507812 107.746094 C 148.609375 107.566406 147.71875 107.34375 146.84375 107.078125 C 145.964844 106.8125 145.101562 106.503906 144.253906 106.15625 C 143.40625 105.804688 142.578125 105.414062 141.769531 104.984375 C 140.960938 104.554688 140.175781 104.085938 139.414062 103.578125 C 138.652344 103.070312 137.914062 102.523438 137.207031 101.945312 C 136.496094 101.363281 135.816406 100.753906 135.167969 100.105469 C 134.519531 99.460938 133.90625 98.78125 133.324219 98.074219 C 132.742188 97.371094 132.195312 96.636719 131.6875 95.875 C 131.175781 95.117188 130.707031 94.332031 130.273438 93.527344 C 129.839844 92.71875 129.449219 91.894531 129.097656 91.050781 C 128.746094 90.207031 128.4375 89.347656 128.171875 88.472656 C 127.90625 87.597656 127.683594 86.710938 127.503906 85.816406 C 127.324219 84.917969 127.191406 84.015625 127.101562 83.105469 C 127.011719 82.195312 126.96875 81.285156 126.96875 80.371094 C 126.96875 79.457031 127.011719 78.542969 127.101562 77.632812 C 127.191406 76.722656 127.324219 75.820312 127.503906 74.925781 C 127.683594 74.027344 127.90625 73.140625 128.171875 72.265625 C 128.4375 71.390625 128.746094 70.53125 129.097656 69.6875 C 129.449219 68.84375 129.839844 68.019531 130.273438 67.210938 C 130.707031 66.40625 131.175781 65.621094 131.6875 64.863281 C 132.195312 64.101562 132.742188 63.371094 133.324219 62.664062 C 133.90625 61.957031 134.519531 61.28125 135.167969 60.632812 C 135.816406 59.988281 136.496094 59.375 137.207031 58.792969 C 137.914062 58.214844 138.652344 57.671875 139.414062 57.160156 C 140.175781 56.652344 140.960938 56.183594 141.769531 55.753906 C 142.578125 55.324219 143.40625 54.933594 144.253906 54.582031 C 145.101562 54.234375 145.964844 53.925781 146.84375 53.660156 C 147.71875 53.394531 148.609375 53.171875 149.507812 52.996094 C 150.410156 52.816406 151.316406 52.683594 152.226562 52.59375 C 153.140625 52.503906 154.054688 52.457031 154.972656 52.457031 C 155.890625 52.457031 156.804688 52.503906 157.71875 52.59375 C 158.628906 52.683594 159.535156 52.816406 160.4375 52.996094 C 161.335938 53.171875 162.222656 53.394531 163.101562 53.660156 C 163.980469 53.925781 164.84375 54.234375 165.691406 54.582031 C 166.535156 54.933594 167.363281 55.324219 168.175781 55.753906 C 168.984375 56.183594 169.769531 56.652344 170.53125 57.160156 C 171.292969 57.671875 172.03125 58.214844 172.738281 58.792969 C 173.449219 59.375 174.125 59.988281 174.773438 60.632812 C 175.421875 61.28125 176.039062 61.957031 176.621094 62.664062 C 177.203125 63.371094 177.75 64.101562 178.257812 64.863281 C 178.769531 65.621094 179.238281 66.40625 179.671875 67.210938 C 180.101562 68.019531 180.496094 68.84375 180.847656 69.6875 C 181.195312 70.53125 181.503906 71.390625 181.773438 72.265625 C 182.039062 73.140625 182.261719 74.027344 182.441406 74.925781 C 182.617188 75.820312 182.753906 76.722656 182.84375 77.632812 C 182.933594 78.542969 182.976562 79.457031 182.976562 80.371094 Z M 182.976562 80.371094 " fill-opacity="1" fill-rule="nonzero"/><path fill="#ffd700" d="M 144.394531 84.984375 C 144.394531 84.984375 148.570312 103.671875 172.359375 102.335938 C 172.359375 102.335938 165.113281 106.339844 162.117188 107.359375 C 162.117188 107.359375 147.230469 107.515625 135.101562 94.171875 C 135.101562 94.171875 138.878906 87.574219 144.394531 84.984375 Z M 163.210938 90.875 C 163.210938 90.875 170.96875 83.371094 170.914062 75.921875 C 170.855469 68.472656 170.398438 60 167.375 55.453125 L 175.363281 60.910156 C 175.363281 60.910156 182.265625 71.941406 179.640625 82.800781 C 177.015625 93.664062 172.222656 97.246094 172.222656 97.246094 C 172.222656 97.246094 163.667969 94.003906 163.210938 90.875 Z M 127.929688 86.710938 C 127.929688 86.710938 135.335938 71.164062 145.8125 68.339844 C 156.289062 65.511719 159.125 68.105469 159.125 68.105469 L 159.125 67.082031 L 156.605469 56.089844 C 156.605469 56.089844 139.273438 55.855469 128.246094 72.421875 C 128.246094 72.421875 125.726562 80.585938 127.929688 86.710938 Z M 127.929688 86.710938 " fill-opacity="1" fill-rule="evenodd"/><path fill="#003a8a" d="M 155.933594 69.640625 C 155.933594 69.640625 155.773438 74.125 153.082031 77.328125 C 153.082031 77.328125 147.257812 78.167969 142.355469 82.375 C 142.355469 82.375 146.808594 78.421875 148.753906 77.488281 C 152.5 75.691406 155.253906 74.046875 155.933594 69.640625 Z M 155.933594 69.640625 " fill-opacity="1" fill-rule="evenodd"/><path fill="#003a8a" d="M 158.410156 81.015625 C 158.410156 81.015625 159.664062 84.804688 162.300781 87.5625 C 162.300781 87.5625 168.394531 83.082031 169.257812 75.414062 C 169.257812 75.414062 167.183594 83.253906 163.078125 84.847656 C 160.449219 85.871094 158.410156 81.015625 158.410156 81.015625 Z M 158.410156 81.015625 " fill-opacity="1" fill-rule="evenodd"/><path fill="#003a8a" d="M 150.730469 92.710938 C 150.730469 92.710938 147.328125 89.4375 146.703125 85.695312 C 146.703125 85.695312 150.613281 83.902344 152.804688 83.863281 C 152.804688 83.863281 149.066406 85.226562 148.441406 85.890625 C 147.816406 86.554688 148.113281 88.855469 150.730469 92.710938 Z M 150.730469 92.710938 " fill-opacity="1" fill-rule="evenodd"/><g clip-path="url(#6a9c7dad16)"><path fill="#003a8a" d="M 155.167969 51.15625 C 138.96875 51.15625 125.820312 64.261719 125.820312 80.410156 C 125.820312 96.554688 138.96875 109.664062 155.167969 109.664062 C 171.367188 109.664062 184.519531 96.554688 184.519531 80.410156 C 184.519531 64.261719 171.367188 51.15625 155.167969 51.15625 Z M 143 87.222656 C 142.867188 87.316406 142.734375 87.414062 142.605469 87.511719 C 140.789062 88.878906 138.964844 90.625 137.257812 92.871094 C 137.882812 93.976562 140.570312 98.359375 145.667969 101.902344 C 148.839844 104.101562 152.871094 105.976562 157.886719 106.621094 C 152.660156 106.671875 148.273438 105.292969 144.714844 103.488281 C 139.972656 101.085938 136.75 97.886719 135.136719 96.035156 C 134.890625 96.453125 134.652344 96.882812 134.414062 97.324219 C 139.335938 103.3125 146.808594 107.132812 155.167969 107.132812 C 160.851562 107.132812 166.125 105.367188 170.464844 102.355469 C 163.675781 102.503906 158.515625 101.15625 154.578125 99.21875 C 147.351562 95.664062 144.199219 90.070312 143 87.222656 Z M 170.683594 102.203125 C 172.179688 101.144531 173.5625 99.933594 174.808594 98.597656 C 169.5625 97.667969 165.53125 95.824219 162.40625 93.722656 C 157.082031 90.144531 154.410156 85.726562 153.210938 83.140625 C 151.585938 83.335938 149.011719 83.867188 146.144531 85.3125 C 146.648438 87.28125 148.683594 93.316406 155.484375 97.601562 C 159.121094 99.890625 164.027344 101.679688 170.683594 102.203125 Z M 175.167969 96.730469 C 175.496094 96.832031 175.828125 96.929688 176.167969 97.023438 C 179.808594 92.460938 181.984375 86.6875 181.984375 80.410156 C 181.984375 66.210938 170.851562 54.582031 156.816406 53.730469 C 159.316406 58.304688 160.386719 62.519531 160.710938 66.210938 C 161.335938 73.324219 159.058594 78.542969 157.824219 80.789062 C 158.28125 82.371094 159.492188 85.582031 162.363281 88.824219 C 164.507812 87.179688 168.492188 83.335938 170.042969 76.570312 C 171.070312 72.101562 171.070312 66.453125 168.96875 59.386719 C 171.886719 66.402344 172.441406 72.199219 171.875 76.886719 C 170.980469 84.289062 167.253906 88.976562 164.886719 91.269531 C 166.710938 92.796875 168.941406 94.238281 171.675781 95.433594 C 172.871094 94.234375 176.085938 90.667969 178.085938 85.292969 C 179.425781 81.683594 180.234375 77.324219 179.597656 72.320312 C 180.960938 77.351562 180.726562 81.929688 179.867188 85.816406 C 178.761719 90.832031 176.570312 94.660156 175.167969 96.730469 Z M 154.941406 54.214844 C 154.867188 54.039062 154.796875 53.863281 154.71875 53.6875 C 140.128906 53.925781 128.355469 65.808594 128.355469 80.410156 C 128.355469 86.0625 130.121094 91.3125 133.132812 95.632812 C 135.105469 90.878906 137.691406 87.429688 140.332031 84.871094 C 145.476562 79.894531 150.976562 78.363281 153.503906 77.902344 C 154.46875 76.523438 156.269531 73.46875 156.957031 69.054688 C 154.28125 68.46875 148.835938 67.929688 142.703125 71.015625 C 138.597656 73.082031 134.234375 76.6875 130.125 82.8125 C 133.675781 76.09375 137.796875 71.964844 141.78125 69.40625 C 148 65.410156 153.933594 65.234375 157.238281 65.570312 C 157.257812 63.199219 156.957031 60.574219 156.144531 57.707031 C 154.386719 57.5625 149.644531 57.40625 144.304688 59.277344 C 140.660156 60.550781 136.78125 62.71875 133.324219 66.398438 C 136.335938 62.140625 140.019531 59.398438 143.570312 57.574219 C 148.113281 55.238281 152.433594 54.46875 154.941406 54.214844 Z M 154.972656 80.371094 Z M 154.972656 80.371094 " fill-opacity="1" fill-rule="evenodd"/></g><g fill="#003a8a" fill-opacity="1"><g transform="translate(16.909472, 331.200523)"><g><path d="M 8.03125 0 L 0.75 -59.078125 L 12.015625 -59.078125 L 16.34375 -18.890625 L 20.1875 -59.078125 L 31.453125 -59.078125 L 24.171875 0 Z M 8.03125 0 "/></g></g></g><g fill="#003a8a" fill-opacity="1"><g transform="translate(54.825493, 331.200523)"><g><path d="M 16.6875 0.546875 C 11.925781 0.546875 8.304688 -0.90625 5.828125 -3.8125 C 3.359375 -6.71875 2.125 -10.804688 2.125 -16.078125 L 2.125 -44.171875 C 2.125 -49.253906 3.359375 -53.085938 5.828125 -55.671875 C 8.304688 -58.253906 11.925781 -59.546875 16.6875 -59.546875 C 21.445312 -59.546875 25.0625 -58.253906 27.53125 -55.671875 C 30.007812 -53.085938 31.25 -49.253906 31.25 -44.171875 L 31.25 -16.078125 C 31.25 -10.765625 30.007812 -6.664062 27.53125 -3.78125 C 25.0625 -0.894531 21.445312 0.546875 16.6875 0.546875 Z M 16.6875 -10.296875 C 17.738281 -10.296875 18.445312 -10.753906 18.8125 -11.671875 C 19.1875 -12.585938 19.375 -13.867188 19.375 -15.515625 L 19.375 -44.375 C 19.375 -45.65625 19.203125 -46.695312 18.859375 -47.5 C 18.515625 -48.300781 17.816406 -48.703125 16.765625 -48.703125 C 14.796875 -48.703125 13.8125 -47.210938 13.8125 -44.234375 L 13.8125 -15.453125 C 13.8125 -13.753906 14.015625 -12.46875 14.421875 -11.59375 C 14.835938 -10.726562 15.59375 -10.296875 16.6875 -10.296875 Z M 16.6875 -10.296875 "/></g></g></g><g fill="#003a8a" fill-opacity="1"><g transform="translate(93.909192, 331.200523)"><g><path d="M 2.609375 0 L 2.609375 -59 L 14.421875 -59 L 14.421875 -10.03125 L 26.578125 -10.03125 L 26.578125 0 Z M 2.609375 0 "/></g></g></g><g fill="#003a8a" fill-opacity="1"><g transform="translate(126.879721, 331.200523)"><g><path d="M 2.609375 0 L 2.609375 -59 L 14.421875 -59 L 14.421875 -10.03125 L 26.578125 -10.03125 L 26.578125 0 Z M 2.609375 0 "/></g></g></g><g fill="#003a8a" fill-opacity="1"><g transform="translate(159.850254, 331.200523)"><g><path d="M 2.609375 0 L 2.609375 -59 L 26.234375 -59 L 26.234375 -47.59375 L 14.625 -47.59375 L 14.625 -36.125 L 25.75 -36.125 L 25.75 -25 L 14.625 -25 L 14.625 -11.46875 L 27 -11.46875 L 27 0 Z M 2.609375 0 "/></g></g></g><g fill="#003a8a" fill-opacity="1"><g transform="translate(193.851077, 331.200523)"><g><path d="M 9.75 0 L 9.75 -19.4375 L 0.34375 -59 L 12.015625 -59 L 15.3125 -39.015625 L 18.609375 -59 L 30.296875 -59 L 20.875 -19.4375 L 20.875 0 Z M 9.75 0 "/></g></g></g><g fill="#003a8a" fill-opacity="1"><g transform="translate(230.187287, 331.200523)"><g><path d="M 2.609375 -59 L 18.609375 -59 C 22.921875 -59 26.046875 -57.945312 27.984375 -55.84375 C 29.929688 -53.738281 30.90625 -50.304688 30.90625 -45.546875 L 30.90625 -42.921875 C 30.90625 -37.296875 28.890625 -33.929688 24.859375 -32.828125 C 27.335938 -32.191406 29.078125 -30.703125 30.078125 -28.359375 C 31.085938 -26.023438 31.59375 -22.9375 31.59375 -19.09375 C 31.59375 -12.820312 30.65625 -8.070312 28.78125 -4.84375 C 26.90625 -1.613281 23.515625 0 18.609375 0 L 2.609375 0 Z M 16.546875 -36.8125 C 17.554688 -36.8125 18.242188 -37.1875 18.609375 -37.9375 C 18.972656 -38.695312 19.15625 -39.765625 19.15625 -41.140625 L 19.15625 -47.046875 C 19.15625 -48.972656 18.3125 -49.9375 16.625 -49.9375 L 14.15625 -49.9375 L 14.15625 -36.8125 Z M 15.3125 -10.375 C 18.382812 -10.375 19.921875 -11.835938 19.921875 -14.765625 L 19.921875 -22.125 C 19.921875 -23.90625 19.65625 -25.253906 19.125 -26.171875 C 18.601562 -27.085938 17.675781 -27.546875 16.34375 -27.546875 L 14.15625 -27.546875 L 14.15625 -10.4375 Z M 15.3125 -10.375 "/></g></g></g><g fill="#003a8a" fill-opacity="1"><g transform="translate(268.790184, 331.200523)"><g><path d="M 1.03125 0 L 6.734375 -59 L 26.71875 -59 L 32.359375 0 L 21.15625 0 L 20.328125 -9.546875 L 13.1875 -9.546875 L 12.5 0 Z M 14.078125 -18.953125 L 19.4375 -18.953125 L 16.828125 -48.96875 L 16.28125 -48.96875 Z M 14.078125 -18.953125 "/></g></g></g><g fill="#003a8a" fill-opacity="1"><g transform="translate(307.805215, 331.200523)"><g><path d="M 2.609375 0 L 2.609375 -59 L 14.421875 -59 L 14.421875 -10.03125 L 26.578125 -10.03125 L 26.578125 0 Z M 2.609375 0 "/></g></g></g><g fill="#003a8a" fill-opacity="1"><g transform="translate(340.775748, 331.200523)"><g><path d="M 2.609375 0 L 2.609375 -59 L 14.421875 -59 L 14.421875 -10.03125 L 26.578125 -10.03125 L 26.578125 0 Z M 2.609375 0 "/></g></g></g><g fill="#a6a6a6" fill-opacity="1"><g transform="translate(28.158951, 367.787085)"><g><path d="M 11.28125 0 L 6.609375 0 L 6.609375 -18.171875 L 0.625 -18.171875 L 0.625 -22.0625 L 17.28125 -22.0625 L 17.28125 -18.171875 L 11.28125 -18.171875 Z M 11.28125 0 "/></g></g></g><g fill="#a6a6a6" fill-opacity="1"><g transform="translate(55.674137, 367.787085)"><g><path d="M 22.796875 -11.0625 C 22.796875 -7.40625 21.890625 -4.597656 20.078125 -2.640625 C 18.273438 -0.679688 15.679688 0.296875 12.296875 0.296875 C 8.921875 0.296875 6.328125 -0.679688 4.515625 -2.640625 C 2.703125 -4.597656 1.796875 -7.414062 1.796875 -11.09375 C 1.796875 -14.757812 2.703125 -17.5625 4.515625 -19.5 C 6.335938 -21.4375 8.941406 -22.40625 12.328125 -22.40625 C 15.722656 -22.40625 18.316406 -21.429688 20.109375 -19.484375 C 21.898438 -17.535156 22.796875 -14.726562 22.796875 -11.0625 Z M 6.703125 -11.0625 C 6.703125 -8.59375 7.164062 -6.734375 8.09375 -5.484375 C 9.03125 -4.242188 10.429688 -3.625 12.296875 -3.625 C 16.023438 -3.625 17.890625 -6.101562 17.890625 -11.0625 C 17.890625 -16.03125 16.035156 -18.515625 12.328125 -18.515625 C 10.460938 -18.515625 9.054688 -17.890625 8.109375 -16.640625 C 7.171875 -15.390625 6.703125 -13.53125 6.703125 -11.0625 Z M 6.703125 -11.0625 "/></g></g></g><g fill="#a6a6a6" fill-opacity="1"><g transform="translate(89.891036, 367.787085)"><g><path d="M 20.734375 -22.0625 L 20.734375 -7.78125 C 20.734375 -6.15625 20.367188 -4.726562 19.640625 -3.5 C 18.910156 -2.269531 17.851562 -1.328125 16.46875 -0.671875 C 15.09375 -0.0234375 13.46875 0.296875 11.59375 0.296875 C 8.75 0.296875 6.539062 -0.425781 4.96875 -1.875 C 3.40625 -3.332031 2.625 -5.320312 2.625 -7.84375 L 2.625 -22.0625 L 7.28125 -22.0625 L 7.28125 -8.5625 C 7.28125 -6.851562 7.625 -5.601562 8.3125 -4.8125 C 9 -4.019531 10.128906 -3.625 11.703125 -3.625 C 13.234375 -3.625 14.34375 -4.019531 15.03125 -4.8125 C 15.726562 -5.613281 16.078125 -6.875 16.078125 -8.59375 L 16.078125 -22.0625 Z M 20.734375 -22.0625 "/></g></g></g><g fill="#a6a6a6" fill-opacity="1"><g transform="translate(122.870227, 367.787085)"><g><path d="M 7.453125 -12.265625 L 8.96875 -12.265625 C 10.445312 -12.265625 11.535156 -12.507812 12.234375 -13 C 12.941406 -13.5 13.296875 -14.273438 13.296875 -15.328125 C 13.296875 -16.378906 12.9375 -17.125 12.21875 -17.5625 C 11.5 -18.007812 10.382812 -18.234375 8.875 -18.234375 L 7.453125 -18.234375 Z M 7.453125 -8.46875 L 7.453125 0 L 2.78125 0 L 2.78125 -22.0625 L 9.203125 -22.0625 C 12.203125 -22.0625 14.421875 -21.515625 15.859375 -20.421875 C 17.296875 -19.328125 18.015625 -17.671875 18.015625 -15.453125 C 18.015625 -14.148438 17.65625 -12.992188 16.9375 -11.984375 C 16.226562 -10.972656 15.21875 -10.179688 13.90625 -9.609375 C 17.226562 -4.648438 19.394531 -1.445312 20.40625 0 L 15.21875 0 L 9.9375 -8.46875 Z M 7.453125 -8.46875 "/></g></g></g><g fill="#a6a6a6" fill-opacity="1"><g transform="translate(152.891015, 367.787085)"><g><path d="M 22.34375 0 L 16.40625 0 L 6.8125 -16.6875 L 6.671875 -16.6875 C 6.859375 -13.738281 6.953125 -11.632812 6.953125 -10.375 L 6.953125 0 L 2.78125 0 L 2.78125 -22.0625 L 8.671875 -22.0625 L 18.265625 -5.53125 L 18.359375 -5.53125 C 18.210938 -8.40625 18.140625 -10.4375 18.140625 -11.625 L 18.140625 -22.0625 L 22.34375 -22.0625 Z M 22.34375 0 "/></g></g></g><g fill="#a6a6a6" fill-opacity="1"><g transform="translate(187.636207, 367.787085)"><g><path d="M 16.28125 0 L 14.6875 -5.25 L 6.640625 -5.25 L 5.046875 0 L 0 0 L 7.78125 -22.15625 L 13.5 -22.15625 L 21.328125 0 Z M 13.5625 -9.171875 C 12.082031 -13.929688 11.25 -16.625 11.0625 -17.25 C 10.882812 -17.875 10.753906 -18.367188 10.671875 -18.734375 C 10.335938 -17.441406 9.382812 -14.253906 7.8125 -9.171875 Z M 13.5625 -9.171875 "/></g></g></g><g fill="#a6a6a6" fill-opacity="1"><g transform="translate(218.577724, 367.787085)"><g><path d="M 12.125 0 L 6.8125 -17.3125 L 6.671875 -17.3125 C 6.859375 -13.789062 6.953125 -11.441406 6.953125 -10.265625 L 6.953125 0 L 2.78125 0 L 2.78125 -22.0625 L 9.140625 -22.0625 L 14.359375 -5.1875 L 14.453125 -5.1875 L 20 -22.0625 L 26.359375 -22.0625 L 26.359375 0 L 22 0 L 22 -10.4375 C 22 -10.9375 22.003906 -11.503906 22.015625 -12.140625 C 22.035156 -12.785156 22.109375 -14.5 22.234375 -17.28125 L 22.09375 -17.28125 L 16.40625 0 Z M 12.125 0 "/></g></g></g><g fill="#a6a6a6" fill-opacity="1"><g transform="translate(257.337909, 367.787085)"><g><path d="M 15.484375 0 L 2.78125 0 L 2.78125 -22.0625 L 15.484375 -22.0625 L 15.484375 -18.234375 L 7.453125 -18.234375 L 7.453125 -13.390625 L 14.921875 -13.390625 L 14.921875 -9.546875 L 7.453125 -9.546875 L 7.453125 -3.859375 L 15.484375 -3.859375 Z M 15.484375 0 "/></g></g></g><g fill="#a6a6a6" fill-opacity="1"><g transform="translate(284.264436, 367.787085)"><g><path d="M 22.34375 0 L 16.40625 0 L 6.8125 -16.6875 L 6.671875 -16.6875 C 6.859375 -13.738281 6.953125 -11.632812 6.953125 -10.375 L 6.953125 0 L 2.78125 0 L 2.78125 -22.0625 L 8.671875 -22.0625 L 18.265625 -5.53125 L 18.359375 -5.53125 C 18.210938 -8.40625 18.140625 -10.4375 18.140625 -11.625 L 18.140625 -22.0625 L 22.34375 -22.0625 Z M 22.34375 0 "/></g></g></g><g fill="#a6a6a6" fill-opacity="1"><g transform="translate(319.009628, 367.787085)"><g><path d="M 11.28125 0 L 6.609375 0 L 6.609375 -18.171875 L 0.625 -18.171875 L 0.625 -22.0625 L 17.28125 -22.0625 L 17.28125 -18.171875 L 11.28125 -18.171875 Z M 11.28125 0 "/></g></g></g></svg>