<svg xmlns="http://www.w3.org/2000/svg" xmlns:xlink="http://www.w3.org/1999/xlink" width="300" zoomAndPan="magnify" viewBox="0 0 224.87999 135.000003" height="180" preserveAspectRatio="xMidYMid meet" version="1.0"><defs><g/></defs><g fill="#38b6ff" fill-opacity="1"><g transform="translate(-2.407911, 127.312575)"><g><path d="M 28.296875 -19.625 C 28.296875 -16.914062 28.796875 -14.351562 29.796875 -11.9375 C 30.796875 -9.519531 32.179688 -7.425781 33.953125 -5.65625 C 35.722656 -3.882812 37.785156 -2.5 40.140625 -1.5 C 42.492188 -0.5 45.03125 0 47.75 0 L 4.421875 0 C 7.015625 -0.351562 9.519531 -1.175781 11.9375 -2.46875 C 14.351562 -3.769531 16.617188 -5.390625 18.734375 -7.328125 C 20.859375 -9.273438 22.742188 -11.425781 24.390625 -13.78125 C 26.046875 -16.144531 27.347656 -18.566406 28.296875 -21.046875 Z M 62.25 0 C 64.71875 0 66.835938 -1.03125 68.609375 -3.09375 C 70.378906 -5.15625 71.265625 -7.484375 71.265625 -10.078125 C 71.265625 -10.546875 71.265625 -11.015625 71.265625 -11.484375 C 71.265625 -11.960938 71.144531 -12.4375 70.90625 -12.90625 L 65.78125 -27.765625 L 65.421875 -28.828125 L 52.875 -65.078125 C 52.050781 -67.078125 50.578125 -68.078125 48.453125 -68.078125 C 46.441406 -68.078125 45.023438 -67.078125 44.203125 -65.078125 L 65.421875 -123.78125 L 85.046875 -67.375 C 85.878906 -65.007812 86.820312 -62.207031 87.875 -58.96875 C 88.9375 -55.726562 89.882812 -52.929688 90.71875 -50.578125 L 105.21875 -9.1875 C 106.039062 -6.832031 107.484375 -4.710938 109.546875 -2.828125 C 111.609375 -0.941406 113.992188 0 116.703125 0 Z M 62.25 0 "/></g></g></g><g fill="#5271ff" fill-opacity="1"><g transform="translate(109.463407, 127.566419)"><g><path d="M 80.390625 -113.296875 C 80.390625 -115.078125 79.882812 -116.617188 78.875 -117.921875 C 77.875 -119.222656 76.601562 -120.316406 75.0625 -121.203125 C 73.519531 -122.097656 71.828125 -122.78125 69.984375 -123.25 C 68.148438 -123.726562 66.398438 -124.085938 64.734375 -124.328125 C 69.003906 -123.972656 73.15625 -123.113281 77.1875 -121.75 C 81.21875 -120.382812 84.953125 -118.660156 88.390625 -116.578125 C 91.828125 -114.503906 94.878906 -112.160156 97.546875 -109.546875 C 100.222656 -106.941406 102.445312 -104.28125 104.21875 -101.5625 C 105.40625 -99.539062 106.320312 -97.550781 106.96875 -95.59375 C 107.625 -93.644531 107.953125 -91.71875 107.953125 -89.8125 C 107.953125 -87.207031 107.445312 -84.75 106.4375 -82.4375 C 105.4375 -80.125 104.078125 -78.109375 102.359375 -76.390625 C 100.640625 -74.671875 98.625 -73.304688 96.3125 -72.296875 C 94 -71.285156 91.535156 -70.78125 88.921875 -70.78125 C 86.316406 -70.78125 83.859375 -71.285156 81.546875 -72.296875 C 79.234375 -73.304688 77.21875 -74.671875 75.5 -76.390625 C 73.78125 -78.109375 72.414062 -80.125 71.40625 -82.4375 C 70.40625 -84.75 69.90625 -87.207031 69.90625 -89.8125 C 69.90625 -92.78125 70.4375 -95.242188 71.5 -97.203125 C 72.5625 -99.160156 73.710938 -100.9375 74.953125 -102.53125 C 76.203125 -104.132812 77.390625 -105.734375 78.515625 -107.328125 C 79.648438 -108.929688 80.273438 -110.921875 80.390625 -113.296875 Z M 80.5625 -16.359375 C 85.550781 -16.359375 90.472656 -17.453125 95.328125 -19.640625 C 100.191406 -21.835938 104.398438 -25.015625 107.953125 -29.171875 C 102.972656 -20.273438 96.332031 -13.1875 88.03125 -7.90625 C 79.738281 -2.632812 70.550781 0 60.46875 0 C 52.757812 0 45.492188 -1.628906 38.671875 -4.890625 C 31.859375 -8.148438 25.898438 -12.59375 20.796875 -18.21875 C 15.703125 -23.851562 11.703125 -30.460938 8.796875 -38.046875 C 5.898438 -45.640625 4.453125 -53.707031 4.453125 -62.25 C 4.453125 -70.789062 5.898438 -78.851562 8.796875 -86.4375 C 11.703125 -94.03125 15.703125 -100.640625 20.796875 -106.265625 C 25.898438 -111.898438 31.859375 -116.347656 38.671875 -119.609375 C 45.492188 -122.867188 52.757812 -124.5 60.46875 -124.5 C 57.863281 -124.5 55.285156 -123.164062 52.734375 -120.5 C 50.179688 -117.832031 47.867188 -114.273438 45.796875 -109.828125 C 43.722656 -105.378906 42.0625 -100.160156 40.8125 -94.171875 C 39.570312 -88.179688 38.953125 -81.925781 38.953125 -75.40625 C 38.953125 -67.226562 40.046875 -59.550781 42.234375 -52.375 C 44.429688 -45.207031 47.394531 -38.953125 51.125 -33.609375 C 54.863281 -28.273438 59.28125 -24.066406 64.375 -20.984375 C 69.476562 -17.898438 74.875 -16.359375 80.5625 -16.359375 Z M 80.5625 -16.359375 "/></g></g></g></svg>