<svg xmlns="http://www.w3.org/2000/svg" xmlns:xlink="http://www.w3.org/1999/xlink" width="250" zoomAndPan="magnify" viewBox="0 0 187.5 225" height="300" preserveAspectRatio="xMidYMid meet" version="1.0"><defs><g/></defs><g fill="#ff833f" fill-opacity="1"><g transform="translate(5.590071, 203.272297)"><g><path d="M 50.859375 13.609375 C 54.09375 13.609375 57.34375 13.28125 60.90625 12.953125 C 66.078125 12.3125 71.59375 11.984375 76.453125 10.359375 C 80.34375 9.0625 84.21875 7.78125 87.46875 5.5 C 88.109375 4.859375 97.1875 0.328125 96.859375 -0.640625 C 96.859375 -0.96875 96.53125 -1.296875 96.203125 -1.296875 C 94.265625 -1.296875 90.375 1.296875 88.109375 1.9375 C 85.203125 2.59375 81.953125 3.5625 79.046875 4.21875 C 75.796875 4.859375 72.5625 5.828125 69.640625 6.484375 C 69 6.484375 67.703125 7.125 66.734375 7.125 C 66.40625 7.125 66.078125 6.796875 66.078125 6.484375 C 66.078125 5.828125 69.96875 5.1875 70.625 4.53125 C 71.59375 3.5625 73.203125 3.5625 74.5 3.234375 C 76.125 2.59375 80.015625 1.9375 81.3125 0.328125 C 81.625 -0.328125 81.953125 -0.640625 81.953125 -1.296875 C 81.953125 -1.625 80.34375 -1.9375 80.34375 -1.9375 C 81.625 -2.921875 81.953125 -3.5625 82.921875 -4.21875 C 85.515625 -5.5 88.4375 -6.484375 91.03125 -7.453125 C 93.9375 -9.0625 97.1875 -9.71875 100.421875 -10.6875 C 102.6875 -11.34375 105.28125 -11.984375 107.546875 -12.953125 C 110.46875 -14.25 113.375 -15.875 116.625 -16.515625 C 117.90625 -16.84375 121.796875 -17.5 121.46875 -19.4375 C 121.46875 -20.40625 120.828125 -20.734375 120.5 -20.734375 C 117.265625 -20.734375 109.171875 -15.546875 107.21875 -15.546875 C 105.921875 -15.546875 105.609375 -15.875 105.609375 -16.203125 C 105.28125 -16.84375 108.1875 -18.140625 108.84375 -18.78125 C 110.140625 -19.4375 111.4375 -20.078125 112.734375 -20.734375 C 114.03125 -21.375 115 -22.03125 116.296875 -22.671875 C 119.53125 -24.296875 122.453125 -26.234375 125.359375 -28.5 C 127.953125 -30.125 130.546875 -31.75 132.8125 -33.359375 C 135.734375 -35.3125 138.640625 -36.921875 141.5625 -39.203125 C 143.1875 -40.8125 144.796875 -42.765625 145.765625 -44.703125 C 146.09375 -45.671875 147.0625 -46.96875 147.0625 -47.9375 C 147.0625 -48.921875 144.796875 -49.234375 144.796875 -49.890625 C 144.796875 -51.1875 146.75 -52.796875 146.75 -54.09375 C 146.75 -54.421875 146.09375 -55.0625 145.453125 -55.0625 C 144.15625 -55.0625 142.203125 -51.828125 141.5625 -51.1875 C 140.265625 -48.921875 139.296875 -47.625 137.34375 -46 C 132.171875 -42.109375 127.3125 -38.546875 121.796875 -34.984375 C 118.890625 -33.359375 116.625 -31.421875 113.703125 -29.796875 C 111.4375 -28.1875 108.84375 -27.53125 106.578125 -26.234375 C 100.09375 -22.671875 93.296875 -19.4375 86.484375 -16.515625 C 81.953125 -14.578125 77.09375 -12.953125 72.234375 -11.34375 C 66.40625 -9.390625 60.578125 -7.125 54.09375 -6.484375 C 50.53125 -6.15625 47.296875 -5.828125 43.734375 -5.828125 C 43.40625 -5.828125 43.078125 -5.828125 42.765625 -5.828125 C 40.484375 -5.828125 38.21875 -5.828125 35.953125 -6.484375 C 33.359375 -7.125 29.796875 -7.78125 27.203125 -9.390625 C 26.5625 -10.046875 25.921875 -10.6875 25.265625 -11.015625 C 24.296875 -11.65625 23.96875 -11.984375 23.640625 -12.953125 C 22.03125 -16.203125 21.703125 -19.765625 21.703125 -23.328125 C 21.703125 -26.5625 22.03125 -29.484375 22.359375 -32.0625 C 23 -35.3125 23.96875 -38.21875 24.9375 -41.46875 C 25.59375 -44.0625 25.921875 -46.640625 26.5625 -49.234375 C 28.1875 -55.390625 32.0625 -61.546875 34.984375 -67.0625 C 37.90625 -72.5625 39.84375 -78.390625 43.40625 -83.578125 C 46.640625 -89.078125 49.890625 -94.265625 53.78125 -99.453125 C 57.65625 -104.625 61.546875 -110.140625 65.109375 -115.640625 C 67.0625 -118.234375 69 -120.1875 70.9375 -122.765625 C 71.921875 -123.75 72.234375 -125.359375 73.203125 -126.328125 C 73.859375 -126.984375 74.5 -126.984375 75.15625 -127.625 C 75.796875 -128.609375 76.125 -129.578125 76.765625 -130.21875 C 77.75 -130.875 78.390625 -130.875 79.046875 -131.84375 C 79.6875 -132.484375 79.6875 -134.109375 80.65625 -135.078125 C 81.3125 -135.734375 81.953125 -136.375 82.921875 -137.34375 C 83.90625 -138.328125 84.875 -138.640625 86.171875 -139.609375 C 87.46875 -140.59375 87.46875 -141.234375 88.109375 -142.859375 C 88.765625 -143.828125 89.734375 -144.15625 90.703125 -145.125 C 91.671875 -145.765625 92.328125 -146.75 93.296875 -147.390625 C 96.53125 -149.984375 99.765625 -152.90625 103.015625 -155.8125 C 105.28125 -158.078125 107.875 -160.671875 110.78125 -162.296875 C 111.4375 -162.9375 112.734375 -162.9375 113.375 -163.90625 C 114.03125 -164.5625 114.03125 -166.1875 114.671875 -166.828125 C 115.96875 -168.125 118.890625 -168.453125 120.5 -169.421875 C 122.453125 -170.71875 124.390625 -172.015625 126.328125 -173.3125 C 129.25 -175.25 132.484375 -176.546875 136.046875 -177.84375 C 138.640625 -179.140625 141.5625 -179.78125 144.15625 -180.75 C 145.453125 -181.078125 148.046875 -182.375 149.984375 -182.375 C 151.921875 -182.375 152.578125 -180.4375 152.578125 -179.46875 C 152.578125 -179.140625 154.1875 -177.84375 154.1875 -177.84375 C 152.578125 -177.515625 152.25 -176.21875 152.25 -175.25 C 151.921875 -174.28125 151.921875 -173.625 151.609375 -172.328125 C 151.609375 -171.6875 151.28125 -170.71875 151.28125 -169.75 C 150.3125 -167.15625 149.015625 -164.5625 147.71875 -162.296875 C 144.46875 -155.8125 140.59375 -151.609375 136.375 -145.765625 C 132.8125 -140.90625 128.921875 -134.4375 125.046875 -130.21875 C 120.828125 -125.359375 115.96875 -120.828125 111.765625 -115.96875 C 109.171875 -113.375 106.578125 -111.109375 103.984375 -108.84375 C 101.71875 -106.90625 99.453125 -103.984375 96.53125 -102.6875 C 94.59375 -101.71875 92.640625 -102.6875 92.640625 -100.421875 C 92.640625 -99.125 93.625 -97.828125 94.59375 -96.859375 C 95.890625 -95.890625 97.1875 -94.90625 98.484375 -94.265625 C 101.0625 -92.328125 104.953125 -90.046875 107.875 -90.375 C 110.140625 -90.375 112.078125 -91.671875 114.03125 -92.96875 C 119.859375 -96.53125 125.046875 -100.75 129.578125 -105.609375 C 133.78125 -109.8125 137.671875 -114.34375 141.890625 -118.890625 C 150.3125 -128.28125 156.78125 -139.609375 162.609375 -151.28125 C 165.203125 -156.46875 167.796875 -161.96875 167.796875 -168.125 C 167.796875 -172.328125 166.1875 -175.890625 164.5625 -179.46875 C 163.90625 -182.046875 163.59375 -183.671875 161.96875 -185.609375 C 160.34375 -187.234375 158.40625 -189.5 156.140625 -191.453125 C 153.546875 -193.390625 150.953125 -195.015625 148.359375 -195.015625 C 145.765625 -195.015625 142.53125 -196.625 139.9375 -196.3125 C 139.609375 -196.3125 139.296875 -196.3125 138.96875 -196.3125 C 136.703125 -195.984375 134.765625 -196.625 132.484375 -197.28125 C 131.515625 -197.609375 130.546875 -197.609375 129.90625 -197.609375 C 124.71875 -197.28125 119.859375 -193.71875 115.640625 -191.453125 C 110.46875 -188.203125 104.953125 -184.328125 100.09375 -180.4375 C 95.234375 -176.875 90.703125 -172.65625 86.8125 -168.453125 C 84.875 -166.1875 82.28125 -164.890625 80.015625 -162.9375 C 78.0625 -161 76.765625 -158.40625 74.828125 -156.46875 C 70.296875 -152.25 66.078125 -148.359375 62.515625 -143.5 C 59.28125 -138.96875 55.0625 -134.765625 51.828125 -129.90625 C 48.265625 -125.046875 44.375 -119.859375 40.8125 -115 C 37.578125 -110.46875 34.34375 -106.25 31.421875 -101.390625 C 28.828125 -97.1875 26.5625 -92.640625 23.96875 -88.109375 C 20.734375 -82.921875 17.8125 -76.765625 15.546875 -70.9375 C 13.28125 -65.109375 11.65625 -58.953125 9.71875 -52.796875 C 9.390625 -51.1875 9.0625 -49.234375 8.75 -47.296875 C 8.421875 -46.328125 8.09375 -44.375 8.09375 -43.734375 C 8.09375 -42.4375 8.75 -42.4375 8.75 -42.4375 C 9.71875 -42.4375 9.71875 -46 10.046875 -46.640625 C 10.359375 -49.5625 11.34375 -52.796875 12.3125 -55.71875 C 13.28125 -59.28125 14.578125 -62.84375 15.875 -66.40625 C 18.140625 -71.265625 20.40625 -76.125 22.671875 -80.984375 C 24.9375 -85.84375 27.859375 -90.703125 30.78125 -95.234375 C 32.390625 -97.5 34.984375 -100.421875 35.953125 -103.34375 C 36.28125 -104.3125 36.28125 -105.28125 36.609375 -106.25 C 37.25 -107.546875 38.546875 -107.21875 39.515625 -108.1875 C 40.171875 -108.84375 40.171875 -110.46875 40.484375 -111.4375 C 41.140625 -112.40625 42.109375 -113.375 43.078125 -114.03125 C 44.0625 -115 45.03125 -115.640625 46 -116.9375 C 46.640625 -117.90625 46.640625 -119.53125 47.296875 -120.5 C 48.265625 -122.765625 50.859375 -124.0625 52.484375 -126.015625 C 54.09375 -127.953125 54.75 -129.578125 56.6875 -131.1875 C 58.953125 -132.8125 59.28125 -135.734375 60.90625 -138 C 62.84375 -139.9375 64.78125 -141.5625 66.40625 -143.828125 C 67.703125 -145.125 69 -146.09375 70.296875 -147.0625 C 70.9375 -148.046875 71.265625 -148.6875 71.921875 -149.328125 C 73.53125 -150.953125 75.15625 -150.953125 76.453125 -152.90625 C 79.046875 -157.75 83.578125 -161.640625 87.78125 -165.203125 C 92.328125 -169.421875 97.1875 -173.3125 102.359375 -176.546875 C 105.28125 -178.484375 107.546875 -180.4375 110.46875 -182.046875 C 111.765625 -183.03125 114.34375 -185.296875 115.96875 -185.296875 C 116.9375 -185.296875 118.234375 -184.96875 118.234375 -183.671875 C 118.234375 -183.03125 116.625 -182.046875 116.296875 -181.734375 C 114.671875 -180.4375 113.046875 -178.8125 111.4375 -177.1875 C 109.171875 -175.25 106.578125 -173.953125 104.3125 -172.328125 C 102.046875 -170.71875 100.09375 -168.453125 97.828125 -166.5 C 93.625 -162.609375 89.078125 -159.046875 84.875 -155.171875 C 77.09375 -148.046875 69.96875 -140.265625 63.484375 -132.171875 C 57.984375 -125.359375 52.796875 -118.5625 47.9375 -111.765625 C 44.0625 -106.25 40.171875 -101.0625 36.28125 -95.5625 C 32.71875 -90.375 30.125 -84.546875 27.203125 -79.046875 C 23.96875 -73.203125 21.0625 -67.703125 18.46875 -61.875 C 16.203125 -56.046875 14.25 -50.203125 12.953125 -44.375 C 11.015625 -37.90625 10.359375 -31.09375 10.6875 -23.96875 C 11.015625 -21.375 11.984375 -13.921875 13.609375 -10.6875 C 15.875 -6.484375 19.765625 -2.59375 23 0.640625 C 25.921875 3.890625 28.1875 7.78125 32.0625 9.71875 C 35.953125 12.3125 40.171875 12.3125 44.375 12.953125 C 46.328125 13.28125 48.59375 13.609375 50.859375 13.609375 Z M 100.75 -5.1875 C 101.390625 -5.1875 103.65625 -6.484375 104.3125 -6.796875 C 106.90625 -7.453125 109.484375 -8.09375 112.078125 -9.0625 C 115 -9.71875 117.90625 -10.6875 120.5 -11.984375 C 123.09375 -13.28125 125.359375 -15.21875 127.953125 -17.171875 C 129.90625 -18.78125 131.84375 -20.40625 133.78125 -22.03125 C 136.375 -23.640625 138 -26.234375 139.9375 -28.5 C 140.59375 -29.15625 142.203125 -30.78125 143.1875 -32.390625 C 144.15625 -33.359375 145.125 -34.65625 145.125 -35.640625 C 144.796875 -36.28125 144.796875 -36.28125 144.15625 -36.28125 C 142.859375 -36.28125 140.265625 -33.359375 139.9375 -33.046875 C 137.34375 -30.78125 134.765625 -29.15625 132.171875 -27.53125 C 129.578125 -25.921875 127.3125 -23.96875 124.71875 -22.359375 C 124.390625 -22.03125 122.765625 -21.375 122.765625 -20.734375 C 122.765625 -20.078125 124.0625 -20.078125 124.71875 -20.078125 C 125.046875 -20.078125 125.046875 -20.078125 125.359375 -20.078125 C 125.6875 -20.078125 126.65625 -21.703125 127.3125 -21.703125 C 127.953125 -21.703125 127.953125 -21.375 127.953125 -21.0625 C 127.953125 -20.734375 127.3125 -19.765625 127.3125 -19.4375 C 126.015625 -17.8125 123.421875 -16.84375 121.796875 -16.203125 C 119.203125 -14.90625 116.625 -13.921875 114.34375 -12.640625 C 111.4375 -11.015625 108.84375 -10.6875 105.921875 -9.0625 C 104.953125 -8.75 103.984375 -7.78125 103.015625 -7.453125 C 102.6875 -7.125 102.046875 -7.125 101.390625 -6.796875 C 100.75 -6.484375 100.421875 -5.828125 100.421875 -5.5 C 100.421875 -5.5 100.421875 -5.1875 100.75 -5.1875 Z M 100.75 -5.1875 "/></g></g></g></svg>