<svg xmlns="http://www.w3.org/2000/svg" xmlns:xlink="http://www.w3.org/1999/xlink" width="500" zoomAndPan="magnify" viewBox="0 0 375 374.999991" height="500" preserveAspectRatio="xMidYMid meet" version="1.0"><defs><g/></defs><g fill="#38b6ff" fill-opacity="1"><g transform="translate(-1.255424, 276.932643)"><g><path d="M 46.96875 -32.578125 C 46.96875 -28.078125 47.796875 -23.820312 49.453125 -19.8125 C 51.117188 -15.800781 53.421875 -12.328125 56.359375 -9.390625 C 59.296875 -6.453125 62.71875 -4.148438 66.625 -2.484375 C 70.539062 -0.828125 74.75 0 79.25 0 L 7.34375 0 C 11.644531 -0.582031 15.800781 -1.953125 19.8125 -4.109375 C 23.820312 -6.265625 27.585938 -8.957031 31.109375 -12.1875 C 34.640625 -15.414062 37.773438 -18.984375 40.515625 -22.890625 C 43.253906 -26.804688 45.40625 -30.820312 46.96875 -34.9375 Z M 103.328125 0 C 107.441406 0 110.960938 -1.710938 113.890625 -5.140625 C 116.828125 -8.566406 118.296875 -12.429688 118.296875 -16.734375 C 118.296875 -17.515625 118.296875 -18.296875 118.296875 -19.078125 C 118.296875 -19.859375 118.101562 -20.640625 117.71875 -21.421875 L 109.203125 -46.09375 L 108.609375 -47.84375 L 87.765625 -108.03125 C 86.398438 -111.351562 83.957031 -113.015625 80.4375 -113.015625 C 77.101562 -113.015625 74.753906 -111.351562 73.390625 -108.03125 L 108.609375 -205.484375 L 141.203125 -111.84375 C 142.566406 -107.925781 144.128906 -103.273438 145.890625 -97.890625 C 147.648438 -92.515625 149.21875 -87.867188 150.59375 -83.953125 L 174.65625 -15.265625 C 176.03125 -11.347656 178.425781 -7.820312 181.84375 -4.6875 C 185.269531 -1.5625 189.234375 0 193.734375 0 Z M 103.328125 0 "/></g></g></g><g fill="#5271ff" fill-opacity="1"><g transform="translate(182.6996, 276.932643)"><g><path d="M 132.6875 -186.984375 C 132.6875 -189.921875 131.851562 -192.460938 130.1875 -194.609375 C 128.519531 -196.765625 126.414062 -198.578125 123.875 -200.046875 C 121.332031 -201.515625 118.539062 -202.640625 115.5 -203.421875 C 112.46875 -204.210938 109.582031 -204.800781 106.84375 -205.1875 C 113.894531 -204.601562 120.742188 -203.1875 127.390625 -200.9375 C 134.046875 -198.6875 140.210938 -195.847656 145.890625 -192.421875 C 151.566406 -188.992188 156.601562 -185.125 161 -180.8125 C 165.40625 -176.507812 169.078125 -172.109375 172.015625 -167.609375 C 173.972656 -164.285156 175.488281 -161.007812 176.5625 -157.78125 C 177.644531 -154.550781 178.1875 -151.367188 178.1875 -148.234375 C 178.1875 -143.929688 177.351562 -139.867188 175.6875 -136.046875 C 174.019531 -132.234375 171.769531 -128.910156 168.9375 -126.078125 C 166.101562 -123.242188 162.773438 -120.992188 158.953125 -119.328125 C 155.140625 -117.660156 151.082031 -116.828125 146.78125 -116.828125 C 142.46875 -116.828125 138.398438 -117.660156 134.578125 -119.328125 C 130.765625 -120.992188 127.441406 -123.242188 124.609375 -126.078125 C 121.773438 -128.910156 119.523438 -132.234375 117.859375 -136.046875 C 116.191406 -139.867188 115.359375 -143.929688 115.359375 -148.234375 C 115.359375 -153.128906 116.238281 -157.191406 118 -160.421875 C 119.757812 -163.648438 121.664062 -166.582031 123.71875 -169.21875 C 125.78125 -171.863281 127.738281 -174.507812 129.59375 -177.15625 C 131.457031 -179.800781 132.488281 -183.078125 132.6875 -186.984375 Z M 132.984375 -27 C 141.203125 -27 149.320312 -28.8125 157.34375 -32.4375 C 165.363281 -36.0625 172.3125 -41.296875 178.1875 -48.140625 C 169.96875 -33.460938 159.003906 -21.769531 145.296875 -13.0625 C 131.597656 -4.351562 116.4375 0 99.8125 0 C 87.082031 0 75.09375 -2.6875 63.84375 -8.0625 C 52.59375 -13.445312 42.757812 -20.785156 34.34375 -30.078125 C 25.925781 -39.378906 19.320312 -50.289062 14.53125 -62.8125 C 9.738281 -75.34375 7.34375 -88.648438 7.34375 -102.734375 C 7.34375 -116.828125 9.738281 -130.132812 14.53125 -142.65625 C 19.320312 -155.1875 25.925781 -166.097656 34.34375 -175.390625 C 42.757812 -184.691406 52.59375 -192.03125 63.84375 -197.40625 C 75.09375 -202.789062 87.082031 -205.484375 99.8125 -205.484375 C 95.5 -205.484375 91.238281 -203.28125 87.03125 -198.875 C 82.820312 -194.46875 79.003906 -188.59375 75.578125 -181.25 C 72.160156 -173.914062 69.421875 -165.304688 67.359375 -155.421875 C 65.304688 -145.546875 64.28125 -135.226562 64.28125 -124.46875 C 64.28125 -110.957031 66.085938 -98.28125 69.703125 -86.4375 C 73.328125 -74.601562 78.222656 -64.28125 84.390625 -55.46875 C 90.554688 -46.664062 97.847656 -39.71875 106.265625 -34.625 C 114.679688 -29.539062 123.585938 -27 132.984375 -27 Z M 132.984375 -27 "/></g></g></g></svg>